<?xml version="1.0" encoding="UTF-8" standalone="no"?>
<!DOCTYPE svg  PUBLIC '-//W3C//DTD SVG 1.1//EN'  'http://www.w3.org/Graphics/SVG/1.1/DTD/svg11.dtd'>
<svg xmlns="http://www.w3.org/2000/svg">
<defs>
<font id="BlockBE-Condensed" horiz-adv-x="458">
<font-face underline-position="-50" font-weight="400" descent="-200" panose-1="2 0 5 6 3 0 0 2 0 4" units-per-em="1000" unicode-range="U+0020-2122" bbox="-61 -171 918 930" x-height="547" underline-thickness="50" font-family="BlockBE" ascent="800" cap-height="708"/>
<missing-glyph horiz-adv-x="1000"/>
<glyph glyph-name=".notdef" horiz-adv-x="1000"/>
<glyph glyph-name=".null" horiz-adv-x="0"/>
<glyph glyph-name="nonmarkingreturn" horiz-adv-x="1000"/>
<glyph glyph-name="space" horiz-adv-x="271" unicode=" "/>
<glyph glyph-name="space" horiz-adv-x="271" unicode=" "/>
<glyph glyph-name="exclam" horiz-adv-x="271" unicode="!" d="M50 143q0 19 11.5 28t26.5 9h36t36 -1q3 0 13 0.5t13 0.5q9 0 22 -7t13 -30q0 -14 0.5 -33t0.5 -33v-39q-1 -23 -12 -31t-25 -8h-9.5t-14.5 0.5t-15 0.5h-10q-11 0 -22 -1t-22 -1q-15 0 -23 3.5t-12 9.5t-5 14t-1 18v11.5t0.5 18t0.5 18v11.5q0 2 -0.5 8t-0.5 12.5 t-0.5 12t-0.5 8.5zM138 707q13 0 30 1.5t29 1.5t22.5 -8.5t10.5 -31.5v-7t-2 -16q-2 -19 -2.5 -42.5t-1.5 -47.5t-1.5 -47.5t-1.5 -42.5q-1 -3 -1.5 -18.5t-2.5 -32.5l-4 -46q-2 -11 -3 -21.5t-3 -21.5q0 -6 -1 -17l-2 -22t-1.5 -20t-0.5 -10v-8t-2 -8q-6 -11 -14 -13 t-11 -2q-9 0 -13 1q-5 0 -18.5 0.5t-19.5 0.5q-2 0 -10 -1t-10 -1l-4 1q-4 0 -9 2.5t-9 8t-4 15.5q0 7 -1 18.5t-2 22.5t-2 19.5t-1 10.5q-2 20 -5 41t-5 41q-2 16 -2 31.5t-1 31.5q-2 14 -3 27t-2 27q0 1 -1 20t-2 43t-2 46.5t-1 31.5q0 5 1 14t8 17q8 10 18 11.5t25 0.5h6 q6 0 12.5 -0.5t12.5 -0.5h7z"/>
<glyph glyph-name="quotedbl" horiz-adv-x="375" unicode='&quot;' d="M96 408h-31l-55 250q-2 8 -2 15v8q0 19 7.5 32t18.5 21t24 11.5t25 3.5q9 0 21 -3t22.5 -10t17.5 -19.5t7 -31.5v-7t-2 -9zM304 408h-31l-55 250q-2 8 -2 15v8q0 19 7.5 32t18.5 21t24 11.5t25 3.5q9 0 21 -3t22.5 -10t17.5 -19.5t7 -31.5v-7t-2 -9z"/>
<glyph glyph-name="dollar" horiz-adv-x="417" unicode="$" d="M163 749q0 13 2.5 24t18.5 11q3 0 16 -0.5t17 -0.5q2 0 7.5 0.5t7.5 0.5q3 0 10 -3.5t7 -18.5v-21q0 -2 -0.5 -8t-0.5 -8t2 -7.5t12 -5.5q2 0 6 0.5t6 0.5q33 0 53.5 -3.5t31 -9.5t14 -14t3.5 -17q0 -3 -0.5 -10t-1 -15t-1 -15.5t-0.5 -10.5v-9.5t0.5 -14t0.5 -14v-9.5 q0 -17 -7 -30.5t-33 -13.5h-4q-11 1 -22 5.5t-22 7.5q-15 3 -31 3q-5 0 -12.5 -0.5t-15 -4t-13 -11t-5.5 -21.5q0 -15 10 -30q6 -9 19.5 -21.5t24.5 -23.5q5 -5 11 -10.5t11 -10.5q3 -3 6 -5.5t5 -4.5l8 -8l8 -8q53 -48 71.5 -88t18.5 -83q0 -8 -0.5 -16t-0.5 -16 q-2 -28 -4.5 -49t-13.5 -42q-11 -22 -26.5 -38t-32 -26.5t-31 -16.5t-21.5 -8q-8 -2 -16.5 -6.5t-8.5 -14.5q0 -3 0.5 -11t0.5 -17t0.5 -17t0.5 -11q0 -4 -4 -11.5t-21 -8.5h-40q-8 0 -14 4.5t-6 17.5q0 22 -1 35t-4 19.5t-8 8t-14 1.5q-6 0 -11.5 0.5t-10.5 1.5 q-47 6 -76 14.5t-29 37.5q0 4 0.5 14t1.5 21t1.5 21.5t0.5 14.5q0 2 -0.5 8t-0.5 12.5t-0.5 12.5t-0.5 9q0 41 37 41q7 0 16.5 -2t17.5 -8q5 -5 10.5 -10t10.5 -8q8 -6 25 -8.5t28 -2.5q4 0 13 0.5t18.5 4.5t16.5 11.5t7 21.5t-9.5 27t-26.5 29q-8 7 -13.5 12t-9.5 9 q-3 3 -9.5 10t-14 14.5t-14 14.5t-9.5 10q-21 20 -40.5 41t-30.5 49q-5 12 -7.5 22t-4 20.5t-1.5 23.5v31q0 32 5 56t10 37q3 10 6 16t14 23q11 18 25.5 29t27.5 18t22 10t11 3q7 1 13.5 4t6.5 13v30z"/>
<glyph glyph-name="percent" horiz-adv-x="750" unicode="%" d="M170 9q0 3 4.5 13.5t6.5 14.5q2 5 8.5 18.5t13.5 28.5t13.5 28l9.5 19q3 7 10.5 25t16.5 38.5t17 39t11 26.5l15.5 31t15.5 30q11 24 20 48t20 47q8 19 17 37l18 36q15 31 28.5 62t27.5 62q5 13 11 25t11 24q11 22 16 28.5t19 6.5q4 0 7.5 -0.5t7.5 -0.5q6 -1 13 -1.5 t14 -0.5q3 0 15 0.5t15 0.5q11 0 13 -5t2 -6q0 -3 -5 -15t-7 -15q-5 -13 -12.5 -25.5t-14.5 -25.5q-3 -6 -10.5 -23t-15 -35.5t-15 -35.5t-10.5 -24q-11 -25 -23.5 -49.5t-23.5 -49.5q-12 -27 -22.5 -53.5t-22.5 -53.5l-12 -24t-12 -25q-9 -18 -23 -48t-28 -62.5t-26.5 -61 t-18.5 -42.5q-3 -8 -8 -12t-23 -4q-2 0 -8 0.5t-12.5 0.5t-12.5 0.5t-9 0.5t-14 -1t-14 -1q-6 0 -10 3t-4 6zM614 278q0 15 -0.5 23.5t-1.5 15.5q-3 13 -10 15t-8 2q-2 0 -8.5 -2.5t-9.5 -13.5q-2 -6 -2.5 -10.5t-1 -11.5t-0.5 -17v-27v-19t-0.5 -29.5t-0.5 -29.5v-20 q0 -29 5.5 -38.5t15.5 -9.5q13 0 17.5 13.5t4.5 39.5v119zM456 237q0 14 1.5 26.5t2.5 26.5q1 16 2 26.5t2.5 18t3.5 14.5t5 16q5 13 13.5 27.5t23 27.5t35.5 21.5t52 8.5q40 0 61 -13.5t30 -21.5q12 -14 18 -27t8 -19q14 -42 17 -81.5t3 -84.5q0 -3 -0.5 -21.5t-3.5 -42.5 t-9 -49.5t-17 -41.5q-5 -8 -13.5 -18t-21.5 -18t-32.5 -13.5t-46.5 -5.5q-12 0 -33 4t-47 22q-12 9 -21 22t-14 27q-4 9 -7 23t-5 29t-3.5 29.5t-1.5 25.5q0 2 -0.5 11.5t-0.5 20t-0.5 19.5t-0.5 11zM175 537q0 30 -5 41t-16 11q-1 0 -9.5 -3t-10.5 -20q-1 -6 -1.5 -17.5 t-1 -24t-0.5 -25v-19.5q0 -5 0.5 -20t0.5 -20q0 -3 -0.5 -14.5t-0.5 -15.5q0 -26 4.5 -38t17.5 -12q17 0 19.5 20t2.5 55v102zM16 495q0 4 1 17.5t2 30t2.5 31.5t3.5 23q3 14 10.5 30t18 30t24.5 25t31 16q3 1 20 4t31 3q26 0 45 -8t27 -14q23 -17 35.5 -43t18.5 -64 q6 -36 7 -65t1 -67q0 -9 -1 -19.5t-5 -38.5q-2 -13 -2.5 -21t-1.5 -14t-2.5 -11.5t-4.5 -12.5q-12 -35 -43.5 -57.5t-82.5 -22.5q-24 0 -47 8t-41 24q-5 4 -12.5 14t-15.5 30q-7 18 -10.5 45t-5.5 53t-2.5 47t-0.5 27z"/>
<glyph glyph-name="ampersand" horiz-adv-x="542" unicode="&amp;" d="M208 274q-8 -5 -12 -9q-5 -6 -11 -17.5t-6 -27.5q0 -6 2 -17t8.5 -21.5t19 -18.5t33.5 -8q10 0 25 4q-1 2 -1.5 3.5t-1.5 3.5q-2 2 -6.5 10.5t-6.5 11.5q-11 20 -17 32l-9.5 19l-5.5 11t-3 7q-4 8 -5 10.5t-3 6.5zM261 494q9 8 22.5 23t13.5 38q0 18 -11.5 24.5 t-17.5 6.5q-10 0 -19 -10t-9 -27q0 -13 6 -29.5t15 -25.5zM379 278q4 5 10.5 15t6.5 27v5q0 2 -0.5 6.5t-0.5 6.5q0 10 6.5 18t20.5 8q3 0 5.5 -0.5t5.5 -0.5q11 -2 24.5 -2h14.5q3 0 14.5 1t14.5 1q7 0 16.5 -5t9.5 -19q0 -7 -3 -36t-13 -64q-9 -30 -17 -44.5t-17 -28.5 q-4 -5 -10.5 -16.5t-6.5 -16.5q0 -4 2.5 -8.5t15.5 -26.5q16 -28 28.5 -51t12.5 -30q0 -10 -8 -13t-16 -3q-3 0 -11 0.5t-17.5 1t-18 1t-11.5 0.5q-11 0 -21 -0.5t-21 -0.5q-2 0 -10.5 -0.5t-9.5 -0.5q-3 0 -5 1t-5 4t-7.5 9t-12.5 17q-23 -13 -55 -26t-77 -13 q-44 0 -67.5 11t-36.5 19q-32 22 -45.5 42.5t-21.5 37.5q-6 13 -11 24t-8.5 23t-5 26t-1.5 34q0 21 1.5 38t5 32t10.5 29.5t18 29.5q8 11 22 26t31 28l8 6l8 6q8 7 14 13.5t6 14.5q0 4 -3 10.5t-6 12.5l-5 10t-8 20.5t-7.5 28.5t-3.5 34q0 8 1 21.5t5 29t11.5 32.5t19.5 32 q20 23 53 37.5t62 14.5q21 0 43 -2.5t48 -16.5q12 -7 25 -18.5t24 -28t18 -38t7 -48.5q0 -5 -1 -17.5t-4 -28.5t-8.5 -34.5t-15.5 -35.5q-20 -34 -52 -66q-13 -16 -13 -21q0 -2 2.5 -7t4.5 -10q5 -8 14.5 -23t27.5 -44z"/>
<glyph glyph-name="quotesingle" horiz-adv-x="208" unicode="&apos;" d="M121 408h-31l-55 250q-2 8 -2 15v8q0 19 7.5 32t18.5 21t24 11.5t25 3.5q9 0 21 -3t22.5 -10t17.5 -19.5t7 -31.5v-7t-2 -9z"/>
<glyph glyph-name="parenleft" horiz-adv-x="271" unicode="(" d="M9 336q0 15 0.5 25l1 20t2 21.5t4.5 29.5q2 15 3 24.5t2.5 16.5t4 13.5t5.5 15.5q10 28 15.5 42.5t16.5 31.5q2 3 8.5 12.5t13.5 20t13 19t6 9.5q14 19 31.5 32.5t35 22.5t32 13t22.5 4q10 0 16 -5.5t6 -13.5q0 -2 -1 -9.5t-1 -9.5t-0.5 -8.5t-0.5 -13.5t-0.5 -13.5 t-0.5 -9.5q0 -11 0.5 -28t2.5 -28q1 -11 1 -14v-5q0 -5 -2 -11l-4 -6t-12 -14q-17 -19 -25.5 -48t-13.5 -58q0 -2 -1.5 -15.5t-3 -29t-2.5 -29t-1 -16.5v-10.5t1 -10.5q1 -6 2 -11.5t2 -11.5q0 -5 0.5 -8.5t0.5 -8.5q0 -2 1.5 -14t3.5 -25.5t3.5 -25.5t1.5 -13 q4 -23 15 -48.5t23 -38.5q11 -10 13 -13t2 -11q0 -3 -0.5 -11.5t-1.5 -18t-1.5 -18t-0.5 -11.5q0 -17 0.5 -28.5t1.5 -21.5q0 -2 1 -10t1 -10q0 -5 -4.5 -11.5t-12.5 -6.5q-4 0 -13 1.5t-19.5 4t-22.5 6.5t-22 9q-36 19 -52.5 40.5t-30.5 48.5q-2 5 -4.5 9t-5.5 9 q-8 12 -12.5 19t-7.5 14t-5.5 15.5t-6.5 22.5q-2 8 -3.5 16t-3.5 16q0 3 -2.5 17t-4.5 30.5t-4.5 30.5t-2.5 17q-3 33 -3 65v18z"/>
<glyph glyph-name="parenright" horiz-adv-x="271" unicode=")" d="M18 689q0 14 7 17t13 3q8 0 21 -3t18 -5q23 -6 39.5 -15t37.5 -29q12 -11 19 -22.5t20 -33.5q1 -2 4 -7t6.5 -10.5t6.5 -10.5t5 -7q7 -12 12.5 -27.5t9 -29.5t5.5 -25t2 -13q1 -5 2.5 -17.5t4 -27t4 -27t2.5 -16.5q3 -32 3 -63q0 -24 -1 -48t-4 -48q0 -4 -1.5 -14 t-3.5 -20.5t-3.5 -19.5t-2.5 -12q-1 -6 -5 -18.5t-9.5 -27.5t-12.5 -29.5t-13 -23.5q-5 -9 -13 -20.5t-14 -19.5q-8 -13 -18.5 -25t-22.5 -23q-23 -21 -51.5 -32.5t-42.5 -11.5q-12 0 -17 7.5t-5 13.5q0 1 0.5 8t1.5 9q2 14 2 25.5v18.5q0 13 -0.5 25.5t-1.5 25.5q0 3 -1 13 t-1 13q0 8 3.5 12.5t14.5 18.5q17 19 25.5 44.5t14.5 55.5q0 2 1 15.5t2.5 30.5t3 32.5t1.5 21.5q0 5 -0.5 11.5t-3.5 27.5q-1 5 -2.5 18.5t-3 29t-3.5 29.5t-3 20t-4 16t-7.5 22t-11 24.5t-15.5 21.5q-11 11 -13 14.5t-2 12.5q0 3 0.5 12.5t1.5 20t1.5 20.5t0.5 14v6v13 t-0.5 13t-0.5 8q-1 5 -1.5 9t-0.5 9z"/>
<glyph glyph-name="asterisk" horiz-adv-x="313" unicode="*" d="M186 463q1 -4 3.5 -17t2.5 -14q0 -8 -5.5 -13t-9.5 -7t-9.5 -2.5t-20.5 -0.5q-13 0 -20.5 6t-7.5 15q0 1 1 10t2.5 21.5t3 26t2.5 23.5q-9 -5 -14.5 -9t-22.5 -16q-11 -8 -18 -13t-11.5 -7t-7 -2.5t-5.5 -0.5q-8 0 -12.5 4.5t-7.5 9.5l-2 5q-2 4 -5 9.5t-5 11t-2 8.5 q0 7 6 13q2 2 12.5 6.5t23.5 9t25 9t17 6.5l-6 3q-9 5 -19 8.5t-21 8.5q-27 11 -33.5 16.5t-6.5 13.5q0 2 3 9.5t7.5 16t11 15t13.5 6.5q5 0 17.5 -8t22.5 -15q15 -11 22 -16t17 -10v10.5t-2 16.5q-1 7 -1 13.5t-1 13.5q0 3 -1 14.5t-1 15.5q0 11 8 16t19 5q14 0 29 -3 t15 -20q-2 -19 -5 -36q-2 -14 -4 -27t-2 -18q10 7 17 12t13 9t12.5 8.5t17.5 12.5q5 4 9.5 6.5t9.5 2.5q10 0 16 -8t14 -25q5 -8 5 -15q0 -10 -6.5 -14.5t-13.5 -7.5q-19 -8 -32.5 -14.5t-32.5 -14.5q2 -2 8.5 -4.5t13.5 -6t13.5 -6.5t9.5 -4q18 -8 27 -13.5t9 -14.5 q0 -5 -3.5 -13.5t-9 -16.5t-12 -14t-13.5 -6q-5 0 -8.5 2.5l-10.5 7.5q-5 4 -8.5 6.5t-8.5 6.5q-2 1 -7.5 5t-11.5 8.5t-11.5 8.5t-7.5 6z"/>
<glyph glyph-name="comma" horiz-adv-x="208" unicode="," d="M88 179h10.5t16.5 0.5t16.5 0.5h10.5q5 0 16 -1t20 -9q3 -3 5.5 -6t3.5 -9.5t1.5 -18.5t0.5 -32v-9t-0.5 -12.5t-0.5 -12.5v-9v-27q0 -7 -0.5 -13.5t-3 -15.5t-8 -21.5t-15.5 -30.5q-11 -18 -13.5 -23t-7.5 -8q-5 -5 -14.5 -6t-44.5 -1h-17q-8 0 -13 5t-5 10q0 2 1 4t5 9 q8 11 9 20t1 13q0 12 -4.5 17.5t-8.5 7.5t-8 2t-8 2q-3 2 -7 7.5t-4 13.5q0 2 0.5 10t0.5 10q0 3 -1 14t-1 15t0.5 16.5t0.5 17.5q0 4 -0.5 16.5t-0.5 16.5q0 21 13 29.5t25 8.5q3 0 14 -0.5t15 -0.5z"/>
<glyph glyph-name="hyphen" horiz-adv-x="250" unicode="-" d="M163 346q4 0 15 1.5t15 1.5h16q10 0 17 -5.5t7 -14.5q0 -2 -0.5 -10t-0.5 -11v-74q0 -17 -9.5 -21.5t-17.5 -4.5h-26q-4 0 -13.5 1t-20 1.5t-20.5 1t-14 0.5h-10q-5 -1 -10 -1.5t-10 -1.5t-8.5 -1h-11.5q-2 0 -10.5 -0.5t-11.5 -0.5q-5 0 -13 5t-8 21q0 10 0.5 22.5 t0.5 22.5v8.5t-0.5 13.5t-0.5 13.5v9.5q0 11 5.5 18t14.5 7q1 0 9 -0.5t18 -1t19.5 -1t13.5 -0.5q2 0 8 0.5t12.5 1t12.5 1t9 0.5q2 0 11.5 -1t11.5 -1z"/>
<glyph glyph-name="period" horiz-adv-x="208" unicode="." d="M18 140q0 17 7.5 24.5l9.5 9.5q7 5 12.5 5.5t9.5 0.5q8 0 22 -1h14h21.5h22h14.5q14 0 25.5 -7.5t11.5 -25.5v-13.5t-0.5 -21t-0.5 -21.5v-14t0.5 -15t0.5 -15q0 -42 -29 -45q-3 0 -11 -0.5t-17 -0.5h-17h-12h-11h-14.5t-14.5 0.5t-11 0.5q-20 2 -26.5 12.5t-6.5 21.5 q0 3 0.5 14t0.5 14t-0.5 9.5t-0.5 14v14v9.5v30z"/>
<glyph glyph-name="slash" horiz-adv-x="354" unicode="/" d="M4 22q0 4 4 20t9 35.5t9.5 37t6.5 24.5q2 5 2.5 10t2.5 10q4 13 9 25.5t10 24.5q10 28 15 55t13 55q7 21 15.5 42t15.5 43q7 19 11.5 37.5t9.5 37.5q5 16 10 29q1 3 3.5 12.5t5.5 20t6 19.5t4 13q4 10 7.5 19.5t6.5 19.5q3 11 5.5 21.5t4.5 21.5q6 26 14.5 38t31.5 12 q12 0 23.5 0.5t23.5 0.5q35 0 49.5 -3t14.5 -20q0 -6 -3 -17t-5 -18q-5 -15 -10.5 -30.5t-10.5 -30.5q-3 -10 -6 -19.5t-5 -19.5q-2 -12 -4.5 -24t-5.5 -24q-2 -6 -7 -21.5t-11 -33t-11 -33.5t-7 -23q-4 -14 -7 -28t-8 -28q-5 -17 -12 -33t-12 -33q-4 -14 -6 -26.5t-6 -26.5 q-1 -2 -4 -13t-6.5 -23t-5.5 -22l-3 -11q-2 -6 -5 -12.5t-5 -12.5q-9 -28 -15 -55l-4 -18t-4 -17q-7 -29 -25 -29h-106q-12 0 -17.5 7t-5.5 14z"/>
<glyph glyph-name="zero" horiz-adv-x="500" unicode="0" d="M287 343q0 5 0.5 18t0.5 27.5t0.5 27.5t0.5 18q0 61 -10.5 83.5t-30.5 22.5q-5 0 -11.5 -2.5t-13.5 -13.5q-10 -14 -13.5 -38.5t-3.5 -48.5q0 -9 0.5 -18t0.5 -18q0 -5 -1 -19.5t-1 -19.5q0 -4 0.5 -15.5t0.5 -15.5v-9t-1 -13q-1 -9 -1 -25.5v-26.5q0 -31 5 -53t12 -30 t13 -9.5t12 -1.5q7 0 12 2t11 10q10 14 13.5 39.5t4.5 49.5v79zM30 376q0 12 1.5 36.5t3.5 51t5 50t5 33.5q1 4 6 20.5t16 38t29 44t44 39.5q16 10 34.5 15.5t35 8t28.5 3t15 0.5q26 0 62 -8t63 -31q12 -11 25.5 -26t25.5 -42.5t21.5 -71t14.5 -110.5q1 -10 1.5 -18t0.5 -20 v-30.5v-49.5q0 -20 -1.5 -36t-4.5 -41q-6 -48 -12.5 -82t-23.5 -64q-18 -32 -41.5 -50.5t-48 -28t-48.5 -12t-43 -2.5q-38 0 -68.5 9t-57.5 29q-19 13 -36.5 35.5t-29.5 69.5q-4 14 -7 31.5t-5.5 35t-4 31.5t-1.5 22q-2 13 -2 25q0 3 0.5 7.5t0.5 9.5q0 10 -1 21 q-1 14 -1.5 28.5t-0.5 28.5z"/>
<glyph glyph-name="one" horiz-adv-x="500" unicode="1" d="M212 364l3 27q0 5 -0.5 18.5t-0.5 18.5q0 4 0.5 17.5t0.5 18.5q0 14 -1 25t-8 11q-2 0 -8 -5t-13 -12t-13.5 -13t-9.5 -9q-10 -12 -16.5 -18t-12.5 -6q-3 0 -8 2.5t-10 4.5q-2 2 -8 6.5t-13 10t-13 9.5l-9 6q-5 3 -11 8t-6 16q0 5 2 8.5t5 8.5q3 4 7.5 7.5t18.5 17.5 q13 11 23 22.5t20 22.5q4 4 10.5 11t14 14.5t14 14.5t11.5 11q7 6 11 9.5t7 6t5.5 5.5t7.5 8q21 23 29 29.5t22 6.5q5 0 8.5 -0.5t8.5 -1.5q8 -1 19 -1.5t28 -0.5h12t12 1q10 2 15 2q7 0 13.5 -2.5t10.5 -11.5q2 -4 2.5 -11t0.5 -33q0 -4 -0.5 -15t-0.5 -23t-0.5 -23.5 t-0.5 -15.5q0 -3 -0.5 -10.5t-0.5 -15.5t-0.5 -15.5t-0.5 -10.5q-1 -8 -0.5 -21.5t1.5 -25.5v-10t-0.5 -15.5t-0.5 -16v-10.5q0 -4 1 -17t1 -18t-0.5 -16.5t-0.5 -25t-0.5 -26t-0.5 -17.5q0 -4 0.5 -17.5t0.5 -17.5q0 -9 -0.5 -18t-1.5 -18q-1 -15 -1 -38.5v-37.5 q0 -6 0.5 -22.5t1.5 -34.5t1.5 -34.5t0.5 -23.5q0 -13 -5 -20t-11.5 -10t-14 -3.5t-11.5 -0.5q-3 0 -12 0.5t-18.5 1.5t-18.5 1.5t-13 0.5q-3 0 -9.5 -0.5t-14 -1t-14 -1t-9.5 -0.5q-2 0 -7.5 0.5t-11.5 3.5t-11 9.5t-5 18.5q0 5 1.5 21t3.5 38q3 27 3 56q0 4 -0.5 16t-1 25 t-1 25t-0.5 17q0 18 1 36t1 36v61z"/>
<glyph glyph-name="two" horiz-adv-x="479" unicode="2" d="M331 150q4 0 17.5 -0.5t18.5 -0.5q3 0 10 0.5t15 0.5t15.5 0.5t10.5 0.5t7.5 -0.5t9 -2.5t8 -7t3.5 -14q0 -5 -0.5 -20.5t-0.5 -20.5v-54q0 -12 -2 -16q-6 -16 -25 -16q-5 0 -16.5 0.5t-24.5 1t-24.5 1t-16.5 0.5q-23 0 -44.5 -0.5t-44.5 -0.5h-16.5t-25 0.5t-25.5 0.5 h-17q-4 0 -15 -0.5t-23 -0.5t-23 -0.5t-15 -0.5q-3 0 -15 -0.5t-16 -0.5q-20 0 -24.5 11t-5.5 19v10t0.5 15.5t0.5 16v10.5v25q0 17 7 24.5t21 18.5q6 4 20 17t29.5 28.5t29 29.5t18.5 21q6 8 11 16.5t10 16.5q1 1 13 17l24 32q7 9 16.5 23t18.5 34t15 46.5t6 60.5 q0 32 -13.5 45t-31.5 13q-11 0 -19 -7t-13 -18t-7.5 -24t-2.5 -24q0 -4 1.5 -17t1.5 -18q0 -9 -6 -19t-26 -12h-7.5t-11.5 0.5t-11.5 0.5h-8.5h-10t-14.5 -0.5t-14.5 -0.5h-10q-12 0 -18.5 4.5t-9 11.5t-2.5 16v17v43q0 29 6.5 66.5t27.5 67.5q22 31 46 41.5t42 15.5 q27 8 43.5 10t39.5 2t33 -0.5t18 -2.5q1 0 10 -2.5t22 -7.5t27 -11.5t25 -14.5q28 -21 40 -42t18 -36q8 -20 13 -38.5t5 -47.5q0 -10 -1 -23.5l-2 -27t-2 -24.5t-2 -14q-3 -17 -11.5 -40t-20.5 -44q-5 -8 -9 -14.5t-9 -14.5q-4 -6 -7 -13t-7 -13q-5 -8 -10.5 -16.5 t-11.5 -16.5q-27 -35 -49 -55t-45 -37h70z"/>
<glyph glyph-name="three" d="M170 437q4 0 16.5 0.5t23.5 5.5q20 9 26.5 27t6.5 28q0 7 -2.5 15.5t-8 15.5t-15 12t-24.5 5q-14 0 -25.5 -5t-19.5 -11t-13.5 -11.5t-6.5 -7.5q-2 -4 -4.5 -7t-4.5 -7q-10 -12 -22 -12q-10 0 -16 6t-13 16q-2 2 -6 7t-8.5 10.5t-8.5 10.5t-5 7q-3 4 -5.5 7.5t-5.5 7.5 q-4 5 -8 9.5t-7 9.5q-3 6 -3 12q0 11 8 21.5t18 19.5t23 20.5t22 19.5q14 12 29 21t29 14q11 4 36.5 8.5t45.5 4.5q23 0 39.5 -4t34.5 -10q7 -2 17 -6t20.5 -10t21.5 -15.5t20 -23.5q28 -42 32.5 -71.5t4.5 -41.5q0 -28 -4.5 -47.5t-11 -33.5t-14.5 -23.5t-14 -15.5 q-11 -11 -13.5 -15.5t-2.5 -11.5t4 -14q4 -5 8.5 -8.5t9.5 -8.5q12 -10 18.5 -18t9.5 -11q23 -34 27 -59t4 -55q0 -29 -3.5 -50t-11.5 -37.5t-20 -32t-29 -33.5q-11 -11 -19.5 -19t-19.5 -15t-26 -13t-37 -12l-20 -5t-16 -2.5t-17.5 -1t-24.5 -0.5q-24 0 -42.5 2.5t-34 8.5 t-30 15t-30.5 22q-7 5 -16 13.5t-17.5 18.5t-14 21t-5.5 23q0 8 3.5 15.5t20.5 28.5q17 22 27.5 34.5t17 19t11 8.5t10.5 2q8 0 13 -3.5t10 -8.5q4 -5 6.5 -8.5t5.5 -7.5q13 -14 28.5 -24.5t31.5 -10.5q32 0 52 21t20 53q0 4 -2.5 14t-10.5 20t-22.5 18t-38.5 8 q-2 0 -12.5 -1t-13.5 -1q-11 0 -17.5 8t-8.5 10q-1 3 -1 8v22q0 3 -0.5 12t-0.5 18.5t-0.5 18.5t-0.5 13q0 3 0.5 8.5t2.5 11t7.5 9.5t14.5 4h18z" unicode="3"/>
<glyph glyph-name="four" horiz-adv-x="479" unicode="4" d="M231 440q0 11 -1 16q0 2 -0.5 6t-5.5 4q-3 0 -9 -11t-12.5 -24.5t-11.5 -25.5t-6 -14l-3.5 -10.5t-3.5 -8t-5 -8.5t-7 -12q-3 -5 -5.5 -9.5t-4.5 -9.5l-2 -6l-2 -6q-2 -2 -6 -10t-4 -10q0 -6 6 -7t11 -1q3 0 10 -0.5t15 -0.5t15.5 -0.5t10.5 -0.5q8 0 11 4t4 6q2 3 2 6 v15q0 3 0.5 9t1.5 13t1.5 13t0.5 9v74zM169 151h-11.5t-18 0.5t-18 0.5h-11.5h-18.5t-18.5 -1q-2 0 -7 -0.5t-10.5 -0.5t-10 -0.5t-5.5 -0.5q-13 0 -16.5 10.5t-3.5 15.5q0 4 1.5 17t1.5 18t-1 20t-1 20q0 16 3 27t10 26q3 6 10 20.5t15.5 31t15.5 32t10 21.5q4 9 7.5 18 t7.5 19q3 6 9.5 18.5t13.5 25t12.5 23t6.5 12.5q8 14 13 21.5t10 17.5q10 19 16.5 31t10.5 19.5t7 12t7 9.5q8 9 12.5 17t11.5 21q11 20 18.5 25.5t20.5 5.5q3 0 10 -0.5t15 -0.5q8 -1 15 -1.5t10 -0.5t11 0.5t16 1.5q9 0 17 0.5t11 0.5q10 0 16.5 -1.5t10.5 -11.5 q1 -2 1.5 -7t0.5 -11v-11.5v-8.5v-9.5t-1 -9.5q0 -5 -0.5 -11t-1.5 -11t-1 -10.5v-10.5q0 -19 0.5 -45.5t0.5 -45.5v-10.5t-0.5 -15.5t-0.5 -15.5v-10.5t0.5 -10t0.5 -14.5t0.5 -14.5t0.5 -10t-0.5 -11.5t-1 -18.5t-1 -18.5t-0.5 -12.5q0 -11 1 -22.5t2 -22.5h38 q18 0 22.5 -9.5t4.5 -20.5q0 -4 -1 -17t-1 -18v-48q0 -5 -0.5 -11t-2.5 -10q-1 -2 -5 -5.5t-10 -3.5q-2 0 -15 0.5t-15 0.5t-6.5 -1t-6.5 -7q-2 -4 -3.5 -19.5t-1.5 -22.5q0 -3 0.5 -11t1 -17.5t1 -18t0.5 -12.5q0 -14 -1 -20t-4 -10q-1 -1 -7.5 -6t-17.5 -5q-7 0 -11 1 q-9 1 -18.5 1h-19.5q-29 0 -42 -0.5t-19 -0.5q-4 -1 -12 -1q-12 0 -20.5 5t-8.5 24q0 4 2 17.5t2 18.5v20v6q0 6 0.5 12t0.5 12v8q0 11 -5 18t-17 9h-34z"/>
<glyph glyph-name="five" d="M63 667q0 9 4.5 16.5t11 13t13.5 8t13 2.5q4 0 8 -0.5t8 -0.5t13.5 -0.5t21 -0.5h22h15.5q3 0 12.5 0.5t20 0.5t19.5 0.5t13 0.5h8t13 -0.5t13 -0.5h9h12.5h17.5t17 0.5t11 0.5q5 1 13 1q11 0 17 -4.5t8.5 -10.5t3 -12t0.5 -8q0 -4 -0.5 -17t-0.5 -17v-10.5t0.5 -16.5 t0.5 -16.5v-10.5q0 -9 -3 -22t-21 -13q-3 0 -12 0.5t-20 0.5t-21 0.5t-14 0.5h-57q-18 0 -27.5 -1t-14 -5t-5 -11.5t-0.5 -19.5q0 -10 7 -18.5t8 -9.5q2 0 9.5 0.5t9.5 0.5q19 0 37.5 -2.5t37.5 -10.5t37.5 -24.5t36.5 -44.5q8 -14 21.5 -39.5t17.5 -60.5q1 -8 1 -17v-17 q0 -3 1 -13.5t1 -14.5q0 -2 -1 -16.5t-3 -28.5q0 -2 -1.5 -8.5t-3 -13.5t-3 -13t-1.5 -7q-7 -29 -21 -51.5t-28.5 -39t-27 -26t-16.5 -12.5q-15 -10 -32 -16.5t-33 -10.5t-29.5 -5.5t-21.5 -1.5q-3 0 -12.5 0.5t-21.5 2t-25 3.5t-23 5t-23.5 9.5t-27.5 15.5t-27.5 20 t-23.5 23q-20 23 -23 34t-3 18q0 10 4 18q5 8 12.5 14t14.5 12l4 3q4 4 10 9t11.5 10.5l9.5 9.5q11 13 17 17.5t15 4.5q13 0 22 -12q3 -4 5 -7.5t4 -7.5q6 -9 15 -15q12 -9 22 -11t22 -2q28 0 45.5 19.5t17.5 53.5q0 18 -6.5 38.5t-23.5 34.5q-24 18 -73 18q-18 0 -32 -7 q-11 -6 -13 -7t-5 -1q-8 0 -17 6.5t-11 8.5q-8 7 -9.5 12t-0.5 20v15v9.5t1 9.5q0 5 0.5 21t0.5 33.5t0.5 31.5t0.5 15q0 3 -0.5 12t-0.5 18.5t-0.5 18.5t-0.5 13q0 2 1 13.5t1 12.5q1 8 1 15v15v50z" unicode="5"/>
<glyph glyph-name="six" horiz-adv-x="500" unicode="6" d="M253 325q-10 0 -21.5 -9t-13.5 -32q-1 -7 -1.5 -18t-0.5 -21.5v-18.5v-8q0 -27 4 -41t11 -23q7 -8 13.5 -10.5t12.5 -2.5q14 0 25 11.5t13 34.5l1 11v24q2 12 2 23v11q0 11 -1.5 23.5t-6.5 22.5t-13.5 16.5t-23.5 6.5zM372 560q-9 0 -17.5 -1t-16.5 -1q-14 -1 -22.5 -1.5 t-15 -2.5t-12.5 -5.5t-15 -9.5q-8 -5 -14.5 -10t-12 -12t-10.5 -16t-9 -22q-5 -14 -5.5 -20.5t0.5 -17.5q19 11 39.5 20.5t51.5 9.5q13 0 33 -5t41 -17t40 -32.5t31 -50.5q5 -14 8 -33.5t4.5 -37.5t2 -32.5t0.5 -19.5q0 -24 -3.5 -57.5t-14.5 -62.5q-5 -14 -18 -35.5 t-26 -33.5q-28 -28 -51 -37t-37 -12q-17 -4 -30 -6t-33 -2t-40 1.5t-34 7.5q-4 0 -20 7q-9 4 -19 8q-7 3 -13 6.5t-12 7.5q-53 36 -71 105t-18 169q0 42 1.5 65t4.5 41q1 9 2.5 17.5t3.5 17.5q1 10 4.5 24.5t8.5 30.5t10.5 31.5t11.5 26.5q14 27 47.5 62t91.5 59 q19 8 33.5 12.5t29 7t30.5 3t37 0.5h19q2 0 7 -0.5t11 -1.5t11.5 -1.5t8.5 -0.5q14 -1 26 -7t12 -31q0 -3 -0.5 -12t-1 -18.5t-1 -18.5t-0.5 -13q0 -3 1 -15t1 -16q0 -12 -9 -15.5t-13 -3.5q-5 0 -19.5 3t-19.5 4h-10z"/>
<glyph glyph-name="seven" horiz-adv-x="417" unicode="7" d="M40 701q2 0 8 -0.5t12.5 -1t12 -1t8.5 -0.5t11.5 0.5t18 0.5t18.5 0.5t13 0.5h60h10.5t16 0.5t16.5 0.5h11q14 0 27.5 -0.5t27.5 -0.5q3 0 11 0.5t17 0.5t17 0.5t11 0.5h13q2 0 6.5 0.5t6.5 0.5q6 0 9.5 -4t5 -9t1.5 -8l-1 -10v-42q0 -14 -3 -22.5t-10 -24.5 q-6 -14 -14 -34.5t-13 -43.5q-2 -10 -3.5 -16t-3 -11t-3.5 -10.5t-5 -14.5q-2 -6 -6 -22t-8.5 -34.5t-9 -35t-6.5 -23.5q-5 -17 -11 -34.5t-10 -34.5q-4 -14 -6 -28.5t-4 -28.5q-4 -18 -8 -36.5t-8 -36.5q-3 -15 -4 -31.5t-2 -31t-1 -26v-17.5q0 -9 -8 -20.5t-31 -11.5 q-4 0 -18.5 0.5t-19.5 0.5t-17 -0.5t-26 -0.5t-26.5 -0.5t-17.5 -0.5q-20 0 -28 14.5t-8 25.5q0 2 0.5 3t0.5 3q1 13 4.5 25.5t6.5 25.5q1 7 1.5 13.5t2.5 12.5q2 9 4.5 18t4.5 17t3 14.5t3 13.5q2 12 5 23.5t7 23.5l8 18t7 18q3 10 5.5 19.5t5.5 19.5q5 18 11.5 36t13.5 35 q2 3 5.5 14.5t4.5 14.5q3 8 7 15t6 15q1 4 1.5 8t2.5 8q4 13 8 23t12 24q2 5 3.5 9t3.5 9q0 2 2 9.5t2 9.5q0 5 -1.5 7.5t-8 4t-19.5 2t-35 0.5q-4 0 -14 -0.5t-21 -0.5t-21.5 -0.5t-14.5 -0.5q-3 0 -12.5 0.5t-13.5 0.5q-2 0 -10.5 -1t-10.5 -1q-16 0 -19 11.5t-3 25.5 q0 4 1 17t1 18q0 7 -0.5 13.5t-0.5 13.5v12q0 2 -0.5 8t-0.5 8q0 1 0.5 5t2.5 8.5t7 8t13 3.5z"/>
<glyph glyph-name="eight" horiz-adv-x="500" unicode="8" d="M248 297q-19 -14 -35 -33.5t-16 -57.5q0 -12 4 -24t12 -20q2 -2 11.5 -8.5t23.5 -6.5q6 0 14.5 2.5t16.5 10t13.5 20.5t5.5 35q0 19 -12.5 45t-37.5 37zM254 462q10 7 15 11.5t10 11.5q8 11 14 22.5t6 25.5q0 18 -13 33t-35 15q-24 0 -37.5 -13t-13.5 -36q0 -17 12 -36.5 t42 -33.5zM389 380q3 -4 7 -7q4 -4 8.5 -7t8.5 -7l4.5 -4.5t8.5 -8t10 -9.5l8 -8q17 -19 28.5 -54.5t11.5 -71.5q0 -17 -2.5 -35t-10.5 -41q-10 -30 -25 -49.5t-31.5 -32t-32.5 -19.5t-27 -11q-20 -8 -41.5 -13.5t-57.5 -5.5q-20 0 -41 3q-1 0 -8 1.5t-16 3t-17 3t-11 2.5 q-6 2 -11.5 4.5t-11.5 4.5q-12 4 -24.5 9.5t-25 16t-26 27t-26.5 42.5q-8 15 -12 27t-6 24t-2.5 26.5t-0.5 36.5q0 17 5.5 38.5t16.5 39.5l12 18q5 8 10 14.5t10 11.5q5 3 9 6t8 7q4 2 7 5.5t6 6.5q8 7 14 9q-2 2 -10 6.5t-10 6.5q-4 2 -6.5 4.5t-5.5 4.5q-7 5 -11 8.5 t-8 7.5t-7.5 9t-8.5 14q-6 10 -9.5 17t-6 16t-3.5 22t-1 33q0 12 2.5 26t6 25.5t7 20t4.5 10.5q2 4 5 7.5t6 8.5q4 5 6 10.5t6 10.5q13 16 34.5 27.5t46 19t50.5 11t49 3.5q33 0 63.5 -5t40.5 -9q8 -3 16.5 -6.5t13.5 -5.5q4 -2 7 -4t6.5 -6t10 -10.5l18.5 -18.5 q7 -7 11 -13t9 -13q9 -15 16.5 -33.5t7.5 -54.5q0 -3 -1 -9.5t-4 -24.5q-3 -16 -4.5 -22t-8.5 -21q-3 -8 -5.5 -13t-5 -9t-5.5 -8.5t-9 -11.5q-11 -14 -18 -20t-21 -14z"/>
<glyph glyph-name="nine" horiz-adv-x="500" unicode="9" d="M244 568q-10 0 -23 -10.5t-15 -36.5v-11q0 -10 -1 -22t-1.5 -23t-0.5 -12q0 -12 1.5 -24t6.5 -22.5t13.5 -17t23.5 -6.5q19 0 27 14t10 28q2 10 2 25v39q0 10 -0.5 19.5t-3.5 19.5q-3 15 -9 23t-12 11.5t-11.5 4.5t-6.5 1zM133 1q-5 1 -19 2t-19 2q-13 1 -25 6.5 t-12 32.5q0 3 0.5 11t1 17t1 17.5t0.5 11.5q0 2 -0.5 7.5t-0.5 11.5t-0.5 11t-0.5 7q0 17 26 17q2 0 19 -4q9 -2 16.5 -2.5t12.5 -0.5q4 0 15.5 1t16.5 2q11 2 22 1.5t22 4.5q5 2 10 5.5t10 6.5q15 10 25.5 20.5t21.5 40.5q5 14 5.5 20t-0.5 17q-17 -11 -40.5 -20.5 t-52.5 -9.5q-15 0 -24 2.5t-25 8.5q-17 7 -27 11.5t-25 18.5q-11 10 -21.5 22.5t-19 33t-13.5 52t-5 79.5q0 37 4 63.5t10 45.5t13 31.5t14 22.5q20 31 45.5 48.5t52 25t51 9t42.5 1.5q16 0 33 -2.5t54 -17.5q13 -5 28.5 -14.5t30.5 -24.5t28 -36.5t21 -49.5q3 -12 6 -31 t5 -41.5t3 -45.5t1 -43q0 -30 -1 -51.5t-2.5 -39.5t-4.5 -35t-7 -38q-4 -17 -9 -36.5t-13.5 -40.5t-22.5 -42t-36 -40q-17 -15 -28.5 -24.5t-21.5 -15.5t-19 -10t-20 -8q-19 -8 -32 -12.5t-27 -7t-31 -3.5t-43 -1h-19z"/>
<glyph glyph-name="colon" horiz-adv-x="229" unicode=":" d="M26 110q0 3 0.5 9.5t1 14t1 14.5t1.5 9q7 17 20.5 19t26.5 2h10h75q17 0 25 -8.5t9 -19.5v-10.5v-16v-16v-10.5v-9.5t0.5 -14.5t0.5 -14.5v-9.5q0 -14 -1 -20t-4 -11q-8 -14 -17.5 -16t-14.5 -2h-59h-13t-17 0.5t-16.5 1.5t-10.5 3q-2 1 -9.5 7.5t-7.5 21.5q0 3 0.5 14 t0.5 15q0 2 -0.5 8.5t-0.5 14t-0.5 14.5t-0.5 10zM29 460q0 26 11.5 29.5t27.5 3.5h9h16.5t27 0.5t27.5 0.5h18q8 0 14 -3.5t9.5 -8t5 -9.5t1.5 -7v-17q0 -5 -0.5 -9.5t-0.5 -9.5v-66q0 -8 -0.5 -16.5t-3.5 -16.5t-10 -13t-20 -5q-4 0 -18 0.5t-18 0.5q-3 0 -9.5 -0.5 t-14 -0.5t-14.5 -0.5t-10 -0.5q-6 0 -14.5 0.5t-16.5 4.5t-13.5 12.5t-5.5 23.5q0 1 0.5 13t0.5 26.5t0.5 27.5t0.5 15v25z"/>
<glyph glyph-name="semicolon" horiz-adv-x="229" unicode=";" d="M87 -85q-2 0 -9.5 -0.5t-9.5 -0.5q-8 0 -13 5t-5 10q0 2 1 4t6 10q2 4 5.5 13t3.5 19q0 14 -5.5 19.5t-7.5 5.5q-4 2 -8.5 3t-9.5 3l-6 6t-4 12q0 3 1 11.5t1 11.5t-1 15t-1 16q0 5 0.5 18.5t0.5 17.5t-0.5 15t-0.5 15q0 14 10 24.5t27 10.5h20h11.5t18.5 0.5t19 0.5h12 q22 0 29.5 -4.5t12.5 -9.5q6 -8 7 -15.5t0 -24.5q0 -3 0.5 -14t0.5 -14t-0.5 -14t-0.5 -15v-30q0 -18 -3 -32.5t-14 -35.5q-4 -8 -8.5 -15.5t-8.5 -15.5q-10 -16 -15.5 -20.5t-13.5 -4.5h-42zM153 494q14 0 25.5 -8t11.5 -26v-12t0.5 -19t0.5 -19.5v-13.5t0.5 -17t0.5 -17 q0 -28 -10 -37.5t-27 -9.5q-6 0 -19.5 -0.5t-28.5 -1t-28 -1t-17 -0.5q-13 0 -25 8t-12 31v8t-0.5 16t-0.5 17v11t-0.5 10.5t-1 16t-0.5 16.5v11q0 17 9.5 25t21.5 10q6 1 27.5 1h41.5q3 0 15 0.5t16 0.5z"/>
<glyph glyph-name="question" horiz-adv-x="333" unicode="?" d="M72 124q0 16 3 27.5t7 16.5q6 8 14.5 10t28.5 3h10.5t16 -0.5t16.5 -0.5h11q2 0 10 0.5t10 0.5q18 0 31.5 -9t13.5 -29q0 -4 -0.5 -15t-1 -23t-1 -23t-0.5 -15q0 -3 0.5 -12.5t0.5 -11.5q0 -7 -2.5 -19t-18.5 -20q-5 -3 -12.5 -3.5t-34.5 -0.5q-5 0 -21 1t-21 1 q-2 0 -11 -0.5t-11 -0.5q-17 0 -27 11t-10 27q0 4 0.5 17t0.5 17q0 3 -0.5 10t-0.5 15t-0.5 15.5t-0.5 10.5zM45 666q0 25 10 31.5t39 11.5q7 1 16.5 2.5t19 2.5t17.5 1.5t11 0.5q7 0 13.5 -0.5t13.5 -1.5q14 -2 28.5 -4.5t29.5 -10.5q24 -14 37.5 -32t19.5 -36t7 -33.5 t1 -24.5q0 -35 -6 -62q-3 -14 -10 -33t-12 -27q-6 -14 -14 -27.5t-16 -27.5q-12 -23 -18 -47t-9 -44.5t-3.5 -34.5t-0.5 -16q0 -16 -8 -23t-19 -7q-3 0 -6.5 0.5t-6.5 0.5q-2 0 -8.5 1t-17.5 1q-3 0 -14 -1t-14 -1q-20 0 -23.5 14t-3.5 29q0 31 1 54t5 44t10.5 43t18.5 51 q5 12 7 19t2 18q0 13 -4.5 21.5t-11 13.5t-13.5 7t-11 2q-7 0 -13 -3q-5 -2 -9 -4.5t-9 -2.5t-13 3.5t-10 11.5q0 1 -0.5 4.5t-0.5 7.5t-0.5 8t-0.5 5q0 5 0.5 20.5t0.5 20.5q0 3 -0.5 10.5t-0.5 16.5t-0.5 16.5t-0.5 10.5z"/>
<glyph glyph-name="A" horiz-adv-x="500" unicode="A" d="M219 371l-4 -22t-2 -22q0 -20 6.5 -28.5t23.5 -8.5q4 0 11 0.5t13 3.5t10.5 10t4.5 20q0 12 -1 24q-1 11 -2 24.5t-3 27.5l-4 24l-4 24q-2 10 -2.5 19t-2.5 18q-2 12 -6 15.5t-6 3.5q-5 0 -8 -9.5t-4 -15.5q-2 -9 -4.5 -21t-4.5 -20q-5 -17 -6.5 -33.5t-4.5 -33.5z M46 298q3 23 7.5 45t7.5 44q2 14 3.5 26.5t3.5 26.5q3 19 7.5 37.5t8.5 38.5q6 29 9 59t9 59q6 26 11.5 41t13 22.5t17.5 9.5t26 2q8 0 16.5 -0.5t16.5 -1.5q15 -1 30 -1.5t30 -0.5q19 0 37.5 0.5t37.5 1.5q29 0 39.5 -9t15.5 -37q1 -5 3.5 -16t5 -23.5t4.5 -23t2 -14.5 q1 -5 2.5 -17.5t3.5 -27t3.5 -27.5t2.5 -18q1 -9 5.5 -32t10 -49.5t10 -50t6.5 -33.5t3 -17t2 -15.5t2 -19.5t3 -30q3 -32 8.5 -63t11.5 -63q3 -12 5.5 -24.5t5.5 -24.5q3 -15 3 -30q0 -17 -8.5 -29.5t-22.5 -12.5q-4 0 -13.5 0.5t-20 1t-20.5 1t-14 0.5q-3 0 -10 -0.5 t-15.5 -1t-16 -1t-10.5 -0.5q-12 0 -18.5 4t-10 10t-4 12t-0.5 10q0 11 -1 22t-3 22q-2 17 -4.5 25.5t-10.5 12.5q-4 2 -64 2q-16 0 -23 -2t-11 -8q-2 -3 -3.5 -13t-2.5 -22t-2 -23t-1 -15q-1 -23 -11 -30t-23 -7q-3 0 -9.5 0.5t-14 1t-14.5 1t-10 0.5h-11.5t-18.5 -0.5 t-18.5 -0.5h-12.5h-12t-12 2q-10 3 -13.5 11.5t-3.5 13.5q0 2 3.5 22.5t7.5 45.5t8 46t4 24q2 8 3.5 17t3.5 18q1 5 3 18.5t4 29t4 29t3 19.5z"/>
<glyph glyph-name="B" horiz-adv-x="521" unicode="B" d="M254 293q-5 0 -18.5 -2.5t-20.5 -18.5q-2 -4 -2.5 -7.5t-0.5 -15.5q0 -5 -0.5 -20t-0.5 -20q0 -17 1 -23t3 -11q6 -11 19.5 -15t24.5 -4q7 0 17 3t19 10.5t15 20.5t6 33q0 38 -20.5 54t-41.5 16zM247 571q-13 0 -20.5 -4t-11.5 -10t-5 -13t-1 -13q0 -27 1.5 -36t3.5 -14 q7 -17 21 -20.5t19 -3.5q26 0 40.5 15t14.5 43q0 5 -1 14.5t-8 19.5q-11 17 -25 19.5t-28 2.5zM38 230v10t-0.5 15.5t-0.5 16.5v11q0 4 0.5 16.5t1 26.5t1 26.5t0.5 17.5q0 26 -1.5 52t-1.5 52q0 5 0.5 17.5t1.5 26.5t1.5 27t0.5 18q0 4 -0.5 16.5t-1.5 26.5t-1.5 26.5 t-0.5 17.5q0 38 14 48.5t43 10.5q5 0 21.5 -1t21.5 -1q13 0 25.5 1t25.5 1q3 0 10.5 -0.5t16.5 -0.5t17 -0.5t11 -0.5h37q4 0 18.5 1t19.5 1q3 0 10.5 -1t15.5 -2t15 -2t10 -1q16 -3 26.5 -7t18 -8.5t14 -11l15.5 -15.5q9 -10 16.5 -19.5t13.5 -28.5q0 -2 2.5 -11.5t5 -20.5 t5 -20.5t2.5 -11.5q0 -5 -0.5 -19.5t-0.5 -19.5v-14q0 -16 -13 -46.5t-44 -54.5q-11 -9 -13.5 -11t-2.5 -4t3 -4l6 -4q4 -2 7 -4.5t6 -4.5q31 -22 47 -53.5t20 -61.5q0 -3 1 -10.5t1.5 -16.5t1 -16t0.5 -8q0 -16 -3 -29q-2 -5 -3.5 -10.5t-8.5 -23.5q-5 -11 -7.5 -20.5 t-7.5 -19.5q-11 -23 -34 -41.5t-43 -28.5q-33 -16 -56 -18.5t-43 -2.5h-173q-3 0 -10.5 -0.5t-15.5 -0.5t-15.5 -0.5t-10.5 -0.5q-12 0 -20 4.5t-12 11t-5.5 13.5t-1.5 12q0 3 1 14t2 21q0 9 0.5 18t0.5 18q0 4 -0.5 15.5t-1 24.5t-1 24.5t-0.5 16.5v36z"/>
<glyph glyph-name="C" horiz-adv-x="375" unicode="C" d="M10 371q0 41 4.5 72t9.5 54q9 42 26 79.5t48 63.5q5 4 16.5 12t23.5 16t21.5 14.5t11.5 7.5q10 6 26 10.5t33 7.5t34.5 5t32.5 2h10.5t14 -0.5t14 -1.5t9.5 -3q12 -7 14 -17t2 -15q0 -4 -0.5 -8t-0.5 -8q-1 -10 -1 -19.5v-19.5v-15t0.5 -23.5t0.5 -24v-16.5 q0 -17 -10.5 -25.5t-22.5 -8.5q-6 0 -14 2q-5 1 -9.5 2t-9.5 1q-3 0 -10.5 -2t-16 -5.5t-16.5 -7t-12 -6.5q-14 -12 -22 -30.5t-12 -36.5q-3 -19 -5 -44.5t-2 -38.5q0 -6 0.5 -20t3.5 -31.5t9.5 -35t18.5 -31.5q6 -8 16.5 -15.5t21.5 -13t21 -9t17 -3.5q3 0 13 2t14 2 q2 0 4.5 -0.5t7.5 -3.5q11 -7 12.5 -14.5t1.5 -18.5q0 -3 -0.5 -9.5t-0.5 -14.5t-0.5 -15t-0.5 -10v-25t1 -25q0 -5 0.5 -9t0.5 -9q0 -42 -39 -42q-9 0 -17.5 0.5t-17.5 1.5q-17 0 -26.5 0.5t-15.5 0.5t-10 0.5t-8 1.5q-7 2 -13.5 4t-13.5 4q-10 3 -16 4.5t-10.5 3t-8.5 4 t-10 5.5q-25 15 -40 31t-30 35q-7 9 -11.5 14.5t-7.5 10t-5.5 9t-5.5 10.5q-12 27 -19 44.5t-11 33t-5.5 33t-2.5 44.5q-2 13 -2.5 25.5t-1.5 24.5q-1 8 -1 16.5v16.5z"/>
<glyph glyph-name="D" horiz-adv-x="521" unicode="D" d="M247 536q-13 0 -20 -5.5t-10 -13.5t-3.5 -16t-0.5 -13q0 -8 0.5 -15.5t0.5 -15.5q1 -14 1.5 -33.5t0.5 -39.5v-13.5t-0.5 -21t-0.5 -21.5v-14q0 -3 0.5 -10t1 -15t1 -15t0.5 -10v-8t-0.5 -13t-0.5 -13v-9q0 -13 0.5 -20t2.5 -14q5 -18 17 -21t15 -3q1 0 7.5 1t14.5 6.5 t16 17t11 33.5q5 37 8 58t4.5 33t1.5 18v14q0 17 -1 34t-3 34q-1 14 -4 35.5t-9.5 41t-18.5 33.5t-32 14zM153 705q5 0 17.5 0.5t27 1t27.5 1t18 0.5q32 0 64 -4.5t60 -21.5q4 -3 16.5 -11.5t28.5 -24t32 -37.5t28 -50q11 -27 17.5 -58t10.5 -60.5t5 -55t1 -40.5 q0 -16 -2 -45t-12 -69q-14 -57 -42 -108q-26 -44 -55 -68t-58 -35.5t-56.5 -14t-50.5 -2.5q-3 0 -10.5 0.5t-16 1t-16.5 1t-11 0.5q-4 0 -15 -1t-23 -1.5t-23 -1.5t-15 -1q-11 0 -22 0.5t-20 5t-14.5 14t-5.5 26.5q0 5 0.5 10.5t0.5 10.5q1 6 0.5 12.5t0.5 12.5q0 3 0.5 10 t1 15t1 15.5t0.5 10.5q0 14 -1 28t-1 28q-1 11 -1.5 25.5t-1 29.5t-0.5 27.5v18.5q0 4 0.5 13.5t0.5 21t0.5 21.5t0.5 14q0 5 -0.5 19t-1 30t-1 30.5t-0.5 20.5q0 5 0.5 18.5t0.5 28.5t0.5 28.5t0.5 19.5q0 4 -0.5 16t-1 25t-1 25t-0.5 17q0 7 0.5 17t5 19t13 15t25.5 6 h14.5t22 -0.5t21.5 -0.5h15z"/>
<glyph glyph-name="E" horiz-adv-x="437" unicode="E" d="M343 707q4 0 16 0.5t16 0.5q14 0 22 -8.5t8 -22.5q0 -3 -0.5 -10.5t-1 -16.5t-1 -17t-0.5 -11t0.5 -16t0.5 -18q0 -11 -5.5 -24.5t-30.5 -15.5q-2 -1 -8.5 -0.5t-8.5 0.5q-3 0 -15 -1t-16 -1q-2 0 -8 0.5t-12.5 1t-12.5 1t-9 0.5q-29 0 -39.5 -5t-15.5 -12 q-3 -5 -3.5 -10.5t-0.5 -26.5q0 -4 0.5 -12t4 -16.5t10.5 -14.5t20 -6q3 0 14.5 1t15.5 1q2 0 8 -0.5t12.5 -0.5t12 -0.5t8.5 -0.5t15.5 0.5t16.5 0.5q23 0 31 -9.5t8 -30.5q0 -2 -0.5 -8t-0.5 -12.5t-0.5 -12.5t-0.5 -9q0 -2 0.5 -8t0.5 -12.5t0.5 -12.5t0.5 -9 q0 -12 -3 -18q-8 -17 -18.5 -20t-21.5 -3q-4 0 -15.5 0.5t-24.5 1.5t-25 1.5t-16 0.5q-12 0 -25.5 -2.5t-21.5 -16.5q-4 -7 -4.5 -19t-0.5 -33q0 -15 3 -27.5t22 -17.5q8 -2 19 -2.5t21 -0.5q8 -1 15 -2l14 -2q5 -1 10.5 -1h10.5h12t11 1t10 1.5t10 0.5q10 0 23.5 -7.5 t13.5 -28.5v-9t-1 -9q-1 -8 -1 -16v-13v-8t0.5 -13t0.5 -13v-9q0 -25 -13.5 -32.5t-22.5 -7.5q-4 0 -17.5 1t-17.5 1t-16.5 -0.5t-17.5 -0.5q-16 0 -31.5 1t-31.5 1q-4 0 -17.5 -0.5t-18.5 -0.5q-4 0 -17 0.5t-17 0.5h-12t-19 -0.5t-19 -0.5h-12q-5 0 -19 -0.5t-19 -0.5 q-18 0 -29.5 11.5t-11.5 27.5q0 3 0.5 6t0.5 6q2 16 2 33v30v12t-0.5 19t-0.5 19v12t0.5 9.5t1 14t1 14t0.5 9.5v9.5t-0.5 13.5t-0.5 13.5v9.5v16.5t0.5 26t0.5 26v17.5t-0.5 18.5t-0.5 29t-0.5 29t-0.5 19.5q0 26 1 53t1 53v15t-0.5 23t-0.5 22.5v15.5q0 18 1 32.5 t5.5 24.5t15 15t29.5 5q4 0 12 -0.5t18 -0.5q9 -1 17.5 -1.5t11.5 -0.5h52q4 0 16 -0.5t25.5 -0.5t25.5 -0.5t17 -0.5q4 0 18.5 1t19.5 1h21z"/>
<glyph glyph-name="F" horiz-adv-x="375" unicode="F" d="M117 707h19t29.5 0.5t29.5 0.5h20h10t15.5 -0.5t16 -0.5h10.5h16t24.5 0.5t24 0.5h16.5q22 0 25 -11t3 -22v-7v-101q0 -9 -8 -18.5t-25 -9.5q-3 0 -14.5 1t-15.5 1q-3 0 -13.5 -0.5t-14.5 -0.5h-7.5t-12 0.5t-12.5 0.5h-9q-4 0 -15 -2.5t-14 -16.5v-25q0 -4 -0.5 -16 t-0.5 -16q0 -14 6 -20t8 -7q5 -3 11 -3.5t31 -0.5q3 0 15.5 -0.5t16.5 -0.5q3 0 13 0.5t13 0.5q17 0 24.5 -10t7.5 -20q0 -3 -1 -14t-1 -15v-20v-28.5t-2 -27.5q-2 -19 -14 -25t-27 -6q-3 0 -11.5 0.5t-17.5 1.5t-17.5 1.5t-11.5 0.5q-40 0 -40 -40v-52v-10t0.5 -15t0.5 -15 v-10q0 -2 -0.5 -8.5t-0.5 -13.5t-0.5 -13t-0.5 -9q0 -2 0.5 -8.5t1.5 -14t1.5 -14t0.5 -9.5q0 -15 -4.5 -22.5t-10.5 -11.5t-12 -4.5t-9 -0.5t-11.5 0.5t-18 0.5t-18 0.5t-11.5 0.5t-10.5 -0.5t-16 -0.5t-16 -0.5t-10.5 -0.5q-13 0 -20 4t-10.5 9.5t-4.5 11t-1 8.5v11 q2 17 2.5 33.5t0.5 33.5q0 8 -0.5 28.5t-0.5 43.5t-0.5 43.5t-0.5 29.5v24t1 23q0 10 0.5 24.5t1 28t0.5 23.5l1 9q0 6 -0.5 21.5t-1 33.5t-1 34t-0.5 23q0 5 0.5 19t0.5 29.5t0.5 29.5t0.5 20q0 3 -0.5 11t-0.5 17t-0.5 17t-0.5 11q0 5 1.5 17.5t11.5 23.5q8 8 17 9.5 t32 1.5h17z"/>
<glyph glyph-name="G" horiz-adv-x="521" unicode="G" d="M13 352q0 20 1.5 35t3.5 29q1 6 2 12.5t2 12.5q2 12 3 23.5t3 22.5q3 15 10 33t15 35t15.5 30.5t11.5 19.5q13 17 36.5 38.5t46.5 34.5q24 14 55 22t60.5 12t52.5 5t32 1q4 0 15 -0.5t23 -0.5t23 -0.5t16 -0.5q14 0 23.5 -8.5t9.5 -24.5q0 -3 -0.5 -13t-0.5 -14v-70v-20 t-2 -14q-4 -11 -15.5 -18.5t-21.5 -7.5q-8 0 -15 3l-8 4t-9 4q-8 4 -17 4.5t-17 0.5t-14.5 0.5t-14.5 0.5q-26 0 -44.5 -4.5t-31 -12.5t-20.5 -18t-14 -21q-5 -12 -7 -19t-4 -26l-2 -12l-2 -12q-4 -15 -6 -30t-2 -38v-10t0.5 -15t0.5 -15v-10q0 -8 0.5 -15.5t5.5 -19.5 q4 -11 8.5 -21t9.5 -21q4 -10 8.5 -20.5t12.5 -19t20.5 -14t30.5 -5.5q4 0 10 0.5t12 2.5t10 6.5t4 13.5q0 4 -1 15t-1 14q0 5 1 19t1 19q0 20 -12.5 27t-19.5 7q-2 0 -9 -1.5t-9 -1.5q-3 0 -14 6t-11 21q0 2 0.5 18.5t1 36t1 35.5t0.5 17q2 15 14 24t30 9q3 0 10.5 -0.5 t16 -0.5t16 -0.5t10.5 -0.5h13.5t18 0.5t18 0.5h12.5q3 1 14 2t14 1q11 0 19 -4q18 -8 21 -19.5t4 -18.5v-11t-0.5 -17t-0.5 -17v-11v-10.5v-16.5v-16.5v-10.5t-0.5 -12.5t-0.5 -20t-0.5 -19.5t-0.5 -13t0.5 -14.5t0.5 -22.5t0.5 -22.5t0.5 -14.5v-15t-0.5 -23.5t-0.5 -24 v-15.5v-28q0 -15 -3.5 -25t-18.5 -20q-11 -7 -29.5 -11t-38 -6t-38 -2.5t-28.5 -0.5h-9q-9 0 -20.5 0.5t-21 0.5h-11.5q-25 1 -48.5 7t-46.5 15q-21 8 -35 16t-24.5 17t-19 20t-18.5 25q-5 6 -9 12t-9 13q-11 16 -21.5 38t-15.5 43q-3 9 -6 27t-5.5 39.5t-4 44.5t-1.5 42z "/>
<glyph glyph-name="H" horiz-adv-x="521" unicode="H" d="M38 140q0 3 0.5 11t0.5 17.5t0.5 18t0.5 11.5q0 6 -0.5 22.5t-1.5 35.5t-1.5 36t-0.5 24q0 5 0.5 18.5t1.5 29t1.5 29t0.5 19.5q0 7 -0.5 19t-1.5 23q-2 29 -2 55.5v32.5q0 4 0.5 13.5t0.5 20t0.5 20t0.5 13.5q0 3 -0.5 12t-1 19.5t-1 19.5t-0.5 13q0 2 0.5 7.5t4 11 t10 9.5t18.5 4h11t17 -1q9 0 17 -0.5t11 -0.5h15t15 1q15 2 19.5 2h7.5q24 0 30 -12t6 -23q0 -3 -1 -11t-1.5 -16.5t-1.5 -16.5t-1 -11t0.5 -12t0.5 -19.5t0.5 -19.5t0.5 -13v-14t-0.5 -21t-0.5 -21.5v-14.5q0 -26 14 -31.5t35 -5.5q13 0 25.5 4t15.5 24q2 8 3 25.5t1 25.5 q0 3 -0.5 11.5t-1 18t-1 18.5t-0.5 13q0 10 0.5 19.5t0.5 19.5v7q0 2 -0.5 8t-1 13t-1 13t-0.5 9q0 11 7 22t29 11q11 0 16 -1q11 -1 22 -1.5t22 -0.5q3 0 9.5 0.5t14.5 1.5q8 0 15 0.5t9 0.5q22 0 30 -10t8 -11q2 -3 2 -8v-17q0 -8 -0.5 -16.5t-1.5 -17.5q0 -6 -0.5 -16 t-0.5 -20.5t-0.5 -19.5t-0.5 -13q0 -3 0.5 -13t0.5 -14q0 -3 -0.5 -10t-1 -15.5t-1 -16t-0.5 -10.5q0 -5 0.5 -17t0.5 -26t0.5 -26.5t0.5 -17.5q0 -6 -0.5 -20.5t-0.5 -31.5t-0.5 -32t-0.5 -21v-24t1 -23q1 -15 2 -29.5t2 -29.5v-18v-12t-0.5 -18.5t-0.5 -18.5v-13v-16 q0 -2 1 -8t1.5 -13t1 -13t0.5 -9q0 -13 -6.5 -27t-27.5 -14q-3 0 -6.5 0.5t-6.5 0.5q-8 1 -16 1.5t-16 0.5q-4 0 -14.5 -0.5t-21.5 -1.5t-21 -1.5t-13 -0.5q-9 0 -21 6.5t-12 29.5q0 2 0.5 7.5t1 12t1.5 12.5t1 9t-0.5 14t-0.5 15v31t1 30q0 2 0.5 8t0.5 12.5t0.5 12 t0.5 8.5q0 18 -4 35t-21 23q-5 2 -17 2h-17q-9 0 -21 -5.5t-14 -26.5q-2 -20 -3 -30.5t-1 -22.5q0 -3 0.5 -11.5t0.5 -18.5t0.5 -18.5t0.5 -11.5t-0.5 -11.5t-0.5 -18.5t-0.5 -18.5t-0.5 -12.5q0 -3 1 -15.5t1 -17.5q0 -14 -10 -22t-20 -8q-7 0 -11 1q-10 2 -19.5 2h-20.5 h-15q-2 0 -9 -0.5t-15 -0.5q-8 -1 -15 -1.5t-10 -0.5q-14 0 -22 5t-11.5 11.5t-4 13.5t-0.5 11t1 14t1.5 21.5t1.5 22t1 15.5v28z"/>
<glyph glyph-name="I" horiz-adv-x="250" unicode="I" d="M216 293q0 -6 0.5 -20.5t1.5 -31t1.5 -32t0.5 -21.5q0 -4 -0.5 -15t-1 -23t-1 -23t-0.5 -15q0 -5 0.5 -16.5t1.5 -25t1.5 -25.5t0.5 -17q0 -9 -6.5 -17.5t-24.5 -8.5q-2 0 -8 0.5t-12.5 0.5t-12.5 0.5t-9 0.5q-4 0 -13.5 -0.5t-20.5 -1t-20.5 -1t-13.5 -0.5h-6 q-2 0 -7.5 0.5t-11.5 2.5t-11 6.5t-7 12.5q0 1 -0.5 10.5t-0.5 20.5v21v13t0.5 12t1 19t1 19t0.5 13v73q0 6 -0.5 20.5t-1 31t-1 31t-0.5 20.5v125q0 6 0.5 21t1 32t1 32.5t0.5 21.5v68q0 3 -0.5 9.5t-1 14.5t-1 14.5t-0.5 9.5q0 14 6 20.5t10 8.5q5 2 10.5 2.5t19.5 0.5h12 t18.5 -0.5t18.5 -0.5h13h18t18 1q2 0 8.5 0.5t8.5 0.5q9 0 14 -5t7 -11.5t2.5 -12.5t0.5 -8q0 -3 -0.5 -10.5t-1 -16.5t-1 -17t-0.5 -11q0 -9 -0.5 -17t-0.5 -22v-37v-62v-14.5t0.5 -22.5t0.5 -23v-15q0 -3 -0.5 -11.5t-0.5 -18.5t-0.5 -18.5t-0.5 -12.5v-49z"/>
<glyph glyph-name="J" horiz-adv-x="313" unicode="J" d="M11 153q0 11 5.5 20.5t19.5 9.5q2 0 10 -1t10 -1q3 0 12.5 2t18.5 13q8 9 9 21.5t1 22.5q0 12 -0.5 24t-0.5 25t-0.5 30.5t-0.5 36.5v37v32v26t1 27q0 3 0.5 14t1 23.5t1 22.5t0.5 11q0 9 -0.5 18t-0.5 18q0 4 -1 16t-2 25t-1.5 25t-0.5 17q0 26 7.5 33.5t25.5 7.5h5 t11.5 -0.5t18.5 -0.5t18.5 -0.5t12.5 -0.5q3 0 11 0.5t17.5 0.5t18 0.5t11.5 0.5q11 0 20 -7t9 -21v-7t-2 -23q-1 -11 -1.5 -21t-0.5 -21q0 -3 0.5 -11t1 -17t1 -17t0.5 -11v-10t-0.5 -15t-0.5 -15.5v-10.5v-11.5t0.5 -18t0.5 -18v-12.5q0 -2 -0.5 -7.5t-0.5 -12t-0.5 -12.5 t-0.5 -8v-17v-26v-26.5v-17.5q0 -3 0.5 -12.5t0.5 -20.5t0.5 -20.5t0.5 -13.5q0 -5 -0.5 -16t-1 -24t-1 -24.5t-0.5 -15.5v-42q0 -18 -6 -34.5t-11 -25.5q-13 -20 -31.5 -33.5t-29.5 -19.5q-9 -5 -26.5 -9.5t-64.5 -4.5q-7 0 -13 0.5t-13 0.5q-3 0 -15 -1t-16 -1 q-20 0 -29 12t-9 31v11.5t0.5 18t0.5 18.5v13v25t-1 15v11z"/>
<glyph glyph-name="K" horiz-adv-x="500" unicode="K" d="M40 372q0 5 -0.5 18t-1 28t-1 28.5t-0.5 19.5t0.5 20.5t1 31t1 31.5t0.5 21q0 16 -0.5 31t-1.5 31q-1 9 -1.5 18.5t-0.5 18.5q0 14 3 26t21 12h13.5t20.5 -0.5t21 -0.5h14q3 0 11 0.5t16.5 0.5t16.5 0.5t11 0.5q14 0 24 -3.5t10 -25.5q0 -3 -0.5 -10.5t-1 -15.5t-1 -15.5 t-0.5 -10.5v-10t0.5 -15t0.5 -15v-10q0 -5 -0.5 -19.5t-0.5 -19.5q0 -2 0.5 -10t4.5 -8q5 0 7 4l3 6q1 3 3.5 9.5t5.5 13.5t6 13t4 9l9 18q4 7 6.5 14t5.5 14q5 11 9.5 21.5t9.5 21.5l4 10l4 10q6 18 13.5 22t18.5 4q6 0 12 -0.5t12 -1.5q10 -1 19.5 -1.5t18.5 -0.5 q4 0 14.5 0.5t22 1t22 1t15.5 0.5q8 0 15.5 -5t7.5 -15q0 -7 -4.5 -18.5t-8.5 -19.5q-5 -9 -7.5 -14.5t-5.5 -11t-6 -12.5t-8 -19q-2 -5 -5.5 -12.5t-8 -16t-8.5 -16.5l-7 -14q-5 -8 -9.5 -15.5t-8.5 -15.5q-2 -3 -5.5 -11.5t-8 -18t-8.5 -18t-6 -12.5l-10.5 -21t-5.5 -19 q0 -9 6 -21q9 -20 19 -42t15 -39q4 -10 6.5 -19t5.5 -19q1 -3 4 -10.5t7 -16t7 -16.5t4 -11q4 -10 7.5 -20t7.5 -20q4 -11 8 -21.5t9 -21.5q2 -8 4.5 -16.5t6.5 -16.5q3 -8 7 -14.5t7 -14.5q4 -8 7.5 -17.5t3.5 -19.5q0 -8 -3.5 -13t-8 -7.5t-8.5 -3t-6 -0.5h-28 q-4 0 -19.5 0.5t-20.5 0.5q-4 0 -13.5 -0.5t-20.5 -0.5t-21 -0.5t-14 -0.5q-20 0 -26.5 12.5t-8.5 23.5q-3 11 -13 44t-24 71q-3 7 -5.5 14t-5.5 15l-9 27q-5 15 -9.5 25t-9.5 10q-6 0 -6.5 -9t-0.5 -20v-15v-23.5v-23.5v-16v-28.5t2 -28.5q1 -11 1.5 -18t1 -11t0.5 -6.5 v-5.5q0 -12 -1 -17.5t-2 -7.5q-5 -10 -14 -11.5t-21 -1.5h-9.5t-14.5 0.5t-15 0.5h-10h-8t-13 -0.5t-13 -0.5h-9t-14 -1t-15 -1q-11 0 -19 6.5t-8 17.5q0 4 0.5 15t1.5 23t1.5 22.5t0.5 15.5q0 4 -0.5 14t-0.5 21.5t-0.5 21.5t-0.5 15q0 4 0.5 15t0.5 23.5t0.5 23.5t0.5 16 q0 15 -0.5 30t-0.5 31v61z"/>
<glyph glyph-name="L" horiz-adv-x="396" unicode="L" d="M38 664q0 6 0.5 14t3.5 14.5t10 11.5t20 5q3 0 10 -0.5t15.5 -1t16.5 -1t11 -0.5q8 0 14.5 0.5t13.5 0.5q8 1 14.5 1h13.5q6 0 13 -0.5t13 -3t10 -8.5t4 -17q0 -5 -0.5 -8.5t-0.5 -8.5q-1 -8 -2 -19.5t-1.5 -24.5t-1 -25.5t-0.5 -22.5q0 -4 0.5 -13.5t0.5 -21t0.5 -21.5 t0.5 -14q0 -3 -0.5 -11t-0.5 -17.5t-0.5 -18t-0.5 -11.5t0.5 -10.5t1 -16.5t1 -17t0.5 -11t-0.5 -8.5t-0.5 -16.5q-1 -12 -1 -26.5v-27.5q0 -3 0.5 -9.5t0.5 -14.5t0.5 -15t0.5 -10q0 -2 -0.5 -13t-0.5 -14q0 -20 9 -37t35 -20q3 0 9 -0.5t12.5 -0.5h13h10.5t17 1t18 1 q15 0 23 -4.5t12 -15t4.5 -28t0.5 -43.5q0 -3 -0.5 -10.5t-0.5 -16.5t-0.5 -17t-0.5 -11q0 -12 -5 -18.5t-11 -8.5q-3 -2 -6.5 -2.5t-11.5 -0.5q-5 0 -20.5 1t-20.5 1h-9.5h-13.5h-13.5h-9.5h-25h-38h-38.5h-25.5q-3 0 -11 -0.5t-17.5 -0.5t-18 -0.5t-11.5 -0.5 q-23 0 -31 11.5t-8 22.5q0 4 0.5 17.5t0.5 17.5q0 19 1 38t1 38q0 1 -0.5 16t-1 33.5t-1 36.5t-0.5 24q0 3 0.5 12t1 18.5t1.5 18.5t1 13q1 6 1 11.5v11.5q0 3 -0.5 12.5t-0.5 20t-0.5 19.5t-0.5 13v10t0.5 15.5t0.5 15.5v10q0 14 -0.5 27.5t-0.5 27.5q0 4 0.5 14.5 t0.5 22.5t0.5 22.5t0.5 15.5q0 20 -0.5 39t-0.5 39z"/>
<glyph glyph-name="M" horiz-adv-x="646" unicode="M" d="M214 116v-31t1 -24q0 -6 0.5 -12t0.5 -12q0 -13 -5 -24.5t-29 -11.5h-8.5t-13.5 0.5t-13.5 0.5h-9.5h-30.5t-12.5 -1q-12 -1 -15.5 -1h-6.5q-12 0 -24 5t-12 28q0 3 0.5 10.5t1 16t1 16.5t0.5 11q1 11 1 25.5v26.5q0 7 -0.5 25.5t-1 39.5t-1 39.5t-0.5 26.5q0 7 0.5 26 t1 40.5t1 41t0.5 27.5q0 6 -0.5 23t-0.5 36.5t-0.5 37t-0.5 25.5q0 3 0.5 11.5t0.5 18t0.5 18.5t0.5 13q0 15 -2 30t-2 30q-1 4 -1 16.5v15.5q0 11 4 17t9.5 8.5t11.5 3t11 0.5q4 0 15 -0.5t24 -0.5t24.5 -0.5t16.5 -0.5q3 0 16 1t17 1q17 0 25.5 -8.5t16.5 -30.5 q6 -16 14 -33t22 -43q5 -11 11 -20t12 -20q7 -12 12 -24q6 -14 14.5 -30.5t15.5 -16.5q6 0 12 12t8 17q2 4 7 13.5t10 20.5t10 21l7 14q7 14 12 28.5t11 28.5l18 36q5 11 10.5 20.5t14.5 12.5q1 0 6 0.5t11 1t11 1t6 0.5h10t15 -1q8 0 15 -0.5t10 -0.5h9t16.5 0.5t15.5 1 t8 0.5q3 0 5.5 0.5t5.5 0.5q8 0 15.5 -6t7.5 -20q0 -5 -0.5 -17.5t-1.5 -17.5q-2 -25 -3 -46t-1 -23v-13.5t0.5 -20.5t0.5 -21v-14q0 -9 -0.5 -33.5t-0.5 -52t-0.5 -52.5t-0.5 -35q0 -6 0.5 -21t0.5 -32t0.5 -32.5t0.5 -21.5t-0.5 -22t-1 -34.5t-1 -35.5t-0.5 -24 q0 -4 0.5 -14t1.5 -21t1.5 -21.5t0.5 -14.5q0 -20 -3 -32t-21 -12h-9t-8 1q-14 1 -28 1.5t-28 0.5h-16.5t-16.5 -1q-5 -1 -9.5 -1h-9.5q-9 0 -14 1.5t-10 4.5q-8 6 -10.5 12t-2.5 16v8.5t2 17.5q2 8 2 16.5v16.5v51q0 6 -0.5 12t-0.5 13q0 2 0.5 7.5t1.5 12t1.5 12t0.5 8.5 t-0.5 11.5t-1 18t-1 18.5t-0.5 13q0 3 0.5 14.5t0.5 15.5q0 2 -0.5 7.5t-0.5 7.5q0 9 -4 9t-9 -8q-3 -5 -5 -10t-8 -24q-2 -5 -6.5 -16t-10 -23.5t-10.5 -24t-7 -16.5q-7 -15 -13.5 -25t-18.5 -10q-14 0 -19 2.5t-11 10.5q-2 3 -7 12.5t-11 20t-11 19.5t-8 13q-3 5 -6 9 t-5 9q-2 3 -6.5 13.5t-10 21.5t-11 20t-8.5 9t-3.5 -5.5t-0.5 -9.5q0 -5 -0.5 -17t-1 -25.5t-1 -26t-0.5 -17.5q0 -10 0.5 -19.5t0.5 -20.5q-1 -9 -1 -17q0 -7 -0.5 -12.5t-0.5 -7.5v-35z"/>
<glyph glyph-name="N" horiz-adv-x="542" unicode="N" d="M38 203v10.5t-0.5 16t-0.5 16v10.5q0 18 0.5 37.5t1.5 36.5q1 11 1.5 21t0.5 21q0 1 -0.5 6.5t-0.5 12t-0.5 12.5t-0.5 8q-1 14 -1 35v28v30t1 30q1 16 1 28v17t-0.5 19t-1 30t-1 30.5t-0.5 20.5q0 7 5.5 17.5t22.5 10.5q5 0 10 -1t10 -1q1 0 7 -0.5t12.5 -0.5h12h7.5 q3 0 12 0.5t18.5 1t17.5 1t10 0.5q12 0 17.5 -5.5t7.5 -8.5q1 -2 5.5 -10t9.5 -19t10.5 -22.5t8.5 -21.5q2 -3 2.5 -6.5t2.5 -6.5q0 -1 3 -7.5t6.5 -14.5t6.5 -14.5t3 -7.5q3 -5 6 -10.5t5 -10.5q3 -8 5.5 -14.5t5.5 -14.5q2 -5 4.5 -9t4.5 -9q7 -16 14.5 -40t12.5 -37 q4 -15 9 -15q2 0 3 5t1.5 11.5t0.5 13v9.5q0 5 -0.5 10.5t-0.5 10.5q-1 5 -1.5 10.5t-0.5 7.5t0.5 8t0.5 13t0.5 13t0.5 9q0 6 -1 22.5t-1.5 35t-1.5 35.5t-1 24t0.5 23.5t3.5 22.5q2 3 10.5 11.5t26.5 8.5q4 0 8 -0.5t9 -0.5q3 0 11.5 -0.5t17.5 -0.5h17.5h12.5t16 0.5 t16 0.5q10 0 13 -2t8.5 -8t5.5 -17q0 -3 -0.5 -6t-0.5 -7q-1 -4 -1.5 -14t-1 -21.5t-1 -22t-0.5 -13.5q0 -6 0.5 -22.5t1 -35t1 -35.5t0.5 -24q0 -16 -0.5 -39t-1.5 -48q0 -11 -0.5 -22.5t-0.5 -22.5q0 -6 0.5 -23t1.5 -36.5t1.5 -37t0.5 -24.5q0 -6 -1 -22t-1.5 -34.5 t-1.5 -35t-1 -23.5q0 -13 0.5 -25.5t1.5 -25.5q0 -4 1.5 -16t1.5 -16q0 -2 -1.5 -9t-11.5 -12q-4 -2 -7.5 -2.5t-16.5 -0.5q-3 0 -10 0.5t-15 0.5t-15 0.5t-10 0.5q-4 0 -13.5 -0.5t-21 -0.5t-21 -0.5t-13.5 -0.5q-13 0 -19 11.5t-9 21.5q-2 9 -6 18l-8 18q-6 12 -12 24.5 t-11 23.5q-3 8 -5.5 15.5t-4.5 15.5q-4 11 -8.5 21.5t-9.5 21.5q-4 8 -8 15.5t-7 15.5q-5 11 -8 21t-7 21q-9 26 -13 36.5t-7 10.5q-2 0 -3 -3t-1 -6q0 -5 1 -12.5t2 -14.5q0 -3 1 -12t2 -20.5t1.5 -23.5t0.5 -21q0 -22 -1.5 -43.5t-1.5 -43.5q0 -5 1 -17t1.5 -25.5 t1.5 -25.5t1 -17q0 -16 -9 -22t-21 -6q-4 0 -14 0.5t-22 0.5t-23 0.5t-15 0.5q-9 0 -18 -0.5t-18 -1.5q-4 -1 -13 -1q-10 0 -15.5 4t-8 9.5t-3 10.5t-0.5 8q0 7 1 24.5t2.5 36.5t2.5 34.5t1 17.5q0 3 -0.5 13.5t-1.5 13.5v31z"/>
<glyph glyph-name="O" horiz-adv-x="521" unicode="O" d="M257 545q-18 0 -28 -9t-14.5 -22t-5.5 -27t-1 -23q0 -4 0.5 -14t0.5 -21t0.5 -21.5t0.5 -14.5q0 -8 -0.5 -28t-1 -42.5t-1 -43t-0.5 -29.5q0 -13 0.5 -29t5 -30t14 -23.5t27.5 -9.5q16 0 25 6t14 15t6.5 19t1.5 18v8v13v13v9q0 4 0.5 15.5t1.5 24.5t1.5 24.5t0.5 16.5 q0 14 -0.5 27t-0.5 27q0 4 0.5 18.5t0.5 19.5q0 9 -1 29t-3 34q-3 30 -16.5 40t-27.5 10zM26 403q0 63 4 107t15 76t29.5 55t48.5 43q10 7 20 13t25 10t37 6t58 2q25 0 44 -2.5t34 -8.5t29 -14.5t31 -20.5q5 -4 17 -13t17 -15q29 -33 41.5 -92.5t12.5 -136.5 q0 -17 -0.5 -34.5t-0.5 -34.5q0 -36 -0.5 -57.5t-1.5 -37t-3 -30t-6 -35.5q-5 -26 -9 -44.5t-9 -33t-12 -25.5t-16 -22q-24 -29 -43.5 -39.5t-41.5 -17.5q-16 -5 -33.5 -8.5t-45.5 -3.5q-77 0 -128 25t-74 66q-5 9 -10 22t-9.5 25.5t-7 22.5l-3.5 14q-2 9 -3.5 23.5t-2.5 29 t-1.5 26t-0.5 13.5v14t0.5 22t0.5 22.5v14.5t-0.5 14.5t-0.5 22t-0.5 22t-0.5 15.5z"/>
<glyph glyph-name="P" horiz-adv-x="500" unicode="P" d="M216 413q0 -18 5 -29.5t11.5 -18t13.5 -9t11 -2.5q3 0 10.5 2t16 8t14.5 17.5t6 30.5q0 3 -0.5 14.5t-0.5 15.5t0.5 16t0.5 16q0 19 -5 32.5t-12.5 21t-16 11t-14.5 3.5q-14 0 -21.5 -6t-11.5 -15t-5.5 -19t-1.5 -18v-9v-13.5v-13.5v-9v-26zM256 177q-24 0 -32 -7 q-12 -12 -12 -31q0 -5 0.5 -9t0.5 -8q2 -13 2 -25q0 -3 -0.5 -12.5t0.5 -24.5q1 -6 1.5 -12.5t0.5 -12.5q0 -11 -4.5 -22t-27.5 -11q-4 0 -13 0.5t-18.5 1t-18.5 1t-12 0.5q-1 0 -15.5 -1t-24.5 -2q-8 -2 -21 -2q-16 0 -22 10.5t-6 28.5q0 8 1 15t1 14q0 3 -0.5 12.5 t-0.5 12.5t0.5 8t1.5 16q1 4 1.5 11.5t0.5 21.5q0 4 -0.5 16.5t-0.5 27t-0.5 27t-0.5 18.5v18t0.5 28t0.5 28v19q0 23 -0.5 45.5t-0.5 45.5q0 26 1 52t1 52q0 7 -0.5 26.5t-1.5 41t-1.5 41.5t-0.5 28q0 19 8.5 27.5l10.5 10.5q6 4 13.5 5.5t21.5 1.5h8t12.5 -0.5t12.5 -0.5 h9q13 0 25 1t24 1q2 0 8 -0.5t12.5 -0.5t12 -0.5t8.5 -0.5t10 0.5t15 0.5t15 0.5t10 0.5q33 0 57 -4.5t41 -11t27.5 -13.5l16.5 -11q9 -7 23 -20.5t25 -38.5q1 -2 4 -10t6 -17t6 -17.5t4 -11.5q7 -21 9.5 -41.5t2.5 -39.5q0 -17 -2.5 -45.5t-4.5 -53.5q-2 -19 -8 -45 t-30 -61q-11 -17 -25.5 -33t-33 -29t-41.5 -21t-51 -9h-41z"/>
<glyph glyph-name="Q" horiz-adv-x="521" unicode="Q" d="M208 251q0 -9 0.5 -24t5 -29.5t13.5 -25t26 -10.5q8 0 12 1q-13 13 -19 21t-6 16q0 3 3 10t8 13.5t11 12t13 5.5q11 0 26 -24q3 7 4.5 12t1.5 13q0 6 -0.5 20.5t-0.5 31.5t-0.5 32.5t-0.5 21.5q0 19 0.5 37t1.5 36q0 10 0.5 19.5t0.5 19.5q0 22 -4 41t-12 30 q-2 2 -11.5 9.5t-21.5 7.5q-14 0 -23.5 -7.5t-14.5 -17.5q-7 -12 -11.5 -46t-4.5 -80q0 -5 0.5 -17t1 -25.5t1 -25.5t0.5 -17v-61zM519 23q0 -2 0.5 -8t0.5 -8q0 -5 -6 -6.5t-11 -1.5q-39 0 -61.5 9.5t-42.5 21.5q-35 -28 -78 -35q-4 0 -13 -1t-19 -2t-17.5 -1.5t-8.5 -0.5 q-35 0 -75.5 11t-71.5 35q-20 15 -29.5 29.5t-14.5 25.5q-13 24 -20 42t-11 33t-5.5 29t-2.5 30q0 6 -1.5 23.5t-3 37t-3 37t-1.5 25.5q0 15 1 30l2 30q2 33 2.5 66t5.5 67q5 27 14 53t32 58q25 35 50 45t47 14q15 3 24 4.5t15.5 2t11.5 1t13 0.5q29 0 55 -1.5t49.5 -7.5 t44 -18t38.5 -33q13 -15 30 -50.5t23 -83.5q3 -22 3 -45q0 -4 -0.5 -10t-0.5 -14q0 -17 1 -35q0 -5 0.5 -17.5t1.5 -26.5t1.5 -27t0.5 -18q0 -2 -0.5 -8.5t-1 -13.5t-1 -13.5t-0.5 -9.5q-1 -14 -0.5 -28t-1.5 -28q-2 -23 -7 -40.5t-11 -37.5q5 -2 11 -4.5t16 -2.5 q14 -1 21 -2t7 -9q0 -2 -0.5 -9.5t-0.5 -9.5v-5v-9.5t-0.5 -14.5t-0.5 -15v-10v-39z"/>
<glyph glyph-name="R" horiz-adv-x="521" unicode="R" d="M257 544q-15 0 -23 -5.5t-11.5 -14t-4.5 -17t-1 -14.5q0 -3 -0.5 -13t-0.5 -21t-0.5 -21t-0.5 -14q0 -16 10.5 -31.5t31.5 -15.5q22 0 33 10.5t15 26.5q1 3 1.5 11.5t1 17.5t1 17t0.5 12q0 28 -13 50t-39 22zM158 708q7 0 24.5 0.5t38 1t38.5 1t26 0.5q52 0 86.5 -12 t57 -30.5t35.5 -42t22 -46.5q5 -13 8 -33.5t4.5 -40t2 -35.5t0.5 -20q0 -34 -6 -66.5t-24 -67.5q-3 -5 -14.5 -23.5t-31.5 -35.5q-8 -7 -11.5 -11t-3.5 -10t6.5 -19.5t14.5 -28.5t15.5 -28t9.5 -19q3 -7 5.5 -13.5t4.5 -12.5l12 -24q10 -20 16 -31.5t9 -18.5t4 -11t1 -7 q0 -9 -7 -15t-18 -6q-3 0 -10.5 0.5t-15.5 0.5t-15.5 0.5t-10.5 0.5h-13.5t-18 -0.5t-18.5 -1t-13 -0.5q-5 0 -9.5 -0.5t-9.5 -0.5q-14 0 -20 4t-11 12q-1 2 -4 8.5t-6 13.5t-5.5 13.5t-3.5 9.5q-6 13 -13.5 25.5t-13.5 26.5l-9 21q-8 18 -16 33.5t-16 15.5q-11 0 -12.5 -9 t-1.5 -14q0 -3 0.5 -10.5t0.5 -16.5t0.5 -17t0.5 -11v-8t-0.5 -12.5t-0.5 -12v-8.5q0 -4 1 -19.5t1 -20.5q0 -16 -9.5 -20.5t-14.5 -4.5q-3 0 -5.5 0.5t-5.5 0.5q-7 1 -23 1.5t-24 0.5q-3 0 -13 -0.5t-21.5 -1.5t-21.5 -1.5t-14 -0.5q-15 0 -23.5 10t-8.5 24q0 7 1 10 q2 38 3 61t1 36q0 7 -0.5 26.5t-1.5 41.5t-1.5 42t-0.5 28q0 7 0.5 26.5t1 41.5t1 41.5t0.5 27.5q0 5 -0.5 17.5t-0.5 26.5t-0.5 27t-0.5 18t0.5 19t0.5 29.5t0.5 29t0.5 19.5q0 3 -0.5 11.5t-0.5 17.5t-0.5 17.5t-0.5 11.5q0 26 15 37.5t39 11.5h12.5t20 -0.5t20 -0.5h13.5 z"/>
<glyph glyph-name="S" horiz-adv-x="417" unicode="S" d="M23 503q0 42 4.5 67t12.5 42q11 26 30 47.5t45 33.5q34 15 65 19t57 4q31 0 56.5 -0.5t44 -4.5t28.5 -13t10 -25q0 -1 -0.5 -10.5t-0.5 -21.5t-0.5 -23t-0.5 -15t0.5 -17t0.5 -18q0 -4 -1 -10.5t-5 -12.5t-11.5 -10.5t-20.5 -4.5h-7q-10 2 -19.5 5t-20.5 6t-20 3.5 t-15 0.5q-5 0 -12 -0.5t-14.5 -4t-12.5 -11t-5 -20.5q0 -20 13.5 -35.5t45.5 -44.5q8 -8 18.5 -18t18.5 -17q5 -5 9.5 -8.5t9.5 -8.5q25 -24 41 -45t25 -40.5t12 -39.5t3 -44q0 -35 -3.5 -69t-23.5 -63q-12 -19 -27.5 -32t-30.5 -22t-28 -14t-21 -7q-10 -3 -24.5 -5 t-29.5 -3.5t-30 -2t-27 -0.5q-16 0 -35.5 1.5t-37.5 4.5t-33 7t-23 10q-13 9 -15 16t-2 15q0 3 0.5 12t1 19t1 19t0.5 13q0 2 -0.5 8.5t-0.5 13.5t-0.5 13.5t-0.5 9.5q0 4 0.5 12t4 15t10.5 12.5t21 5.5q13 0 21.5 -2t17.5 -10q5 -4 9 -8t9 -7q7 -5 20 -7.5t28 -2.5 q21 0 40 7t19 30q0 8 -2 14.5t-9.5 15.5t-21.5 22.5t-37 35.5l-8.5 8.5l-13.5 13.5l-13.5 13.5t-9.5 8.5q-19 17 -31.5 31t-24.5 36q-17 31 -20 53.5t-3 53.5z"/>
<glyph glyph-name="T" horiz-adv-x="396" unicode="T" d="M292 385q0 -6 -0.5 -21t-0.5 -32.5t-0.5 -33t-0.5 -21.5q0 -5 0.5 -18.5t0.5 -28.5t0.5 -28.5t0.5 -19.5v-13.5t-0.5 -20.5t-0.5 -20.5v-13.5v-25q0 -3 1 -10.5t1.5 -16t1 -16t0.5 -10.5q0 -12 -4 -19t-9.5 -10t-12 -4t-11.5 -1h-9t-9 1q-9 0 -18.5 0.5t-17 0.5h-11.5 q-12 0 -29.5 -0.5t-22.5 -0.5q-9 0 -13.5 1t-6.5 3t-8 9t-6 23q0 5 1 18t1.5 28t1.5 28t1 19q0 4 -0.5 16t-1 25.5t-1 25.5t-0.5 17t1 19t1.5 29.5t1.5 29.5t1 20q0 4 -0.5 15t-1.5 24t-1.5 24.5t-0.5 16.5q0 22 1.5 43t1.5 42q0 18 -4.5 28.5t-11 15t-13.5 5.5t-13 1h-27 q-14 0 -23 8t-9 22v7q1 13 1 29v30v9t-0.5 14.5t-0.5 14v9.5q0 12 5 23t29 11h12.5t18.5 -1q10 0 18.5 -0.5t12.5 -0.5q6 0 21.5 0.5t33.5 1t34 1t23 0.5q4 0 15.5 -0.5t24 -0.5t24 -0.5t16.5 -0.5q3 0 10 0.5t15 0.5t15 0.5t10 0.5q4 0 13.5 -2t16.5 -16q3 -5 4 -11.5 t1 -24.5v-10.5t-0.5 -16.5t-0.5 -16.5v-10.5q0 -4 0.5 -17.5t0.5 -17.5q0 -11 -5.5 -22.5t-25.5 -11.5h-5.5t-10 0.5t-10 0.5h-6.5q-12 0 -19 -5.5t-10 -14t-3.5 -18t-0.5 -16.5q0 -5 0.5 -18t1 -27.5t1 -28t0.5 -18.5z"/>
<glyph glyph-name="U" horiz-adv-x="521" unicode="U" d="M38 642q0 38 6.5 51t28.5 13q3 0 12 -0.5t19.5 -1t19.5 -1t13 -0.5h7t10 1h16q21 0 26.5 -1t9.5 -3q3 -2 9.5 -7.5t6.5 -19.5q0 -7 -1 -11q-1 -9 -2 -32t-1 -48v-9.5t0.5 -14t0.5 -14v-9.5q0 -4 -0.5 -18.5t-0.5 -19.5v-40q0 -5 -0.5 -18t-1 -28t-1 -28t-0.5 -19v-11.5 t0.5 -18.5t0.5 -18.5v-12.5q0 -18 -0.5 -36.5t-0.5 -37.5q0 -11 1 -25.5t6 -23.5q2 -4 10 -12.5t24 -8.5q6 0 14 2.5t13 5.5q16 10 20 28.5t4 50.5v9t-0.5 13.5t-0.5 13.5v9q0 19 0.5 37.5t0.5 38.5q0 7 -0.5 25t-1.5 39t-1.5 39.5t-0.5 26.5q0 5 0.5 19t1 30t1 30.5 t0.5 20.5q0 11 -0.5 20.5t-0.5 19.5q0 17 0.5 27t1.5 15.5t2.5 8.5t4.5 6q8 9 13.5 10.5t12.5 1.5q3 0 12.5 -0.5t20 -1t20 -1t13.5 -0.5q3 0 10.5 0.5t15.5 0.5q8 1 15.5 1h9.5q12 0 18.5 -4.5t9.5 -11t3.5 -13t0.5 -9.5v-8.5t-1 -8.5q-2 -26 -3 -55t-1 -46v-15t1 -15 q0 -3 0.5 -10t1 -15t1 -15t0.5 -10q0 -12 -1 -24t-1 -23q-1 -13 -1.5 -25t-0.5 -25q0 -6 0.5 -23.5t1 -37.5t1 -38.5t0.5 -25.5v-15.5t-1 -15.5q-1 -7 -1.5 -13t-0.5 -13q-1 -11 -0.5 -21t-1.5 -21q-2 -20 -9.5 -39.5t-15.5 -32.5q-19 -29 -38.5 -41.5t-31.5 -18.5 q-17 -9 -31.5 -14t-30 -8t-35 -3.5t-47.5 -0.5q-46 0 -75.5 10.5t-56.5 26.5q-13 8 -30 22t-29 43q-4 11 -7 25t-4.5 28t-2 26t-0.5 20q0 6 0.5 21.5t1 32.5t1 33t0.5 22q0 8 -0.5 30t-1.5 46.5t-1.5 46.5t-0.5 31q0 5 0.5 18t1 27.5t1 27.5t0.5 18t-0.5 19t-0.5 29.5 t-0.5 29t-0.5 19.5z"/>
<glyph glyph-name="V" horiz-adv-x="479" unicode="V" d="M66 705h18t28 0.5t28 0.5h19q7 0 16.5 -5.5t10.5 -25.5q1 -19 1.5 -30.5t1.5 -20t1.5 -16t2.5 -17.5q3 -17 4.5 -28t2.5 -20.5t1.5 -20t1.5 -27.5q0 -16 1 -29.5t2.5 -27t4 -28.5t5.5 -34q0 -2 1.5 -15.5t3 -29.5t3 -31t2.5 -20q2 -14 5.5 -19.5t5.5 -5.5t4 3.5t3 6.5 q1 4 3 19.5t3.5 33t2.5 32.5t1 18q2 9 3.5 18.5t3.5 19.5q5 24 5.5 48t1.5 47q1 16 2.5 31.5t4.5 32.5l2 12t3 12q1 6 2 17.5t2 23.5t2 23.5t1 17.5q0 5 0.5 9.5t2.5 9.5l3 3q3 3 6.5 6t7.5 5.5t7 2.5q5 0 8 -1q1 0 8 -0.5t15.5 -0.5t18 -0.5t17.5 -0.5h9.5t14.5 0.5t15 0.5 h10q2 0 11.5 0.5t12.5 0.5q25 0 25 -23q0 -2 -0.5 -10.5t-3.5 -22.5q-2 -8 -4.5 -17t-4.5 -17q-3 -12 -6 -32.5t-4 -37.5q0 -5 -0.5 -10t-0.5 -10q-1 -8 -2.5 -15t-2.5 -14v-9.5t-1 -9.5q-2 -16 -5.5 -31.5t-7.5 -30.5q-5 -22 -7.5 -43t-6.5 -42l-9 -51q-2 -12 -3.5 -24 t-3.5 -24q-6 -37 -15 -71q-4 -15 -6.5 -25t-5 -19t-4.5 -19.5t-5 -26.5q-6 -35 -14 -52.5t-35 -17.5h-33.5h-52h-53h-35.5q-18 0 -23.5 8.5t-12.5 33.5q-4 14 -8 33t-8 38.5t-7 37t-5 29.5q-1 6 -4 20t-6.5 30.5t-6.5 31.5t-4 21q-1 5 -3 14t-3.5 19.5t-3 19.5t-2.5 14 q-1 6 -1.5 12.5t-1.5 12.5q-1 4 -1.5 8t-1.5 8q-6 30 -10 49t-6.5 32.5t-4.5 25.5t-4 29q-3 24 -7 49t-8 42q-3 15 -4.5 24.5t-1.5 23.5q0 3 0.5 9.5t3 13t7.5 11.5t15 5q5 0 8 -1h34z"/>
<glyph glyph-name="W" horiz-adv-x="750" unicode="W" d="M185 0q-14 0 -22 2t-13.5 8.5t-9 17.5t-7.5 29q-1 4 -2.5 15.5t-4 24.5t-4.5 24.5t-3 16.5q-5 28 -12.5 55t-15.5 55q-5 19 -9.5 37t-7.5 37q-4 19 -7 37t-8 37q-5 17 -10 32.5t-10 32.5l-3 15q-2 14 -6.5 35.5t-9 47.5t-9 50t-7 43t-2.5 26q0 9 4 17t12 12q4 2 12.5 2 h13.5q4 0 13 -0.5t19.5 -1t19.5 -1t13 -0.5q2 0 7.5 0.5t11.5 0.5q5 1 10.5 1h7.5q12 0 20 -5q12 -8 15.5 -21t7.5 -38q1 -11 3.5 -25.5t5.5 -29t5.5 -27t4.5 -20.5q5 -23 12 -45t13 -44q2 -8 5 -21t6 -27.5t6 -28.5t5 -24q3 -13 4.5 -16t4.5 -3q4 0 8 11q2 12 5 22 q2 8 3.5 15t2.5 9q5 20 10 39t10 39q-5 19 -10 37.5t-9 38.5q-2 12 -4 24.5t-5 25.5q-2 14 -5.5 27t-6.5 26q-1 4 -2.5 13t-1.5 16q0 12 4 18.5t10 9.5t12 3.5t11 0.5q3 0 12 -0.5t19.5 -1t19.5 -1t13 -0.5q3 0 9.5 0.5t14.5 0.5q8 1 15 1h9q26 0 32 -14.5t7 -37.5 q2 -35 6 -67q4 -26 9 -50.5t10 -50.5q0 -2 2 -12.5t4 -24t3.5 -28.5l2.5 -25q1 -7 1 -13.5t1 -13.5t2 -13.5t2 -13.5q1 -11 4 -14t4 -3q7 0 10 21q2 8 2.5 16.5t2.5 16.5q3 23 8 45t9 45q3 19 5 37t5 37q2 11 4 23l4 24q2 8 3 13.5t2 11.5t1.5 14.5t0.5 21.5q1 23 5.5 40 t29.5 17h15.5t15.5 -1q1 0 6 -0.5t11 -1.5q7 -1 16 -1q2 0 8 0.5t13 0.5q7 1 13.5 1h8.5q9 0 18 -0.5t16.5 -3t12.5 -8.5t5 -17q0 -5 -0.5 -8.5t-1.5 -8.5q-2 -6 -5.5 -22t-7.5 -34t-7.5 -34.5t-4.5 -23.5l-6 -42l-6 -30t-6 -31q-2 -10 -4 -17.5t-4.5 -16.5t-6.5 -22.5 t-10 -34.5q-2 -6 -6 -22l-8.5 -34t-8.5 -35t-5 -26q-2 -8 -3 -15.5t-3 -15.5q-1 -5 -5.5 -21t-6.5 -21q-2 -6 -5.5 -22.5t-8 -34.5t-9 -34.5t-6.5 -22.5q-6 -17 -10 -27t-9.5 -15.5t-12.5 -7t-19 -1.5q-4 0 -14 0.5t-21.5 0.5t-22 0.5t-14.5 0.5h-13.5t-13.5 -1 q-4 -1 -11 -1q-6 0 -9 1q-13 5 -15.5 13t-4.5 19q-2 8 -3.5 15t-3.5 14q-5 17 -8 34.5t-7 34.5q-2 9 -4 19.5t-4.5 19.5t-6.5 15t-8 6q-2 0 -6.5 -3.5t-8.5 -18.5q-2 -8 -8 -28.5t-12.5 -42.5t-12.5 -41t-7 -25q-2 -9 -8 -20.5t-24 -11.5q-3 0 -10.5 0.5t-16.5 0.5t-17 0.5 t-11 0.5h-42z"/>
<glyph glyph-name="X" horiz-adv-x="500" unicode="X" d="M5 687q0 5 5.5 13.5t24.5 8.5q3 0 11.5 -0.5t18.5 -0.5q10 -1 18.5 -1.5t12.5 -0.5t13.5 0.5t20.5 1.5q11 0 21 0.5t14 0.5q11 0 18.5 -2.5t12.5 -16.5q2 -6 3.5 -12.5t3.5 -12.5q1 -2 5.5 -11.5t10.5 -21t11 -22.5t6 -15q5 -14 10 -14q1 0 2.5 0.5t3.5 5.5q2 3 5 14.5 t5 15.5q1 3 4.5 11.5t8 18t8 18.5t4.5 13q3 9 9 19t23 10h8t14 -1q7 0 13.5 -0.5t8.5 -0.5q5 0 17.5 0.5t27 1t27.5 1t19 0.5q5 0 15.5 -2t10.5 -15q0 -8 -4 -18.5t-6 -15.5q-7 -14 -13.5 -27.5t-11.5 -27.5q-8 -18 -14 -36t-13 -36q-5 -14 -11 -28t-13 -28 q-5 -10 -9.5 -19.5t-9.5 -20.5q-2 -5 -4.5 -10t-4.5 -10q-6 -11 -12 -22.5t-6 -21.5q0 -7 2.5 -14t7.5 -16q3 -6 10 -21.5t15.5 -33t15.5 -33.5t10 -22q6 -12 9.5 -19.5t6 -14t5.5 -14.5t7 -20q6 -19 16 -43t23 -47q5 -8 9.5 -16t7.5 -16q1 -4 2 -9.5t1 -6.5 q0 -17 -10 -21.5t-15 -4.5t-15.5 0.5t-23.5 1.5q-12 0 -23 0.5t-16 0.5q-3 0 -12 -0.5t-18.5 -0.5t-18.5 -0.5t-12 -0.5q-7 0 -11.5 1.5t-8 6t-7.5 13.5t-10 25q-2 4 -6.5 15t-10 23t-10 22.5t-6.5 15.5q-4 9 -7 11t-5 2t-4 -2.5t-7 -12.5q-2 -5 -7 -16.5t-10.5 -25 t-10.5 -26t-7 -18.5q-8 -23 -19 -27t-18 -4h-11t-17.5 0.5t-18 0.5h-12.5h-29.5t-13.5 -1q-6 0 -17.5 -0.5t-23.5 -0.5q-8 0 -14.5 6t-6.5 17q0 8 3.5 16.5t9.5 19.5q2 4 4 7.5t4.5 9.5t6.5 15t11 24q8 17 17 34.5t17 34.5q8 18 14.5 36t14.5 37q6 13 12.5 26t12.5 27 l15 32.5t3 10.5q0 5 -2 9.5t-4 9.5q-12 23 -24 48.5t-20 45.5q-4 11 -7 20.5t-8 20.5q-7 17 -16 35t-17 35q-2 3 -6 12t-8.5 19.5t-8.5 19.5t-6 13q-5 11 -10.5 25t-5.5 20z"/>
<glyph glyph-name="Y" horiz-adv-x="479" unicode="Y" d="M185 -1q-35 0 -35 33v52q0 3 -0.5 14t-0.5 14t0.5 9.5t1 14t1 14.5t0.5 10q0 11 -1 21.5t-1 21.5q-1 3 -0.5 14t0.5 14q0 7 -0.5 13t-1.5 12q0 3 -1 7.5t-4 13t-7.5 23.5t-12.5 41q-13 39 -26 71t-20 47q-6 13 -9.5 22t-6.5 16.5t-6 15.5t-7 21q-8 26 -16 51.5t-19 51.5 q-10 26 -12.5 33t-2.5 11q0 3 2 9q5 13 13 15t14 2q3 0 10 -0.5t15.5 -0.5t16 -0.5t10.5 -0.5q4 0 14 0.5t21.5 0.5t22 0.5t14.5 0.5q7 0 14 -2t13 -9q3 -4 6.5 -12.5t6.5 -18.5t5.5 -19.5t4.5 -15.5l9 -45q1 -4 4 -15t7 -23.5t7 -24t4 -16.5q4 -16 6 -22t4 -6q1 0 4 1.5 t5 11.5q0 3 2.5 14t5.5 23.5t6 23.5t5 15q7 17 10.5 35t7.5 36q4 22 8 36t9 21.5t13.5 10t21.5 2.5q14 0 27.5 -1t27.5 -1h8t13 0.5t13 0.5h9q11 0 16.5 -1t9.5 -3q15 -9 15 -25q0 -7 -3 -20t-5 -20q-1 -5 -7.5 -24t-14 -43t-15.5 -46.5t-12 -33.5q-2 -5 -4.5 -11t-4.5 -12 q-3 -8 -5.5 -16t-5.5 -16t-6 -15.5t-6 -15.5q-7 -19 -14 -37t-15 -37t-16.5 -37t-12.5 -36q-4 -16 -4 -36q0 -9 0.5 -18.5t0.5 -19.5q0 -4 -0.5 -13.5t-1 -21t-1 -21.5t-0.5 -14t0.5 -13.5t0.5 -21t0.5 -21.5t0.5 -14q0 -17 -5 -29t-21 -14q-5 -1 -20 -0.5t-20 0.5h-8 t-13 -0.5t-13 -0.5h-9z"/>
<glyph glyph-name="Z" horiz-adv-x="437" unicode="Z" d="M87 537q-2 0 -7 -0.5t-7 -0.5q-12 0 -21.5 10t-9.5 20q0 2 0.5 10.5t0.5 10.5t0.5 12t0.5 13q0 11 -0.5 20.5t-0.5 20.5v23.5t2 10.5q7 16 19 18.5t28 2.5h22t34 -0.5t34.5 -0.5h23.5h10.5t15.5 0.5t16 0.5h11t11.5 -0.5t18 -0.5t18 -0.5t11.5 -0.5h18h10t14.5 0.5 t14.5 0.5h10q11 0 24 -6t14 -21q0 -3 0.5 -15t1 -25.5t0.5 -26v-17.5q0 -7 -0.5 -12t-3.5 -13t-9 -21t-17 -37q-4 -8 -6.5 -15.5t-5.5 -15.5q-5 -10 -9.5 -19.5t-9.5 -19.5l-24 -42t-23 -43q-10 -17 -18 -38q-6 -15 -10 -24t-7.5 -16.5t-8.5 -16.5t-12 -22q-3 -5 -7 -13.5 t-7.5 -17t-6.5 -16.5t-3 -12q0 -11 5.5 -12.5t9.5 -1.5t16 0.5t16 0.5q5 0 19.5 0.5t30.5 1t30.5 1t20.5 0.5q4 0 11 -0.5t13.5 -3.5t11 -9t4.5 -18v-8.5t-0.5 -14t-0.5 -14v-9.5v-10.5t0.5 -16t0.5 -16.5v-11q0 -11 -1.5 -18t-2.5 -9q-1 -1 -9.5 -8t-16.5 -7q-1 0 -7 0.5 t-14 1.5q-9 1 -18 1.5t-18 0.5q-3 0 -11 -0.5t-17 -0.5t-17.5 -0.5t-11.5 -0.5q-14 0 -28 0.5t-28 0.5h-9t-13.5 -0.5t-13.5 -0.5h-9h-10t-15.5 0.5t-16.5 0.5h-11h-28q-10 0 -24 -1t-25 -1q-23 0 -31.5 11t-8.5 31v14.5t-0.5 22t-0.5 22v14.5q0 13 3 19.5t12 21.5 q4 7 10.5 19.5t13 26l13 27t10.5 21.5q7 15 11 24t8.5 17t9.5 18t13 25q7 12 13.5 24t11.5 25q4 8 6 13t4.5 9.5t5 9.5t7.5 13q4 7 10.5 19.5t12.5 26t10.5 26t4.5 19.5q0 14 -10 18q-1 0 -9.5 0.5t-10.5 0.5h-9t-15 -0.5t-15 -0.5h-10h-33z"/>
<glyph glyph-name="bracketleft" horiz-adv-x="271" unicode="[" d="M26 646v5v11t0.5 12t1.5 8q5 18 19.5 21.5t25.5 3.5q4 0 12.5 -0.5t19.5 -1.5q11 -2 20.5 -2.5t13.5 -0.5q6 0 10 1q4 0 14 1t22 1.5t22.5 1.5t15.5 1q11 0 23 -4.5t12 -26.5q0 -6 -1 -12l-2 -12q0 -5 -0.5 -9.5t-0.5 -9.5q0 -3 0.5 -10t1 -14.5t1 -14.5t0.5 -10 q0 -5 -0.5 -7.5l-2.5 -12.5q-1 -6 -4 -12t-16 -6q-2 0 -10.5 0.5t-11.5 0.5q-7 0 -13.5 -1t-6.5 -8q0 -4 1 -6v-8q-1 -4 -0.5 -17t0.5 -17q0 -3 -0.5 -11t-1 -17t-1 -17.5t-0.5 -11.5q0 -5 0.5 -16.5t1 -25t1 -26t0.5 -17.5q0 -3 -0.5 -11.5t-1 -18.5t-1 -18.5t-0.5 -12.5 q0 -11 0.5 -20.5t1.5 -20.5q1 -20 2 -38.5t1 -38.5v-8t-0.5 -13t-0.5 -13v-9q0 -2 0.5 -10.5t0.5 -10.5t-0.5 -5.5t-0.5 -4.5q0 -10 10 -10q2 0 8.5 0.5t8.5 0.5q17 0 25.5 -8t8.5 -19q0 -3 -1 -13t-1 -13q0 -4 0.5 -13.5t0.5 -20.5t0.5 -20.5t0.5 -13.5q0 -13 -0.5 -18 t-3.5 -10q-8 -15 -26 -15q-3 0 -5 1q-3 0 -12 0.5t-19 1t-19 1t-13 0.5q-5 0 -16.5 -1t-24.5 -1.5t-25 -1.5t-17 -1q-9 0 -14 0.5t-7 0.5q-12 1 -18 6t-9 10.5t-3.5 10t-0.5 5.5q0 6 2 16q1 5 2 20.5t2 34t1.5 38t0.5 31.5q0 4 -0.5 15t-0.5 23t-0.5 23t-0.5 16 q0 4 0.5 14.5t0.5 22.5t0.5 22.5t0.5 15.5q0 6 -0.5 22t-1 34.5t-1 35.5t-0.5 24v13.5t0.5 21t0.5 21.5v14v9.5t-0.5 13.5t-0.5 13.5v9.5q0 4 0.5 16t1 25t1 24.5t0.5 16.5q0 4 -0.5 16t-1.5 25.5t-1.5 26t-0.5 17.5z"/>
<glyph glyph-name="bracketright" horiz-adv-x="271" unicode="]" d="M16 635q-1 6 -1.5 12t-0.5 12v16t2 13q1 2 8 10.5t24 8.5q8 0 15.5 -0.5t15.5 -1.5t16.5 -1.5t16.5 -0.5h10t10 1q11 1 20.5 2t20.5 2h36q15 0 26.5 -7.5t11.5 -22.5q0 -6 -1 -19.5t-2 -21.5q-2 -25 -3 -51t-1 -54q0 -5 0.5 -16.5t0.5 -24.5t0.5 -24.5t0.5 -16.5 q0 -4 -0.5 -13.5t-0.5 -20t-0.5 -20t-0.5 -13.5q0 -6 0.5 -22t1 -34t1 -34t0.5 -22v-11.5t-0.5 -18.5t-0.5 -18.5v-11.5v-57q0 -5 -0.5 -17t-0.5 -25.5t-0.5 -26t-0.5 -17.5q0 -4 0.5 -15.5t1.5 -24.5t1.5 -24.5t0.5 -16.5q0 -14 -0.5 -25.5t-5 -19.5t-13.5 -12.5t-26 -4.5 q-6 0 -12 0.5t-11 1.5q-12 1 -24 1.5t-24 0.5h-6q-5 0 -17.5 -1t-26 -2t-24.5 -2l-11 -1q-16 0 -23.5 9.5t-7.5 18.5q0 3 0.5 10t1.5 15t1.5 15.5t0.5 10.5q0 2 -0.5 8t-1 13t-1 13t-0.5 9q0 4 1 16t5 16q4 5 9 6t9 1q6 0 12.5 -0.5t12.5 -0.5q17 0 17 9q0 2 -1 7.5t-1 7.5 v41q0 3 0.5 11t1 16.5t1 16.5t0.5 11q0 2 -1 14t-1 15v52q0 3 0.5 11.5t0.5 18.5t0.5 18.5t0.5 12.5q0 5 -0.5 18t-1.5 27.5t-2 27.5t-1 19v74q0 2 0.5 9.5t0.5 9.5q0 11 -3 13t-8 1h-22q-11 0 -19.5 7.5t-8.5 19.5q0 2 0.5 11t0.5 12v41z"/>
<glyph glyph-name="underscore" horiz-adv-x="500" unicode="_" d="M510 -125h-520v50h520v-50z"/>
<glyph glyph-name="grave" horiz-adv-x="271" unicode="`" d="M168 590q-3 0 -13.5 -1t-14.5 -1q-8 0 -12 3.5t-12 11.5q-14 16 -28.5 30.5l-15.5 15.5q-21 20 -27.5 27.5t-6.5 13.5q0 10 8 11.5t19 1.5h9.5t14.5 -0.5t15 -0.5h10h16.5t16.5 1q7 1 17 2t11 1q14 0 20 -10t10 -23q2 -5 5 -13.5t6.5 -16.5t6.5 -15t4 -10q5 -8 5 -15 q0 -14 -21 -14q-4 0 -18 0.5t-19 0.5h-6z"/>
<glyph glyph-name="a" horiz-adv-x="437" unicode="a" d="M219 234q-13 0 -28.5 -12.5t-15.5 -49.5q0 -14 4 -23.5t10 -15.5t12.5 -8.5t11.5 -2.5q22 0 32 16.5t10 42.5q0 19 -8 36t-28 17zM183 354q3 0 11 -0.5t16.5 -1.5t15.5 -1.5t9 -0.5q11 0 15.5 7t4.5 13q0 13 -4.5 20t-11.5 10.5t-15.5 4.5t-16.5 1q-4 0 -17 1t-18 1 q-28 0 -58 -12l-27.5 -10t-10.5 -2q-10 0 -19.5 8t-9.5 32q0 4 0.5 18.5t0.5 19.5t-1 20.5t-1 20.5q0 9 4 15t10 10t12 5.5l10 2.5q15 3 33 6.5t36.5 6.5t37 5t33.5 2q28 0 53.5 -5t47 -12.5t37.5 -18t25 -20.5q10 -12 16 -32.5t6 -66.5q0 -4 -0.5 -13.5t-0.5 -20 t-0.5 -20.5t-0.5 -14q0 -3 0.5 -10.5t0.5 -16.5t0.5 -17t0.5 -11q0 -4 -0.5 -18.5t-0.5 -19.5v-13.5t0.5 -20t0.5 -20.5v-14t-0.5 -15t-1 -24t-1 -24.5t-0.5 -15.5q0 -3 0.5 -12t1 -19t1 -19t0.5 -12q0 -17 -9.5 -22.5t-17.5 -5.5h-9.5t-14 0.5t-14.5 0.5h-10t-10.5 -0.5 t-15.5 -1t-15.5 -1t-10.5 -0.5q-5 0 -9 3t-6 6q-2 2 -2 5t-2 5q-2 4 -6 4q-2 0 -5 -2.5t-5 -4.5q-9 -8 -21 -12.5t-23 -6.5t-20.5 -2.5t-15.5 -0.5q-9 0 -21.5 0.5t-26.5 4.5t-29.5 12.5t-30.5 24.5q-14 15 -23 30.5t-13.5 30.5t-6 29t-1.5 26q0 47 3.5 72.5t13.5 43.5 q8 14 22 30t34 27q21 10 35.5 16t25 8.5t17.5 3t14 0.5h5z"/>
<glyph glyph-name="b" d="M232 390q-21 0 -28.5 -19.5t-9.5 -45.5q0 -2 -0.5 -11t-1 -19.5t-1 -20t-0.5 -12.5q0 -14 1 -30.5t5 -30.5t12 -24t21 -10t24 15q7 10 11.5 36t4.5 53v14t-1 23.5t-2.5 27.5t-4.5 25q-8 29 -30 29zM109 0h-9.5t-13.5 -0.5t-13.5 -0.5h-9.5q-5 0 -10.5 0.5t-10.5 3.5 t-8.5 9t-3.5 17q0 3 0.5 12.5t1 20t1 20.5t0.5 14q0 5 -0.5 18t-1 28t-1 28.5t-0.5 19.5q0 23 1 46t1 46q0 5 -0.5 19t-0.5 30t-0.5 30t-0.5 20t0.5 21.5t0.5 33t0.5 33.5t0.5 22q0 5 -0.5 19t-1 29.5t-1 29t-0.5 19.5q0 3 0.5 10.5t0.5 16t0.5 16t0.5 10.5t-0.5 14t-0.5 14 q0 8 1 14t5 11q6 8 13 9.5t22 2.5h93q13 0 21.5 -8t8.5 -24q0 -4 -0.5 -17t-1.5 -17v-14.5t0.5 -21.5t0.5 -21.5v-14.5q0 -16 1.5 -22.5t8.5 -6.5q1 0 11 5q3 1 22 6.5t36 5.5q8 0 21 -2t28 -7.5t30.5 -14.5t28.5 -22q10 -11 18.5 -28.5t14.5 -34t9.5 -29t3.5 -13.5 q2 -9 2.5 -18t1.5 -18q2 -14 3 -22.5t1.5 -14.5t0.5 -11.5v-14.5q0 -3 -0.5 -10t-1 -15.5t-1 -16.5t-0.5 -11v-16q0 -44 -11.5 -87.5t-31.5 -77.5q-14 -24 -31.5 -39t-34 -23.5t-31 -11.5t-23.5 -3q-24 0 -37.5 5t-26.5 12q-11 6 -14 7.5t-5 1.5q-5 0 -6 -4t-1 -7 q0 -7 -5 -9t-7 -2q-1 0 -5 0.5t-5 0.5h-48z" unicode="b"/>
<glyph glyph-name="c" horiz-adv-x="313" unicode="c" d="M22 226q0 3 0.5 19t1 35.5t1 37t0.5 22.5q3 28 12.5 59.5t17.5 48.5q22 47 68.5 78.5t110.5 31.5q30 0 47 -4.5t17 -30.5q0 -3 -0.5 -10t-0.5 -15.5t-0.5 -16t-0.5 -10.5v-7.5t0.5 -12t0.5 -12v-8.5v-20q0 -24 -14 -28t-31 -4q-23 0 -33.5 -11t-15.5 -22 q-3 -6 -4.5 -12.5t-3 -17t-2 -27t-0.5 -42.5q0 -20 5.5 -35t13.5 -24.5t17.5 -14.5t18.5 -6q7 -1 13.5 -0.5t12.5 -1.5q8 -2 14.5 -8t6.5 -17v-7t-1 -10q0 -8 -0.5 -13.5t-0.5 -13v-19v-29.5q0 -2 0.5 -11t0.5 -12q0 -12 -7 -18t-10 -8t-9 -3.5t-24 -1.5t-33 1 q-13 1 -25.5 1.5t-18.5 2.5q-48 11 -74.5 36t-46.5 71q-6 13 -10.5 24.5t-7.5 25t-4.5 30.5t-1.5 40z"/>
<glyph glyph-name="d" d="M230 384q-14 0 -23 -11t-13.5 -26.5t-6 -33.5t-1.5 -31q0 -7 0.5 -17.5l1 -21t1 -20t1.5 -13.5q3 -15 11 -28.5t25 -13.5q5 0 14.5 5t15.5 24q0 1 2.5 8.5t5 18.5t4.5 22.5t2 19.5t-0.5 15t-1.5 14v23.5t-2 19.5q-5 23 -15 34.5t-21 11.5zM355 3h-23t-17 -1 q-5 -1 -8.5 -1.5t-8.5 -0.5q-6 0 -12 3t-7 5.5t-1 7.5q0 8 -6 8q-2 0 -10 -6q-5 -4 -15 -8.5t-24 -8.5q-7 -1 -22.5 -3t-20.5 -2q-3 0 -12.5 1.5t-21.5 5t-24.5 9t-21.5 13.5q-16 13 -28.5 33t-21.5 42t-14.5 44t-7.5 39q-1 9 -2 25.5t-1.5 34.5t-0.5 35.5v27.5q0 14 1 27 t3 30q1 15 5 31.5t8 31t7.5 25t4.5 12.5q10 22 25.5 40t34 30t38.5 18.5t38 6.5q17 0 36.5 -5t27.5 -13q6 -5 7.5 -6t4.5 -1q5 0 5.5 3t0.5 7q0 2 0.5 11t0.5 11q0 14 -0.5 36t-2.5 36q-1 11 -1.5 19.5t-0.5 12.5q0 3 0.5 8.5t3.5 11.5t8.5 10.5t15.5 5.5q4 1 8.5 1h19.5 h11.5t11.5 1q5 1 9 1h9t10.5 -0.5t10.5 -0.5q3 0 11 1t11 1h4q8 0 14 -4q3 -3 6 -12.5t3 -20.5q0 -6 -0.5 -12t-1.5 -12v-27v-10.5t-2 -19.5q-1 -11 -1 -20.5v-19.5q0 -15 0.5 -29.5t0.5 -29.5v-23v-15t0.5 -23t0.5 -23.5v-15.5q0 -17 -0.5 -33.5t-0.5 -33.5v-10t0.5 -15.5 t0.5 -16v-10.5q0 -6 -0.5 -22t-1.5 -34t-1.5 -34t-0.5 -22v-20t0.5 -37t1 -37.5t0.5 -21.5q1 -4 1 -12q0 -14 -5.5 -20.5t-7.5 -8.5q-3 -2 -6.5 -2.5t-6.5 -0.5q-5 0 -10.5 0.5t-10.5 1.5h-28z" unicode="d"/>
<glyph glyph-name="e" d="M281 366q0 32 -13 46t-27 14q-4 0 -6.5 -0.5t-8.5 -2.5q-5 -2 -10.5 -4.5t-10.5 -11.5q0 -2 -2.5 -10t-4.5 -18t-4 -19t-2 -12q0 -19 6 -23.5t14 -4.5q4 0 16.5 0.5t17.5 0.5q2 0 8 -0.5t8 -0.5q8 0 13.5 5t5.5 14v27zM431 42q0 -17 -11.5 -24.5t-18.5 -9.5 q-14 -4 -39.5 -6t-50 -3.5t-43.5 -2t-20 -0.5q-35 0 -60.5 5.5t-41.5 10.5q-14 4 -20 7.5t-17 13.5q-17 14 -27 23t-16.5 17t-11 16t-8.5 20q-6 18 -9.5 29.5t-5.5 21t-2.5 20t-1.5 26.5q0 3 -0.5 11t-1.5 17.5t-1.5 18t-0.5 11.5q0 11 1 22.5t1 22.5q2 23 2 47.5t5 48.5 q3 16 9.5 29.5t12.5 24t11 17.5t7 9q15 18 34.5 30t41.5 19.5t44 11t42 3.5q63 0 98.5 -16.5t58.5 -39.5q3 -3 11.5 -14t17.5 -29.5t16 -44t7 -58.5q0 -14 -1 -27.5t-1 -27.5v-23v-15.5t-2 -12.5q-1 -1 -4.5 -6t-8.5 -10t-12 -9.5t-14 -4.5q-3 0 -15 1t-16 1q-3 0 -7.5 -0.5 t-14.5 -1.5t-24.5 -1.5t-25.5 -0.5h-10.5t-11.5 1q-2 0 -7 0.5t-11 1t-11.5 1t-6.5 0.5q-29 0 -34 -5t-5 -19q0 -8 0.5 -15.5t5.5 -13.5q8 -14 19 -17.5t25 -6.5q8 -2 18.5 -3.5t12.5 -1.5h2q18 0 45 3.5t43 11.5q11 5 15 6t12 1q12 0 18.5 -4.5t9.5 -11t3.5 -14.5t0.5 -15 v-33t1 -16v-17z" unicode="e"/>
<glyph glyph-name="f" horiz-adv-x="271" unicode="f" d="M266 434v-15.5t1 -15.5q1 -5 1.5 -8.5t0.5 -8.5q0 -20 -11.5 -24t-20.5 -4q-28 -2 -32.5 -18t-4.5 -43v-62q0 -5 1 -16.5t1.5 -24.5t1 -24.5t0.5 -16.5v-12t-0.5 -19t-0.5 -19v-13q0 -3 0.5 -9.5t0.5 -14.5t0.5 -15t0.5 -10q0 -11 -0.5 -16t-3.5 -10q-2 -2 -7.5 -8 t-16.5 -6q-4 0 -13.5 0.5t-20 0.5t-19.5 0.5t-13 0.5h-13.5t-13.5 -1q-5 -1 -9 -1h-9q-12 0 -19 4q-8 6 -9.5 13.5t-1.5 29.5q0 4 0.5 14t1 21t1 21.5t0.5 14.5q0 11 -0.5 22t-0.5 22v136q0 2 0.5 11t0.5 11q0 14 -1.5 24t-11.5 14q-4 2 -7.5 1.5t-7.5 1.5q-7 4 -8 10.5 t-1 23.5v8.5t0.5 13.5t0.5 13v9v9.5t-0.5 14t-0.5 14v9.5q0 17 3.5 23.5t18.5 6.5q9 0 12.5 5.5t3.5 10.5q0 2 -0.5 5t-0.5 5v10q0 3 -0.5 12.5t-0.5 12.5q0 34 2.5 49t4.5 20q8 20 22 33t24 17q5 2 15.5 4.5t23 4.5t26 3.5t24.5 1.5q3 0 11.5 -0.5t17.5 -1t17.5 -1 t11.5 -0.5q4 0 9.5 -1t10.5 -4t8.5 -8.5t3.5 -14.5q0 -3 -0.5 -10.5t-0.5 -15.5t-0.5 -15.5t-0.5 -10.5q0 -4 1 -17.5t1 -17.5q0 -9 -6 -18t-23 -9q-4 0 -8 0.5t-8 0.5q-14 0 -21 -8t-7 -19q0 -8 3 -17t16 -9q2 0 9 0.5t9 0.5q9 0 21 -4t12 -22q0 -4 -0.5 -17.5t-0.5 -18.5 v-19z"/>
<glyph glyph-name="g" d="M264 337q0 3 -1 14t-4.5 22t-10.5 20t-19 9q-3 0 -12 -2t-19 -15q-6 -8 -10.5 -27.5t-4.5 -36.5q0 -9 2 -28t5 -28q3 -8 10.5 -18t27.5 -10q11 0 18 5.5t11 14.5t5.5 19.5t1.5 20.5v40zM21 318q0 19 2.5 39t6 37t6.5 28.5t4 14.5q3 9 12.5 28.5t27 40t43 36t60.5 15.5 q16 0 32.5 -3.5t30.5 -14.5q8 -7 10 -8.5t4 -1.5q4 0 4 7q1 8 3 13t12 5q3 0 10.5 -0.5t15.5 -0.5q9 -1 17 -1.5t11 -0.5q13 0 22 0.5t17 1.5q4 1 8 1h8q28 0 33.5 -7.5t5.5 -26.5q0 -3 -0.5 -10.5t-0.5 -16.5t-0.5 -17t-0.5 -11q0 -4 0.5 -15.5t0.5 -24t0.5 -24t0.5 -16.5 q0 -6 -0.5 -21.5t-1.5 -33t-1.5 -33.5t-0.5 -22q0 -1 0.5 -12t1 -26t1 -31.5t0.5 -28.5q1 -16 1 -32v-32q0 -52 -10.5 -89.5t-43.5 -66.5q-22 -19 -59 -32t-105 -13q-58 0 -95 7.5t-46 12.5q-5 3 -7.5 5.5t-4 9t-1.5 18v32.5q0 7 0.5 21.5t1.5 21.5q3 13 11.5 18t17.5 5 q2 0 8 -0.5t14 -2.5q7 -2 14 -5t14 -5q10 -2 19.5 -2.5t20.5 -1.5q4 0 17 -1t18 -1q26 0 43 14.5t17 29.5q0 6 -4.5 10.5t-9.5 4.5t-9 -2t-9 -4q-13 -5 -24.5 -8t-39.5 -3q-8 0 -26 2t-41 13q-8 4 -18.5 11t-24.5 27q-18 24 -24.5 46t-11.5 52q-2 12 -3.5 20.5t-2.5 17 t-1.5 18.5t-0.5 25z" unicode="g"/>
<glyph glyph-name="h" d="M31 575q0 15 -0.5 30t-0.5 30q0 2 0.5 13.5t1.5 25.5q1 18 9 25.5t19 7.5q3 0 11.5 -0.5t18 -0.5t18 -0.5t11.5 -0.5t9 0.5t13.5 0.5t13.5 0.5t9 0.5q5 0 12 -1.5t13 -11.5q3 -5 3.5 -10t0.5 -25q0 -4 1 -16.5t1 -16.5t-1.5 -17.5t-1.5 -18.5q0 -2 0.5 -7t0.5 -7t-0.5 -9 t-0.5 -9t1.5 -11t9.5 -9q4 0 8 1.5t13 5.5q11 5 30 10t40 5q31 0 55.5 -13.5t42 -36.5t26.5 -55.5t9 -69.5q0 -19 -0.5 -44t-0.5 -44q0 -3 -0.5 -11.5t-0.5 -18.5t-0.5 -18.5t-0.5 -12.5q0 -5 0.5 -16.5t1.5 -25t1.5 -26t0.5 -17.5q0 -3 -0.5 -11t-0.5 -17t-0.5 -17.5 t-0.5 -11.5t0.5 -9.5t0.5 -14.5t0.5 -15t0.5 -10q0 -4 -0.5 -11t-3 -14.5t-8 -13t-15.5 -5.5q-3 0 -10 0.5t-15.5 0.5t-16.5 0.5t-11 0.5h-8.5t-14 -0.5t-14 -0.5h-9.5q-27 0 -35.5 9.5t-8.5 35.5q0 3 0.5 9.5t1.5 14t1.5 14t0.5 9.5q0 2 -0.5 8t-0.5 13t-0.5 13t-0.5 9v9 t0.5 14.5t0.5 14.5v10t-0.5 12t-0.5 19.5t-0.5 19.5t-0.5 13t0.5 14.5t1.5 22t1.5 22t0.5 14.5q0 37 -8.5 51t-25.5 14q-7 0 -10.5 -1t-5.5 -3q-2 -1 -8.5 -9.5t-7.5 -28.5q0 -1 -0.5 -13t-1 -27t-0.5 -28v-16t0.5 -12t0.5 -19.5t0.5 -20t0.5 -13.5q0 -5 -0.5 -17 t-0.5 -25.5t-0.5 -26t-0.5 -17.5v-41q0 -3 1 -15t1 -16q0 -19 -7 -28q-5 -6 -11 -7t-18 -1t-24 0.5t-24 0.5h-12t-12 -1q-3 0 -13 -1t-14 -1q-12 0 -18 4t-9 10t-3.5 12t-0.5 10q0 3 0.5 10.5t0.5 15.5t0.5 15.5t0.5 10.5v13.5t-0.5 21t-0.5 21.5v14t0.5 14.5t0.5 22.5 t0.5 22.5t0.5 15.5t-0.5 18t-1 28t-1 28.5t-0.5 19.5q0 4 0.5 15.5t0.5 24.5t0.5 24.5t0.5 16.5v21q0 4 1 17t1 18q0 4 -0.5 14t-1.5 21.5t-1.5 21.5t-0.5 15v39z" unicode="h"/>
<glyph glyph-name="i" horiz-adv-x="229" unicode="i" d="M151 553q23 0 35 -5t12 -35q0 -6 -0.5 -12t-0.5 -12q-1 -10 -1 -19v-19v-82v-16.5t-0.5 -24.5t-0.5 -24.5v-16.5v-13.5t1 -13.5t1.5 -13.5t0.5 -14.5q0 -3 -0.5 -15.5t-0.5 -17.5v-61v-21t-0.5 -32.5t-0.5 -33v-21.5q0 -18 -7 -23.5t-34 -5.5h-10t-15 0.5t-15 0.5h-10 q-2 0 -8.5 -0.5t-13.5 -0.5t-13 -0.5t-9 -0.5q-24 0 -28 14.5t-4 35.5q0 4 0.5 13.5t0.5 21t0.5 21.5t0.5 14v15t-0.5 23.5t-0.5 24v16.5v21t0.5 32t0.5 33v22q0 5 -0.5 19t-0.5 29.5t-0.5 29.5t-0.5 20q0 3 0.5 11.5t0.5 18t0.5 18t0.5 11.5q0 5 -1 19t-1 18q0 23 3 34.5 t20 14.5q4 1 17.5 1.5t30 1t31 0.5h20.5zM30 666q0 6 0.5 13.5t4 14t10.5 11t21 4.5q4 0 13 -0.5t19.5 -0.5t20 -0.5t13.5 -0.5t15.5 1t15.5 1q9 0 18 -5q10 -6 12 -12t3 -15v-21v-15q0 -4 1 -7q0 -15 -5.5 -30t-29.5 -15h-77q-2 0 -10 -0.5t-11 -0.5q-14 0 -23.5 9t-9.5 28 v8t-0.5 12.5t-0.5 12v8.5z"/>
<glyph glyph-name="j" horiz-adv-x="250" unicode="j" d="M136 551q3 0 11 0.5t17 0.5t17 0.5t11 0.5q13 0 21.5 -7.5t9.5 -26.5v-13t-0.5 -19t-0.5 -19v-13v-47q0 -5 -0.5 -16.5t-1 -25t-1 -25.5t-0.5 -17t0.5 -16.5t1 -25t1 -25.5t0.5 -17q0 -3 -0.5 -9.5t-0.5 -14t-0.5 -14t-0.5 -9.5v-79q0 -36 -1 -57.5t-2.5 -35t-4.5 -21.5 l-6 -16q-9 -23 -25 -36t-34 -19t-35 -7.5t-29 -1.5q-9 0 -27 0.5t-27 2.5q-21 5 -25.5 18t-4.5 21q0 3 0.5 6t0.5 6q1 11 1 21.5v21.5v9t-0.5 13t-0.5 13v9q0 18 7 21.5t21 3.5q5 0 10 1t9 4.5t6.5 10.5t2.5 20q0 4 -0.5 16t-0.5 25t-0.5 25t-0.5 17q0 6 0.5 20.5t1 31 t1 31.5t0.5 21q0 4 -0.5 15.5t-1 24.5t-1 24t-0.5 16v88q0 2 -0.5 8.5t-1 13.5t-1 13t-0.5 9q0 11 3.5 17.5t9 9.5t12 3.5t12.5 0.5h9.5t14 -0.5t14.5 -0.5h10zM53 679q0 11 7.5 20.5t23.5 9.5q5 0 10 -0.5t10 -0.5h18h9.5t14 -0.5t14 -0.5h9.5q2 0 11 0.5t12 0.5 q10 0 16 -3.5t8.5 -8.5t3 -10.5t0.5 -9.5v-60q0 -5 -2 -13t-15 -13q-3 -1 -8 -1h-25q-5 0 -16.5 -0.5t-25 -0.5t-25.5 -0.5t-17 -0.5q-25 0 -29 11.5t-4 29.5q0 4 0.5 17.5t0.5 18.5q0 2 -0.5 7.5t-0.5 7.5z"/>
<glyph glyph-name="k" horiz-adv-x="437" unicode="k" d="M30 129q0 5 -0.5 19.5t-1 31t-1 31t-0.5 20.5q0 3 0.5 12t1 18.5t1 18.5t0.5 13v37v53.5t-1 52.5v13.5t-0.5 20t-0.5 20.5v14v8t2 16q1 11 1 23v19v16t-1 16q-2 20 -2.5 35t-0.5 22v26q2 12 7.5 17t12.5 5h65q3 0 11 0.5t18 1.5q9 0 17.5 0.5t11.5 0.5q11 0 19 -7.5 t8 -23.5q0 -2 -0.5 -4t-0.5 -4l-2 -26t-1 -25q0 -5 0.5 -18.5t0.5 -28.5t0.5 -29t0.5 -20v-10.5t-0.5 -16t-0.5 -16v-10.5q0 -13 0.5 -22t1.5 -18q0 -6 2 -11t7 -5q6 0 9 5t5 8q2 4 5.5 17.5t5.5 17.5q1 3 3.5 9.5t5 14t5 14.5t3.5 10q2 6 2 12t2 13q3 11 10 16.5t22 5.5 q5 0 19 -1t19 -1h9t8 1h48q21 0 25.5 -10.5t4.5 -14.5q0 -2 -2 -10q-2 -6 -5 -17.5t-7 -24t-7.5 -25t-6.5 -20.5q-4 -11 -8 -22.5t-8 -22.5q-2 -5 -6 -17.5t-8.5 -27t-9 -27.5t-6.5 -18q-4 -8 -4 -12q0 -2 5 -16.5t10 -23.5q6 -12 9.5 -20.5t7.5 -18t9 -22.5t13 -34 q8 -20 17.5 -43.5t14.5 -34.5q11 -26 15.5 -38.5t4.5 -19.5q0 -12 -8 -15t-16 -3q-4 0 -14.5 0.5t-22.5 0.5t-23 0.5t-15 0.5h-9.5t-14.5 -0.5t-15 -0.5h-10q-23 0 -31 9.5t-11 22.5q-2 7 -4.5 13.5t-4.5 13.5q-4 10 -6 16.5t-4 12t-4.5 12t-5.5 16.5q-2 5 -7 19.5t-7 19.5 q-1 4 -4 12.5t-7 8.5q-2 0 -4 -4.5t-4 -17.5v-13t1 -22v-8.5v-13.5v-13.5v-9.5t0.5 -9t0.5 -13.5t0.5 -13.5t0.5 -9q0 -5 -3 -16.5t-19 -11.5q-4 0 -14 0.5t-21.5 0.5t-22 0.5t-14.5 0.5q-3 0 -10.5 -0.5t-16.5 -0.5t-17 -0.5t-11 -0.5q-7 0 -13.5 6.5t-6.5 22.5v9.5t2 21.5 q2 14 2 28.5v29.5v10z"/>
<glyph glyph-name="l" horiz-adv-x="229" unicode="l" d="M126 706h8t12.5 0.5t12.5 0.5h9q12 0 21 -8t9 -22v-11q-2 -16 -3 -29.5t-1 -31.5v-16.5t0.5 -24.5t0.5 -25v-17q0 -4 -0.5 -18t-0.5 -19v-27v-41v-41.5v-27.5q0 -6 0.5 -21.5t1 -33t1 -33.5t0.5 -23v-56q0 -15 -0.5 -36t-0.5 -36q0 -4 0.5 -13.5t1 -20t1 -20t0.5 -13.5 q0 -18 -3.5 -28t-15.5 -13q-2 -1 -12 -1h-14q-3 0 -10 0.5t-15 0.5t-15.5 0.5t-10.5 0.5q-5 0 -20 -1t-20 -1q-20 0 -26.5 10.5t-6.5 18.5q0 4 0.5 16.5t0.5 26.5t0.5 27t0.5 18q0 22 -0.5 43.5t-0.5 43.5v13.5t0.5 21t0.5 21.5v14q0 5 -0.5 19t-1 29.5t-1 30t-0.5 20.5 v13.5t0.5 21t0.5 21.5v14v13.5t-0.5 20t-0.5 20.5v14q0 5 0.5 18t1 27.5t1 27.5t0.5 19v16t-2 24q-1 8 -1 10.5v5.5q0 29 7 38t34 9h56z"/>
<glyph glyph-name="m" horiz-adv-x="688" unicode="m" d="M487 225q0 4 0.5 13.5t0.5 20t0.5 20t0.5 13.5v10.5v10t-0.5 13.5t-0.5 21q-1 15 -7 27t-23 12q-10 0 -15 -4.5t-7 -6.5q-5 -6 -5.5 -15.5t-1.5 -23.5q0 -4 -0.5 -13.5t-1 -21t-1 -21.5t-0.5 -14v-11t0.5 -17t0.5 -17.5v-11.5q0 -7 -0.5 -24t-1.5 -36t-1.5 -36t-0.5 -24 v-20t1 -20q0 -2 1 -12t1 -13q0 -5 -5 -14.5t-21 -9.5q-10 0 -14 1q-8 1 -15 1h-15q-4 0 -14.5 -0.5t-22.5 -0.5t-23.5 -0.5t-15.5 -0.5q-9 0 -16 7.5t-7 18.5q0 4 0.5 15t1 23.5t1 24t0.5 16.5q0 3 -0.5 13t-0.5 14q0 3 0.5 9.5t0.5 14.5t0.5 14.5t0.5 9.5q0 5 -0.5 20 t-0.5 20q0 23 -0.5 56t-0.5 56q0 8 -0.5 17.5t-3.5 18t-9.5 14t-18.5 5.5q-6 0 -16.5 -5.5t-12.5 -20.5q-1 -5 -1.5 -14.5t-1 -19.5t-1 -19.5t-0.5 -15.5q0 -4 0.5 -15t1.5 -23.5t1.5 -24t0.5 -16.5t-0.5 -19.5t-1 -30.5t-1 -30t-0.5 -20v-23.5t1 -34.5q1 -3 1.5 -12.5 t0.5 -12.5q0 -11 -4 -17t-9 -8.5t-11 -3t-9 -0.5t-14.5 0.5t-14.5 0.5q-4 0 -15 -0.5t-23 -0.5t-23 -0.5t-16 -0.5q-6 0 -16 3.5t-10 24.5q0 3 0.5 12t0.5 19t0.5 19t0.5 13t-0.5 15t-1 23t-1 22.5t-0.5 15.5q0 4 0.5 15t0.5 23.5t0.5 24t0.5 16.5q0 24 -1.5 48.5t-1.5 48.5 q0 6 0.5 20t1 30.5t1 31t0.5 20.5v12t-0.5 18.5t-0.5 18.5v12q0 16 3.5 25t8.5 13t12 4.5t15 0.5q11 0 22 -0.5t22 -0.5q3 0 11.5 0.5t18 1.5t18 1.5t12.5 0.5q5 0 11.5 -1.5t11.5 -9.5q2 -3 3 -6t3 -6l2.5 -5t4.5 -3q2 0 5.5 3.5t8.5 6.5q1 1 6 5t14 8.5t22 8t29 3.5 q29 0 53 -10.5t36 -18.5q5 -5 11 -9t12 -4q5 0 8.5 1.5t14.5 9.5q9 7 34 18t55 11q51 0 83 -30.5t42 -76.5q1 -5 2.5 -16.5t3 -24.5t2.5 -24.5t1 -15.5q0 -3 -0.5 -11t-1 -17t-1 -17.5t-0.5 -11.5t0.5 -9.5t0.5 -14t0.5 -14.5t0.5 -10q0 -8 -0.5 -16.5t-0.5 -16.5 q0 -4 1 -17.5t1 -17.5v-41q-1 -14 -3 -27.5t-2 -27.5q0 -2 0.5 -8.5t1 -13.5t1 -13.5t0.5 -9.5t-1 -14t-2 -14q0 -6 -3 -15t-17 -9q-3 0 -10 0.5t-15.5 0.5t-16 0.5t-10.5 0.5t-12 -0.5t-19.5 -0.5t-19.5 -0.5t-13 -0.5q-12 0 -16 2q-11 6 -13 16t-2 14q0 6 0.5 12t0.5 12 q1 8 1.5 14t0.5 13.5v17.5v27v12t0.5 19.5t0.5 19.5v13v33z"/>
<glyph glyph-name="n" d="M102 2h-13.5t-12.5 -1q-4 0 -7.5 -0.5t-7.5 -0.5q-13 0 -21 8t-8 27q0 4 0.5 13t0.5 19t0.5 19t0.5 13q0 6 -0.5 22t-1 34t-1 34.5t-0.5 23.5q0 17 0.5 32.5t1.5 32.5q2 17 2.5 32.5t1.5 31.5v9.5t-0.5 14t-0.5 14v9.5q0 4 0.5 18.5t0.5 19.5q0 3 -0.5 12t-1 19.5 t-1 19.5t-0.5 13q0 8 0.5 23t4.5 22q7 12 16.5 14t13.5 2h8t13 -1q7 0 13 -0.5t8 -0.5q16 0 25 0.5t16 1.5q5 0 9 0.5t9 0.5q2 0 8.5 -1t10.5 -7q2 -3 2.5 -6.5t2.5 -7.5q2 -7 6 -7q1 0 7 4t8 5q8 5 29 15t53 10q34 0 58.5 -13.5t38.5 -29.5q23 -25 29 -56.5t6 -60.5 q0 -2 -0.5 -8t-0.5 -13t-0.5 -13t-0.5 -9v-11t0.5 -17t0.5 -17.5v-11.5q0 -4 -0.5 -14t-0.5 -22t-0.5 -22.5t-0.5 -14.5v-10.5t0.5 -16.5t0.5 -17v-11t-0.5 -11.5t-0.5 -18.5t-0.5 -18.5t-0.5 -12.5q0 -2 0.5 -8.5t0.5 -13.5t0.5 -13t0.5 -9q0 -27 -5.5 -45.5t-27.5 -18.5 q-2 0 -8 0.5t-13.5 1t-14.5 1t-10 0.5t-10.5 -0.5t-16.5 -1t-16.5 -1t-10.5 -0.5q-10 0 -15 1.5t-8 3.5q-1 1 -7 8.5t-6 16.5q0 5 1 17.5t1.5 26.5t1.5 27t1 18q0 6 -0.5 21t-1 32.5t-1 33t-0.5 21.5v21.5t1 21.5q1 14 2 27t2 27v26q0 5 -0.5 12t-3.5 13.5t-9.5 11 t-18.5 4.5q-3 0 -8.5 -1t-10.5 -4.5t-9 -11.5t-5 -21q-1 -10 -2 -24.5t-1.5 -29.5t-1 -29.5t-0.5 -23.5q0 -3 0.5 -11.5t0.5 -18t0.5 -18t0.5 -11.5q0 -22 -1.5 -43.5t-1.5 -44.5q0 -11 0.5 -23.5t1.5 -26.5q1 -5 1 -9v-9q0 -17 -6.5 -24.5t-16.5 -7.5q-1 0 -6 0.5 t-10.5 0.5t-11 0.5t-6.5 0.5h-38z" unicode="n"/>
<glyph glyph-name="o" d="M268 338q0 6 -1.5 17t-5.5 22.5t-11.5 19.5t-19.5 8q-10 0 -17 -6.5t-11.5 -14.5t-6.5 -16t-3 -11q-4 -19 -4 -35q0 -5 -1 -12q0 -13 1 -30q0 -5 -0.5 -21t-0.5 -21q0 -34 8 -58.5t31 -24.5q13 0 24 11.5t14 33.5q1 9 2 17t1.5 22t0.5 37v62zM23 289q0 17 0.5 33t3.5 33 q1 5 2.5 15t4 21.5t4.5 21.5t4 15q1 4 4.5 15t10.5 25t17.5 28.5t25.5 26.5q19 15 38 23.5t36 12.5t31.5 4.5t25.5 0.5q12 0 28 -1t34.5 -5.5t38 -14.5t37.5 -27q5 -5 18.5 -20.5t23.5 -37.5q9 -19 14 -37.5t7.5 -39.5t3 -46.5t0.5 -57.5q0 -21 -2 -43.5t-4.5 -41.5t-5 -32 t-2.5 -14q-6 -26 -18.5 -54t-34.5 -51t-55 -37.5t-80 -14.5q-42 0 -78 8.5t-65 35.5q-8 7 -19 20.5t-20.5 34t-17.5 49.5t-10 67q0 6 -0.5 11t-0.5 13.5v22.5v38z" unicode="o"/>
<glyph glyph-name="p" d="M234 381q-2 0 -11.5 -3t-17.5 -21q-8 -19 -9.5 -49.5t-1.5 -51.5q0 -9 0.5 -24.5t4 -31t11.5 -26.5t22 -11t21 10t8 12q4 7 6 20.5t3 26.5t1 23.5v12.5q0 10 -0.5 21.5t-1 22t-1.5 18.5t-1 11q-3 26 -15.5 33t-17.5 7zM197 512q1 0 2.5 1.5t7.5 9.5q14 20 34.5 27.5 t38.5 7.5q17 0 41.5 -7t44.5 -23q28 -23 38.5 -48.5t16.5 -46.5q5 -17 8 -28t4.5 -21t2.5 -22.5t1 -32.5v-17t0.5 -27.5t0.5 -26.5v-15q0 -20 -1.5 -38.5t-6.5 -36.5q0 -1 -2.5 -10t-6 -20.5t-6.5 -21.5t-4 -13q-7 -18 -20 -38t-31.5 -36.5t-41.5 -27t-50 -10.5q-10 0 -24 2 t-27 9l-8 4t-7 2q-6 0 -9 -6t-3 -13q0 -3 0.5 -10t0.5 -15t0.5 -15t0.5 -10q0 -19 -8.5 -22.5t-15.5 -3.5h-9q-16 1 -31.5 1h-17.5h-9t-13 -0.5t-13 -0.5h-9q-11 0 -23.5 5.5t-12.5 23.5v26q0 7 0.5 26t0.5 40t0.5 40t0.5 27q0 7 -0.5 26.5t-1 41.5t-1 42t-0.5 28 q0 4 0.5 14.5t1 21.5t1 21.5t0.5 14.5t-0.5 13.5t-0.5 20.5t-0.5 21t-0.5 14v38v16.5t-0.5 26t-0.5 26v17.5q0 14 1.5 22t6.5 15q9 11 21 11q2 0 10 -0.5t10 -0.5h9.5t13.5 -0.5t13.5 -0.5h9.5h15.5t15.5 2q4 0 7.5 0.5t7.5 0.5q3 0 13.5 -2.5t10.5 -15.5q0 -3 -0.5 -5.5 t-0.5 -6.5t1 -7.5t3 -3.5z" unicode="p"/>
<glyph glyph-name="q" d="M228 386q-14 0 -21 -13.5t-10 -21.5q-5 -14 -9 -30.5t-4 -36.5q0 -34 2 -47.5t5 -23.5q6 -21 14 -34.5t23 -13.5q10 0 19.5 10t11.5 31q0 1 0.5 15t1.5 30t1.5 30t0.5 15q0 14 -1.5 30t-5.5 29.5t-11 22t-17 8.5zM305 -82q-2 0 -11.5 -1t-12.5 -1q-13 0 -18 8t-5 16 q0 4 1 18t1 19q0 6 -1.5 19.5t-8.5 13.5q-2 0 -4.5 -1t-10.5 -5q-9 -5 -24 -8.5t-28 -3.5q-26 0 -55 13q-12 6 -19 11t-17 16q-16 16 -25.5 28.5t-14.5 22.5t-7.5 18t-3.5 16q-6 26 -12 61.5t-6 84.5q0 57 4.5 96.5t12 67t17 45.5t20.5 32q4 6 12 15.5t20 18.5t29.5 15 t40.5 6q29 0 47.5 -10t29.5 -26q9 -12 11 -12t3 3.5t1 6.5q0 2 -0.5 7t-0.5 7q0 8 4.5 13t11.5 5q1 0 9.5 -0.5t11.5 -0.5q2 0 8.5 -0.5t14 -1t14 -0.5h9.5h11t17 1h29q4 0 13 -3.5t9 -20.5q0 -1 -0.5 -13.5t-1 -27t-1 -27t-0.5 -13.5q-2 -17 -3 -36t-1 -33q0 -6 0.5 -21.5 t0.5 -33.5t0.5 -34t0.5 -23v-37q0 -9 -0.5 -34t-0.5 -52.5t-0.5 -52.5t-0.5 -35v-28.5t2 -29.5q0 -8 0.5 -13t0.5 -10v-11.5v-16.5q0 -3 -0.5 -7.5t-2.5 -9t-7 -8t-14 -3.5h-11.5t-18.5 0.5t-18.5 0.5h-12.5h-38z" unicode="q"/>
<glyph glyph-name="r" horiz-adv-x="313" unicode="r" d="M202 504q2 0 4 1q3 2 9 10q17 27 33.5 35t33.5 8q12 0 20 -7.5t8 -18.5q0 -3 -1 -12.5t-1 -12.5v-29q0 -13 -0.5 -25.5t-0.5 -24.5q0 -3 0.5 -9t0.5 -13.5t0.5 -13.5t0.5 -9q0 -4 -0.5 -10t-2.5 -12t-7.5 -10t-14.5 -4q-3 0 -14 1.5t-15 1.5q-6 0 -14 -2t-16 -9 q-19 -15 -22 -30t-3 -26v-94q0 -3 -0.5 -10t-0.5 -15.5t-0.5 -15.5t-0.5 -10q0 -4 -0.5 -13t-0.5 -19v-19v-13v-9.5t1 -9.5q0 -3 1 -14t1 -14q0 -14 -7.5 -21t-25.5 -7h-11.5t-18.5 0.5t-18.5 0.5h-11.5h-17.5t-16.5 -1q-8 -2 -13 -2q-13 0 -19.5 6t-8.5 11q-1 2 -1 5.5 v14.5q0 5 1.5 19.5t1.5 19.5q0 16 -1 37t-1 37v25.5v15t0.5 8t0.5 4.5q0 3 0.5 10.5t0.5 16.5t0.5 16.5t0.5 10.5q0 6 -0.5 20t-1 30t-1 30t-0.5 20v24t1 24q1 16 1 25v14v12t-0.5 18.5t-0.5 18.5v12q0 18 0.5 23.5t2.5 10.5q7 14 15.5 16t12.5 2q7 0 13 -0.5t12 -1.5 q8 -1 15 -1h15h21t21 1q4 1 13 1q27 0 27 -22q0 -2 -1 -9.5t-1 -9.5t0.5 -5t2.5 -3z"/>
<glyph glyph-name="s" horiz-adv-x="375" unicode="s" d="M333 422q0 -8 -10.5 -16.5t-20.5 -8.5q-4 0 -7 1q-8 2 -15.5 5.5t-15.5 6.5q-5 2 -15 5t-15 3q-12 0 -22 -6t-10 -16q0 -3 1 -7t5 -8q5 -6 15 -11.5t19 -10.5q6 -3 15.5 -8.5t19.5 -11.5t18 -11t11 -6l7.5 -7.5t10.5 -12.5q2 -2 3.5 -4.5t3.5 -4.5q13 -14 24 -38.5 t11 -71.5q0 -57 -27 -105q-20 -37 -65.5 -61t-122.5 -24q-21 0 -35.5 1t-26.5 3t-22.5 5t-23.5 8q-11 4 -17 8t-8.5 10t-3 15t-0.5 24v14t-0.5 21t-0.5 21.5v14.5q0 25 12.5 33t24.5 8q6 0 10 -1.5t15 -6.5q6 -3 23 -7.5t35 -4.5q20 0 35 6t15 22q0 6 -3.5 13.5t-14.5 15.5 q-2 1 -3.5 2.5t-6.5 5t-14.5 9.5t-27.5 18q-23 15 -30 19.5t-14 10.5q-30 29 -40 56t-10 66q0 17 3 34t11 34q8 16 18.5 33t29 30.5t48.5 22t77 8.5q17 0 44 -1.5t45 -3.5q13 -2 26.5 -9t13.5 -26q0 -4 -0.5 -8t-1.5 -9t-1 -11v-12q0 -3 0.5 -10t0.5 -14.5t0.5 -14.5 t0.5 -10z"/>
<glyph glyph-name="t" horiz-adv-x="271" unicode="t" d="M1 465q0 29 3 38t13 12q4 2 8 1.5t9 0.5q2 2 4.5 3.5t4.5 3.5t2 6.5v21.5q0 4 -0.5 15.5t-1 23.5t-1 21.5t-0.5 11.5q0 18 8 26t9 8q5 3 9.5 3.5t8.5 0.5q9 0 26 -1h57q17 0 30 -3.5t13 -23.5q0 -4 -0.5 -15t-0.5 -23.5t-0.5 -24t-0.5 -16.5q0 -24 3.5 -31t23.5 -9 q18 -2 22 -12.5t4 -25.5v-92q0 -8 -7 -16.5t-8 -9.5q-5 -2 -9 -1.5t-9 -1.5q-12 -5 -14 -17t-2 -26v-25t0.5 -38.5t1 -38t0.5 -22.5q2 -19 7 -26.5t16 -8.5q17 -2 20 -10.5t3 -15.5v-15.5t0.5 -24.5t0.5 -24.5v-16.5q0 -20 -5.5 -31t-21.5 -13q-4 -1 -7 -1.5t-8.5 -0.5h-14 h-22.5q-3 0 -16 -0.5t-17 -0.5q-15 0 -30.5 3t-29 11t-23.5 21.5t-14 35.5q-2 6 -2.5 11t-1 15t-0.5 26.5v43.5q-1 21 -1.5 42.5t-0.5 43.5v11.5t0.5 18t0.5 18.5v12q0 21 -2.5 32t-18.5 13q-6 1 -10.5 2.5t-7.5 6.5q-1 2 -1 4t1 11v83z"/>
<glyph glyph-name="u" d="M83 547q2 0 11.5 -0.5t21 -1t21 -0.5h12.5q2 0 12 1t13 1q6 0 15.5 -5t9.5 -24q0 -7 -0.5 -15t-1.5 -14q-1 -8 -1.5 -15.5t-0.5 -11.5q0 -3 0.5 -12t1 -19.5t1 -19.5t0.5 -13v-10.5t-1 -10.5q0 -8 -0.5 -14.5t-1.5 -14.5v-15t-0.5 -24t-0.5 -24.5v-15.5q0 -17 1 -33 t1 -33v-12t-1 -12q-1 -5 -1 -15q0 -15 8.5 -23t18.5 -8q20 0 27.5 22t7.5 48q0 4 -0.5 18.5t-0.5 19.5q0 4 0.5 15t1.5 23t1.5 23t0.5 16q0 4 -0.5 13.5t-1 21t-1 21.5t-0.5 14q0 13 1 26t1 26q0 4 -0.5 14.5t-1.5 21.5t-1.5 21.5t-0.5 14.5q0 22 15 31q5 3 16 3.5t16 0.5 q4 0 17.5 -1t18.5 -1h11t17.5 0.5t18 0.5h11.5q10 0 20.5 -3t10.5 -21q0 -3 -0.5 -12.5t-1 -20t-1 -20t-0.5 -13.5q0 -3 0.5 -13t0.5 -21t0.5 -21t0.5 -14q0 -18 -1 -36t-1 -37v-10.5t0.5 -16t0.5 -16.5v-11q0 -5 -0.5 -17t-1 -25.5t-1 -26t-0.5 -17.5q0 -3 0.5 -9.5 t0.5 -14t0.5 -14t0.5 -9.5v-8.5t-0.5 -13.5t-0.5 -13v-9t0.5 -11.5t0.5 -18t0.5 -18t0.5 -11.5q0 -17 -11 -20t-18 -3q-3 0 -10.5 0.5t-16 0.5t-16.5 0.5t-11 0.5t-11.5 -0.5t-18 -1t-17 -1t-9.5 -0.5q-6 0 -9.5 2.5t-4.5 4.5q-2 3 -2 7t-2 7q-2 8 -10 8q-3 0 -5.5 -1 t-13.5 -9q-11 -7 -31 -15.5t-64 -8.5q-31 1 -58.5 13.5t-41.5 39.5q-4 7 -6 16.5t-3 17.5t-1.5 14.5t-0.5 7.5q0 2 0.5 8.5t1 13.5t1 13t0.5 9q0 6 -0.5 20.5t-1.5 31t-1.5 32t-0.5 21.5q0 7 1 26t1.5 40t1.5 40t1 27q0 13 -0.5 25.5t-1.5 25.5q-2 21 -2.5 35t-0.5 34 q0 4 0.5 11t4 13.5t10.5 11.5t21 5h16z" unicode="u"/>
<glyph glyph-name="v" horiz-adv-x="396" unicode="v" d="M-2 531q0 9 3.5 14.5t8.5 7.5t10.5 2.5t8.5 0.5t10 -0.5t15 -0.5t15 -0.5t10 -0.5q2 0 8.5 0.5t14 0.5t14.5 0.5t10 0.5q10 0 21 -2t17 -13q1 -3 2 -12.5t2 -20.5t1.5 -20.5t0.5 -13.5q1 -12 3 -24l4 -24l3 -36q2 -18 4.5 -42t3.5 -42q0 -8 2 -12q1 -2 2 -2t1.5 2t1.5 4 q1 4 3 18t4.5 32.5t5.5 39.5l5.5 38.5t4 29t1.5 12.5v13.5t1 12.5q0 6 2 14q1 8 0.5 15t4.5 15q7 12 16.5 14.5t14.5 2.5q4 0 17 -1t18 -1h56q2 0 9.5 0.5t9.5 0.5q19 0 22.5 -12t3.5 -19q0 -6 -1 -10.5l-3 -13.5q-5 -14 -7.5 -27.5t-5.5 -27.5q-1 -5 -2.5 -16t-3.5 -24 t-4 -24.5t-3 -16.5q-3 -18 -8 -35.5t-9 -35.5q-5 -22 -9 -43.5t-9 -42.5q-3 -12 -7 -28.5t-7 -27.5q-2 -10 -5.5 -19.5t-5.5 -20.5q-5 -15 -8 -30.5t-8 -31.5q-1 -5 -2 -9l-2 -8q-6 -22 -16.5 -26t-24.5 -4h-8t-13 0.5t-13 0.5h-9q-2 0 -8.5 -0.5t-14 -0.5t-14 -0.5 t-9.5 -0.5q-30 0 -43 10t-18 39q-2 14 -7.5 36.5t-10.5 39.5q-5 15 -6 20.5l-3 16.5q-3 17 -6 32.5t-7 31.5q-5 18 -9 35.5t-8 35.5q-3 20 -5 39.5t-7 39.5q-2 12 -5 24t-5 24q-1 5 -3.5 20.5t-5.5 33.5t-5 33.5t-2 19.5z"/>
<glyph glyph-name="w" horiz-adv-x="625" unicode="w" d="M253 336l-3 12q-2 12 -6 30t-8 39.5t-8 42t-6.5 37t-2.5 24.5q0 23 11.5 27t19.5 4h10t15 -0.5t15.5 -0.5h10.5t10.5 0.5t15.5 0.5t15.5 0.5t10.5 0.5q15 0 23.5 -5t12.5 -13t4.5 -18t0.5 -20v-16t2 -23q2 -23 5 -46.5t5 -46.5q1 -14 1 -27t2 -27q1 -5 1.5 -10t0.5 -10 q1 -8 2.5 -10t2.5 -2t2 2.5t2 10.5q0 3 3.5 20t7.5 41t9 50.5t9.5 49.5t7 38t2.5 16q5 23 12 34t27 11q3 0 10 -0.5t15 -1t15 -1t10 -0.5t9.5 0.5t14.5 0.5q8 1 15 1h9q10 0 14 -2q2 -1 9.5 -6.5t7.5 -19.5q0 -7 -2 -19t-4 -20q-3 -10 -5.5 -20t-6 -24.5t-8 -37l-11.5 -57.5 q-3 -16 -5 -26.5t-5 -21t-6.5 -23.5t-9.5 -35q-10 -35 -18 -71q-6 -27 -10 -43.5t-7 -29t-6.5 -24t-8.5 -27.5q-5 -14 -8 -23t-7.5 -14t-11.5 -7t-18 -2h-7.5t-12 0.5t-12 0.5h-8.5q-4 0 -18 -0.5t-19 -0.5q-2 0 -10 -0.5t-11 -0.5q-9 0 -15 4.5t-8 9.5q-1 2 -4 14t-7 26 t-7 26.5t-4 17.5q-1 4 -2.5 11.5t-4.5 15.5t-6.5 14t-7.5 6q-3 0 -7.5 -5t-6.5 -12q-2 -4 -5 -15t-6 -24t-5.5 -25t-3.5 -16q-4 -12 -6 -23q-2 -6 -7 -16t-22 -10q-2 0 -9.5 0.5t-15.5 1.5q-8 0 -16 0.5t-11 0.5t-9 -0.5t-13.5 -0.5t-13.5 -0.5t-9 -0.5q-20 0 -25.5 10.5 t-10.5 29.5q-2 5 -3.5 10.5t-3.5 10.5t-5.5 23.5t-7.5 38.5q-2 8 -7 29.5t-10.5 45.5t-10.5 46.5l-7 31.5q-2 14 -4.5 29t-5.5 29q-2 11 -7.5 38.5t-13.5 53.5q-3 11 -5.5 22.5t-4.5 22.5q-2 9 -3.5 15t-2.5 11t-1 11v14q0 3 0.5 8.5t3 11t8.5 9.5t17 4h8.5t14 -0.5 t14.5 -0.5h10t9.5 0.5t14 0.5t14.5 0.5t10 0.5q13 0 21 -1.5t13.5 -6.5t8.5 -16t5 -29q1 -11 2.5 -17.5t3 -13.5t3.5 -15.5t5 -21.5l10 -45t11 -52.5t9 -44.5t4 -22t1.5 -6.5t6.5 -3.5q2 0 3 1t3 8t4.5 15.5t4.5 16t2 9.5q2 5 4 10.5t4 10.5v7z"/>
<glyph glyph-name="x" horiz-adv-x="417" unicode="x" d="M18 525q0 1 0.5 5.5t3.5 9.5t10 9t20 4q5 0 9 -0.5t9 -0.5q11 -1 21 -1.5t21 -0.5h17.5t16.5 2q3 0 6 0.5t6 0.5q11 0 16.5 -5.5t7.5 -10.5q3 -5 7 -17.5t7.5 -25t5.5 -22.5l3 -10q2 -10 7 -10q2 0 4 4l4 8q1 3 4.5 14.5t7 24.5t6.5 23.5t4 12.5q2 2 9 7.5t15 5.5 q3 0 12.5 -0.5t12.5 -0.5t14.5 -0.5t14.5 -0.5t11 0.5t17 1t17.5 1t11.5 0.5t8.5 -0.5t10.5 -2.5t9 -6t4 -12q0 -5 -3 -13t-7 -16q-1 -2 -4 -8.5t-6 -13.5t-6 -13t-4 -9q-5 -10 -10.5 -19.5t-10.5 -19.5q-2 -5 -4 -9t-4 -9q-6 -13 -12.5 -25.5t-12.5 -24.5q-4 -9 -7 -17.5 t-7 -17.5q-4 -8 -7.5 -16t-3.5 -15q0 -6 4 -15.5t9 -18.5q5 -11 11 -22.5t11 -22.5q6 -12 11 -24.5t10 -25.5q6 -14 13 -27.5t14 -27.5q2 -4 7 -15t10 -24t9 -25.5t4 -19.5q0 -9 -6 -13t-12 -4q-2 0 -8.5 0.5t-8.5 0.5h-22h-29t-28.5 -0.5t-20.5 -1.5q-4 0 -7 -0.5t-7 -0.5 q-19 0 -27 17q-3 5 -4 11t-3 11t-3.5 10t-3.5 10t-5.5 17t-5.5 19q-2 8 -3.5 10t-3.5 2q-1 0 -2.5 -2t-5.5 -10q-1 -3 -4 -13.5t-7 -22.5t-7 -22.5t-4 -12.5q-3 -11 -9 -17.5t-18 -6.5q-4 0 -8 0.5t-8 0.5q-6 1 -14 1h-38q-2 0 -7.5 -0.5t-12 -0.5t-12 -0.5t-8.5 -0.5 q-2 0 -8.5 0.5t-8.5 0.5q-14 0 -18.5 7t-4.5 12q0 4 5 17.5t11.5 29t12 28t6.5 14.5q12 27 24.5 54t23.5 54l15 33q11 20 13.5 26t2.5 14q0 10 -4 19.5t-9 18.5q-9 17 -16 35q-6 14 -12.5 29.5t-12.5 29l-10 22.5t-5 11q-2 5 -5 10.5t-5 11.5q-4 7 -7 19q-3 8 -6.5 17 t-3.5 13z"/>
<glyph glyph-name="y" horiz-adv-x="375" unicode="y" d="M223 514q0 12 3.5 24.5t23.5 14.5q4 0 16.5 -0.5t16.5 -0.5q2 0 11.5 0.5t11.5 0.5q3 0 13.5 -0.5t13.5 -1.5q2 0 10.5 0.5t10.5 0.5q8 0 16.5 -6t8.5 -23l-2 -36q-1 -14 -2 -26t-1 -13q-1 -8 -2.5 -15.5t-3.5 -15.5q-1 -5 -3.5 -16.5t-5.5 -24.5t-5.5 -25t-3.5 -17 q-3 -16 -7 -31.5t-8 -30.5q-5 -20 -9 -39.5t-10 -39.5q-5 -15 -10.5 -30.5t-10.5 -30.5l-6 -24q-9 -34 -14.5 -54.5t-11 -34t-11 -23t-14.5 -21.5q-14 -18 -40 -34.5t-60 -21.5q-4 0 -15.5 -0.5t-24.5 -1t-25 -0.5h-16q-7 0 -17.5 1.5t-21.5 11.5q-8 8 -9.5 13t-2.5 25v15 v23.5v24v16.5q0 12 2 16q3 6 12 10t18 4q5 0 13 -2q5 -2 8.5 -3t4.5 -1q8 0 13 5t7 10q1 2 1 16v8q-1 3 -3.5 16t-3.5 17q-2 10 -3.5 17t-3 14.5t-4.5 17t-7 25.5q-5 14 -8 27.5t-6 27.5q-2 14 -4 26.5t-5 25.5q-2 8 -3.5 16.5t-3.5 16.5q-2 12 -3.5 20t-3 15t-3.5 14.5 t-5 19.5q-1 5 -3.5 16t-5 25.5t-4.5 29.5t-2 27q0 20 10.5 24.5t15.5 4.5q6 0 9 -1q9 -1 18 -1h18h19.5t19.5 1q4 0 16.5 1t16.5 1q9 0 17 -5t10 -18q0 -3 0.5 -11.5t1.5 -17.5t1.5 -17.5t0.5 -11.5q0 -7 2.5 -24.5t4.5 -37t4.5 -37.5t2.5 -25q0 -4 0.5 -11.5l1 -15t2 -13 t4.5 -5.5q1 0 1.5 2t1.5 4q2 19 5 34q2 13 3.5 24.5t1.5 13.5q0 3 1 10.5t1.5 16.5t1.5 16.5t1 10.5q2 10 4 19.5t3 18.5z"/>
<glyph glyph-name="z" horiz-adv-x="354" unicode="z" d="M28 516q0 14 8.5 23t25.5 9q4 0 18.5 -1t19.5 -1h11t17 0.5t17 0.5h11h10.5t16 -0.5t16.5 -0.5h11q17 0 32.5 0.5t32.5 0.5h22.5t22.5 -1q18 -2 21.5 -12.5t3.5 -16.5v-60q0 -10 -2 -15.5t-8 -15.5q-8 -17 -16 -32.5t-16 -32.5q-5 -11 -9.5 -22.5t-9.5 -22.5 q-4 -9 -10 -21l-12.5 -25l-12.5 -25t-11 -21l-11 -22t-6 -23q0 -6 4 -9.5t9 -5t10.5 -2t7.5 -0.5h8h15.5t16.5 0.5t13 1.5q8 2 13 2q8 0 15.5 -5t7.5 -16q0 -4 -0.5 -7t-1.5 -7q-1 -2 -2.5 -21t-1.5 -46v-12.5t1 -12.5q2 -8 2 -13q0 -10 -8 -18.5t-20 -8.5q-4 0 -15.5 1.5 t-15.5 1.5q-25 0 -59 -1.5t-58 -1.5q-18 0 -36 0.5t-35 0.5h-8t-13 -0.5t-13 -0.5h-9q-14 0 -25.5 8t-11.5 28v10.5t0.5 16.5t0.5 16.5v10.5q0 7 0.5 12t2 9.5t5 9.5t8.5 13q10 15 16 28.5t15 38.5q7 17 14 33t15 33q3 5 9.5 17.5t14.5 26.5t15 26.5t10 17.5q5 10 5 17 q0 11 -6.5 13t-11.5 3q-2 0 -11.5 -0.5t-12.5 -0.5q-8 0 -17 1t-18 1h-11q-14 0 -21.5 8.5t-7.5 19.5q0 10 1 18q0 7 0.5 13t0.5 8q0 4 0.5 12.5t0.5 17.5v17.5v13.5z"/>
<glyph glyph-name="braceleft" horiz-adv-x="396" unicode="{" d="M130 75q-1 3 -0.5 14t0.5 15q0 8 -0.5 15t-1.5 15q-1 5 -2 13t-1 9q-1 8 -0.5 17t-1.5 17q-3 14 -13 30q-10 15 -19 21.5t-26 8.5q-13 2 -24 6t-13 21q-1 2 -0.5 10t0.5 10q0 3 -0.5 9t-1.5 13.5t-1.5 14t-0.5 9.5q0 10 3 19t6 13q4 5 9 6t22 2q10 2 18 4t16 11 q2 3 5.5 8t7.5 11t7 11t4 8q1 4 2.5 14t2.5 22t2 23.5t1 17.5q0 4 -1 14.5t-1 14.5v9t1 9q2 6 3 12l2 12q2 8 2.5 15.5t2.5 14.5q2 8 9 20t14 20t24.5 20.5t27.5 18.5q14 7 32 10.5t32 3.5h10.5t10.5 -1q5 0 10 -0.5t10 -0.5t19.5 1.5t19.5 1.5q13 0 24.5 -3.5t13.5 -16.5 q1 -4 0.5 -16.5t-0.5 -16.5q0 -3 0.5 -12t0.5 -12q0 -13 -5.5 -23.5t-19.5 -10.5q-2 0 -9.5 1t-9.5 1q-9 0 -18.5 -4t-17 -8.5t-12.5 -8.5l-5 -5q-4 -5 -8.5 -18.5t-4.5 -22.5q0 -3 0.5 -9.5t0.5 -14t0.5 -14t0.5 -9.5t-0.5 -9t-0.5 -13.5t-0.5 -13.5t-0.5 -9 q0 -9 -0.5 -15.5t-2.5 -12t-5 -11.5l-7 -14q-8 -14 -14 -23t-17 -17l-15 -9q-7 -5 -15 -9.5t-19 -6.5q-4 -1 -9 -2.5t-5 -3.5t6.5 -2.5t8.5 -0.5q14 -5 31.5 -12.5t28.5 -16.5q8 -8 14.5 -20.5t10.5 -24t6 -20.5l2 -9v-6q0 -6 0.5 -12.5t0.5 -12.5v-6q0 -3 -0.5 -11 t-0.5 -11q0 -4 2 -17.5t2 -18.5q0 -3 -0.5 -12t-0.5 -12q0 -5 0.5 -10t2.5 -10q4 -9 14.5 -18t18.5 -11q2 -1 7.5 -1.5t12 -1t12.5 -1t8 -0.5q22 -4 25.5 -11t3.5 -23q0 -7 1 -10q0 -2 2 -11.5t2 -11.5q0 -17 -3.5 -27t-10 -15t-15.5 -6t-19 -1q-3 0 -9.5 0.5t-14 1.5 t-14.5 1.5t-10 0.5q-4 0 -17.5 -1.5t-17.5 -1.5q-14 0 -23.5 2.5t-16.5 5.5t-14 8q-5 2 -10.5 4t-10.5 4q-11 6 -22.5 18t-16.5 22q-3 5 -4 7.5t-5 7.5q-5 5 -10.5 19t-4.5 30v24z"/>
<glyph glyph-name="braceright" horiz-adv-x="396" unicode="}" d="M107 146q0 3 0.5 13t1 21t1 20.5t0.5 12.5q1 3 5 12t10 20.5t14.5 22t17.5 16.5q4 3 7.5 5t7.5 4q9 6 14.5 9t17.5 6q2 1 8 3t6 3l-8 2q-8 1 -13 2.5t-17 6.5q-17 7 -26.5 13t-15.5 12.5t-10 15t-8 21.5q-4 10 -6.5 17t-3.5 13.5t-1 15v23.5q0 2 0.5 10.5t0.5 10.5 q0 5 -2 19t-2 19q0 2 0.5 9.5t0.5 9.5q0 13 -2 20.5t-5 12.5q-2 2 -11.5 10.5t-16.5 10.5q-2 1 -7.5 1.5t-12.5 1t-13 1t-8 0.5q-22 4 -25.5 10.5t-3.5 17.5q0 16 -3 28q-2 7 -2 8.5v3.5q0 3 1.5 13t2.5 12q5 16 16 19.5t19 3.5q1 0 12 -0.5t16 -0.5q8 -1 15 -1.5t15 -0.5 q2 0 5.5 0.5t8.5 0.5q5 1 9 1h6q12 0 23.5 -1.5t21.5 -6.5l7 -3.5t6 -3.5q2 -1 5 -1.5t5 -2.5q4 -2 19 -10.5t23 -19.5q4 -5 6.5 -11.5t6.5 -11.5q5 -8 11.5 -19.5t8.5 -30.5v-32q0 -33 0.5 -43.5t1.5 -14.5q2 -16 2.5 -21.5t0.5 -18.5q0 -17 3.5 -25.5t14.5 -24.5 q8 -11 15.5 -17.5t28.5 -8.5q4 -1 7.5 -1t7.5 -2q8 -2 14 -9t6 -18q0 -2 -0.5 -8.5t-0.5 -8.5t0.5 -8t1.5 -13t1.5 -13t0.5 -9q0 -14 -4 -25q-2 -7 -5.5 -11.5t-16.5 -5.5l-25 -2.5t-10 -3.5q-5 -2 -11 -8.5t-11.5 -14t-10 -15t-5.5 -10.5q-1 -4 -2.5 -15t-2.5 -23.5 t-1.5 -23.5t-0.5 -14q0 -2 1 -10t1 -10v-12.5t-1 -12.5q-1 -7 -2.5 -13.5t-2.5 -13.5q-1 -4 -1 -7.5t-1 -8.5q-1 -3 -1.5 -6.5t-2.5 -6.5q-5 -14 -10.5 -24t-13 -17.5t-16.5 -14.5t-21 -14q-8 -5 -15.5 -9t-16 -7t-20 -4.5t-27.5 -1.5q-5 0 -20 0.5t-20 0.5t-20 -1.5 t-20 -1.5q-11 0 -22.5 4.5t-13.5 16.5q0 4 0.5 16t0.5 16q0 3 -1 12.5t-1 12.5q0 20 9.5 26.5t16.5 6.5q2 0 9.5 -1t9.5 -1q9 0 18 4t16.5 8.5t12.5 8.5t6 5q2 4 7 18t5 24q0 2 -0.5 12.5t-0.5 13.5v21z"/>
<glyph glyph-name="exclamdown" horiz-adv-x="271" unicode="¡" d="M59 334q1 11 3 27.5t3.5 33.5t3 33t1.5 26t3.5 16t8.5 8.5t9 3t6 0.5h7.5t15 -0.5t16.5 -0.5h11q2 0 10 0.5t10 0.5q4 0 5 -1q16 -3 19 -13t3 -18q0 -3 0.5 -11t1.5 -17.5t2 -20t2 -18.5q2 -19 4.5 -37.5t4.5 -37.5q2 -17 2 -32.5t2 -32.5q1 -14 2 -27.5t2 -27.5 q1 -7 2 -29t2 -46t1.5 -43t0.5 -20q0 -19 -2 -25t-4 -9q-9 -11 -18.5 -13t-14.5 -2q-4 0 -16 0.5t-16 0.5h-34h-12.5t-12.5 -1q-5 -1 -8.5 -1.5t-8.5 -0.5q-10 0 -22.5 7.5t-12.5 33.5q0 2 0.5 10t1.5 17.5t1.5 18t0.5 11.5q2 29 2.5 59t2.5 59q2 30 3.5 59.5t5.5 59.5z M125 709q5 0 20 1t20 1q17 0 23.5 -1t11.5 -3q11 -7 12.5 -17t1.5 -31v-14t0.5 -21.5t0.5 -22.5v-15q0 -2 0.5 -11t0.5 -12q0 -11 -8 -21t-22 -12q-5 -1 -11 -1h-30h-8t-12.5 0.5t-12.5 0.5h-9q-2 0 -11.5 -0.5t-11.5 -0.5q-16 0 -25 10.5t-11 24.5v91q0 12 0.5 22.5t5 17.5 t13.5 11t26 4q4 0 17.5 -0.5t18.5 -0.5z"/>
<glyph glyph-name="cent" horiz-adv-x="333" unicode="¢" d="M202 -81q-6 0 -15.5 2.5t-9.5 18.5v8t0.5 13t0.5 13v9q0 9 -4.5 11t-9.5 3q-6 1 -20 5.5t-27 11.5q-18 10 -33 28.5t-26.5 39.5t-18.5 42t-10 36q-2 10 -3 18.5t-1.5 22.5t-0.5 36v60q0 32 3.5 56t14.5 56q6 17 13 34t18 32q13 19 29.5 32t31 21.5t25 12.5t11.5 4 q5 2 9 4t4 11v28q0 12 7 14t22 2q2 0 11 0.5t12 0.5q11 0 13 -8t2 -19q0 -17 3.5 -20t11.5 -4q15 -2 24.5 -7.5t9.5 -25.5q0 -5 -0.5 -20.5t-0.5 -20.5v-14t0.5 -21t0.5 -21.5v-14.5q0 -23 -13 -28t-30 -5q-4 0 -11 -0.5t-15 -3.5t-15.5 -10t-11.5 -20q-3 -9 -5 -15.5 t-3 -17t-1 -26v-42.5t9 -41t17 -22q12 -11 21 -13t27 -2q2 0 7.5 -0.5t11 -3t10 -7.5t4.5 -15q0 -2 -1 -11t-1 -12v-47v-8t0.5 -12.5t0.5 -12v-8.5q0 -19 -13 -27q-7 -5 -12.5 -6t-19.5 -1q-8 0 -9 -5t-1 -21q0 -3 1 -13.5t1 -13.5q0 -8 -5.5 -14t-16.5 -6h-23z"/>
<glyph glyph-name="sterling" horiz-adv-x="479" unicode="£" d="M279 510q0 21 -1.5 29t-4.5 15q-6 13 -15 15t-11 2q-8 0 -14.5 -5t-10.5 -9q-11 -14 -13 -30.5t-2 -29.5q0 -23 3.5 -43.5t9.5 -48.5q14 0 27.5 -0.5t27.5 0.5q5 0 19 1.5t19 1.5q22 0 24.5 -12t2.5 -32v-14q0 -2 0.5 -11t0.5 -11q0 -17 -8.5 -22.5t-17.5 -5.5h-15.5 t-20.5 0.5t-21.5 0.5h-17.5q3 -19 5 -37t2 -37q0 -22 -3 -37.5t-6 -27.5q9 -4 22 -8t24 -4q20 0 26 21q2 6 2.5 12t2.5 11q6 12 14 14t12 2q3 0 10.5 -0.5t16.5 -0.5t17 -0.5t11 -0.5q4 0 16 1t16 1q14 0 23 -7t9 -25q0 -2 -0.5 -14t-2.5 -28t-5.5 -33t-8.5 -29 q-14 -31 -47.5 -53.5t-81.5 -22.5q-38 0 -72 15q-14 6 -28.5 12t-24.5 6q-5 0 -10.5 -1t-10.5 -6q-4 -4 -7.5 -8.5t-7.5 -8.5q-6 -5 -11.5 -5.5t-7.5 -0.5q-5 0 -9 0.5t-9 0.5q-5 1 -9.5 1.5t-9.5 0.5q-4 0 -15 -0.5t-22.5 -1t-21.5 -1t-11 -0.5q-9 0 -14.5 6t-5.5 11 q0 3 2 7q11 44 32 68.5t38 38.5q5 17 8 30.5t3 39.5q0 35 -3.5 56.5t-8.5 40.5h-10q-3 0 -12.5 -0.5t-12.5 -0.5q-28 0 -28 29q0 3 0.5 11t0.5 16.5t0.5 16.5t0.5 12q1 5 5 15.5t18 10.5q2 0 8.5 -0.5t8.5 -0.5q-5 28 -10 57.5t-5 54.5q0 9 1.5 26.5t7.5 38t17.5 41.5 t31.5 38q19 16 42 25.5t43.5 14.5t37 6t24.5 1q11 0 26.5 -1t35.5 -6q6 -2 16.5 -4.5t23 -9t25.5 -17.5t25 -29q10 -16 16.5 -34.5t10 -35.5t4.5 -32t1 -23q0 -20 -2 -31.5t-7 -17.5t-13 -8t-20 -2q-2 0 -8.5 0.5t-13.5 1t-13 1t-9 0.5q-5 1 -19.5 0.5t-19.5 -0.5 q-11 0 -19 3t-8 23v21z"/>
<glyph glyph-name="yen" horiz-adv-x="479" unicode="¥" d="M28 203q0 2 -0.5 11t-0.5 12q0 11 7 16t9 6q1 0 7.5 0.5t13.5 0.5h13.5h8.5q4 0 17 -0.5t18 -0.5q2 0 6.5 0.5t6.5 0.5q4 1 9 2.5t5 7.5q0 5 -4.5 18.5t-5.5 18.5q-2 8 -5 12.5t-12 4.5q-2 0 -12 -1t-13 -1q-2 0 -9 0.5t-9 0.5t-10.5 -0.5t-10.5 -0.5q-17 0 -22.5 5.5 t-5.5 13.5q0 2 0.5 10.5t0.5 11.5v9.5t-2 14.5q-2 6 -2 10t4.5 11t20.5 7q2 0 11.5 -0.5t11.5 -0.5q8 0 15.5 1t7.5 7q0 3 -4 13t-10 24q-8 16 -13.5 27.5t-9 21t-7 20.5t-7.5 28q-5 13 -9 25.5t-9 24.5q-4 11 -8.5 25t-9.5 25q-3 8 -7 17t-5 18q0 19 12.5 23t19.5 4 q3 0 9.5 -0.5t13.5 -0.5t13.5 -0.5t9.5 -0.5h12t18.5 0.5t18.5 0.5h13q14 0 23 -1t16 -8t12 -22.5t12 -43.5q2 -11 4.5 -22.5t4.5 -23.5q2 -6 4 -12.5t4 -12.5q5 -18 9 -35.5t9 -34.5q2 -8 4.5 -10t3.5 -2q3 0 5 7t3 11q1 3 3.5 14t3.5 13q3 14 8.5 32.5t9.5 32.5q6 22 9 41 q7 34 10 46t9 20q8 9 15 10.5t27 1.5h8t13 -0.5t13 -0.5h9q2 0 8.5 0.5t14 0.5t14.5 0.5t10 0.5q6 0 13.5 -0.5t13.5 -3.5t10.5 -9t4.5 -17q0 -10 -6.5 -33.5t-15.5 -52.5t-20.5 -60.5t-20.5 -57.5t-15.5 -43t-6.5 -18q0 -8 10 -8q3 0 12 1.5t12 1.5q17 0 19.5 -10t2.5 -29 q0 -2 1 -12t1 -13q0 -21 -8 -25t-13 -4q-2 0 -10 1t-10 1q-6 0 -12 -0.5t-11 -0.5q-3 0 -12.5 1t-12.5 1q-6 0 -12 -7q-2 -3 -5 -15l-4 -16l-6.5 -19.5t-1.5 -6.5q0 -10 10 -10q2 0 10 0.5t10 0.5q3 0 14.5 -0.5t15.5 -0.5q3 0 15 1t16 1q15 0 22 -7q5 -5 5.5 -10t-1.5 -24 q0 -2 0.5 -9.5t0.5 -9.5q0 -12 -4 -20t-18 -8q-2 0 -10.5 0.5t-16.5 1.5q-5 1 -9 2t-9 1q-2 0 -9 -1t-9 -1t-10 0.5t-10 0.5q-13 0 -17 -4q-2 -1 -2.5 -6t-1 -11t-0.5 -12v-8q0 -4 0.5 -13t0.5 -19.5t0.5 -19.5t0.5 -13q0 -11 -0.5 -21.5t-3.5 -18t-10 -12t-19 -4.5 q-4 0 -17 0.5t-18 0.5q-3 0 -9.5 -0.5t-14 -0.5t-14.5 -0.5t-10 -0.5h-26q-24 0 -29.5 12t-6.5 23v48q0 4 -0.5 16.5t-0.5 16.5t1 15.5t1 15.5q0 10 -8 12q-2 0 -9.5 0.5t-16.5 1t-16.5 1t-10.5 0.5q-2 0 -11 -1.5t-11 -1.5t-13.5 1.5t-13.5 2.5q-10 4 -13 18v23z"/>
<glyph glyph-name="dieresis" horiz-adv-x="271" unicode="¨" d="M148 685q0 13 6 15.5t10 2.5t6 -1h79q8 0 18.5 0.5t18.5 0.5q25 0 25 -18q0 -2 -0.5 -13.5t-0.5 -15.5q-1 -3 -0.5 -14t0.5 -15q0 -9 -4.5 -14t-11 -7t-14.5 -2.5t-14 -0.5q-2 0 -8 0.5t-13 0.5t-13 0.5t-9 0.5q-10 0 -19.5 -0.5t-19.5 -0.5q-18 0 -27 3t-9 21 q0 2 0.5 12.5t0.5 13.5q0 8 -0.5 15.5t-0.5 15.5zM-39 681q0 1 0.5 4t2 7t5.5 7.5t12 4.5h9h13.5h13.5h9t15.5 -0.5t17.5 -0.5q4 0 18.5 0.5t19.5 0.5q17 0 21 -6.5t4 -17.5q-1 -10 -1 -24.5v-28.5q0 -16 -11 -20.5t-18 -4.5q-3 0 -14.5 0.5t-14.5 0.5h-9.5t-14.5 0.5 t-14.5 0.5h-9.5q-4 0 -15 -0.5t-15 -0.5q-9 0 -16.5 4t-7.5 17q0 4 1 15.5t1 15.5q0 3 -1 13t-1 13z"/>
<glyph glyph-name="copyright" horiz-adv-x="833" unicode="©" d="M621 190q-48 -50 -97 -67t-99 -17q-62 0 -108.5 20t-78 54t-47.5 78.5t-16 94.5q0 51 17 96.5t49 80t78.5 54.5t105.5 20q41 0 73 -9t55.5 -22t40 -28t27.5 -26l-87 -84q-23 22 -48.5 35.5t-61.5 13.5q-33 0 -57 -11.5t-39 -29.5t-22 -41.5t-7 -47.5q0 -58 34 -93.5 t93 -35.5q22 0 39.5 5t31 12t22.5 14.5t15 13.5zM417 29q69 0 128 25.5t102.5 69.5t68.5 103t25 126t-24.5 126t-68 103t-102 69.5t-127.5 25.5t-128.5 -25.5t-103.5 -69.5t-69 -103t-25 -126q0 -68 25.5 -127.5t69.5 -103t103 -68.5t126 -25zM773 354q0 -74 -27.5 -139 t-75.5 -113.5t-113 -76.5t-141 -28q-69 0 -133.5 26t-113.5 73t-78.5 112.5t-29.5 144.5q0 76 28.5 141.5t77.5 113t113.5 74.5t136.5 27q77 0 142 -28.5t112.5 -77t74.5 -113t27 -136.5z"/>
<glyph glyph-name="ordfeminine" horiz-adv-x="313" unicode="ª" d="M156 511q-6 0 -16.5 -6.5t-10.5 -31.5q0 -19 8.5 -25.5t15.5 -6.5q9 0 14 4t8 10t3.5 12.5t0.5 10.5q0 12 -5 22.5t-18 10.5zM49 678q0 7 3.5 12.5t18.5 9.5q8 2 19.5 4t23.5 4t23.5 3t20.5 1q37 0 65 -11.5t37 -23.5q5 -7 9.5 -18t4.5 -44v-8t-0.5 -12.5t-0.5 -12.5v-9 q0 -4 0.5 -17t0.5 -18v-16v-10v-15v-15v-10t-0.5 -9.5t-0.5 -14.5t-0.5 -15t-0.5 -10q0 -4 1 -17.5t1 -18.5t-1.5 -11.5t-9.5 -8.5q-4 -2 -17.5 -1t-18.5 1q-2 0 -7.5 -0.5t-10.5 -0.5q-6 -1 -14 -1t-10 6q-1 2 -1 3t-1 3q-2 2 -4 2t-6 -3.5t-6 -4.5q-11 -7 -21.5 -8.5 t-21.5 -1.5q-14 0 -26.5 2t-29.5 14q-15 11 -23 23.5t-12 24t-4.5 21.5t-0.5 15q0 11 1 31t6 33q4 9 10 17q5 7 12 14t17 12q25 13 37 15.5t20 2.5q4 0 18 -1t17 -1q8 0 10.5 4.5t2.5 7.5q0 5 -1.5 11t-9.5 9q-5 2 -20 3t-20 1q-9 0 -18.5 -2t-18.5 -5q-10 -4 -15.5 -6 t-8.5 -2t-7.5 1.5t-7.5 8.5q-2 4 -2.5 9.5t0.5 27.5q0 3 -0.5 13t-0.5 13z"/>
<glyph glyph-name="guillemotleft" horiz-adv-x="292" unicode="«" d="M25 282q0 4 -1 18t-1 19q0 9 1 14.5t3.5 9.5t7.5 8t13 9q13 8 31.5 21.5t30.5 24.5q8 8 12 11t9 3q11 0 13 -7.5t2 -15.5q-1 -5 0 -15v-9.5t-0.5 -14.5t-0.5 -15v-10q0 -2 0.5 -10t0.5 -10q0 -11 -3.5 -15t-9.5 -7q-1 0 -5 -2.5t-8.5 -5.5t-8.5 -6t-4 -5t5 -5t11 -6.5 t11.5 -6.5t7.5 -5q4 -5 4 -12.5t-1 -18.5v-44q0 -23 -2 -33.5t-13 -10.5q-6 0 -18.5 8t-26.5 18q-8 6 -16.5 11.5t-16.5 10.5q-17 10 -22 15t-6 16v15.5t0.5 23.5t0.5 22v12zM158 280v10t-0.5 15t-0.5 15v10q0 18 5 24.5t22 17.5q4 2 11.5 7.5t15.5 11.5t15.5 11t10.5 8 q7 6 11 9t10 3q10 0 11 -4t1 -9q0 -2 0.5 -10t0.5 -11v-8.5t-0.5 -14t-0.5 -14v-9.5q0 -2 0.5 -11t0.5 -12q0 -5 -1 -10t-3 -8q-2 -2 -7 -5t-10 -6.5t-9.5 -7t-4.5 -5.5q0 -3 8 -7q5 -4 7.5 -5.5t10.5 -6.5q6 -4 7.5 -8t1.5 -12v-11v-78q0 -5 -2 -11.5t-13 -6.5q-5 0 -9 2.5 t-9 5.5q-11 8 -20.5 14t-20.5 13q-14 9 -21.5 14.5t-11.5 10t-5 10t-1 13.5v66z"/>
<glyph glyph-name="registered" horiz-adv-x="833" unicode="®" d="M416 29q69 0 128.5 25.5t103 69.5t68.5 103t25 127q0 66 -24.5 125t-68 103t-102.5 69.5t-128 25.5t-128 -25.5t-103 -69.5t-69 -103t-25 -126q0 -68 25.5 -127.5t69.5 -103t102.5 -68.5t125.5 -25zM773 354q0 -74 -27.5 -139t-75.5 -113.5t-113.5 -76.5t-141.5 -28 q-69 0 -133 26t-113 73t-78.5 112.5t-29.5 144.5q0 77 28.5 142t77 112.5t113 74.5t136.5 27q77 0 142.5 -28.5t113 -77t74.5 -113t27 -136.5zM360 407h48q25 0 39.5 1.5t24.5 7.5q11 6 15.5 17.5t4.5 22.5t-5 23t-19 18q-5 2 -10 3t-13 1.5t-20.5 0.5h-31.5h-33v-95z M413 586q30 0 57.5 -1.5t50.5 -9.5q44 -14 62.5 -47.5t18.5 -65.5q0 -26 -8.5 -43.5t-20.5 -29.5t-26 -19.5t-25 -12.5q10 -6 18 -12.5t14 -15.5t10.5 -23t8.5 -35q7 -48 14.5 -80t24.5 -63h-126q-11 21 -15.5 45t-9.5 54q-5 34 -9 52.5t-14 27.5t-28 11t-50 2v-192h-110 v458h163z"/>
<glyph glyph-name="macron" horiz-adv-x="271" unicode="¯" d="M2 668q0 10 3.5 15.5t8 8t10 3t9.5 0.5t16 -0.5t25.5 -1t25.5 -1t17 -0.5h10.5t10.5 1q9 1 17.5 2t17.5 1q4 0 16.5 -1.5t17.5 -1.5q3 0 14 1.5t15 1.5q11 0 22 -3t11 -21q0 -4 -2 -16t-2 -16q0 -2 0.5 -8.5t0.5 -8.5q0 -17 -10 -20t-20 -3q-3 0 -9.5 0.5t-14.5 1t-15 1 t-10 0.5q-2 0 -9.5 -1t-9.5 -2q-4 0 -14 -0.5t-12 -0.5t-8 0.5t-12.5 1t-12.5 1t-9 0.5t-14 -1t-14 -1h-19q-2 0 -11 -0.5t-12 -0.5q-14 0 -21.5 7t-7.5 16q0 2 1.5 11.5t1.5 12.5q0 6 -1 11.5t-1 10.5z"/>
<glyph glyph-name="twosuperior" horiz-adv-x="313" unicode="²" d="M213 366q2 0 11 -0.5t11 -0.5q3 0 14.5 1t15.5 1q22 0 22 -21v-11t-0.5 -17.5t-0.5 -18v-11.5q0 -16 -7.5 -19.5t-19.5 -3.5q-8 0 -16 0.5t-16 0.5h-13h-21h-21h-14h-9.5t-14.5 0.5t-14.5 0.5h-9.5q-4 0 -13.5 -0.5t-20 -0.5t-20 -0.5t-13.5 -0.5q-9 0 -15 4.5t-6 17.5 v8.5v14v14v9.5q0 14 4 19t15 13q4 3 12.5 11.5t17.5 18t17 18t11 11.5q4 5 7 10.5t6 10.5l18 24q14 19 26.5 43t12.5 63q0 14 -5 24t-19 10q-8 0 -12 -5.5t-6.5 -13t-3 -14t-0.5 -8.5q0 -3 0.5 -11.5t0.5 -11.5q0 -14 -9.5 -18t-13.5 -5q-2 0 -11.5 0.5t-12.5 0.5 t-14.5 -0.5t-14.5 -0.5q-5 0 -11 2t-10 10q-1 1 -1.5 3.5t-0.5 7v13v22.5q0 49 12.5 72.5t26.5 35.5q16 13 42 19.5t49 6.5q14 0 20.5 -0.5t11.5 -1.5q5 -2 22.5 -8t30.5 -15q21 -16 34.5 -44.5t13.5 -61.5q0 -40 -6.5 -65t-18.5 -45q-2 -5 -5 -9t-5 -9q-2 -4 -4.5 -8 t-4.5 -8q-3 -6 -6.5 -11t-7.5 -10q-14 -19 -24 -28.5t-27 -23.5h34z"/>
<glyph glyph-name="threesuperior" horiz-adv-x="313" unicode="³" d="M18 630q0 5 1.5 8.5t6 9t13.5 13.5t25 22q15 14 37 22.5t51 8.5q17 0 41 -7t41 -21q12 -11 25 -34.5t13 -54.5q0 -35 -10 -51.5t-18 -25.5q-6 -6 -7.5 -8t-1.5 -5q0 -5 2 -7t9 -8.5t9 -8.5q23 -24 26.5 -45t3.5 -42q0 -39 -12 -58.5t-29 -36.5q-13 -14 -18.5 -18.5 t-16.5 -9.5q-24 -11 -43.5 -13.5t-35.5 -2.5q-7 0 -17.5 0.5t-22.5 4.5t-26 12t-29 22q-5 5 -14.5 16t-9.5 25q0 11 10 23q13 17 21 27t13 15t8 6t7 1q7 0 11 -3.5t6 -6.5q8 -11 18.5 -20.5t22.5 -9.5q19 0 30 12.5t11 30.5q0 2 -0.5 5.5t-3.5 9.5q-3 5 -10.5 12t-27.5 7 q-2 0 -7.5 -0.5t-7.5 -0.5q-5 0 -11.5 2t-8.5 12q0 2 -0.5 10t-1 18t-0.5 18.5v11.5q0 17 8 20t24 3q7 0 14.5 1t12.5 6q12 10 12 27q0 13 -7.5 19.5t-19.5 6.5q-10 0 -19.5 -4.5t-17.5 -15.5t-11 -14t-11 -3t-14 6q-2 2 -9.5 11.5t-9.5 12.5q-2 2 -6 8t-6 8q-8 10 -10 13.5 t-2 7.5z"/>
<glyph glyph-name="acute" horiz-adv-x="271" unicode="´" d="M98 590q-5 0 -19.5 -0.5t-19.5 -0.5q-12 0 -16 3.5t-4 10.5t5 15q1 1 3.5 8.5t6 16t6.5 16t4 10.5q6 18 12 27t21 9q5 0 9.5 -0.5t9.5 -0.5q1 0 8 -0.5t15 -1t14.5 -0.5h8.5q11 0 21 0.5t21 0.5q14 0 21 -1.5t7 -11.5q0 -6 -5.5 -12.5t-16.5 -17.5q-18 -17 -29 -28 t-25 -27q-8 -9 -13 -13t-13 -4q-2 0 -12 1t-13 1h-7z"/>
<glyph glyph-name="mu" d="M184 -16q0 -5 1 -19t1 -19q0 -13 -4 -20t-9 -10.5t-11 -4t-9 -0.5q-2 0 -10 0.5t-16 1.5q-9 1 -16.5 1.5t-11.5 0.5t-17 -0.5t-17 -0.5q-6 0 -11.5 1t-10.5 5.5t-8 13.5t-3 25q0 6 0.5 21.5t1 33.5t1 34t0.5 23v35q0 14 0.5 27.5t0.5 27.5q0 3 -0.5 10.5t-1 16t-1 16.5 t-0.5 11v29v31t2 55q1 15 1.5 29.5t0.5 29.5q0 4 -0.5 13.5t-1 21t-1.5 21.5t-1 14q-1 8 -1 15.5v15.5q0 24 4.5 39.5t30.5 16.5h11t17.5 -0.5t18 -0.5h11.5h50q9 0 14 -4t7 -9t2.5 -11t0.5 -10q0 -3 -0.5 -9.5t-1.5 -14t-1.5 -14.5t-0.5 -10t0.5 -12t1 -19.5t1 -20 t0.5 -13.5q0 -3 -0.5 -11t-1 -17.5t-1 -18t-0.5 -11.5q0 -5 -0.5 -16t-0.5 -23t-0.5 -23t-0.5 -15q0 -5 1 -20t1 -20v-26q0 -33 13.5 -47t21.5 -14t17.5 15t9.5 50q0 4 -0.5 18t-0.5 19t0.5 17t1.5 26t1.5 26.5t0.5 17.5q0 3 -0.5 11.5t-1 18t-1 18t-0.5 11.5t0.5 10 t0.5 15.5t0.5 15.5t0.5 10q0 4 -1 14.5t-1.5 22.5t-1.5 23t-1 16q0 13 4 20t10.5 10.5t14 4t14.5 0.5q12 0 24.5 -1t24.5 -1h10.5t16 0.5t16 0.5h10.5q20 0 23.5 -9t3.5 -23q0 -3 -0.5 -11t-1.5 -17.5t-1.5 -18t-0.5 -12.5q0 -3 0.5 -11.5t1 -18.5t1 -19t0.5 -13 q0 -3 -0.5 -12.5t-1 -20t-1 -19.5t-0.5 -13q0 -3 0.5 -12.5t0.5 -20t0.5 -20.5t0.5 -14q0 -6 -0.5 -16.5t-1.5 -27.5q-1 -12 -1 -24v-18q0 -3 0.5 -11t0.5 -17t0.5 -17t0.5 -11q0 -2 -0.5 -8t-0.5 -8q0 -3 0.5 -15.5t0.5 -16.5v-8t0.5 -13t0.5 -13v-9q0 -10 -4 -18.5 t-27 -8.5q-3 0 -12.5 1t-12.5 1q-5 0 -17 -1t-25 -3q-2 -1 -10 -2t-10 -1q-5 0 -10 3.5t-8 8.5q-7 11 -9 13t-6 2q-3 0 -8 -4l-10 -8t-14.5 -9.5t-15.5 -5.5q-5 0 -11 2.5t-9 5.5q-2 2 -4.5 3.5t-4.5 3.5q-3 2 -5 4q-2 0 -4.5 -2t-2.5 -7v-21z" unicode="µ"/>
<glyph glyph-name="periodcentered" horiz-adv-x="208" unicode="·" d="M18 295v10.5t0.5 15.5t1.5 15t2 10q7 18 20 20t26 2h11h14.5h22h21.5h15q13 0 20.5 -4t11 -10.5t4 -13.5t0.5 -13v-12t-0.5 -18.5t-0.5 -18.5v-13q0 -3 1 -15t1 -16q0 -17 -4.5 -26t-11 -13.5t-13.5 -5t-11 -0.5h-83q-6 0 -14.5 0.5t-15.5 4t-12 10.5t-5 21v28 q0 5 -0.5 21t-0.5 21z"/>
<glyph glyph-name="cedilla" horiz-adv-x="271" unicode="¸" d="M176 27q-9 -25 -11 -31t-2 -11q0 -6 9 -10q15 -6 28 -15.5t13 -36.5q0 -14 -5 -29t-18 -31q-15 -19 -32.5 -25t-44.5 -6h-8t-13 0.5t-13 0.5h-9q-13 0 -13 12q0 3 2 9q2 4 2 7t1 7q1 22 6 25.5t24 3.5q8 0 19.5 2t11.5 14q0 10 -9 15q-4 2 -8.5 2.5t-8.5 2.5q-5 5 -5 14 l2 9q2 8 6 18.5t7.5 20.5t4.5 13q2 8 3 11t5 9z"/>
<glyph glyph-name="onesuperior" horiz-adv-x="313" unicode="¹" d="M131 556q0 5 -0.5 9t-0.5 6l-1 3q-2 0 -9 -7.5t-15 -15.5q-6 -7 -11 -11.5t-10 -4.5q-4 0 -7.5 1.5t-5.5 3.5q-3 2 -13 10t-13 10q-5 3 -8.5 6t-3.5 11t4 12.5t17 16.5q8 7 21 21.5t21 22.5q1 2 6 6.5t10.5 10t10.5 10t7 6.5q14 15 19 19t15 4h11q6 -1 12.5 -1.5 t13.5 -0.5h8.5t8.5 1q3 1 10 1q14 0 16.5 -9.5t2.5 -24.5q0 -5 -0.5 -17.5t-0.5 -26.5t-0.5 -26t-0.5 -15v-8t0.5 -13t0.5 -13v-9v-34v-11v-17.5t-0.5 -18t-0.5 -11.5q0 -2 0.5 -11t0.5 -12q0 -5 -0.5 -10.5t-0.5 -11.5q-1 -3 -1 -12v-32q0 -4 0.5 -13.5t0.5 -21t0.5 -21.5 t0.5 -14q0 -12 -4.5 -20t-23.5 -8q-5 0 -18.5 1t-18.5 1q-4 0 -15 -0.5t-15 -0.5q-18 0 -22 8.5t-4 17.5l3 33q1 8 1.5 16.5t0.5 16.5q0 3 -0.5 10.5t-0.5 16t-0.5 16t-0.5 10.5q0 11 0.5 22t0.5 22v21q0 5 1 21t1 21v38z"/>
<glyph glyph-name="ordmasculine" horiz-adv-x="313" unicode="º" d="M180 572q0 3 -1 10t-3.5 14t-7 12t-11.5 5q-20 0 -23.5 -30t-3.5 -75q0 -17 4 -34t20 -17q10 0 15 7t7.5 16.5t3 20t0.5 17.5v54zM28 533q0 14 0.5 23t1 17t2.5 17t5 23q4 21 13 40.5t26 32.5q24 20 46 23t37 3q7 0 19.5 -1t27 -6t29.5 -15.5t27 -29.5q17 -26 20 -58 t3 -69q0 -2 -0.5 -15.5t-2.5 -32t-6.5 -38.5t-13.5 -36q-12 -22 -36 -40t-68 -18q-23 0 -46 5t-42 22t-30.5 48.5t-11.5 84.5v20z"/>
<glyph glyph-name="guillemotright" horiz-adv-x="292" unicode="»" d="M146 238q0 11 2.5 14.5t11.5 8.5q3 2 13.5 8t10.5 10q0 2 -3 4.5t-15 8.5q-14 7 -17.5 13t-2.5 25v13v21v20.5v13.5q0 5 2 14.5t14 9.5q5 0 8.5 -2.5t8.5 -5.5q15 -11 29.5 -20.5t31.5 -19.5q18 -12 22 -17t5 -18v-12.5v-22.5v-23.5v-15.5t0.5 -17.5t0.5 -18.5 q0 -8 -1 -13t-4 -8.5t-8.5 -8t-14.5 -10.5q-1 0 -9 -5.5t-17.5 -12.5t-19.5 -14.5t-15 -12.5t-9.5 -9t-9.5 -4q-12 0 -13.5 7.5t-0.5 13.5v86zM21 232q0 14 2.5 17.5t10.5 7.5q15 9 18.5 12t3.5 5q0 3 -6.5 7t-9.5 6q-14 7 -17 12.5t-1 26.5q0 5 -0.5 21.5t-0.5 21.5 q0 8 0.5 16t0.5 16q0 5 2 12.5t13 7.5q5 0 10 -3t10 -7q4 -4 12.5 -9.5t37.5 -24.5q17 -11 22 -17t6 -21v-11t-0.5 -22t-0.5 -23.5v-15.5v-8t0.5 -13t0.5 -13v-9q0 -22 -8 -30q-1 -1 -11 -8t-22.5 -16t-24 -17.5t-15.5 -11.5q-6 -6 -10 -8.5t-10 -2.5q-10 0 -11.5 4.5 t-1.5 21.5v76z"/>
<glyph glyph-name="questiondown" horiz-adv-x="333" unicode="¿" d="M80 304q20 38 28 77t8 80q0 11 8.5 17.5t16.5 6.5q3 0 6 -0.5t6 -0.5q5 -1 12 -1.5t18 -0.5q3 0 13 0.5t13 0.5q20 0 24 -13.5t4 -22.5q0 -39 -2 -64.5t-6 -46.5t-11 -41.5t-17 -47.5q-3 -9 -6 -19t-3 -17q0 -20 14 -31.5t26 -11.5q6 0 14 3l15 6l3 1q3 0 5.5 -1t5.5 -2 q9 -5 11 -8.5t2 -10.5v-48q0 -2 0.5 -9t0.5 -14.5t0.5 -14t0.5 -9.5q0 -5 -0.5 -9t-1.5 -14q-1 -12 -2 -17.5t-8 -10.5q-4 -3 -16.5 -6t-27.5 -5.5t-31 -4t-27 -1.5q-8 0 -25.5 1.5t-26.5 3.5q-8 2 -25.5 9.5t-28.5 17.5q-21 20 -32.5 44.5t-11.5 64.5q0 31 6 61t20 58 q6 13 13.5 25.5t14.5 25.5zM93 668q0 18 7.5 25.5t10.5 9.5t7 3.5t12 1.5h21.5t36.5 -1q4 0 17.5 0.5t18.5 0.5q19 0 28 -12.5t9 -29.5q0 -4 -0.5 -16.5t-0.5 -16.5q0 -3 0.5 -10t0.5 -15t0.5 -15t0.5 -10q0 -33 -11.5 -44t-31.5 -11h-71q-9 0 -19 0.5t-18.5 4.5t-14 12 t-5.5 23q0 4 0.5 15t0.5 23.5t0.5 23.5t0.5 16v22z"/>
<glyph glyph-name="Agrave" horiz-adv-x="500" unicode="À" d="M213 857h17t17 1q14 2 17.5 2h7.5q16 0 21.5 -10t10.5 -24q3 -8 6 -15.5t6 -15.5q1 -2 3 -7.5t4.5 -11.5t4.5 -11t2 -7q0 -10 -6.5 -12t-16.5 -2q-4 0 -19 0.5t-20 0.5q-3 0 -14.5 -1t-15.5 -1t-10 2q-3 1 -8 6.5t-11 12t-11.5 12.5t-7.5 9q-9 8 -18 17l-17 17 q-14 14 -16.5 18.5t-2.5 7.5q0 9 6.5 11.5t19.5 2.5q3 0 15 -1t16 -1h20zM219 371l-4 -22t-2 -22q0 -20 6.5 -28.5t23.5 -8.5q4 0 11 0.5t13 3.5t10.5 10t4.5 20q0 12 -1 24q-1 11 -2 24.5t-3 27.5l-4 24l-4 24q-2 10 -2.5 19t-2.5 18q-2 12 -6 15.5t-6 3.5q-5 0 -8 -9.5 t-4 -15.5q-2 -9 -4.5 -21t-4.5 -20q-5 -17 -6.5 -33.5t-4.5 -33.5zM46 298q3 23 7.5 45t7.5 44q2 14 3.5 26.5t3.5 26.5q3 19 7.5 37.5t8.5 38.5q6 29 9 59t9 59q6 26 11.5 41t13 22.5t17.5 9.5t26 2q8 0 16.5 -0.5t16.5 -1.5q15 -1 30 -1.5t30 -0.5q19 0 37.5 0.5t37.5 1.5 q29 0 39.5 -9t15.5 -37q1 -5 3.5 -16t5 -23.5t4.5 -23t2 -14.5q1 -5 2.5 -17.5t3.5 -27t3.5 -27.5t2.5 -18q1 -9 5.5 -32t10 -49.5t10 -50t6.5 -33.5t3 -17t2 -15.5t2 -19.5t3 -30q3 -32 8.5 -63t11.5 -63q3 -12 5.5 -24.5t5.5 -24.5q3 -15 3 -30q0 -17 -8.5 -29.5 t-22.5 -12.5q-4 0 -13.5 0.5t-20 1t-20.5 1t-14 0.5q-3 0 -10 -0.5t-15.5 -1t-16 -1t-10.5 -0.5q-12 0 -18.5 4t-10 10t-4 12t-0.5 10q0 11 -1 22t-3 22q-2 17 -4.5 25.5t-10.5 12.5q-4 2 -64 2q-16 0 -23 -2t-11 -8q-2 -3 -3.5 -13t-2.5 -22t-2 -23t-1 -15q-1 -23 -11 -30 t-23 -7q-3 0 -9.5 0.5t-14 1t-14.5 1t-10 0.5h-11.5t-18.5 -0.5t-18.5 -0.5h-12.5h-12t-12 2q-10 3 -13.5 11.5t-3.5 13.5q0 2 3.5 22.5t7.5 45.5t8 46t4 24q2 8 3.5 17t3.5 18q1 5 3 18.5t4 29t4 29t3 19.5z"/>
<glyph glyph-name="Aacute" horiz-adv-x="500" unicode="Á" d="M170 758q0 4 1.5 7.5t3.5 7.5q1 1 4 8.5t6 16t6 15.5t3 9q8 22 14 30t21 8q5 0 9.5 -0.5t9.5 -1.5q11 -1 22 -1h28h22q5 1 9 1.5t8 0.5q10 0 18 -1.5t8 -12.5q0 -7 -8 -15.5t-13 -13.5q-14 -14 -28 -27.5t-27 -27.5q-9 -11 -13.5 -14.5t-12.5 -3.5q-2 0 -12 1t-13 1h-9 t-13.5 -0.5t-14 -0.5h-9.5q-20 0 -20 14zM219 371l-4 -22t-2 -22q0 -20 6.5 -28.5t23.5 -8.5q4 0 11 0.5t13 3.5t10.5 10t4.5 20q0 12 -1 24q-1 11 -2 24.5t-3 27.5l-4 24l-4 24q-2 10 -2.5 19t-2.5 18q-2 12 -6 15.5t-6 3.5q-5 0 -8 -9.5t-4 -15.5q-2 -9 -4.5 -21t-4.5 -20 q-5 -17 -6.5 -33.5t-4.5 -33.5zM46 298q3 23 7.5 45t7.5 44q2 14 3.5 26.5t3.5 26.5q3 19 7.5 37.5t8.5 38.5q6 29 9 59t9 59q6 26 11.5 41t13 22.5t17.5 9.5t26 2q8 0 16.5 -0.5t16.5 -1.5q15 -1 30 -1.5t30 -0.5q19 0 37.5 0.5t37.5 1.5q29 0 39.5 -9t15.5 -37 q1 -5 3.5 -16t5 -23.5t4.5 -23t2 -14.5q1 -5 2.5 -17.5t3.5 -27t3.5 -27.5t2.5 -18q1 -9 5.5 -32t10 -49.5t10 -50t6.5 -33.5t3 -17t2 -15.5t2 -19.5t3 -30q3 -32 8.5 -63t11.5 -63q3 -12 5.5 -24.5t5.5 -24.5q3 -15 3 -30q0 -17 -8.5 -29.5t-22.5 -12.5q-4 0 -13.5 0.5 t-20 1t-20.5 1t-14 0.5q-3 0 -10 -0.5t-15.5 -1t-16 -1t-10.5 -0.5q-12 0 -18.5 4t-10 10t-4 12t-0.5 10q0 11 -1 22t-3 22q-2 17 -4.5 25.5t-10.5 12.5q-4 2 -64 2q-16 0 -23 -2t-11 -8q-2 -3 -3.5 -13t-2.5 -22t-2 -23t-1 -15q-1 -23 -11 -30t-23 -7q-3 0 -9.5 0.5t-14 1 t-14.5 1t-10 0.5h-11.5t-18.5 -0.5t-18.5 -0.5h-12.5h-12t-12 2q-10 3 -13.5 11.5t-3.5 13.5q0 2 3.5 22.5t7.5 45.5t8 46t4 24q2 8 3.5 17t3.5 18q1 5 3 18.5t4 29t4 29t3 19.5z"/>
<glyph glyph-name="Acircumflex" horiz-adv-x="500" unicode="Â" d="M239 859q3 0 10.5 0.5t16.5 0.5t16.5 0.5t10.5 0.5q11 0 17.5 -1t12.5 -5.5t13 -13t18 -23.5q8 -10 15.5 -19.5t16.5 -17.5q11 -10 14.5 -14.5t3.5 -9.5q0 -1 -1.5 -6.5t-10.5 -5.5q-3 0 -11.5 0.5t-17.5 0.5t-17.5 0.5t-11.5 0.5t-14 -0.5t-14 -0.5q-5 0 -11.5 1.5 t-12.5 6.5q-2 2 -6.5 7.5t-9.5 11.5t-10 11t-8 5q-2 0 -4.5 -2.5t-11.5 -14.5q-11 -15 -17 -19.5t-18 -4.5q-4 0 -15.5 0.5t-14.5 0.5q-4 0 -17 -0.5t-17 -0.5q-2 0 -5 -0.5t-7 -0.5h-10q-6 0 -10.5 3.5t-4.5 8.5q0 4 2.5 7.5t5.5 6.5q2 2 4.5 4t4.5 4l7.5 7.5t6.5 8.5 q1 2 5.5 7t10 11t10 11.5t6.5 7.5q10 13 18 19.5t26 6.5q4 0 17.5 -0.5t18.5 -0.5zM219 371l-4 -22t-2 -22q0 -20 6.5 -28.5t23.5 -8.5q4 0 11 0.5t13 3.5t10.5 10t4.5 20q0 12 -1 24q-1 11 -2 24.5t-3 27.5l-4 24l-4 24q-2 10 -2.5 19t-2.5 18q-2 12 -6 15.5t-6 3.5 q-5 0 -8 -9.5t-4 -15.5q-2 -9 -4.5 -21t-4.5 -20q-5 -17 -6.5 -33.5t-4.5 -33.5zM46 298q3 23 7.5 45t7.5 44q2 14 3.5 26.5t3.5 26.5q3 19 7.5 37.5t8.5 38.5q6 29 9 59t9 59q6 26 11.5 41t13 22.5t17.5 9.5t26 2q8 0 16.5 -0.5t16.5 -1.5q15 -1 30 -1.5t30 -0.5 q19 0 37.5 0.5t37.5 1.5q29 0 39.5 -9t15.5 -37q1 -5 3.5 -16t5 -23.5t4.5 -23t2 -14.5q1 -5 2.5 -17.5t3.5 -27t3.5 -27.5t2.5 -18q1 -9 5.5 -32t10 -49.5t10 -50t6.5 -33.5t3 -17t2 -15.5t2 -19.5t3 -30q3 -32 8.5 -63t11.5 -63q3 -12 5.5 -24.5t5.5 -24.5q3 -15 3 -30 q0 -17 -8.5 -29.5t-22.5 -12.5q-4 0 -13.5 0.5t-20 1t-20.5 1t-14 0.5q-3 0 -10 -0.5t-15.5 -1t-16 -1t-10.5 -0.5q-12 0 -18.5 4t-10 10t-4 12t-0.5 10q0 11 -1 22t-3 22q-2 17 -4.5 25.5t-10.5 12.5q-4 2 -64 2q-16 0 -23 -2t-11 -8q-2 -3 -3.5 -13t-2.5 -22t-2 -23 t-1 -15q-1 -23 -11 -30t-23 -7q-3 0 -9.5 0.5t-14 1t-14.5 1t-10 0.5h-11.5t-18.5 -0.5t-18.5 -0.5h-12.5h-12t-12 2q-10 3 -13.5 11.5t-3.5 13.5q0 2 3.5 22.5t7.5 45.5t8 46t4 24q2 8 3.5 17t3.5 18q1 5 3 18.5t4 29t4 29t3 19.5z"/>
<glyph glyph-name="Atilde" horiz-adv-x="500" unicode="Ã" d="M402 809q0 -32 -11.5 -53t-47.5 -21q-17 0 -35 4.5t-35 9.5q-4 1 -12 3.5l-16 5t-15.5 5l-10.5 3.5q-6 3 -11 3q-8 0 -9 -3t-1 -8q0 -8 -4.5 -13.5t-11.5 -5.5q-2 0 -4.5 0.5t-4.5 0.5q-5 1 -9.5 1h-16.5q-2 0 -11.5 -0.5t-12.5 -0.5q-11 0 -15 8.5t-4 14.5q0 3 0.5 10.5 t1 16t1 16t0.5 10.5q3 15 17 28.5t44 13.5q9 0 24.5 -3t32 -6.5t32 -8t24.5 -7.5q5 -2 8.5 -3t8.5 -1q6 0 9 3q2 2 1 5.5t1 6.5t5.5 6t9.5 3q7 0 10 -1q5 -1 10.5 -1h10.5q3 0 14.5 0.5t15.5 0.5q13 0 15 -9.5t2 -11.5v-22zM219 371l-4 -22t-2 -22q0 -20 6.5 -28.5 t23.5 -8.5q4 0 11 0.5t13 3.5t10.5 10t4.5 20q0 12 -1 24q-1 11 -2 24.5t-3 27.5l-4 24l-4 24q-2 10 -2.5 19t-2.5 18q-2 12 -6 15.5t-6 3.5q-5 0 -8 -9.5t-4 -15.5q-2 -9 -4.5 -21t-4.5 -20q-5 -17 -6.5 -33.5t-4.5 -33.5zM46 298q3 23 7.5 45t7.5 44q2 14 3.5 26.5 t3.5 26.5q3 19 7.5 37.5t8.5 38.5q6 29 9 59t9 59q6 26 11.5 41t13 22.5t17.5 9.5t26 2q8 0 16.5 -0.5t16.5 -1.5q15 -1 30 -1.5t30 -0.5q19 0 37.5 0.5t37.5 1.5q29 0 39.5 -9t15.5 -37q1 -5 3.5 -16t5 -23.5t4.5 -23t2 -14.5q1 -5 2.5 -17.5t3.5 -27t3.5 -27.5t2.5 -18 q1 -9 5.5 -32t10 -49.5t10 -50t6.5 -33.5t3 -17t2 -15.5t2 -19.5t3 -30q3 -32 8.5 -63t11.5 -63q3 -12 5.5 -24.5t5.5 -24.5q3 -15 3 -30q0 -17 -8.5 -29.5t-22.5 -12.5q-4 0 -13.5 0.5t-20 1t-20.5 1t-14 0.5q-3 0 -10 -0.5t-15.5 -1t-16 -1t-10.5 -0.5q-12 0 -18.5 4 t-10 10t-4 12t-0.5 10q0 11 -1 22t-3 22q-2 17 -4.5 25.5t-10.5 12.5q-4 2 -64 2q-16 0 -23 -2t-11 -8q-2 -3 -3.5 -13t-2.5 -22t-2 -23t-1 -15q-1 -23 -11 -30t-23 -7q-3 0 -9.5 0.5t-14 1t-14.5 1t-10 0.5h-11.5t-18.5 -0.5t-18.5 -0.5h-12.5h-12t-12 2q-10 3 -13.5 11.5 t-3.5 13.5q0 2 3.5 22.5t7.5 45.5t8 46t4 24q2 8 3.5 17t3.5 18q1 5 3 18.5t4 29t4 29t3 19.5z"/>
<glyph glyph-name="Adieresis" horiz-adv-x="500" unicode="Ä" d="M276 831q0 15 8 16.5t16 0.5h15h10t15.5 -0.5t16 -0.5h10.5t9.5 0.5t14 0.5t14 0.5t9.5 0.5q14 0 19.5 -5.5t5.5 -11.5v-5q-2 -6 -2 -12.5v-11.5q0 -4 0.5 -15t0.5 -15q0 -8 -4 -13t-9 -7.5t-10.5 -3.5t-8.5 -1t-10.5 0.5t-16 1t-16.5 1t-11 0.5q-4 0 -19.5 -0.5 t-20.5 -0.5q-17 0 -25.5 2t-10.5 15q-1 3 0 14.5t1 14.5q0 4 -0.5 17t-0.5 18zM89 829q0 14 9 19t21 5q3 0 11 -0.5t17 -1t17 -1t11 -0.5h8.5t14 0.5t14 0.5h9.5q11 0 20 -3t9 -15q0 -4 -0.5 -15t-0.5 -14v-29q0 -9 -4 -14.5t-9.5 -7.5t-11.5 -2.5t-10 -0.5t-15 0.5 t-23.5 0.5t-24 0.5t-15.5 0.5q-3 0 -12 -0.5t-11 -0.5q-14 0 -19 7t-5 15q0 2 0.5 4.5t0.5 4.5q1 4 1 9v10q0 3 -1 13.5t-1 14.5zM219 371l-4 -22t-2 -22q0 -20 6.5 -28.5t23.5 -8.5q4 0 11 0.5t13 3.5t10.5 10t4.5 20q0 12 -1 24q-1 11 -2 24.5t-3 27.5l-4 24l-4 24 q-2 10 -2.5 19t-2.5 18q-2 12 -6 15.5t-6 3.5q-5 0 -8 -9.5t-4 -15.5q-2 -9 -4.5 -21t-4.5 -20q-5 -17 -6.5 -33.5t-4.5 -33.5zM46 298q3 23 7.5 45t7.5 44q2 14 3.5 26.5t3.5 26.5q3 19 7.5 37.5t8.5 38.5q6 29 9 59t9 59q6 26 11.5 41t13 22.5t17.5 9.5t26 2 q8 0 16.5 -0.5t16.5 -1.5q15 -1 30 -1.5t30 -0.5q19 0 37.5 0.5t37.5 1.5q29 0 39.5 -9t15.5 -37q1 -5 3.5 -16t5 -23.5t4.5 -23t2 -14.5q1 -5 2.5 -17.5t3.5 -27t3.5 -27.5t2.5 -18q1 -9 5.5 -32t10 -49.5t10 -50t6.5 -33.5t3 -17t2 -15.5t2 -19.5t3 -30q3 -32 8.5 -63 t11.5 -63q3 -12 5.5 -24.5t5.5 -24.5q3 -15 3 -30q0 -17 -8.5 -29.5t-22.5 -12.5q-4 0 -13.5 0.5t-20 1t-20.5 1t-14 0.5q-3 0 -10 -0.5t-15.5 -1t-16 -1t-10.5 -0.5q-12 0 -18.5 4t-10 10t-4 12t-0.5 10q0 11 -1 22t-3 22q-2 17 -4.5 25.5t-10.5 12.5q-4 2 -64 2 q-16 0 -23 -2t-11 -8q-2 -3 -3.5 -13t-2.5 -22t-2 -23t-1 -15q-1 -23 -11 -30t-23 -7q-3 0 -9.5 0.5t-14 1t-14.5 1t-10 0.5h-11.5t-18.5 -0.5t-18.5 -0.5h-12.5h-12t-12 2q-10 3 -13.5 11.5t-3.5 13.5q0 2 3.5 22.5t7.5 45.5t8 46t4 24q2 8 3.5 17t3.5 18q1 5 3 18.5t4 29 t4 29t3 19.5z"/>
<glyph glyph-name="Aring" horiz-adv-x="500" unicode="Å" d="M253 870q-15 0 -24.5 -10t-9.5 -24q0 -16 10.5 -23t22.5 -7q1 0 6 0.5t11 3.5t10.5 10t4.5 19q0 4 -1 9t-3 9q-7 13 -27 13zM150 839q0 7 4 22t15 30.5t30.5 27t51.5 11.5q23 0 46.5 -7.5t35.5 -21.5q12 -13 16.5 -30.5t4.5 -33.5q0 -17 -7 -38t-30 -36l-6 -3 q-6 -3 -16 -7t-22 -7t-24 -3q-4 0 -15 1t-23.5 5.5t-25.5 13.5t-22 24q-7 13 -10 28.5t-3 23.5zM219 371l-4 -22t-2 -22q0 -20 6.5 -28.5t23.5 -8.5q4 0 11 0.5t13 3.5t10.5 10t4.5 20q0 12 -1 24q-1 11 -2 24.5t-3 27.5l-4 24l-4 24q-2 10 -2.5 19t-2.5 18q-2 12 -6 15.5 t-6 3.5q-5 0 -8 -9.5t-4 -15.5q-2 -9 -4.5 -21t-4.5 -20q-5 -17 -6.5 -33.5t-4.5 -33.5zM46 298q3 23 7.5 45t7.5 44q2 14 3.5 26.5t3.5 26.5q3 19 7.5 37.5t8.5 38.5q6 29 9 59t9 59q6 26 11.5 41t13 22.5t17.5 9.5t26 2q8 0 16.5 -0.5t16.5 -1.5q15 -1 30 -1.5t30 -0.5 q19 0 37.5 0.5t37.5 1.5q29 0 39.5 -9t15.5 -37q1 -5 3.5 -16t5 -23.5t4.5 -23t2 -14.5q1 -5 2.5 -17.5t3.5 -27t3.5 -27.5t2.5 -18q1 -9 5.5 -32t10 -49.5t10 -50t6.5 -33.5t3 -17t2 -15.5t2 -19.5t3 -30q3 -32 8.5 -63t11.5 -63q3 -12 5.5 -24.5t5.5 -24.5q3 -15 3 -30 q0 -17 -8.5 -29.5t-22.5 -12.5q-4 0 -13.5 0.5t-20 1t-20.5 1t-14 0.5q-3 0 -10 -0.5t-15.5 -1t-16 -1t-10.5 -0.5q-12 0 -18.5 4t-10 10t-4 12t-0.5 10q0 11 -1 22t-3 22q-2 17 -4.5 25.5t-10.5 12.5q-4 2 -64 2q-16 0 -23 -2t-11 -8q-2 -3 -3.5 -13t-2.5 -22t-2 -23 t-1 -15q-1 -23 -11 -30t-23 -7q-3 0 -9.5 0.5t-14 1t-14.5 1t-10 0.5h-11.5t-18.5 -0.5t-18.5 -0.5h-12.5h-12t-12 2q-10 3 -13.5 11.5t-3.5 13.5q0 2 3.5 22.5t7.5 45.5t8 46t4 24q2 8 3.5 17t3.5 18q1 5 3 18.5t4 29t4 29t3 19.5z"/>
<glyph glyph-name="AE" horiz-adv-x="708" unicode="Æ" d="M297 321q0 1 -0.5 5t-1 9t-1 9.5t-0.5 5.5q-2 20 -3 32t-2.5 22t-3 19.5t-4.5 23.5q-2 8 -3 16.5t-2 16.5q-1 3 -3.5 11.5t-5.5 8.5q-2 0 -4.5 -3t-4.5 -6t-3.5 -16t-2.5 -17q-2 -9 -5.5 -27.5t-6.5 -38.5t-5.5 -38t-2.5 -26q0 -5 0.5 -11.5t4 -12.5t10.5 -10.5t20 -4.5 q17 0 23.5 11t6.5 21zM642 169q26 0 34.5 -12.5t8.5 -26.5q0 -4 -0.5 -16t-0.5 -17v-10t0.5 -15.5t0.5 -16.5v-11q0 -4 -0.5 -10t-2.5 -12t-6.5 -11t-13.5 -6q-8 -2 -24 -2t-25 -1h-20.5t-31.5 0.5t-32.5 0.5h-21.5q-23 0 -45 -0.5t-45 -0.5q-3 0 -10 -0.5t-15 -0.5 t-15 -0.5t-10 -0.5q-13 0 -20.5 3.5t-11.5 9.5t-5 13.5t-1 14.5q0 13 -5 28l-6.5 26t-5.5 14.5t-7.5 6t-11.5 1.5q-8 0 -15 -0.5t-15 -0.5q-4 0 -16.5 1t-16.5 1q-12 0 -17.5 -10.5t-12.5 -31.5q-1 -3 -3.5 -12.5t-5.5 -20.5t-5 -20l-3 -9q-1 -2 -7 -7.5t-18 -5.5 q-2 0 -8.5 0.5t-13.5 0.5t-13.5 0.5t-9.5 0.5q-2 0 -14 -0.5t-26.5 -0.5t-28.5 -0.5t-19 -0.5q-2 0 -11 2t-9 15l1 6q2 6 4 14q0 8 2 14l2 7q4 20 9.5 38.5t9.5 38.5q3 17 5 33t5 33q2 9 3.5 18.5t3.5 19.5q1 6 4 22t7 34.5t7 35t5 23.5q3 14 5 23t3.5 17.5t2.5 18t3 25.5 q2 11 3 20.5t3 20.5q1 5 4 19t6.5 29.5t6 29.5t3.5 20q2 11 2.5 21t2.5 21q4 33 12 51t17.5 27t19 10.5t17.5 1.5q4 0 13 -0.5t19.5 -1.5t20 -1.5t13.5 -0.5h13.5t20 0.5t20 0.5h13.5q6 0 20.5 -0.5t31.5 -1.5t32.5 -1.5t21.5 -0.5q4 0 14 0.5t21 0.5t21.5 0.5t14.5 0.5 q18 0 36.5 -0.5t36.5 -0.5q17 0 29.5 0.5t20.5 1.5q15 2 19 2.5t7 0.5q10 0 16 -4.5t8.5 -10.5t3 -12t0.5 -9t-0.5 -9.5t-0.5 -14t-0.5 -14t-0.5 -9.5q0 -4 0.5 -16t0.5 -17q0 -14 -5 -25.5t-18 -16.5q-4 -2 -8 -2h-19q-1 0 -12 -1t-19 -2h-37h-8t-12.5 -0.5t-12.5 -0.5h-9 t-13.5 0.5t-14.5 0.5q-29 0 -39 -12.5t-10 -20.5q0 -4 0.5 -7t1.5 -7q2 -8 3 -17t7 -17q10 -13 21 -15.5t26 -2.5q3 0 12 0.5t18.5 1t18.5 1t12 0.5q5 0 19 -1t19 -1q2 0 8 0.5t12.5 0.5t12 0.5t8.5 0.5q11 0 17.5 -4.5t9.5 -11.5t4 -15.5t1 -16.5q0 -11 0.5 -18.5t0.5 -16 v-18v-24.5q0 -14 -4 -21.5t-9.5 -11.5t-12 -4.5t-10.5 -0.5q-5 0 -11 0.5t-11 0.5q-13 1 -25 1h-24h-27t-16.5 -1t-10 -2t-7.5 -4q-11 -7 -13 -15t-2 -16q0 -6 1 -16t5 -30q2 -7 6.5 -18.5t21.5 -16.5q3 -1 13.5 -1.5t22.5 -0.5t23 -0.5t15 -0.5q5 0 10.5 -0.5t10.5 -0.5 q8 0 12 1z"/>
<glyph glyph-name="Ccedilla" horiz-adv-x="375" unicode="Ç" d="M360 659q-2 -12 -2 -23.5v-22.5v-13t0.5 -19.5t0.5 -19.5v-13t-0.5 -10.5t-3.5 -13t-10 -11t-19 -4.5q-4 0 -16 2.5t-16 2.5t-11.5 -2.5t-16 -5.5t-15.5 -6.5t-9 -5.5q-14 -10 -22.5 -27t-13.5 -38t-6.5 -44.5t-1.5 -46.5q0 -18 3.5 -41t8.5 -35q7 -20 18 -33t16 -17 l6 -4q6 -4 15.5 -9.5t20 -9.5t19.5 -4q3 0 14 1.5t15 1.5q8 0 16.5 -7t8.5 -27q0 -3 -0.5 -9.5t-1 -14.5t-1 -15t-0.5 -10q0 -11 0.5 -26t1.5 -25q0 -5 0.5 -9.5t0.5 -9.5q0 -16 -5 -24.5t-12 -12.5t-14.5 -4.5t-13.5 -0.5q-3 0 -11.5 0.5t-18 0.5t-18 0.5t-11.5 0.5 q-9 0 -9 -8t2.5 -10.5t9.5 -4.5q6 -2 9 -4q12 -7 20.5 -17t8.5 -30q0 -17 -6.5 -31t-14.5 -26q-3 -4 -8 -10t-13.5 -11.5t-21 -9.5t-30.5 -4h-10t-16.5 0.5t-16 1t-9.5 0.5q-3 0 -7 2t-4 9q0 1 1 4.5t2 5.5q1 4 1.5 7t0.5 7q1 12 3 19.5t11 9.5q2 1 8 0.5t8 -0.5q8 0 19.5 2 t11.5 14q0 9 -7 14q-3 2 -7.5 3t-8.5 3q-5 2 -6.5 5t-1.5 8q0 4 3 13.5t7 19.5t7 18.5t3 10.5t-1.5 2t-8.5 2q-14 4 -29 13q-13 8 -29 20.5t-32 32.5q-5 5 -11.5 13t-11.5 14q-6 8 -13.5 22.5t-14.5 31t-12.5 33t-8.5 28.5q-2 10 -4 31.5t-3.5 43t-2.5 39.5t-1 23 q0 60 6 97.5t13 66.5q3 12 14.5 42t34.5 57q6 7 10 11.5t9.5 9t14 10.5t22.5 15q10 8 20 15t21 12q9 5 23 9t30 7t32 5t29 2q34 0 52 -5.5t18 -33.5v-16z"/>
<glyph glyph-name="Egrave" horiz-adv-x="437" unicode="È" d="M182 857h17t17 1q14 2 17.5 2h7.5q16 0 21.5 -10t10.5 -24q3 -8 6 -15.5t6 -15.5q1 -2 3 -7.5t4.5 -11.5t4.5 -11t2 -7q0 -10 -6.5 -12t-16.5 -2q-4 0 -19 0.5t-20 0.5q-3 0 -14.5 -1t-15.5 -1t-10 2q-3 1 -8 6.5t-11 12t-11.5 12.5t-7.5 9q-9 8 -18 17l-17 17 q-14 14 -16.5 18.5t-2.5 7.5q0 9 6.5 11.5t19.5 2.5q3 0 15 -1t16 -1h20zM343 707q4 0 16 0.5t16 0.5q14 0 22 -8.5t8 -22.5q0 -3 -0.5 -10.5t-1 -16.5t-1 -17t-0.5 -11t0.5 -16t0.5 -18q0 -11 -5.5 -24.5t-30.5 -15.5q-2 -1 -8.5 -0.5t-8.5 0.5q-3 0 -15 -1t-16 -1 q-2 0 -8 0.5t-12.5 1t-12.5 1t-9 0.5q-29 0 -39.5 -5t-15.5 -12q-3 -5 -3.5 -10.5t-0.5 -26.5q0 -4 0.5 -12t4 -16.5t10.5 -14.5t20 -6q3 0 14.5 1t15.5 1q2 0 8 -0.5t12.5 -0.5t12 -0.5t8.5 -0.5t15.5 0.5t16.5 0.5q23 0 31 -9.5t8 -30.5q0 -2 -0.5 -8t-0.5 -12.5 t-0.5 -12.5t-0.5 -9q0 -2 0.5 -8t0.5 -12.5t0.5 -12.5t0.5 -9q0 -12 -3 -18q-8 -17 -18.5 -20t-21.5 -3q-4 0 -15.5 0.5t-24.5 1.5t-25 1.5t-16 0.5q-12 0 -25.5 -2.5t-21.5 -16.5q-4 -7 -4.5 -19t-0.5 -33q0 -15 3 -27.5t22 -17.5q8 -2 19 -2.5t21 -0.5q8 -1 15 -2l14 -2 q5 -1 10.5 -1h10.5h12t11 1t10 1.5t10 0.5q10 0 23.5 -7.5t13.5 -28.5v-9t-1 -9q-1 -8 -1 -16v-13v-8t0.5 -13t0.5 -13v-9q0 -25 -13.5 -32.5t-22.5 -7.5q-4 0 -17.5 1t-17.5 1t-16.5 -0.5t-17.5 -0.5q-16 0 -31.5 1t-31.5 1q-4 0 -17.5 -0.5t-18.5 -0.5q-4 0 -17 0.5 t-17 0.5h-12t-19 -0.5t-19 -0.5h-12q-5 0 -19 -0.5t-19 -0.5q-18 0 -29.5 11.5t-11.5 27.5q0 3 0.5 6t0.5 6q2 16 2 33v30v12t-0.5 19t-0.5 19v12t0.5 9.5t1 14t1 14t0.5 9.5v9.5t-0.5 13.5t-0.5 13.5v9.5v16.5t0.5 26t0.5 26v17.5t-0.5 18.5t-0.5 29t-0.5 29t-0.5 19.5 q0 26 1 53t1 53v15t-0.5 23t-0.5 22.5v15.5q0 18 1 32.5t5.5 24.5t15 15t29.5 5q4 0 12 -0.5t18 -0.5q9 -1 17.5 -1.5t11.5 -0.5h52q4 0 16 -0.5t25.5 -0.5t25.5 -0.5t17 -0.5q4 0 18.5 1t19.5 1h21z"/>
<glyph glyph-name="Eacute" horiz-adv-x="437" unicode="É" d="M139 758q0 4 1.5 7.5t3.5 7.5q1 1 4 8.5t6 16t6 15.5t3 9q8 22 14 30t21 8q5 0 9.5 -0.5t9.5 -1.5q11 -1 22 -1h28h22q5 1 9 1.5t8 0.5q10 0 18 -1.5t8 -12.5q0 -7 -8 -15.5t-13 -13.5q-14 -14 -28 -27.5t-27 -27.5q-9 -11 -13.5 -14.5t-12.5 -3.5q-2 0 -12 1t-13 1h-9 t-13.5 -0.5t-14 -0.5h-9.5q-20 0 -20 14zM343 707q4 0 16 0.5t16 0.5q14 0 22 -8.5t8 -22.5q0 -3 -0.5 -10.5t-1 -16.5t-1 -17t-0.5 -11t0.5 -16t0.5 -18q0 -11 -5.5 -24.5t-30.5 -15.5q-2 -1 -8.5 -0.5t-8.5 0.5q-3 0 -15 -1t-16 -1q-2 0 -8 0.5t-12.5 1t-12.5 1t-9 0.5 q-29 0 -39.5 -5t-15.5 -12q-3 -5 -3.5 -10.5t-0.5 -26.5q0 -4 0.5 -12t4 -16.5t10.5 -14.5t20 -6q3 0 14.5 1t15.5 1q2 0 8 -0.5t12.5 -0.5t12 -0.5t8.5 -0.5t15.5 0.5t16.5 0.5q23 0 31 -9.5t8 -30.5q0 -2 -0.5 -8t-0.5 -12.5t-0.5 -12.5t-0.5 -9q0 -2 0.5 -8t0.5 -12.5 t0.5 -12.5t0.5 -9q0 -12 -3 -18q-8 -17 -18.5 -20t-21.5 -3q-4 0 -15.5 0.5t-24.5 1.5t-25 1.5t-16 0.5q-12 0 -25.5 -2.5t-21.5 -16.5q-4 -7 -4.5 -19t-0.5 -33q0 -15 3 -27.5t22 -17.5q8 -2 19 -2.5t21 -0.5q8 -1 15 -2l14 -2q5 -1 10.5 -1h10.5h12t11 1t10 1.5t10 0.5 q10 0 23.5 -7.5t13.5 -28.5v-9t-1 -9q-1 -8 -1 -16v-13v-8t0.5 -13t0.5 -13v-9q0 -25 -13.5 -32.5t-22.5 -7.5q-4 0 -17.5 1t-17.5 1t-16.5 -0.5t-17.5 -0.5q-16 0 -31.5 1t-31.5 1q-4 0 -17.5 -0.5t-18.5 -0.5q-4 0 -17 0.5t-17 0.5h-12t-19 -0.5t-19 -0.5h-12 q-5 0 -19 -0.5t-19 -0.5q-18 0 -29.5 11.5t-11.5 27.5q0 3 0.5 6t0.5 6q2 16 2 33v30v12t-0.5 19t-0.5 19v12t0.5 9.5t1 14t1 14t0.5 9.5v9.5t-0.5 13.5t-0.5 13.5v9.5v16.5t0.5 26t0.5 26v17.5t-0.5 18.5t-0.5 29t-0.5 29t-0.5 19.5q0 26 1 53t1 53v15t-0.5 23t-0.5 22.5 v15.5q0 18 1 32.5t5.5 24.5t15 15t29.5 5q4 0 12 -0.5t18 -0.5q9 -1 17.5 -1.5t11.5 -0.5h52q4 0 16 -0.5t25.5 -0.5t25.5 -0.5t17 -0.5q4 0 18.5 1t19.5 1h21z"/>
<glyph glyph-name="Ecircumflex" horiz-adv-x="437" unicode="Ê" d="M208 859q3 0 10.5 0.5t16.5 0.5t16.5 0.5t10.5 0.5q11 0 17.5 -1t12.5 -5.5t13 -13t18 -23.5q8 -10 15.5 -19.5t16.5 -17.5q11 -10 14.5 -14.5t3.5 -9.5q0 -1 -1.5 -6.5t-10.5 -5.5q-3 0 -11.5 0.5t-17.5 0.5t-17.5 0.5t-11.5 0.5t-14 -0.5t-14 -0.5q-5 0 -11.5 1.5 t-12.5 6.5q-2 2 -6.5 7.5t-9.5 11.5t-10 11t-8 5q-2 0 -4.5 -2.5t-11.5 -14.5q-11 -15 -17 -19.5t-18 -4.5q-4 0 -15.5 0.5t-14.5 0.5q-4 0 -17 -0.5t-17 -0.5q-2 0 -5 -0.5t-7 -0.5h-10q-6 0 -10.5 3.5t-4.5 8.5q0 4 2.5 7.5t5.5 6.5q2 2 4.5 4t4.5 4l7.5 7.5t6.5 8.5 q1 2 5.5 7t10 11t10 11.5t6.5 7.5q10 13 18 19.5t26 6.5q4 0 17.5 -0.5t18.5 -0.5zM343 707q4 0 16 0.5t16 0.5q14 0 22 -8.5t8 -22.5q0 -3 -0.5 -10.5t-1 -16.5t-1 -17t-0.5 -11t0.5 -16t0.5 -18q0 -11 -5.5 -24.5t-30.5 -15.5q-2 -1 -8.5 -0.5t-8.5 0.5q-3 0 -15 -1 t-16 -1q-2 0 -8 0.5t-12.5 1t-12.5 1t-9 0.5q-29 0 -39.5 -5t-15.5 -12q-3 -5 -3.5 -10.5t-0.5 -26.5q0 -4 0.5 -12t4 -16.5t10.5 -14.5t20 -6q3 0 14.5 1t15.5 1q2 0 8 -0.5t12.5 -0.5t12 -0.5t8.5 -0.5t15.5 0.5t16.5 0.5q23 0 31 -9.5t8 -30.5q0 -2 -0.5 -8t-0.5 -12.5 t-0.5 -12.5t-0.5 -9q0 -2 0.5 -8t0.5 -12.5t0.5 -12.5t0.5 -9q0 -12 -3 -18q-8 -17 -18.5 -20t-21.5 -3q-4 0 -15.5 0.5t-24.5 1.5t-25 1.5t-16 0.5q-12 0 -25.5 -2.5t-21.5 -16.5q-4 -7 -4.5 -19t-0.5 -33q0 -15 3 -27.5t22 -17.5q8 -2 19 -2.5t21 -0.5q8 -1 15 -2l14 -2 q5 -1 10.5 -1h10.5h12t11 1t10 1.5t10 0.5q10 0 23.5 -7.5t13.5 -28.5v-9t-1 -9q-1 -8 -1 -16v-13v-8t0.5 -13t0.5 -13v-9q0 -25 -13.5 -32.5t-22.5 -7.5q-4 0 -17.5 1t-17.5 1t-16.5 -0.5t-17.5 -0.5q-16 0 -31.5 1t-31.5 1q-4 0 -17.5 -0.5t-18.5 -0.5q-4 0 -17 0.5 t-17 0.5h-12t-19 -0.5t-19 -0.5h-12q-5 0 -19 -0.5t-19 -0.5q-18 0 -29.5 11.5t-11.5 27.5q0 3 0.5 6t0.5 6q2 16 2 33v30v12t-0.5 19t-0.5 19v12t0.5 9.5t1 14t1 14t0.5 9.5v9.5t-0.5 13.5t-0.5 13.5v9.5v16.5t0.5 26t0.5 26v17.5t-0.5 18.5t-0.5 29t-0.5 29t-0.5 19.5 q0 26 1 53t1 53v15t-0.5 23t-0.5 22.5v15.5q0 18 1 32.5t5.5 24.5t15 15t29.5 5q4 0 12 -0.5t18 -0.5q9 -1 17.5 -1.5t11.5 -0.5h52q4 0 16 -0.5t25.5 -0.5t25.5 -0.5t17 -0.5q4 0 18.5 1t19.5 1h21z"/>
<glyph glyph-name="Edieresis" horiz-adv-x="437" unicode="Ë" d="M229 835q0 15 8 16.5t16 0.5h15h10t15.5 -0.5t16 -0.5h10.5t9.5 0.5t14 0.5t14 0.5t9.5 0.5q14 0 19.5 -5.5t5.5 -11.5v-5q-2 -6 -2 -12.5v-11.5q0 -4 0.5 -15t0.5 -15q0 -8 -4 -13t-9 -7.5t-10.5 -3.5t-8.5 -1t-10.5 0.5t-16 1t-16.5 1t-11 0.5q-4 0 -19.5 -0.5 t-20.5 -0.5q-17 0 -25.5 2t-10.5 15q-1 3 0 14.5t1 14.5q0 4 -0.5 17t-0.5 18zM42 833q0 14 9 19t21 5q3 0 11 -0.5t17 -1t17 -1t11 -0.5h8.5t14 0.5t14 0.5h9.5q11 0 20 -3t9 -15q0 -4 -0.5 -15t-0.5 -14v-29q0 -9 -4 -14.5t-9.5 -7.5t-11.5 -2.5t-10 -0.5t-15 0.5 t-23.5 0.5t-24 0.5t-15.5 0.5q-3 0 -12 -0.5t-11 -0.5q-14 0 -19 7t-5 15q0 2 0.5 4.5t0.5 4.5q1 4 1 9v10q0 3 -1 13.5t-1 14.5zM343 707q4 0 16 0.5t16 0.5q14 0 22 -8.5t8 -22.5q0 -3 -0.5 -10.5t-1 -16.5t-1 -17t-0.5 -11t0.5 -16t0.5 -18q0 -11 -5.5 -24.5t-30.5 -15.5 q-2 -1 -8.5 -0.5t-8.5 0.5q-3 0 -15 -1t-16 -1q-2 0 -8 0.5t-12.5 1t-12.5 1t-9 0.5q-29 0 -39.5 -5t-15.5 -12q-3 -5 -3.5 -10.5t-0.5 -26.5q0 -4 0.5 -12t4 -16.5t10.5 -14.5t20 -6q3 0 14.5 1t15.5 1q2 0 8 -0.5t12.5 -0.5t12 -0.5t8.5 -0.5t15.5 0.5t16.5 0.5 q23 0 31 -9.5t8 -30.5q0 -2 -0.5 -8t-0.5 -12.5t-0.5 -12.5t-0.5 -9q0 -2 0.5 -8t0.5 -12.5t0.5 -12.5t0.5 -9q0 -12 -3 -18q-8 -17 -18.5 -20t-21.5 -3q-4 0 -15.5 0.5t-24.5 1.5t-25 1.5t-16 0.5q-12 0 -25.5 -2.5t-21.5 -16.5q-4 -7 -4.5 -19t-0.5 -33q0 -15 3 -27.5 t22 -17.5q8 -2 19 -2.5t21 -0.5q8 -1 15 -2l14 -2q5 -1 10.5 -1h10.5h12t11 1t10 1.5t10 0.5q10 0 23.5 -7.5t13.5 -28.5v-9t-1 -9q-1 -8 -1 -16v-13v-8t0.5 -13t0.5 -13v-9q0 -25 -13.5 -32.5t-22.5 -7.5q-4 0 -17.5 1t-17.5 1t-16.5 -0.5t-17.5 -0.5q-16 0 -31.5 1 t-31.5 1q-4 0 -17.5 -0.5t-18.5 -0.5q-4 0 -17 0.5t-17 0.5h-12t-19 -0.5t-19 -0.5h-12q-5 0 -19 -0.5t-19 -0.5q-18 0 -29.5 11.5t-11.5 27.5q0 3 0.5 6t0.5 6q2 16 2 33v30v12t-0.5 19t-0.5 19v12t0.5 9.5t1 14t1 14t0.5 9.5v9.5t-0.5 13.5t-0.5 13.5v9.5v16.5t0.5 26 t0.5 26v17.5t-0.5 18.5t-0.5 29t-0.5 29t-0.5 19.5q0 26 1 53t1 53v15t-0.5 23t-0.5 22.5v15.5q0 18 1 32.5t5.5 24.5t15 15t29.5 5q4 0 12 -0.5t18 -0.5q9 -1 17.5 -1.5t11.5 -0.5h52q4 0 16 -0.5t25.5 -0.5t25.5 -0.5t17 -0.5q4 0 18.5 1t19.5 1h21z"/>
<glyph glyph-name="Igrave" horiz-adv-x="250" unicode="Ì" d="M88 857h17t17 1q14 2 17.5 2h7.5q16 0 21.5 -10t10.5 -24q3 -8 6 -15.5t6 -15.5q1 -2 3 -7.5t4.5 -11.5t4.5 -11t2 -7q0 -10 -6.5 -12t-16.5 -2q-4 0 -19 0.5t-20 0.5q-3 0 -14.5 -1t-15.5 -1t-10 2q-3 1 -8 6.5t-11 12t-11.5 12.5t-7.5 9q-9 8 -18 17l-17 17 q-14 14 -16.5 18.5t-2.5 7.5q0 9 6.5 11.5t19.5 2.5q3 0 15 -1t16 -1h20zM216 293q0 -6 0.5 -20.5t1.5 -31t1.5 -32t0.5 -21.5q0 -4 -0.5 -15t-1 -23t-1 -23t-0.5 -15q0 -5 0.5 -16.5t1.5 -25t1.5 -25.5t0.5 -17q0 -9 -6.5 -17.5t-24.5 -8.5q-2 0 -8 0.5t-12.5 0.5 t-12.5 0.5t-9 0.5q-4 0 -13.5 -0.5t-20.5 -1t-20.5 -1t-13.5 -0.5h-6q-2 0 -7.5 0.5t-11.5 2.5t-11 6.5t-7 12.5q0 1 -0.5 10.5t-0.5 20.5v21v13t0.5 12t1 19t1 19t0.5 13v73q0 6 -0.5 20.5t-1 31t-1 31t-0.5 20.5v125q0 6 0.5 21t1 32t1 32.5t0.5 21.5v68q0 3 -0.5 9.5 t-1 14.5t-1 14.5t-0.5 9.5q0 14 6 20.5t10 8.5q5 2 10.5 2.5t19.5 0.5h12t18.5 -0.5t18.5 -0.5h13h18t18 1q2 0 8.5 0.5t8.5 0.5q9 0 14 -5t7 -11.5t2.5 -12.5t0.5 -8q0 -3 -0.5 -10.5t-1 -16.5t-1 -17t-0.5 -11q0 -9 -0.5 -17t-0.5 -22v-37v-62v-14.5t0.5 -22.5t0.5 -23 v-15q0 -3 -0.5 -11.5t-0.5 -18.5t-0.5 -18.5t-0.5 -12.5v-49z"/>
<glyph glyph-name="Iacute" horiz-adv-x="250" unicode="Í" d="M45 758q0 4 1.5 7.5t3.5 7.5q1 1 4 8.5t6 16t6 15.5t3 9q8 22 14 30t21 8q5 0 9.5 -0.5t9.5 -1.5q11 -1 22 -1h28h22q5 1 9 1.5t8 0.5q10 0 18 -1.5t8 -12.5q0 -7 -8 -15.5t-13 -13.5q-14 -14 -28 -27.5t-27 -27.5q-9 -11 -13.5 -14.5t-12.5 -3.5q-2 0 -12 1t-13 1h-9 t-13.5 -0.5t-14 -0.5h-9.5q-20 0 -20 14zM216 293q0 -6 0.5 -20.5t1.5 -31t1.5 -32t0.5 -21.5q0 -4 -0.5 -15t-1 -23t-1 -23t-0.5 -15q0 -5 0.5 -16.5t1.5 -25t1.5 -25.5t0.5 -17q0 -9 -6.5 -17.5t-24.5 -8.5q-2 0 -8 0.5t-12.5 0.5t-12.5 0.5t-9 0.5q-4 0 -13.5 -0.5 t-20.5 -1t-20.5 -1t-13.5 -0.5h-6q-2 0 -7.5 0.5t-11.5 2.5t-11 6.5t-7 12.5q0 1 -0.5 10.5t-0.5 20.5v21v13t0.5 12t1 19t1 19t0.5 13v73q0 6 -0.5 20.5t-1 31t-1 31t-0.5 20.5v125q0 6 0.5 21t1 32t1 32.5t0.5 21.5v68q0 3 -0.5 9.5t-1 14.5t-1 14.5t-0.5 9.5q0 14 6 20.5 t10 8.5q5 2 10.5 2.5t19.5 0.5h12t18.5 -0.5t18.5 -0.5h13h18t18 1q2 0 8.5 0.5t8.5 0.5q9 0 14 -5t7 -11.5t2.5 -12.5t0.5 -8q0 -3 -0.5 -10.5t-1 -16.5t-1 -17t-0.5 -11q0 -9 -0.5 -17t-0.5 -22v-37v-62v-14.5t0.5 -22.5t0.5 -23v-15q0 -3 -0.5 -11.5t-0.5 -18.5 t-0.5 -18.5t-0.5 -12.5v-49z"/>
<glyph glyph-name="Icircumflex" horiz-adv-x="250" unicode="Î" d="M114 859q3 0 10.5 0.5t16.5 0.5t16.5 0.5t10.5 0.5q11 0 17.5 -1t12.5 -5.5t13 -13t18 -23.5q8 -10 15.5 -19.5t16.5 -17.5q11 -10 14.5 -14.5t3.5 -9.5q0 -1 -1.5 -6.5t-10.5 -5.5q-3 0 -11.5 0.5t-17.5 0.5t-17.5 0.5t-11.5 0.5t-14 -0.5t-14 -0.5q-5 0 -11.5 1.5 t-12.5 6.5q-2 2 -6.5 7.5t-9.5 11.5t-10 11t-8 5q-2 0 -4.5 -2.5t-11.5 -14.5q-11 -15 -17 -19.5t-18 -4.5q-4 0 -15.5 0.5t-14.5 0.5q-4 0 -17 -0.5t-17 -0.5q-2 0 -5 -0.5t-7 -0.5h-10q-6 0 -10.5 3.5t-4.5 8.5q0 4 2.5 7.5t5.5 6.5q2 2 4.5 4t4.5 4l7.5 7.5t6.5 8.5 q1 2 5.5 7t10 11t10 11.5t6.5 7.5q10 13 18 19.5t26 6.5q4 0 17.5 -0.5t18.5 -0.5zM216 293q0 -6 0.5 -20.5t1.5 -31t1.5 -32t0.5 -21.5q0 -4 -0.5 -15t-1 -23t-1 -23t-0.5 -15q0 -5 0.5 -16.5t1.5 -25t1.5 -25.5t0.5 -17q0 -9 -6.5 -17.5t-24.5 -8.5q-2 0 -8 0.5t-12.5 0.5 t-12.5 0.5t-9 0.5q-4 0 -13.5 -0.5t-20.5 -1t-20.5 -1t-13.5 -0.5h-6q-2 0 -7.5 0.5t-11.5 2.5t-11 6.5t-7 12.5q0 1 -0.5 10.5t-0.5 20.5v21v13t0.5 12t1 19t1 19t0.5 13v73q0 6 -0.5 20.5t-1 31t-1 31t-0.5 20.5v125q0 6 0.5 21t1 32t1 32.5t0.5 21.5v68q0 3 -0.5 9.5 t-1 14.5t-1 14.5t-0.5 9.5q0 14 6 20.5t10 8.5q5 2 10.5 2.5t19.5 0.5h12t18.5 -0.5t18.5 -0.5h13h18t18 1q2 0 8.5 0.5t8.5 0.5q9 0 14 -5t7 -11.5t2.5 -12.5t0.5 -8q0 -3 -0.5 -10.5t-1 -16.5t-1 -17t-0.5 -11q0 -9 -0.5 -17t-0.5 -22v-37v-62v-14.5t0.5 -22.5t0.5 -23 v-15q0 -3 -0.5 -11.5t-0.5 -18.5t-0.5 -18.5t-0.5 -12.5v-49z"/>
<glyph glyph-name="Idieresis" horiz-adv-x="250" unicode="Ï" d="M135 835q0 15 8 16.5t16 0.5h15h10t15.5 -0.5t16 -0.5h10.5t9.5 0.5t14 0.5t14 0.5t9.5 0.5q14 0 19.5 -5.5t5.5 -11.5v-5q-2 -6 -2 -12.5v-11.5q0 -4 0.5 -15t0.5 -15q0 -8 -4 -13t-9 -7.5t-10.5 -3.5t-8.5 -1t-10.5 0.5t-16 1t-16.5 1t-11 0.5q-4 0 -19.5 -0.5 t-20.5 -0.5q-17 0 -25.5 2t-10.5 15q-1 3 0 14.5t1 14.5q0 4 -0.5 17t-0.5 18zM-52 833q0 14 9 19t21 5q3 0 11 -0.5t17 -1t17 -1t11 -0.5h8.5t14 0.5t14 0.5h9.5q11 0 20 -3t9 -15q0 -4 -0.5 -15t-0.5 -14v-29q0 -9 -4 -14.5t-9.5 -7.5t-11.5 -2.5t-10 -0.5t-15 0.5 t-23.5 0.5t-24 0.5t-15.5 0.5q-3 0 -12 -0.5t-11 -0.5q-14 0 -19 7t-5 15q0 2 0.5 4.5t0.5 4.5q1 4 1 9v10q0 3 -1 13.5t-1 14.5zM216 293q0 -6 0.5 -20.5t1.5 -31t1.5 -32t0.5 -21.5q0 -4 -0.5 -15t-1 -23t-1 -23t-0.5 -15q0 -5 0.5 -16.5t1.5 -25t1.5 -25.5t0.5 -17 q0 -9 -6.5 -17.5t-24.5 -8.5q-2 0 -8 0.5t-12.5 0.5t-12.5 0.5t-9 0.5q-4 0 -13.5 -0.5t-20.5 -1t-20.5 -1t-13.5 -0.5h-6q-2 0 -7.5 0.5t-11.5 2.5t-11 6.5t-7 12.5q0 1 -0.5 10.5t-0.5 20.5v21v13t0.5 12t1 19t1 19t0.5 13v73q0 6 -0.5 20.5t-1 31t-1 31t-0.5 20.5v125 q0 6 0.5 21t1 32t1 32.5t0.5 21.5v68q0 3 -0.5 9.5t-1 14.5t-1 14.5t-0.5 9.5q0 14 6 20.5t10 8.5q5 2 10.5 2.5t19.5 0.5h12t18.5 -0.5t18.5 -0.5h13h18t18 1q2 0 8.5 0.5t8.5 0.5q9 0 14 -5t7 -11.5t2.5 -12.5t0.5 -8q0 -3 -0.5 -10.5t-1 -16.5t-1 -17t-0.5 -11 q0 -9 -0.5 -17t-0.5 -22v-37v-62v-14.5t0.5 -22.5t0.5 -23v-15q0 -3 -0.5 -11.5t-0.5 -18.5t-0.5 -18.5t-0.5 -12.5v-49z"/>
<glyph glyph-name="Eth" horiz-adv-x="521" unicode="Ð" d="M227 314q-7 0 -11 -2t-4 -15q0 -3 0.5 -6.5t0.5 -7.5q1 -5 1 -9.5v-9.5v-10.5t-0.5 -15.5t-0.5 -15.5v-10.5q0 -8 1.5 -21t9.5 -21q10 -10 24 -10h5q5 0 12 4t14 11t12 21q1 3 2 7t2.5 12t3.5 21t6 36q3 18 5.5 37.5t2.5 34.5q0 2 -0.5 15.5t-1.5 31.5t-3 36.5t-4 31.5 q-2 7 -5 19.5t-9.5 25t-17 21.5t-26.5 9q-13 0 -20 -6t-10 -14.5t-3.5 -16t-0.5 -10.5t0.5 -9t0.5 -13.5t0.5 -13.5t0.5 -9q1 -25 1 -31t2 -8t11 -2.5t10 -0.5q3 0 14 1t14 1q20 0 20 -16v-29q0 -2 0.5 -12t0.5 -13q0 -11 -5.5 -14.5t-16.5 -3.5h-38zM37 644q0 22 4 34.5 t10.5 18.5t16 7.5t21.5 1.5q4 0 13 -0.5t19.5 -0.5t20 -0.5t13.5 -0.5t16.5 0.5t26.5 0.5t26.5 0.5t17.5 0.5q17 0 32.5 -1t31.5 -4q24 -5 45 -13.5t35 -19.5q4 -3 7.5 -6.5t9 -9.5t15 -16.5t24.5 -27.5q14 -16 22 -32.5t11 -25.5q4 -13 9.5 -38t9.5 -55t7 -62t3 -59 q0 -18 -2 -43.5t-8 -53.5q-3 -15 -9.5 -33.5t-15.5 -39t-20.5 -41t-25.5 -39.5t-29 -35t-36 -27t-50.5 -17.5t-72.5 -6.5q-3 0 -12.5 0.5t-20 1t-19.5 1t-13 0.5q-15 0 -30 -1.5t-30 -1.5h-26q-21 0 -36 8t-15 38q0 5 1 19.5t1.5 30.5t1.5 30.5t1 20.5q0 19 -1 45t-1 45 v10.5t-0.5 16t-0.5 16.5v11q0 2 0.5 6.5t0.5 6.5q0 5 -2 8.5t-5 3.5q-1 0 -4 -0.5t-4 -0.5q-9 0 -10.5 5t-1.5 9v10.5t-0.5 16t-0.5 16v10.5q0 15 4.5 18.5t6.5 3.5t4.5 -1t4.5 -1q3 0 6 1.5t3 6.5t-1 8v14q0 2 -0.5 11t-0.5 11v14.5t0.5 19.5t1 19.5t0.5 14.5q0 14 1 28.5 t1 29.5q0 3 -0.5 12t-0.5 19.5t-0.5 19.5t-0.5 13z"/>
<glyph glyph-name="Ntilde" horiz-adv-x="542" unicode="Ñ" d="M423 809q0 -32 -11.5 -53t-47.5 -21q-17 0 -35 4.5t-35 9.5q-4 1 -12 3.5l-16 5t-15.5 5l-10.5 3.5q-6 3 -11 3q-8 0 -9 -3t-1 -8q0 -8 -4.5 -13.5t-11.5 -5.5q-2 0 -4.5 0.5t-4.5 0.5q-5 1 -9.5 1h-16.5q-2 0 -11.5 -0.5t-12.5 -0.5q-11 0 -15 8.5t-4 14.5q0 3 0.5 10.5 t1 16t1 16t0.5 10.5q3 15 17 28.5t44 13.5q9 0 24.5 -3t32 -6.5t32 -8t24.5 -7.5q5 -2 8.5 -3t8.5 -1q6 0 9 3q2 2 1 5.5t1 6.5t5.5 6t9.5 3q7 0 10 -1q5 -1 10.5 -1h10.5q3 0 14.5 0.5t15.5 0.5q13 0 15 -9.5t2 -11.5v-22zM38 203v10.5t-0.5 16t-0.5 16v10.5q0 18 0.5 37.5 t1.5 36.5q1 11 1.5 21t0.5 21q0 1 -0.5 6.5t-0.5 12t-0.5 12.5t-0.5 8q-1 14 -1 35v28v30t1 30q1 16 1 28v17t-0.5 19t-1 30t-1 30.5t-0.5 20.5q0 7 5.5 17.5t22.5 10.5q5 0 10 -1t10 -1q1 0 7 -0.5t12.5 -0.5h12h7.5q3 0 12 0.5t18.5 1t17.5 1t10 0.5q12 0 17.5 -5.5 t7.5 -8.5q1 -2 5.5 -10t9.5 -19t10.5 -22.5t8.5 -21.5q2 -3 2.5 -6.5t2.5 -6.5q0 -1 3 -7.5t6.5 -14.5t6.5 -14.5t3 -7.5q3 -5 6 -10.5t5 -10.5q3 -8 5.5 -14.5t5.5 -14.5q2 -5 4.5 -9t4.5 -9q7 -16 14.5 -40t12.5 -37q4 -15 9 -15q2 0 3 5t1.5 11.5t0.5 13v9.5 q0 5 -0.5 10.5t-0.5 10.5q-1 5 -1.5 10.5t-0.5 7.5t0.5 8t0.5 13t0.5 13t0.5 9q0 6 -1 22.5t-1.5 35t-1.5 35.5t-1 24t0.5 23.5t3.5 22.5q2 3 10.5 11.5t26.5 8.5q4 0 8 -0.5t9 -0.5q3 0 11.5 -0.5t17.5 -0.5h17.5h12.5t16 0.5t16 0.5q10 0 13 -2t8.5 -8t5.5 -17 q0 -3 -0.5 -6t-0.5 -7q-1 -4 -1.5 -14t-1 -21.5t-1 -22t-0.5 -13.5q0 -6 0.5 -22.5t1 -35t1 -35.5t0.5 -24q0 -16 -0.5 -39t-1.5 -48q0 -11 -0.5 -22.5t-0.5 -22.5q0 -6 0.5 -23t1.5 -36.5t1.5 -37t0.5 -24.5q0 -6 -1 -22t-1.5 -34.5t-1.5 -35t-1 -23.5q0 -13 0.5 -25.5 t1.5 -25.5q0 -4 1.5 -16t1.5 -16q0 -2 -1.5 -9t-11.5 -12q-4 -2 -7.5 -2.5t-16.5 -0.5q-3 0 -10 0.5t-15 0.5t-15 0.5t-10 0.5q-4 0 -13.5 -0.5t-21 -0.5t-21 -0.5t-13.5 -0.5q-13 0 -19 11.5t-9 21.5q-2 9 -6 18l-8 18q-6 12 -12 24.5t-11 23.5q-3 8 -5.5 15.5t-4.5 15.5 q-4 11 -8.5 21.5t-9.5 21.5q-4 8 -8 15.5t-7 15.5q-5 11 -8 21t-7 21q-9 26 -13 36.5t-7 10.5q-2 0 -3 -3t-1 -6q0 -5 1 -12.5t2 -14.5q0 -3 1 -12t2 -20.5t1.5 -23.5t0.5 -21q0 -22 -1.5 -43.5t-1.5 -43.5q0 -5 1 -17t1.5 -25.5t1.5 -25.5t1 -17q0 -16 -9 -22t-21 -6 q-4 0 -14 0.5t-22 0.5t-23 0.5t-15 0.5q-9 0 -18 -0.5t-18 -1.5q-4 -1 -13 -1q-10 0 -15.5 4t-8 9.5t-3 10.5t-0.5 8q0 7 1 24.5t2.5 36.5t2.5 34.5t1 17.5q0 3 -0.5 13.5t-1.5 13.5v31z"/>
<glyph glyph-name="Ograve" horiz-adv-x="521" unicode="Ò" d="M223 857h17t17 1q14 2 17.5 2h7.5q16 0 21.5 -10t10.5 -24q3 -8 6 -15.5t6 -15.5q1 -2 3 -7.5t4.5 -11.5t4.5 -11t2 -7q0 -10 -6.5 -12t-16.5 -2q-4 0 -19 0.5t-20 0.5q-3 0 -14.5 -1t-15.5 -1t-10 2q-3 1 -8 6.5t-11 12t-11.5 12.5t-7.5 9q-9 8 -18 17l-17 17 q-14 14 -16.5 18.5t-2.5 7.5q0 9 6.5 11.5t19.5 2.5q3 0 15 -1t16 -1h20zM257 545q-18 0 -28 -9t-14.5 -22t-5.5 -27t-1 -23q0 -4 0.5 -14t0.5 -21t0.5 -21.5t0.5 -14.5q0 -8 -0.5 -28t-1 -42.5t-1 -43t-0.5 -29.5q0 -13 0.5 -29t5 -30t14 -23.5t27.5 -9.5q16 0 25 6t14 15 t6.5 19t1.5 18v8v13v13v9q0 4 0.5 15.5t1.5 24.5t1.5 24.5t0.5 16.5q0 14 -0.5 27t-0.5 27q0 4 0.5 18.5t0.5 19.5q0 9 -1 29t-3 34q-3 30 -16.5 40t-27.5 10zM26 403q0 63 4 107t15 76t29.5 55t48.5 43q10 7 20 13t25 10t37 6t58 2q25 0 44 -2.5t34 -8.5t29 -14.5t31 -20.5 q5 -4 17 -13t17 -15q29 -33 41.5 -92.5t12.5 -136.5q0 -17 -0.5 -34.5t-0.5 -34.5q0 -36 -0.5 -57.5t-1.5 -37t-3 -30t-6 -35.5q-5 -26 -9 -44.5t-9 -33t-12 -25.5t-16 -22q-24 -29 -43.5 -39.5t-41.5 -17.5q-16 -5 -33.5 -8.5t-45.5 -3.5q-77 0 -128 25t-74 66q-5 9 -10 22 t-9.5 25.5t-7 22.5l-3.5 14q-2 9 -3.5 23.5t-2.5 29t-1.5 26t-0.5 13.5v14t0.5 22t0.5 22.5v14.5t-0.5 14.5t-0.5 22t-0.5 22t-0.5 15.5z"/>
<glyph glyph-name="Oacute" horiz-adv-x="521" unicode="Ó" d="M180 758q0 4 1.5 7.5t3.5 7.5q1 1 4 8.5t6 16t6 15.5t3 9q8 22 14 30t21 8q5 0 9.5 -0.5t9.5 -1.5q11 -1 22 -1h28h22q5 1 9 1.5t8 0.5q10 0 18 -1.5t8 -12.5q0 -7 -8 -15.5t-13 -13.5q-14 -14 -28 -27.5t-27 -27.5q-9 -11 -13.5 -14.5t-12.5 -3.5q-2 0 -12 1t-13 1h-9 t-13.5 -0.5t-14 -0.5h-9.5q-20 0 -20 14zM257 545q-18 0 -28 -9t-14.5 -22t-5.5 -27t-1 -23q0 -4 0.5 -14t0.5 -21t0.5 -21.5t0.5 -14.5q0 -8 -0.5 -28t-1 -42.5t-1 -43t-0.5 -29.5q0 -13 0.5 -29t5 -30t14 -23.5t27.5 -9.5q16 0 25 6t14 15t6.5 19t1.5 18v8v13v13v9 q0 4 0.5 15.5t1.5 24.5t1.5 24.5t0.5 16.5q0 14 -0.5 27t-0.5 27q0 4 0.5 18.5t0.5 19.5q0 9 -1 29t-3 34q-3 30 -16.5 40t-27.5 10zM26 403q0 63 4 107t15 76t29.5 55t48.5 43q10 7 20 13t25 10t37 6t58 2q25 0 44 -2.5t34 -8.5t29 -14.5t31 -20.5q5 -4 17 -13t17 -15 q29 -33 41.5 -92.5t12.5 -136.5q0 -17 -0.5 -34.5t-0.5 -34.5q0 -36 -0.5 -57.5t-1.5 -37t-3 -30t-6 -35.5q-5 -26 -9 -44.5t-9 -33t-12 -25.5t-16 -22q-24 -29 -43.5 -39.5t-41.5 -17.5q-16 -5 -33.5 -8.5t-45.5 -3.5q-77 0 -128 25t-74 66q-5 9 -10 22t-9.5 25.5t-7 22.5 l-3.5 14q-2 9 -3.5 23.5t-2.5 29t-1.5 26t-0.5 13.5v14t0.5 22t0.5 22.5v14.5t-0.5 14.5t-0.5 22t-0.5 22t-0.5 15.5z"/>
<glyph glyph-name="Ocircumflex" horiz-adv-x="521" unicode="Ô" d="M249 859q3 0 10.5 0.5t16.5 0.5t16.5 0.5t10.5 0.5q11 0 17.5 -1t12.5 -5.5t13 -13t18 -23.5q8 -10 15.5 -19.5t16.5 -17.5q11 -10 14.5 -14.5t3.5 -9.5q0 -1 -1.5 -6.5t-10.5 -5.5q-3 0 -11.5 0.5t-17.5 0.5t-17.5 0.5t-11.5 0.5t-14 -0.5t-14 -0.5q-5 0 -11.5 1.5 t-12.5 6.5q-2 2 -6.5 7.5t-9.5 11.5t-10 11t-8 5q-2 0 -4.5 -2.5t-11.5 -14.5q-11 -15 -17 -19.5t-18 -4.5q-4 0 -15.5 0.5t-14.5 0.5q-4 0 -17 -0.5t-17 -0.5q-2 0 -5 -0.5t-7 -0.5h-10q-6 0 -10.5 3.5t-4.5 8.5q0 4 2.5 7.5t5.5 6.5q2 2 4.5 4t4.5 4l7.5 7.5t6.5 8.5 q1 2 5.5 7t10 11t10 11.5t6.5 7.5q10 13 18 19.5t26 6.5q4 0 17.5 -0.5t18.5 -0.5zM257 545q-18 0 -28 -9t-14.5 -22t-5.5 -27t-1 -23q0 -4 0.5 -14t0.5 -21t0.5 -21.5t0.5 -14.5q0 -8 -0.5 -28t-1 -42.5t-1 -43t-0.5 -29.5q0 -13 0.5 -29t5 -30t14 -23.5t27.5 -9.5 q16 0 25 6t14 15t6.5 19t1.5 18v8v13v13v9q0 4 0.5 15.5t1.5 24.5t1.5 24.5t0.5 16.5q0 14 -0.5 27t-0.5 27q0 4 0.5 18.5t0.5 19.5q0 9 -1 29t-3 34q-3 30 -16.5 40t-27.5 10zM26 403q0 63 4 107t15 76t29.5 55t48.5 43q10 7 20 13t25 10t37 6t58 2q25 0 44 -2.5t34 -8.5 t29 -14.5t31 -20.5q5 -4 17 -13t17 -15q29 -33 41.5 -92.5t12.5 -136.5q0 -17 -0.5 -34.5t-0.5 -34.5q0 -36 -0.5 -57.5t-1.5 -37t-3 -30t-6 -35.5q-5 -26 -9 -44.5t-9 -33t-12 -25.5t-16 -22q-24 -29 -43.5 -39.5t-41.5 -17.5q-16 -5 -33.5 -8.5t-45.5 -3.5q-77 0 -128 25 t-74 66q-5 9 -10 22t-9.5 25.5t-7 22.5l-3.5 14q-2 9 -3.5 23.5t-2.5 29t-1.5 26t-0.5 13.5v14t0.5 22t0.5 22.5v14.5t-0.5 14.5t-0.5 22t-0.5 22t-0.5 15.5z"/>
<glyph glyph-name="Otilde" horiz-adv-x="521" unicode="Õ" d="M412 809q0 -32 -11.5 -53t-47.5 -21q-17 0 -35 4.5t-35 9.5q-4 1 -12 3.5l-16 5t-15.5 5l-10.5 3.5q-6 3 -11 3q-8 0 -9 -3t-1 -8q0 -8 -4.5 -13.5t-11.5 -5.5q-2 0 -4.5 0.5t-4.5 0.5q-5 1 -9.5 1h-16.5q-2 0 -11.5 -0.5t-12.5 -0.5q-11 0 -15 8.5t-4 14.5q0 3 0.5 10.5 t1 16t1 16t0.5 10.5q3 15 17 28.5t44 13.5q9 0 24.5 -3t32 -6.5t32 -8t24.5 -7.5q5 -2 8.5 -3t8.5 -1q6 0 9 3q2 2 1 5.5t1 6.5t5.5 6t9.5 3q7 0 10 -1q5 -1 10.5 -1h10.5q3 0 14.5 0.5t15.5 0.5q13 0 15 -9.5t2 -11.5v-22zM257 545q-18 0 -28 -9t-14.5 -22t-5.5 -27t-1 -23 q0 -4 0.5 -14t0.5 -21t0.5 -21.5t0.5 -14.5q0 -8 -0.5 -28t-1 -42.5t-1 -43t-0.5 -29.5q0 -13 0.5 -29t5 -30t14 -23.5t27.5 -9.5q16 0 25 6t14 15t6.5 19t1.5 18v8v13v13v9q0 4 0.5 15.5t1.5 24.5t1.5 24.5t0.5 16.5q0 14 -0.5 27t-0.5 27q0 4 0.5 18.5t0.5 19.5q0 9 -1 29 t-3 34q-3 30 -16.5 40t-27.5 10zM26 403q0 63 4 107t15 76t29.5 55t48.5 43q10 7 20 13t25 10t37 6t58 2q25 0 44 -2.5t34 -8.5t29 -14.5t31 -20.5q5 -4 17 -13t17 -15q29 -33 41.5 -92.5t12.5 -136.5q0 -17 -0.5 -34.5t-0.5 -34.5q0 -36 -0.5 -57.5t-1.5 -37t-3 -30 t-6 -35.5q-5 -26 -9 -44.5t-9 -33t-12 -25.5t-16 -22q-24 -29 -43.5 -39.5t-41.5 -17.5q-16 -5 -33.5 -8.5t-45.5 -3.5q-77 0 -128 25t-74 66q-5 9 -10 22t-9.5 25.5t-7 22.5l-3.5 14q-2 9 -3.5 23.5t-2.5 29t-1.5 26t-0.5 13.5v14t0.5 22t0.5 22.5v14.5t-0.5 14.5t-0.5 22 t-0.5 22t-0.5 15.5z"/>
<glyph glyph-name="Odieresis" horiz-adv-x="521" unicode="Ö" d="M268 834q0 15 8 16.5t16 0.5h15h10t15.5 -0.5t16 -0.5h10.5t9.5 0.5t14 0.5t14 0.5t9.5 0.5q14 0 19.5 -5.5t5.5 -11.5v-5q-2 -6 -2 -12.5v-11.5q0 -4 0.5 -15t0.5 -15q0 -8 -4 -13t-9 -7.5t-10.5 -3.5t-8.5 -1t-10.5 0.5t-16 1t-16.5 1t-11 0.5q-4 0 -19.5 -0.5 t-20.5 -0.5q-17 0 -25.5 2t-10.5 15q-1 3 0 14.5t1 14.5q0 4 -0.5 17t-0.5 18zM81 832q0 14 9 19t21 5q3 0 11 -0.5t17 -1t17 -1t11 -0.5h8.5t14 0.5t14 0.5h9.5q11 0 20 -3t9 -15q0 -4 -0.5 -15t-0.5 -14v-29q0 -9 -4 -14.5t-9.5 -7.5t-11.5 -2.5t-10 -0.5t-15 0.5 t-23.5 0.5t-24 0.5t-15.5 0.5q-3 0 -12 -0.5t-11 -0.5q-14 0 -19 7t-5 15q0 2 0.5 4.5t0.5 4.5q1 4 1 9v10q0 3 -1 13.5t-1 14.5zM257 545q-18 0 -28 -9t-14.5 -22t-5.5 -27t-1 -23q0 -4 0.5 -14t0.5 -21t0.5 -21.5t0.5 -14.5q0 -8 -0.5 -28t-1 -42.5t-1 -43t-0.5 -29.5 q0 -13 0.5 -29t5 -30t14 -23.5t27.5 -9.5q16 0 25 6t14 15t6.5 19t1.5 18v8v13v13v9q0 4 0.5 15.5t1.5 24.5t1.5 24.5t0.5 16.5q0 14 -0.5 27t-0.5 27q0 4 0.5 18.5t0.5 19.5q0 9 -1 29t-3 34q-3 30 -16.5 40t-27.5 10zM26 403q0 63 4 107t15 76t29.5 55t48.5 43q10 7 20 13 t25 10t37 6t58 2q25 0 44 -2.5t34 -8.5t29 -14.5t31 -20.5q5 -4 17 -13t17 -15q29 -33 41.5 -92.5t12.5 -136.5q0 -17 -0.5 -34.5t-0.5 -34.5q0 -36 -0.5 -57.5t-1.5 -37t-3 -30t-6 -35.5q-5 -26 -9 -44.5t-9 -33t-12 -25.5t-16 -22q-24 -29 -43.5 -39.5t-41.5 -17.5 q-16 -5 -33.5 -8.5t-45.5 -3.5q-77 0 -128 25t-74 66q-5 9 -10 22t-9.5 25.5t-7 22.5l-3.5 14q-2 9 -3.5 23.5t-2.5 29t-1.5 26t-0.5 13.5v14t0.5 22t0.5 22.5v14.5t-0.5 14.5t-0.5 22t-0.5 22t-0.5 15.5z"/>
<glyph glyph-name="Oslash" horiz-adv-x="521" unicode="Ø" d="M312 332q0 3 -0.5 9t-1.5 13q-4 -10 -7.5 -15t-11.5 -16q-4 -5 -14 -19.5t-21 -30.5t-21.5 -30.5t-14.5 -20.5l-6 -9t-4 -11q0 -14 11 -31t37 -17q38 0 47 43q3 12 4 29.5t2 36.5t1 37.5v31.5zM309 497q3 6 3 9q0 1 -1.5 8t-6.5 15t-14 14.5t-24 6.5q-7 0 -17.5 -3 t-21.5 -17q-5 -7 -8 -19t-4.5 -25t-2 -24t-0.5 -15q0 -2 -0.5 -16t-1.5 -30v-29v-14zM427 662q2 2 6.5 7.5t9.5 11.5t9.5 12t6.5 8q3 2 8 4.5t10 2.5q6 0 10.5 -2.5t15.5 -11.5q13 -11 17.5 -16.5t4.5 -14.5t-7 -23q-5 -6 -10 -12.5t-10 -12.5q-6 -8 -10.5 -17l-8.5 -17 q4 -15 6.5 -26.5t4 -26t2.5 -35t1 -51.5q0 -11 -0.5 -22t-0.5 -22q-1 -27 -2 -54.5t-2 -55.5q0 -17 -0.5 -27t-1 -19t-1.5 -18.5t-2 -25.5q-2 -14 -3 -22t-2.5 -15t-4 -14t-6.5 -19q-6 -17 -13 -35t-21 -35q-33 -38 -80 -53.5t-98 -15.5q-15 0 -35.5 2t-42 7.5t-42.5 15.5 t-37 25l-18 -27q-5 -8 -11 -15t-17 -7q-5 0 -11 3q-4 2 -8 5.5t-8 6.5q-4 2 -7 4t-7 4q-5 4 -9 8.5t-4 12.5q0 6 2.5 11.5t7.5 12.5q1 2 5 7.5t8 12.5t7.5 13t5.5 8q6 8 8 12.5t6 12.5q-2 4 -4 12q-1 3 -2 9.5t-2.5 13.5t-2.5 13.5t-1 9.5q-5 30 -6.5 54t-1.5 50v32.5 t1 32.5q0 33 0.5 58.5t2 47.5t4.5 42.5t8 44.5q7 33 16 54t20 35.5t23.5 24t26.5 18.5q24 16 49 27.5t70 11.5q37 0 59 -3t35 -5q11 -2 19 -4.5t17 -7t20 -12.5t28 -21z"/>
<glyph glyph-name="Ugrave" horiz-adv-x="521" unicode="Ù" d="M223 857h17t17 1q14 2 17.5 2h7.5q16 0 21.5 -10t10.5 -24q3 -8 6 -15.5t6 -15.5q1 -2 3 -7.5t4.5 -11.5t4.5 -11t2 -7q0 -10 -6.5 -12t-16.5 -2q-4 0 -19 0.5t-20 0.5q-3 0 -14.5 -1t-15.5 -1t-10 2q-3 1 -8 6.5t-11 12t-11.5 12.5t-7.5 9q-9 8 -18 17l-17 17 q-14 14 -16.5 18.5t-2.5 7.5q0 9 6.5 11.5t19.5 2.5q3 0 15 -1t16 -1h20zM38 642q0 38 6.5 51t28.5 13q3 0 12 -0.5t19.5 -1t19.5 -1t13 -0.5h7t10 1h16q21 0 26.5 -1t9.5 -3q3 -2 9.5 -7.5t6.5 -19.5q0 -7 -1 -11q-1 -9 -2 -32t-1 -48v-9.5t0.5 -14t0.5 -14v-9.5 q0 -4 -0.5 -18.5t-0.5 -19.5v-40q0 -5 -0.5 -18t-1 -28t-1 -28t-0.5 -19v-11.5t0.5 -18.5t0.5 -18.5v-12.5q0 -18 -0.5 -36.5t-0.5 -37.5q0 -11 1 -25.5t6 -23.5q2 -4 10 -12.5t24 -8.5q6 0 14 2.5t13 5.5q16 10 20 28.5t4 50.5v9t-0.5 13.5t-0.5 13.5v9q0 19 0.5 37.5 t0.5 38.5q0 7 -0.5 25t-1.5 39t-1.5 39.5t-0.5 26.5q0 5 0.5 19t1 30t1 30.5t0.5 20.5q0 11 -0.5 20.5t-0.5 19.5q0 17 0.5 27t1.5 15.5t2.5 8.5t4.5 6q8 9 13.5 10.5t12.5 1.5q3 0 12.5 -0.5t20 -1t20 -1t13.5 -0.5q3 0 10.5 0.5t15.5 0.5q8 1 15.5 1h9.5q12 0 18.5 -4.5 t9.5 -11t3.5 -13t0.5 -9.5v-8.5t-1 -8.5q-2 -26 -3 -55t-1 -46v-15t1 -15q0 -3 0.5 -10t1 -15t1 -15t0.5 -10q0 -12 -1 -24t-1 -23q-1 -13 -1.5 -25t-0.5 -25q0 -6 0.5 -23.5t1 -37.5t1 -38.5t0.5 -25.5v-15.5t-1 -15.5q-1 -7 -1.5 -13t-0.5 -13q-1 -11 -0.5 -21t-1.5 -21 q-2 -20 -9.5 -39.5t-15.5 -32.5q-19 -29 -38.5 -41.5t-31.5 -18.5q-17 -9 -31.5 -14t-30 -8t-35 -3.5t-47.5 -0.5q-46 0 -75.5 10.5t-56.5 26.5q-13 8 -30 22t-29 43q-4 11 -7 25t-4.5 28t-2 26t-0.5 20q0 6 0.5 21.5t1 32.5t1 33t0.5 22q0 8 -0.5 30t-1.5 46.5t-1.5 46.5 t-0.5 31q0 5 0.5 18t1 27.5t1 27.5t0.5 18t-0.5 19t-0.5 29.5t-0.5 29t-0.5 19.5z"/>
<glyph glyph-name="Uacute" horiz-adv-x="521" unicode="Ú" d="M180 758q0 4 1.5 7.5t3.5 7.5q1 1 4 8.5t6 16t6 15.5t3 9q8 22 14 30t21 8q5 0 9.5 -0.5t9.5 -1.5q11 -1 22 -1h28h22q5 1 9 1.5t8 0.5q10 0 18 -1.5t8 -12.5q0 -7 -8 -15.5t-13 -13.5q-14 -14 -28 -27.5t-27 -27.5q-9 -11 -13.5 -14.5t-12.5 -3.5q-2 0 -12 1t-13 1h-9 t-13.5 -0.5t-14 -0.5h-9.5q-20 0 -20 14zM38 642q0 38 6.5 51t28.5 13q3 0 12 -0.5t19.5 -1t19.5 -1t13 -0.5h7t10 1h16q21 0 26.5 -1t9.5 -3q3 -2 9.5 -7.5t6.5 -19.5q0 -7 -1 -11q-1 -9 -2 -32t-1 -48v-9.5t0.5 -14t0.5 -14v-9.5q0 -4 -0.5 -18.5t-0.5 -19.5v-40 q0 -5 -0.5 -18t-1 -28t-1 -28t-0.5 -19v-11.5t0.5 -18.5t0.5 -18.5v-12.5q0 -18 -0.5 -36.5t-0.5 -37.5q0 -11 1 -25.5t6 -23.5q2 -4 10 -12.5t24 -8.5q6 0 14 2.5t13 5.5q16 10 20 28.5t4 50.5v9t-0.5 13.5t-0.5 13.5v9q0 19 0.5 37.5t0.5 38.5q0 7 -0.5 25t-1.5 39 t-1.5 39.5t-0.5 26.5q0 5 0.5 19t1 30t1 30.5t0.5 20.5q0 11 -0.5 20.5t-0.5 19.5q0 17 0.5 27t1.5 15.5t2.5 8.5t4.5 6q8 9 13.5 10.5t12.5 1.5q3 0 12.5 -0.5t20 -1t20 -1t13.5 -0.5q3 0 10.5 0.5t15.5 0.5q8 1 15.5 1h9.5q12 0 18.5 -4.5t9.5 -11t3.5 -13t0.5 -9.5v-8.5 t-1 -8.5q-2 -26 -3 -55t-1 -46v-15t1 -15q0 -3 0.5 -10t1 -15t1 -15t0.5 -10q0 -12 -1 -24t-1 -23q-1 -13 -1.5 -25t-0.5 -25q0 -6 0.5 -23.5t1 -37.5t1 -38.5t0.5 -25.5v-15.5t-1 -15.5q-1 -7 -1.5 -13t-0.5 -13q-1 -11 -0.5 -21t-1.5 -21q-2 -20 -9.5 -39.5t-15.5 -32.5 q-19 -29 -38.5 -41.5t-31.5 -18.5q-17 -9 -31.5 -14t-30 -8t-35 -3.5t-47.5 -0.5q-46 0 -75.5 10.5t-56.5 26.5q-13 8 -30 22t-29 43q-4 11 -7 25t-4.5 28t-2 26t-0.5 20q0 6 0.5 21.5t1 32.5t1 33t0.5 22q0 8 -0.5 30t-1.5 46.5t-1.5 46.5t-0.5 31q0 5 0.5 18t1 27.5 t1 27.5t0.5 18t-0.5 19t-0.5 29.5t-0.5 29t-0.5 19.5z"/>
<glyph glyph-name="Ucircumflex" horiz-adv-x="521" unicode="Û" d="M249 859q3 0 10.5 0.5t16.5 0.5t16.5 0.5t10.5 0.5q11 0 17.5 -1t12.5 -5.5t13 -13t18 -23.5q8 -10 15.5 -19.5t16.5 -17.5q11 -10 14.5 -14.5t3.5 -9.5q0 -1 -1.5 -6.5t-10.5 -5.5q-3 0 -11.5 0.5t-17.5 0.5t-17.5 0.5t-11.5 0.5t-14 -0.5t-14 -0.5q-5 0 -11.5 1.5 t-12.5 6.5q-2 2 -6.5 7.5t-9.5 11.5t-10 11t-8 5q-2 0 -4.5 -2.5t-11.5 -14.5q-11 -15 -17 -19.5t-18 -4.5q-4 0 -15.5 0.5t-14.5 0.5q-4 0 -17 -0.5t-17 -0.5q-2 0 -5 -0.5t-7 -0.5h-10q-6 0 -10.5 3.5t-4.5 8.5q0 4 2.5 7.5t5.5 6.5q2 2 4.5 4t4.5 4l7.5 7.5t6.5 8.5 q1 2 5.5 7t10 11t10 11.5t6.5 7.5q10 13 18 19.5t26 6.5q4 0 17.5 -0.5t18.5 -0.5zM38 642q0 38 6.5 51t28.5 13q3 0 12 -0.5t19.5 -1t19.5 -1t13 -0.5h7t10 1h16q21 0 26.5 -1t9.5 -3q3 -2 9.5 -7.5t6.5 -19.5q0 -7 -1 -11q-1 -9 -2 -32t-1 -48v-9.5t0.5 -14t0.5 -14v-9.5 q0 -4 -0.5 -18.5t-0.5 -19.5v-40q0 -5 -0.5 -18t-1 -28t-1 -28t-0.5 -19v-11.5t0.5 -18.5t0.5 -18.5v-12.5q0 -18 -0.5 -36.5t-0.5 -37.5q0 -11 1 -25.5t6 -23.5q2 -4 10 -12.5t24 -8.5q6 0 14 2.5t13 5.5q16 10 20 28.5t4 50.5v9t-0.5 13.5t-0.5 13.5v9q0 19 0.5 37.5 t0.5 38.5q0 7 -0.5 25t-1.5 39t-1.5 39.5t-0.5 26.5q0 5 0.5 19t1 30t1 30.5t0.5 20.5q0 11 -0.5 20.5t-0.5 19.5q0 17 0.5 27t1.5 15.5t2.5 8.5t4.5 6q8 9 13.5 10.5t12.5 1.5q3 0 12.5 -0.5t20 -1t20 -1t13.5 -0.5q3 0 10.5 0.5t15.5 0.5q8 1 15.5 1h9.5q12 0 18.5 -4.5 t9.5 -11t3.5 -13t0.5 -9.5v-8.5t-1 -8.5q-2 -26 -3 -55t-1 -46v-15t1 -15q0 -3 0.5 -10t1 -15t1 -15t0.5 -10q0 -12 -1 -24t-1 -23q-1 -13 -1.5 -25t-0.5 -25q0 -6 0.5 -23.5t1 -37.5t1 -38.5t0.5 -25.5v-15.5t-1 -15.5q-1 -7 -1.5 -13t-0.5 -13q-1 -11 -0.5 -21t-1.5 -21 q-2 -20 -9.5 -39.5t-15.5 -32.5q-19 -29 -38.5 -41.5t-31.5 -18.5q-17 -9 -31.5 -14t-30 -8t-35 -3.5t-47.5 -0.5q-46 0 -75.5 10.5t-56.5 26.5q-13 8 -30 22t-29 43q-4 11 -7 25t-4.5 28t-2 26t-0.5 20q0 6 0.5 21.5t1 32.5t1 33t0.5 22q0 8 -0.5 30t-1.5 46.5t-1.5 46.5 t-0.5 31q0 5 0.5 18t1 27.5t1 27.5t0.5 18t-0.5 19t-0.5 29.5t-0.5 29t-0.5 19.5z"/>
<glyph glyph-name="Udieresis" horiz-adv-x="521" unicode="Ü" d="M273 833q0 15 8 16.5t16 0.5h15h10t15.5 -0.5t16 -0.5h10.5t9.5 0.5t14 0.5t14 0.5t9.5 0.5q14 0 19.5 -5.5t5.5 -11.5v-5q-2 -6 -2 -12.5v-11.5q0 -4 0.5 -15t0.5 -15q0 -8 -4 -13t-9 -7.5t-10.5 -3.5t-8.5 -1t-10.5 0.5t-16 1t-16.5 1t-11 0.5q-4 0 -19.5 -0.5 t-20.5 -0.5q-17 0 -25.5 2t-10.5 15q-1 3 0 14.5t1 14.5q0 4 -0.5 17t-0.5 18zM86 831q0 14 9 19t21 5q3 0 11 -0.5t17 -1t17 -1t11 -0.5h8.5t14 0.5t14 0.5h9.5q11 0 20 -3t9 -15q0 -4 -0.5 -15t-0.5 -14v-29q0 -9 -4 -14.5t-9.5 -7.5t-11.5 -2.5t-10 -0.5t-15 0.5 t-23.5 0.5t-24 0.5t-15.5 0.5q-3 0 -12 -0.5t-11 -0.5q-14 0 -19 7t-5 15q0 2 0.5 4.5t0.5 4.5q1 4 1 9v10q0 3 -1 13.5t-1 14.5zM38 642q0 38 6.5 51t28.5 13q3 0 12 -0.5t19.5 -1t19.5 -1t13 -0.5h7t10 1h16q21 0 26.5 -1t9.5 -3q3 -2 9.5 -7.5t6.5 -19.5q0 -7 -1 -11 q-1 -9 -2 -32t-1 -48v-9.5t0.5 -14t0.5 -14v-9.5q0 -4 -0.5 -18.5t-0.5 -19.5v-40q0 -5 -0.5 -18t-1 -28t-1 -28t-0.5 -19v-11.5t0.5 -18.5t0.5 -18.5v-12.5q0 -18 -0.5 -36.5t-0.5 -37.5q0 -11 1 -25.5t6 -23.5q2 -4 10 -12.5t24 -8.5q6 0 14 2.5t13 5.5q16 10 20 28.5 t4 50.5v9t-0.5 13.5t-0.5 13.5v9q0 19 0.5 37.5t0.5 38.5q0 7 -0.5 25t-1.5 39t-1.5 39.5t-0.5 26.5q0 5 0.5 19t1 30t1 30.5t0.5 20.5q0 11 -0.5 20.5t-0.5 19.5q0 17 0.5 27t1.5 15.5t2.5 8.5t4.5 6q8 9 13.5 10.5t12.5 1.5q3 0 12.5 -0.5t20 -1t20 -1t13.5 -0.5 q3 0 10.5 0.5t15.5 0.5q8 1 15.5 1h9.5q12 0 18.5 -4.5t9.5 -11t3.5 -13t0.5 -9.5v-8.5t-1 -8.5q-2 -26 -3 -55t-1 -46v-15t1 -15q0 -3 0.5 -10t1 -15t1 -15t0.5 -10q0 -12 -1 -24t-1 -23q-1 -13 -1.5 -25t-0.5 -25q0 -6 0.5 -23.5t1 -37.5t1 -38.5t0.5 -25.5v-15.5 t-1 -15.5q-1 -7 -1.5 -13t-0.5 -13q-1 -11 -0.5 -21t-1.5 -21q-2 -20 -9.5 -39.5t-15.5 -32.5q-19 -29 -38.5 -41.5t-31.5 -18.5q-17 -9 -31.5 -14t-30 -8t-35 -3.5t-47.5 -0.5q-46 0 -75.5 10.5t-56.5 26.5q-13 8 -30 22t-29 43q-4 11 -7 25t-4.5 28t-2 26t-0.5 20 q0 6 0.5 21.5t1 32.5t1 33t0.5 22q0 8 -0.5 30t-1.5 46.5t-1.5 46.5t-0.5 31q0 5 0.5 18t1 27.5t1 27.5t0.5 18t-0.5 19t-0.5 29.5t-0.5 29t-0.5 19.5z"/>
<glyph glyph-name="Yacute" horiz-adv-x="479" unicode="Ý" d="M159 758q0 4 1.5 7.5t3.5 7.5q1 1 4 8.5t6 16t6 15.5t3 9q8 22 14 30t21 8q5 0 9.5 -0.5t9.5 -1.5q11 -1 22 -1h28h22q5 1 9 1.5t8 0.5q10 0 18 -1.5t8 -12.5q0 -7 -8 -15.5t-13 -13.5q-14 -14 -28 -27.5t-27 -27.5q-9 -11 -13.5 -14.5t-12.5 -3.5q-2 0 -12 1t-13 1h-9 t-13.5 -0.5t-14 -0.5h-9.5q-20 0 -20 14zM185 -1q-35 0 -35 33v52q0 3 -0.5 14t-0.5 14t0.5 9.5t1 14t1 14.5t0.5 10q0 11 -1 21.5t-1 21.5q-1 3 -0.5 14t0.5 14q0 7 -0.5 13t-1.5 12q0 3 -1 7.5t-4 13t-7.5 23.5t-12.5 41q-13 39 -26 71t-20 47q-6 13 -9.5 22t-6.5 16.5 t-6 15.5t-7 21q-8 26 -16 51.5t-19 51.5q-10 26 -12.5 33t-2.5 11q0 3 2 9q5 13 13 15t14 2q3 0 10 -0.5t15.5 -0.5t16 -0.5t10.5 -0.5q4 0 14 0.5t21.5 0.5t22 0.5t14.5 0.5q7 0 14 -2t13 -9q3 -4 6.5 -12.5t6.5 -18.5t5.5 -19.5t4.5 -15.5l9 -45q1 -4 4 -15t7 -23.5t7 -24 t4 -16.5q4 -16 6 -22t4 -6q1 0 4 1.5t5 11.5q0 3 2.5 14t5.5 23.5t6 23.5t5 15q7 17 10.5 35t7.5 36q4 22 8 36t9 21.5t13.5 10t21.5 2.5q14 0 27.5 -1t27.5 -1h8t13 0.5t13 0.5h9q11 0 16.5 -1t9.5 -3q15 -9 15 -25q0 -7 -3 -20t-5 -20q-1 -5 -7.5 -24t-14 -43t-15.5 -46.5 t-12 -33.5q-2 -5 -4.5 -11t-4.5 -12q-3 -8 -5.5 -16t-5.5 -16t-6 -15.5t-6 -15.5q-7 -19 -14 -37t-15 -37t-16.5 -37t-12.5 -36q-4 -16 -4 -36q0 -9 0.5 -18.5t0.5 -19.5q0 -4 -0.5 -13.5t-1 -21t-1 -21.5t-0.5 -14t0.5 -13.5t0.5 -21t0.5 -21.5t0.5 -14q0 -17 -5 -29 t-21 -14q-5 -1 -20 -0.5t-20 0.5h-8t-13 -0.5t-13 -0.5h-9z"/>
<glyph glyph-name="Thorn" horiz-adv-x="500" unicode="Þ" d="M255 465q-12 0 -21 -7q-6 -5 -11.5 -13.5t-7.5 -37.5v-8t0.5 -12.5t0.5 -12.5v-9t-0.5 -15t-0.5 -16q0 -22 11 -39.5t31 -17.5q15 0 31 13.5t16 42.5q0 2 -0.5 13t-0.5 14q0 9 1 18t1 18q0 36 -16 52.5t-34 16.5zM37 363q0 4 0.5 15t0.5 23t0.5 22.5t0.5 15.5 q0 3 -0.5 25.5t-1.5 48t-1.5 47.5t-0.5 24q0 4 0.5 18.5t0.5 19.5q0 3 -0.5 9t-0.5 13.5t-0.5 14t-0.5 9.5q0 14 3.5 21.5t8.5 11.5t9 4.5t6 0.5q5 0 11 -2q3 0 10.5 -0.5t16.5 -1t18.5 -1t15.5 -0.5q3 0 11 0.5t17 1t17 1t11 0.5q14 0 21.5 -8t7.5 -21q0 -4 -2.5 -15.5 t-2.5 -15.5q0 -5 3 -8.5t8 -3.5q2 0 6 0.5t6 0.5h41q18 0 38 -3q29 -4 50.5 -11t44.5 -23q29 -20 40.5 -41.5t19.5 -43.5q11 -31 17.5 -56t6.5 -58q0 -9 -1 -26t-2.5 -35t-3.5 -33.5t-3 -22.5q-3 -18 -8.5 -35.5t-20.5 -40.5q-26 -42 -61.5 -71t-91.5 -33h-10h-15h-15h-10 q-23 0 -31.5 -10.5t-8.5 -30.5q0 -4 1 -16t1 -16q0 -16 -8.5 -22t-16.5 -7q-2 0 -10.5 1t-10.5 2q-16 2 -31.5 2h-31.5q-8 0 -16 -0.5t-16 -0.5q-4 -1 -11 -1q-12 0 -19 7.5t-7 19.5q0 5 0.5 9t0.5 9q0 1 0.5 7t0.5 12.5v12.5v8q0 4 -0.5 15t-0.5 23t-0.5 23t-0.5 16 q0 4 0.5 15.5t0.5 24.5t0.5 25t0.5 17v11.5t-0.5 18t-0.5 18v11.5v59z"/>
<glyph glyph-name="germandbls" d="M34 544q0 28 5 51t16 41t30 32.5t46 27.5q14 6 41 13t50 7q15 0 34 -1t39.5 -5.5t42 -15.5t41.5 -30q15 -15 24.5 -31t14 -32t6 -29.5t1.5 -22.5q0 -26 -5 -42t-10 -27q-4 -9 -8 -17.5t-6 -17.5q-1 -4 -1.5 -7t-0.5 -7q0 -13 3.5 -23.5t8.5 -19.5q10 -23 18.5 -45.5 t15.5 -47t11 -52t4 -61.5q0 -53 -10 -86t-33 -57q-20 -23 -49.5 -33t-61.5 -10q-4 0 -12 0.5t-17 1t-17.5 2t-12.5 4.5q-3 2 -10.5 10t-7.5 25q0 4 0.5 7.5t0.5 8.5q0 4 0.5 12.5t0.5 17.5v17.5v13.5q0 2 -0.5 12t-0.5 13q0 19 9.5 25.5t10.5 6.5q3 1 12 1q11 0 17.5 6 t6.5 35q0 6 -0.5 12.5t-3 15.5t-7.5 22t-15 33q-5 11 -10.5 21t-10.5 21q-7 16 -9.5 30t-2.5 25q0 31 13 58q6 14 14 27.5t11 27.5q1 4 1 12q0 13 -6 21t-11 11q-5 4 -18 4q-14 0 -20 -9t-8 -14t-3 -9t-1.5 -12.5t-0.5 -23v-40.5q0 -4 -0.5 -14.5t-0.5 -22.5t-0.5 -23 t-0.5 -15q0 -3 0.5 -15.5t0.5 -16.5v-45q0 -3 0.5 -11.5t0.5 -18.5t0.5 -18.5t0.5 -12.5v-16t-1 -16v-45v-13.5t-0.5 -20t-0.5 -19.5v-13q0 -3 0.5 -11t0.5 -17t0.5 -17t0.5 -11q0 -22 -10 -29t-18 -7q-3 0 -10.5 0.5t-16.5 0.5t-17 0.5t-11 0.5t-10 -0.5t-15.5 -0.5 t-16 -0.5t-10.5 -0.5q-13 0 -18 7.5t-7 11.5q-2 5 -2 9t1 17v8v13v13v9q0 4 0.5 15t1 23t1 22.5t0.5 15.5q0 6 -0.5 20.5t-0.5 31t-0.5 32t-0.5 21.5t-0.5 21.5t-0.5 33t-0.5 33.5t-0.5 23q0 3 1 14.5t1 15.5q1 4 0.5 19t-0.5 20q0 4 0.5 18t0.5 19q0 14 -0.5 28.5 t-0.5 29.5z" unicode="ß"/>
<glyph glyph-name="agrave" horiz-adv-x="437" unicode="à" d="M219 234q-13 0 -28.5 -12.5t-15.5 -49.5q0 -14 4 -23.5t10 -15.5t12.5 -8.5t11.5 -2.5q22 0 32 16.5t10 42.5q0 19 -8 36t-28 17zM183 354q3 0 11 -0.5t16.5 -1.5t15.5 -1.5t9 -0.5q11 0 15.5 7t4.5 13q0 13 -4.5 20t-11.5 10.5t-15.5 4.5t-16.5 1q-4 0 -17 1t-18 1 q-28 0 -58 -12l-27.5 -10t-10.5 -2q-10 0 -19.5 8t-9.5 32q0 4 0.5 18.5t0.5 19.5t-1 20.5t-1 20.5q0 9 4 15t10 10t12 5.5l10 2.5q15 3 33 6.5t36.5 6.5t37 5t33.5 2q28 0 53.5 -5t47 -12.5t37.5 -18t25 -20.5q10 -12 16 -32.5t6 -66.5q0 -4 -0.5 -13.5t-0.5 -20 t-0.5 -20.5t-0.5 -14q0 -3 0.5 -10.5t0.5 -16.5t0.5 -17t0.5 -11q0 -4 -0.5 -18.5t-0.5 -19.5v-13.5t0.5 -20t0.5 -20.5v-14t-0.5 -15t-1 -24t-1 -24.5t-0.5 -15.5q0 -3 0.5 -12t1 -19t1 -19t0.5 -12q0 -17 -9.5 -22.5t-17.5 -5.5h-9.5t-14 0.5t-14.5 0.5h-10t-10.5 -0.5 t-15.5 -1t-15.5 -1t-10.5 -0.5q-5 0 -9 3t-6 6q-2 2 -2 5t-2 5q-2 4 -6 4q-2 0 -5 -2.5t-5 -4.5q-9 -8 -21 -12.5t-23 -6.5t-20.5 -2.5t-15.5 -0.5q-9 0 -21.5 0.5t-26.5 4.5t-29.5 12.5t-30.5 24.5q-14 15 -23 30.5t-13.5 30.5t-6 29t-1.5 26q0 47 3.5 72.5t13.5 43.5 q8 14 22 30t34 27q21 10 35.5 16t25 8.5t17.5 3t14 0.5h5zM235 590q-3 0 -13.5 -1t-14.5 -1q-8 0 -12 3.5t-12 11.5q-14 16 -28.5 30.5l-15.5 15.5q-21 20 -27.5 27.5t-6.5 13.5q0 10 8 11.5t19 1.5h9.5t14.5 -0.5t15 -0.5h10h16.5t16.5 1q7 1 17 2t11 1q14 0 20 -10t10 -23 q2 -5 5 -13.5t6.5 -16.5t6.5 -15t4 -10q5 -8 5 -15q0 -14 -21 -14q-4 0 -18 0.5t-19 0.5h-6z"/>
<glyph glyph-name="aacute" horiz-adv-x="437" unicode="á" d="M219 234q-13 0 -28.5 -12.5t-15.5 -49.5q0 -14 4 -23.5t10 -15.5t12.5 -8.5t11.5 -2.5q22 0 32 16.5t10 42.5q0 19 -8 36t-28 17zM183 354q3 0 11 -0.5t16.5 -1.5t15.5 -1.5t9 -0.5q11 0 15.5 7t4.5 13q0 13 -4.5 20t-11.5 10.5t-15.5 4.5t-16.5 1q-4 0 -17 1t-18 1 q-28 0 -58 -12l-27.5 -10t-10.5 -2q-10 0 -19.5 8t-9.5 32q0 4 0.5 18.5t0.5 19.5t-1 20.5t-1 20.5q0 9 4 15t10 10t12 5.5l10 2.5q15 3 33 6.5t36.5 6.5t37 5t33.5 2q28 0 53.5 -5t47 -12.5t37.5 -18t25 -20.5q10 -12 16 -32.5t6 -66.5q0 -4 -0.5 -13.5t-0.5 -20 t-0.5 -20.5t-0.5 -14q0 -3 0.5 -10.5t0.5 -16.5t0.5 -17t0.5 -11q0 -4 -0.5 -18.5t-0.5 -19.5v-13.5t0.5 -20t0.5 -20.5v-14t-0.5 -15t-1 -24t-1 -24.5t-0.5 -15.5q0 -3 0.5 -12t1 -19t1 -19t0.5 -12q0 -17 -9.5 -22.5t-17.5 -5.5h-9.5t-14 0.5t-14.5 0.5h-10t-10.5 -0.5 t-15.5 -1t-15.5 -1t-10.5 -0.5q-5 0 -9 3t-6 6q-2 2 -2 5t-2 5q-2 4 -6 4q-2 0 -5 -2.5t-5 -4.5q-9 -8 -21 -12.5t-23 -6.5t-20.5 -2.5t-15.5 -0.5q-9 0 -21.5 0.5t-26.5 4.5t-29.5 12.5t-30.5 24.5q-14 15 -23 30.5t-13.5 30.5t-6 29t-1.5 26q0 47 3.5 72.5t13.5 43.5 q8 14 22 30t34 27q21 10 35.5 16t25 8.5t17.5 3t14 0.5h5zM195 590q-5 0 -19.5 -0.5t-19.5 -0.5q-12 0 -16 3.5t-4 10.5t5 15q1 1 3.5 8.5t6 16t6.5 16t4 10.5q6 18 12 27t21 9q5 0 9.5 -0.5t9.5 -0.5q1 0 8 -0.5t15 -1t14.5 -0.5h8.5q11 0 21 0.5t21 0.5q14 0 21 -1.5 t7 -11.5q0 -6 -5.5 -12.5t-16.5 -17.5q-18 -17 -29 -28t-25 -27q-8 -9 -13 -13t-13 -4q-2 0 -12 1t-13 1h-7z"/>
<glyph glyph-name="acircumflex" horiz-adv-x="437" unicode="â" d="M219 234q-13 0 -28.5 -12.5t-15.5 -49.5q0 -14 4 -23.5t10 -15.5t12.5 -8.5t11.5 -2.5q22 0 32 16.5t10 42.5q0 19 -8 36t-28 17zM183 354q3 0 11 -0.5t16.5 -1.5t15.5 -1.5t9 -0.5q11 0 15.5 7t4.5 13q0 13 -4.5 20t-11.5 10.5t-15.5 4.5t-16.5 1q-4 0 -17 1t-18 1 q-28 0 -58 -12l-27.5 -10t-10.5 -2q-10 0 -19.5 8t-9.5 32q0 4 0.5 18.5t0.5 19.5t-1 20.5t-1 20.5q0 9 4 15t10 10t12 5.5l10 2.5q15 3 33 6.5t36.5 6.5t37 5t33.5 2q28 0 53.5 -5t47 -12.5t37.5 -18t25 -20.5q10 -12 16 -32.5t6 -66.5q0 -4 -0.5 -13.5t-0.5 -20 t-0.5 -20.5t-0.5 -14q0 -3 0.5 -10.5t0.5 -16.5t0.5 -17t0.5 -11q0 -4 -0.5 -18.5t-0.5 -19.5v-13.5t0.5 -20t0.5 -20.5v-14t-0.5 -15t-1 -24t-1 -24.5t-0.5 -15.5q0 -3 0.5 -12t1 -19t1 -19t0.5 -12q0 -17 -9.5 -22.5t-17.5 -5.5h-9.5t-14 0.5t-14.5 0.5h-10t-10.5 -0.5 t-15.5 -1t-15.5 -1t-10.5 -0.5q-5 0 -9 3t-6 6q-2 2 -2 5t-2 5q-2 4 -6 4q-2 0 -5 -2.5t-5 -4.5q-9 -8 -21 -12.5t-23 -6.5t-20.5 -2.5t-15.5 -0.5q-9 0 -21.5 0.5t-26.5 4.5t-29.5 12.5t-30.5 24.5q-14 15 -23 30.5t-13.5 30.5t-6 29t-1.5 26q0 47 3.5 72.5t13.5 43.5 q8 14 22 30t34 27q21 10 35.5 16t25 8.5t17.5 3t14 0.5h5zM64 607q0 5 3 8.5t14 12.5q3 3 8.5 9t11.5 13.5t12 14.5t10 12q13 16 22 23.5t27 7.5q4 0 16 -1t16 -1h20q2 0 8.5 0.5t13.5 0.5t13.5 0.5t9.5 0.5q8 0 16 -3q9 -5 15 -11.5t20 -26.5q4 -5 15 -18t17 -19 q14 -14 17.5 -18t3.5 -9t-5 -8t-10 -3t-8 1l-6 1h-13.5t-14 0.5t-9.5 0.5q-4 0 -17 -1t-17 -1q-13 0 -18 4t-18 20q-2 3 -9 11t-12 8q-2 0 -4.5 -2.5t-11.5 -14.5q-11 -15 -16.5 -19.5t-18.5 -4.5q-2 0 -11.5 0.5t-12.5 0.5h-26t-25 -1q-3 -1 -9 -1q-11 0 -14 5t-3 8z"/>
<glyph glyph-name="atilde" horiz-adv-x="437" unicode="ã" d="M219 234q-13 0 -28.5 -12.5t-15.5 -49.5q0 -14 4 -23.5t10 -15.5t12.5 -8.5t11.5 -2.5q22 0 32 16.5t10 42.5q0 19 -8 36t-28 17zM183 354q3 0 11 -0.5t16.5 -1.5t15.5 -1.5t9 -0.5q11 0 15.5 7t4.5 13q0 13 -4.5 20t-11.5 10.5t-15.5 4.5t-16.5 1q-4 0 -17 1t-18 1 q-28 0 -58 -12l-27.5 -10t-10.5 -2q-10 0 -19.5 8t-9.5 32q0 4 0.5 18.5t0.5 19.5t-1 20.5t-1 20.5q0 9 4 15t10 10t12 5.5l10 2.5q15 3 33 6.5t36.5 6.5t37 5t33.5 2q28 0 53.5 -5t47 -12.5t37.5 -18t25 -20.5q10 -12 16 -32.5t6 -66.5q0 -4 -0.5 -13.5t-0.5 -20 t-0.5 -20.5t-0.5 -14q0 -3 0.5 -10.5t0.5 -16.5t0.5 -17t0.5 -11q0 -4 -0.5 -18.5t-0.5 -19.5v-13.5t0.5 -20t0.5 -20.5v-14t-0.5 -15t-1 -24t-1 -24.5t-0.5 -15.5q0 -3 0.5 -12t1 -19t1 -19t0.5 -12q0 -17 -9.5 -22.5t-17.5 -5.5h-9.5t-14 0.5t-14.5 0.5h-10t-10.5 -0.5 t-15.5 -1t-15.5 -1t-10.5 -0.5q-5 0 -9 3t-6 6q-2 2 -2 5t-2 5q-2 4 -6 4q-2 0 -5 -2.5t-5 -4.5q-9 -8 -21 -12.5t-23 -6.5t-20.5 -2.5t-15.5 -0.5q-9 0 -21.5 0.5t-26.5 4.5t-29.5 12.5t-30.5 24.5q-14 15 -23 30.5t-13.5 30.5t-6 29t-1.5 26q0 47 3.5 72.5t13.5 43.5 q8 14 22 30t34 27q21 10 35.5 16t25 8.5t17.5 3t14 0.5h5zM72 618q0 5 0.5 8.5t0.5 7.5l2 26t7 23q8 11 23 17.5t33 6.5q11 0 22 -2t22 -5q4 -1 17 -4.5t26.5 -7.5t25 -7t13.5 -3q5 0 7.5 1.5t4.5 3.5q2 3 3 6.5t3 6.5q4 6 16 5q3 0 13 -1t13 -1q5 0 11 0.5t11 0.5 q24 0 24 -24q0 -34 -2.5 -46.5t-7.5 -19.5q-5 -9 -17 -17.5t-30 -8.5q-7 0 -19 2.5t-25.5 5.5t-26.5 6.5t-20 6.5q-11 4 -25 8t-21 4q-5 0 -7 -2q-3 -2 -4 -7.5t-3 -9.5q-6 -8 -21 -8q-5 0 -11 0.5t-13 1.5q-2 0 -9 -0.5t-9 -0.5q-9 0 -18 3.5t-9 23.5z"/>
<glyph glyph-name="adieresis" horiz-adv-x="437" unicode="ä" d="M219 234q-13 0 -28.5 -12.5t-15.5 -49.5q0 -14 4 -23.5t10 -15.5t12.5 -8.5t11.5 -2.5q22 0 32 16.5t10 42.5q0 19 -8 36t-28 17zM183 354q3 0 11 -0.5t16.5 -1.5t15.5 -1.5t9 -0.5q11 0 15.5 7t4.5 13q0 13 -4.5 20t-11.5 10.5t-15.5 4.5t-16.5 1q-4 0 -17 1t-18 1 q-28 0 -58 -12l-27.5 -10t-10.5 -2q-10 0 -19.5 8t-9.5 32q0 4 0.5 18.5t0.5 19.5t-1 20.5t-1 20.5q0 9 4 15t10 10t12 5.5l10 2.5q15 3 33 6.5t36.5 6.5t37 5t33.5 2q28 0 53.5 -5t47 -12.5t37.5 -18t25 -20.5q10 -12 16 -32.5t6 -66.5q0 -4 -0.5 -13.5t-0.5 -20 t-0.5 -20.5t-0.5 -14q0 -3 0.5 -10.5t0.5 -16.5t0.5 -17t0.5 -11q0 -4 -0.5 -18.5t-0.5 -19.5v-13.5t0.5 -20t0.5 -20.5v-14t-0.5 -15t-1 -24t-1 -24.5t-0.5 -15.5q0 -3 0.5 -12t1 -19t1 -19t0.5 -12q0 -17 -9.5 -22.5t-17.5 -5.5h-9.5t-14 0.5t-14.5 0.5h-10t-10.5 -0.5 t-15.5 -1t-15.5 -1t-10.5 -0.5q-5 0 -9 3t-6 6q-2 2 -2 5t-2 5q-2 4 -6 4q-2 0 -5 -2.5t-5 -4.5q-9 -8 -21 -12.5t-23 -6.5t-20.5 -2.5t-15.5 -0.5q-9 0 -21.5 0.5t-26.5 4.5t-29.5 12.5t-30.5 24.5q-14 15 -23 30.5t-13.5 30.5t-6 29t-1.5 26q0 47 3.5 72.5t13.5 43.5 q8 14 22 30t34 27q21 10 35.5 16t25 8.5t17.5 3t14 0.5h5zM229 686q0 13 6 15.5t10 2.5t6 -1h79q8 0 18.5 0.5t18.5 0.5q25 0 25 -18q0 -2 -0.5 -13.5t-0.5 -15.5q-1 -3 -0.5 -14t0.5 -15q0 -9 -4.5 -14t-11 -7t-14.5 -2.5t-14 -0.5q-2 0 -8 0.5t-13 0.5t-13 0.5t-9 0.5 q-10 0 -19.5 -0.5t-19.5 -0.5q-18 0 -27 3t-9 21q0 2 0.5 12.5t0.5 13.5q0 8 -0.5 15.5t-0.5 15.5zM42 682q0 1 0.5 4t2 7t5.5 7.5t12 4.5h9h13.5h13.5h9t15.5 -0.5t17.5 -0.5q4 0 18.5 0.5t19.5 0.5q17 0 21 -6.5t4 -17.5q-1 -10 -1 -24.5v-28.5q0 -16 -11 -20.5t-18 -4.5 q-3 0 -14.5 0.5t-14.5 0.5h-9.5t-14.5 0.5t-14.5 0.5h-9.5q-4 0 -15 -0.5t-15 -0.5q-9 0 -16.5 4t-7.5 17q0 4 1 15.5t1 15.5q0 3 -1 13t-1 13z"/>
<glyph glyph-name="aring" horiz-adv-x="437" unicode="å" d="M219 234q-13 0 -28.5 -12.5t-15.5 -49.5q0 -14 4 -23.5t10 -15.5t12.5 -8.5t11.5 -2.5q22 0 32 16.5t10 42.5q0 19 -8 36t-28 17zM183 354q3 0 11 -0.5t16.5 -1.5t15.5 -1.5t9 -0.5q11 0 15.5 7t4.5 13q0 13 -4.5 20t-11.5 10.5t-15.5 4.5t-16.5 1q-4 0 -17 1t-18 1 q-28 0 -58 -12l-27.5 -10t-10.5 -2q-10 0 -19.5 8t-9.5 32q0 4 0.5 18.5t0.5 19.5t-1 20.5t-1 20.5q0 9 4 15t10 10t12 5.5l10 2.5q15 3 33 6.5t36.5 6.5t37 5t33.5 2q28 0 53.5 -5t47 -12.5t37.5 -18t25 -20.5q10 -12 16 -32.5t6 -66.5q0 -4 -0.5 -13.5t-0.5 -20 t-0.5 -20.5t-0.5 -14q0 -3 0.5 -10.5t0.5 -16.5t0.5 -17t0.5 -11q0 -4 -0.5 -18.5t-0.5 -19.5v-13.5t0.5 -20t0.5 -20.5v-14t-0.5 -15t-1 -24t-1 -24.5t-0.5 -15.5q0 -3 0.5 -12t1 -19t1 -19t0.5 -12q0 -17 -9.5 -22.5t-17.5 -5.5h-9.5t-14 0.5t-14.5 0.5h-10t-10.5 -0.5 t-15.5 -1t-15.5 -1t-10.5 -0.5q-5 0 -9 3t-6 6q-2 2 -2 5t-2 5q-2 4 -6 4q-2 0 -5 -2.5t-5 -4.5q-9 -8 -21 -12.5t-23 -6.5t-20.5 -2.5t-15.5 -0.5q-9 0 -21.5 0.5t-26.5 4.5t-29.5 12.5t-30.5 24.5q-14 15 -23 30.5t-13.5 30.5t-6 29t-1.5 26q0 47 3.5 72.5t13.5 43.5 q8 14 22 30t34 27q21 10 35.5 16t25 8.5t17.5 3t14 0.5h5zM207 715q-20 0 -27 -13t-7 -22q0 -8 6.5 -18t26.5 -10q2 0 7 0.5t10.5 4t9.5 10.5t4 19q0 13 -8 21t-22 8zM104 687q0 6 2.5 19.5t18.5 33.5q7 9 25 22.5t53 13.5q18 0 36 -4.5t29 -11.5q17 -9 28 -27.5t11 -50.5 q0 -7 -1.5 -20.5t-11.5 -28.5q-7 -11 -19 -19.5t-25.5 -14t-26 -8t-20.5 -2.5q-5 0 -21 2t-33 11t-31 29t-14 56z"/>
<glyph glyph-name="ae" horiz-adv-x="688" unicode="æ" d="M253 224q0 20 -13 30t-26 10q-20 0 -31 -19t-11 -41q0 -3 1 -15t1 -16q1 -8 1 -15.5t4 -15.5q7 -14 20.5 -18t18.5 -4q11 0 15.5 3.5t5.5 5.5q3 3 4 6.5t3 7.5q1 2 3 5t3 5q2 5 1 13v58zM475 429q-2 0 -6 -0.5t-6 -0.5q-9 -2 -15.5 -4t-13.5 -12q-1 -2 -3 -7.5t-4 -11.5 t-4 -11t-2 -7q-1 -4 -1 -12v-5t2 -14q2 -16 10.5 -18.5t13.5 -2.5q2 0 10 0.5t10 0.5q6 0 11.5 -0.5t11.5 -0.5q7 0 16 3t9 16q0 2 -0.5 9.5t-0.5 9.5t0.5 9.5t0.5 9.5q0 20 -12 34.5t-27 14.5zM56 464v9.5t-0.5 14t-0.5 13.5v7q0 4 1.5 11t11.5 13q1 1 8.5 3.5t18 5.5 t23.5 5t25 3q3 0 15.5 1t26 1.5t25 1t14.5 0.5q49 0 74.5 -9t44.5 -19q29 15 59 21t68 6q6 0 15.5 -1t18.5 -2t16.5 -2t10.5 -1q45 -8 63 -21t27 -24q27 -30 41.5 -65t14.5 -83q0 -4 -0.5 -14.5t-1.5 -22t-1.5 -22t-0.5 -14.5v-25q0 -11 -3 -17.5t-14 -14.5q-9 -7 -16 -10 t-17 -3q-4 0 -17 1.5t-18 1.5q-3 0 -10 -0.5t-15 -0.5t-15 -0.5t-10 -0.5q-4 0 -14 0.5t-21.5 1t-22 1t-14.5 0.5q-19 0 -32 -3t-13 -19q0 -11 4.5 -21.5t18.5 -20.5q5 -4 15 -7t20.5 -5.5t19 -4t9.5 -1.5q7 -1 13.5 -1h14.5t22.5 3t20.5 5q9 3 18.5 6.5t18.5 5.5q3 1 10 1 q12 0 19.5 -5.5t9.5 -8.5q1 -2 2.5 -4t2 -6.5t1 -13t0.5 -23.5q0 -6 -0.5 -12t-0.5 -13q0 -11 -1 -23.5t-4 -17.5q-2 -3 -4.5 -5.5t-8 -4.5t-15 -5t-26.5 -8q-9 -3 -15 -4.5t-11.5 -2.5t-13 -1h-20.5q-60 0 -90.5 4.5t-42.5 9.5q-30 10 -46.5 22t-26.5 21q-24 -19 -43.5 -30 t-36 -16.5t-31.5 -7t-30 -1.5q-23 0 -39 2t-28 5t-21.5 8t-19.5 11q-29 17 -38.5 36t-16.5 40q-4 13 -6.5 22.5t-4 18t-2.5 18t-1 22.5q0 7 0.5 13.5t1.5 13.5t1.5 13.5t1.5 14.5v12t1 12q1 16 8 32q4 11 14.5 31.5t34.5 37.5q2 2 11.5 7t22.5 10t27.5 9t28.5 4t27 -3t24 -7 q2 -1 11.5 -5t13.5 -4q7 0 8 7t1 20q0 7 -4 16t-26 14q-10 2 -28 3.5t-28 1.5q-27 0 -52 -9q-22 -8 -27.5 -9.5t-10.5 -1.5q-8 0 -14.5 5t-8.5 15q-1 2 -0.5 10.5t0.5 10.5v11z"/>
<glyph glyph-name="ccedilla" horiz-adv-x="313" unicode="ç" d="M227 -6q-2 0 -6 0.5t-5 0.5q-2 0 -4 -6q-1 -3 -1 -5t1 -4t6 -5q4 -2 7.5 -3t7.5 -3q13 -5 21 -18q4 -6 5.5 -13.5t1.5 -15.5q0 -12 -4.5 -26.5t-13 -27t-21.5 -22.5t-29 -13q-4 -1 -8 -1.5t-10.5 -0.5h-18h-30.5q-5 0 -13 1.5t-8 10.5q0 1 1 4.5t2 5.5q2 10 2 15 q1 21 6.5 24.5t28.5 3.5q8 0 17 2.5t9 13.5q0 9 -7 14q-3 2 -7.5 2.5t-8.5 2.5q-8 4 -8 14q0 6 4 16l4 12t4 11q1 2 3 8.5t2 7.5q0 2 -1 2t-7 1q-5 1 -19 7.5t-22 11.5q-10 6 -19 16t-16 19.5t-12 18t-7 12.5q-8 15 -13.5 29t-9.5 30t-6 35.5t-2 46.5v28.5t1 36t1.5 36 t2.5 27.5q2 12 5.5 26t8.5 28.5t10.5 27.5t11.5 23q28 49 75.5 72t94.5 23q35 0 50 -5.5t15 -31.5q0 -3 -0.5 -11t-0.5 -17t-0.5 -17.5t-0.5 -11.5q0 -11 0.5 -21.5t0.5 -21.5q0 -26 -7.5 -34t-36.5 -8q-6 0 -16 -1.5t-20 -10.5q-8 -7 -16 -26t-8 -57v-36q0 -22 6 -36.5 t14 -24t16.5 -14t13.5 -5.5q7 -2 14 -1.5t14 -0.5q18 -3 21 -12.5t2 -14.5v-10t-0.5 -15t-0.5 -15v-10q0 -5 -0.5 -19t-0.5 -19q0 -2 0.5 -11.5t0.5 -12.5q0 -12 -5 -18.5t-11.5 -9.5t-13.5 -3.5t-10 -0.5h-27z"/>
<glyph glyph-name="egrave" d="M281 366q0 32 -13 46t-27 14q-4 0 -6.5 -0.5t-8.5 -2.5q-5 -2 -10.5 -4.5t-10.5 -11.5q0 -2 -2.5 -10t-4.5 -18t-4 -19t-2 -12q0 -19 6 -23.5t14 -4.5q4 0 16.5 0.5t17.5 0.5q2 0 8 -0.5t8 -0.5q8 0 13.5 5t5.5 14v27zM431 42q0 -17 -11.5 -24.5t-18.5 -9.5 q-14 -4 -39.5 -6t-50 -3.5t-43.5 -2t-20 -0.5q-35 0 -60.5 5.5t-41.5 10.5q-14 4 -20 7.5t-17 13.5q-17 14 -27 23t-16.5 17t-11 16t-8.5 20q-6 18 -9.5 29.5t-5.5 21t-2.5 20t-1.5 26.5q0 3 -0.5 11t-1.5 17.5t-1.5 18t-0.5 11.5q0 11 1 22.5t1 22.5q2 23 2 47.5t5 48.5 q3 16 9.5 29.5t12.5 24t11 17.5t7 9q15 18 34.5 30t41.5 19.5t44 11t42 3.5q63 0 98.5 -16.5t58.5 -39.5q3 -3 11.5 -14t17.5 -29.5t16 -44t7 -58.5q0 -14 -1 -27.5t-1 -27.5v-23v-15.5t-2 -12.5q-1 -1 -4.5 -6t-8.5 -10t-12 -9.5t-14 -4.5q-3 0 -15 1t-16 1q-3 0 -7.5 -0.5 t-14.5 -1.5t-24.5 -1.5t-25.5 -0.5h-10.5t-11.5 1q-2 0 -7 0.5t-11 1t-11.5 1t-6.5 0.5q-29 0 -34 -5t-5 -19q0 -8 0.5 -15.5t5.5 -13.5q8 -14 19 -17.5t25 -6.5q8 -2 18.5 -3.5t12.5 -1.5h2q18 0 45 3.5t43 11.5q11 5 15 6t12 1q12 0 18.5 -4.5t9.5 -11t3.5 -14.5t0.5 -15 v-33t1 -16v-17zM256 590q-3 0 -13.5 -1t-14.5 -1q-8 0 -12 3.5t-12 11.5q-14 16 -28.5 30.5l-15.5 15.5q-21 20 -27.5 27.5t-6.5 13.5q0 10 8 11.5t19 1.5h9.5t14.5 -0.5t15 -0.5h10h16.5t16.5 1q7 1 17 2t11 1q14 0 20 -10t10 -23q2 -5 5 -13.5t6.5 -16.5t6.5 -15t4 -10 q5 -8 5 -15q0 -14 -21 -14q-4 0 -18 0.5t-19 0.5h-6z" unicode="è"/>
<glyph glyph-name="eacute" d="M281 366q0 32 -13 46t-27 14q-4 0 -6.5 -0.5t-8.5 -2.5q-5 -2 -10.5 -4.5t-10.5 -11.5q0 -2 -2.5 -10t-4.5 -18t-4 -19t-2 -12q0 -19 6 -23.5t14 -4.5q4 0 16.5 0.5t17.5 0.5q2 0 8 -0.5t8 -0.5q8 0 13.5 5t5.5 14v27zM431 42q0 -17 -11.5 -24.5t-18.5 -9.5 q-14 -4 -39.5 -6t-50 -3.5t-43.5 -2t-20 -0.5q-35 0 -60.5 5.5t-41.5 10.5q-14 4 -20 7.5t-17 13.5q-17 14 -27 23t-16.5 17t-11 16t-8.5 20q-6 18 -9.5 29.5t-5.5 21t-2.5 20t-1.5 26.5q0 3 -0.5 11t-1.5 17.5t-1.5 18t-0.5 11.5q0 11 1 22.5t1 22.5q2 23 2 47.5t5 48.5 q3 16 9.5 29.5t12.5 24t11 17.5t7 9q15 18 34.5 30t41.5 19.5t44 11t42 3.5q63 0 98.5 -16.5t58.5 -39.5q3 -3 11.5 -14t17.5 -29.5t16 -44t7 -58.5q0 -14 -1 -27.5t-1 -27.5v-23v-15.5t-2 -12.5q-1 -1 -4.5 -6t-8.5 -10t-12 -9.5t-14 -4.5q-3 0 -15 1t-16 1q-3 0 -7.5 -0.5 t-14.5 -1.5t-24.5 -1.5t-25.5 -0.5h-10.5t-11.5 1q-2 0 -7 0.5t-11 1t-11.5 1t-6.5 0.5q-29 0 -34 -5t-5 -19q0 -8 0.5 -15.5t5.5 -13.5q8 -14 19 -17.5t25 -6.5q8 -2 18.5 -3.5t12.5 -1.5h2q18 0 45 3.5t43 11.5q11 5 15 6t12 1q12 0 18.5 -4.5t9.5 -11t3.5 -14.5t0.5 -15 v-33t1 -16v-17zM216 590q-5 0 -19.5 -0.5t-19.5 -0.5q-12 0 -16 3.5t-4 10.5t5 15q1 1 3.5 8.5t6 16t6.5 16t4 10.5q6 18 12 27t21 9q5 0 9.5 -0.5t9.5 -0.5q1 0 8 -0.5t15 -1t14.5 -0.5h8.5q11 0 21 0.5t21 0.5q14 0 21 -1.5t7 -11.5q0 -6 -5.5 -12.5t-16.5 -17.5 q-18 -17 -29 -28t-25 -27q-8 -9 -13 -13t-13 -4q-2 0 -12 1t-13 1h-7z" unicode="é"/>
<glyph glyph-name="ecircumflex" d="M281 366q0 32 -13 46t-27 14q-4 0 -6.5 -0.5t-8.5 -2.5q-5 -2 -10.5 -4.5t-10.5 -11.5q0 -2 -2.5 -10t-4.5 -18t-4 -19t-2 -12q0 -19 6 -23.5t14 -4.5q4 0 16.5 0.5t17.5 0.5q2 0 8 -0.5t8 -0.5q8 0 13.5 5t5.5 14v27zM431 42q0 -17 -11.5 -24.5t-18.5 -9.5 q-14 -4 -39.5 -6t-50 -3.5t-43.5 -2t-20 -0.5q-35 0 -60.5 5.5t-41.5 10.5q-14 4 -20 7.5t-17 13.5q-17 14 -27 23t-16.5 17t-11 16t-8.5 20q-6 18 -9.5 29.5t-5.5 21t-2.5 20t-1.5 26.5q0 3 -0.5 11t-1.5 17.5t-1.5 18t-0.5 11.5q0 11 1 22.5t1 22.5q2 23 2 47.5t5 48.5 q3 16 9.5 29.5t12.5 24t11 17.5t7 9q15 18 34.5 30t41.5 19.5t44 11t42 3.5q63 0 98.5 -16.5t58.5 -39.5q3 -3 11.5 -14t17.5 -29.5t16 -44t7 -58.5q0 -14 -1 -27.5t-1 -27.5v-23v-15.5t-2 -12.5q-1 -1 -4.5 -6t-8.5 -10t-12 -9.5t-14 -4.5q-3 0 -15 1t-16 1q-3 0 -7.5 -0.5 t-14.5 -1.5t-24.5 -1.5t-25.5 -0.5h-10.5t-11.5 1q-2 0 -7 0.5t-11 1t-11.5 1t-6.5 0.5q-29 0 -34 -5t-5 -19q0 -8 0.5 -15.5t5.5 -13.5q8 -14 19 -17.5t25 -6.5q8 -2 18.5 -3.5t12.5 -1.5h2q18 0 45 3.5t43 11.5q11 5 15 6t12 1q12 0 18.5 -4.5t9.5 -11t3.5 -14.5t0.5 -15 v-33t1 -16v-17zM85 607q0 5 3 8.5t14 12.5q3 3 8.5 9t11.5 13.5t12 14.5t10 12q13 16 22 23.5t27 7.5q4 0 16 -1t16 -1h20q2 0 8.5 0.5t13.5 0.5t13.5 0.5t9.5 0.5q8 0 16 -3q9 -5 15 -11.5t20 -26.5q4 -5 15 -18t17 -19q14 -14 17.5 -18t3.5 -9t-5 -8t-10 -3t-8 1l-6 1 h-13.5t-14 0.5t-9.5 0.5q-4 0 -17 -1t-17 -1q-13 0 -18 4t-18 20q-2 3 -9 11t-12 8q-2 0 -4.5 -2.5t-11.5 -14.5q-11 -15 -16.5 -19.5t-18.5 -4.5q-2 0 -11.5 0.5t-12.5 0.5h-26t-25 -1q-3 -1 -9 -1q-11 0 -14 5t-3 8z" unicode="ê"/>
<glyph glyph-name="edieresis" d="M281 366q0 32 -13 46t-27 14q-4 0 -6.5 -0.5t-8.5 -2.5q-5 -2 -10.5 -4.5t-10.5 -11.5q0 -2 -2.5 -10t-4.5 -18t-4 -19t-2 -12q0 -19 6 -23.5t14 -4.5q4 0 16.5 0.5t17.5 0.5q2 0 8 -0.5t8 -0.5q8 0 13.5 5t5.5 14v27zM431 42q0 -17 -11.5 -24.5t-18.5 -9.5 q-14 -4 -39.5 -6t-50 -3.5t-43.5 -2t-20 -0.5q-35 0 -60.5 5.5t-41.5 10.5q-14 4 -20 7.5t-17 13.5q-17 14 -27 23t-16.5 17t-11 16t-8.5 20q-6 18 -9.5 29.5t-5.5 21t-2.5 20t-1.5 26.5q0 3 -0.5 11t-1.5 17.5t-1.5 18t-0.5 11.5q0 11 1 22.5t1 22.5q2 23 2 47.5t5 48.5 q3 16 9.5 29.5t12.5 24t11 17.5t7 9q15 18 34.5 30t41.5 19.5t44 11t42 3.5q63 0 98.5 -16.5t58.5 -39.5q3 -3 11.5 -14t17.5 -29.5t16 -44t7 -58.5q0 -14 -1 -27.5t-1 -27.5v-23v-15.5t-2 -12.5q-1 -1 -4.5 -6t-8.5 -10t-12 -9.5t-14 -4.5q-3 0 -15 1t-16 1q-3 0 -7.5 -0.5 t-14.5 -1.5t-24.5 -1.5t-25.5 -0.5h-10.5t-11.5 1q-2 0 -7 0.5t-11 1t-11.5 1t-6.5 0.5q-29 0 -34 -5t-5 -19q0 -8 0.5 -15.5t5.5 -13.5q8 -14 19 -17.5t25 -6.5q8 -2 18.5 -3.5t12.5 -1.5h2q18 0 45 3.5t43 11.5q11 5 15 6t12 1q12 0 18.5 -4.5t9.5 -11t3.5 -14.5t0.5 -15 v-33t1 -16v-17zM250 685q0 13 6 15.5t10 2.5t6 -1h79q8 0 18.5 0.5t18.5 0.5q25 0 25 -18q0 -2 -0.5 -13.5t-0.5 -15.5q-1 -3 -0.5 -14t0.5 -15q0 -9 -4.5 -14t-11 -7t-14.5 -2.5t-14 -0.5q-2 0 -8 0.5t-13 0.5t-13 0.5t-9 0.5q-10 0 -19.5 -0.5t-19.5 -0.5q-18 0 -27 3 t-9 21q0 2 0.5 12.5t0.5 13.5q0 8 -0.5 15.5t-0.5 15.5zM63 681q0 1 0.5 4t2 7t5.5 7.5t12 4.5h9h13.5h13.5h9t15.5 -0.5t17.5 -0.5q4 0 18.5 0.5t19.5 0.5q17 0 21 -6.5t4 -17.5q-1 -10 -1 -24.5v-28.5q0 -16 -11 -20.5t-18 -4.5q-3 0 -14.5 0.5t-14.5 0.5h-9.5t-14.5 0.5 t-14.5 0.5h-9.5q-4 0 -15 -0.5t-15 -0.5q-9 0 -16.5 4t-7.5 17q0 4 1 15.5t1 15.5q0 3 -1 13t-1 13z" unicode="ë"/>
<glyph glyph-name="igrave" horiz-adv-x="229" unicode="ì" d="M158 553q18 0 29 -6t11 -33q0 -5 -0.5 -10.5t-0.5 -11.5q-1 -11 -1.5 -21t-0.5 -21v-17t0.5 -25.5t0.5 -26v-17.5v-15t-0.5 -23t-0.5 -23.5v-15.5q0 -3 0.5 -10.5t0.5 -16.5t0.5 -17t0.5 -11v-39v-19v-29.5v-29.5v-20v-16.5v-24t-0.5 -23.5t-1.5 -14q-2 -9 -9.5 -13 t-33.5 -4q-3 0 -9.5 0.5t-14 0.5t-14.5 0.5t-10 0.5h-15t-15 -1q-4 -1 -7.5 -1h-6.5q-5 0 -14 2t-14 14q-2 5 -2.5 12t-0.5 32q0 3 0.5 12t0.5 18.5t0.5 18.5t0.5 13q0 14 -1 29t-1 29v11t0.5 17.5t0.5 18v11.5v14t0.5 22t0.5 22.5v14.5q0 5 -0.5 17t-0.5 26t-0.5 26.5 t-0.5 17.5v12t0.5 19.5t0.5 20v13.5t-0.5 17.5t-0.5 18.5q0 28 3 36t12 13q3 1 5.5 1.5t8.5 1t16.5 0.5h27.5q3 0 11 0.5t17 0.5t17 0.5t11 0.5zM132 590q-3 0 -13.5 -1t-14.5 -1q-8 0 -12 3.5t-12 11.5q-14 16 -28.5 30.5l-15.5 15.5q-21 20 -27.5 27.5t-6.5 13.5 q0 10 8 11.5t19 1.5h9.5t14.5 -0.5t15 -0.5h10h16.5t16.5 1q7 1 17 2t11 1q14 0 20 -10t10 -23q2 -5 5 -13.5t6.5 -16.5t6.5 -15t4 -10q5 -8 5 -15q0 -14 -21 -14q-4 0 -18 0.5t-19 0.5h-6z"/>
<glyph glyph-name="iacute" horiz-adv-x="229" unicode="í" d="M158 553q18 0 29 -6t11 -33q0 -5 -0.5 -10.5t-0.5 -11.5q-1 -11 -1.5 -21t-0.5 -21v-17t0.5 -25.5t0.5 -26v-17.5v-15t-0.5 -23t-0.5 -23.5v-15.5q0 -3 0.5 -10.5t0.5 -16.5t0.5 -17t0.5 -11v-39v-19v-29.5v-29.5v-20v-16.5v-24t-0.5 -23.5t-1.5 -14q-2 -9 -9.5 -13 t-33.5 -4q-3 0 -9.5 0.5t-14 0.5t-14.5 0.5t-10 0.5h-15t-15 -1q-4 -1 -7.5 -1h-6.5q-5 0 -14 2t-14 14q-2 5 -2.5 12t-0.5 32q0 3 0.5 12t0.5 18.5t0.5 18.5t0.5 13q0 14 -1 29t-1 29v11t0.5 17.5t0.5 18v11.5v14t0.5 22t0.5 22.5v14.5q0 5 -0.5 17t-0.5 26t-0.5 26.5 t-0.5 17.5v12t0.5 19.5t0.5 20v13.5t-0.5 17.5t-0.5 18.5q0 28 3 36t12 13q3 1 5.5 1.5t8.5 1t16.5 0.5h27.5q3 0 11 0.5t17 0.5t17 0.5t11 0.5zM92 590q-5 0 -19.5 -0.5t-19.5 -0.5q-12 0 -16 3.5t-4 10.5t5 15q1 1 3.5 8.5t6 16t6.5 16t4 10.5q6 18 12 27t21 9 q5 0 9.5 -0.5t9.5 -0.5q1 0 8 -0.5t15 -1t14.5 -0.5h8.5q11 0 21 0.5t21 0.5q14 0 21 -1.5t7 -11.5q0 -6 -5.5 -12.5t-16.5 -17.5q-18 -17 -29 -28t-25 -27q-8 -9 -13 -13t-13 -4q-2 0 -12 1t-13 1h-7z"/>
<glyph glyph-name="icircumflex" horiz-adv-x="229" unicode="î" d="M158 553q18 0 29 -6t11 -33q0 -5 -0.5 -10.5t-0.5 -11.5q-1 -11 -1.5 -21t-0.5 -21v-17t0.5 -25.5t0.5 -26v-17.5v-15t-0.5 -23t-0.5 -23.5v-15.5q0 -3 0.5 -10.5t0.5 -16.5t0.5 -17t0.5 -11v-39v-19v-29.5v-29.5v-20v-16.5v-24t-0.5 -23.5t-1.5 -14q-2 -9 -9.5 -13 t-33.5 -4q-3 0 -9.5 0.5t-14 0.5t-14.5 0.5t-10 0.5h-15t-15 -1q-4 -1 -7.5 -1h-6.5q-5 0 -14 2t-14 14q-2 5 -2.5 12t-0.5 32q0 3 0.5 12t0.5 18.5t0.5 18.5t0.5 13q0 14 -1 29t-1 29v11t0.5 17.5t0.5 18v11.5v14t0.5 22t0.5 22.5v14.5q0 5 -0.5 17t-0.5 26t-0.5 26.5 t-0.5 17.5v12t0.5 19.5t0.5 20v13.5t-0.5 17.5t-0.5 18.5q0 28 3 36t12 13q3 1 5.5 1.5t8.5 1t16.5 0.5h27.5q3 0 11 0.5t17 0.5t17 0.5t11 0.5zM-39 607q0 5 3 8.5t14 12.5q3 3 8.5 9t11.5 13.5t12 14.5t10 12q13 16 22 23.5t27 7.5q4 0 16 -1t16 -1h20q2 0 8.5 0.5 t13.5 0.5t13.5 0.5t9.5 0.5q8 0 16 -3q9 -5 15 -11.5t20 -26.5q4 -5 15 -18t17 -19q14 -14 17.5 -18t3.5 -9t-5 -8t-10 -3t-8 1l-6 1h-13.5t-14 0.5t-9.5 0.5q-4 0 -17 -1t-17 -1q-13 0 -18 4t-18 20q-2 3 -9 11t-12 8q-2 0 -4.5 -2.5t-11.5 -14.5q-11 -15 -16.5 -19.5 t-18.5 -4.5q-2 0 -11.5 0.5t-12.5 0.5h-26t-25 -1q-3 -1 -9 -1q-11 0 -14 5t-3 8z"/>
<glyph glyph-name="idieresis" horiz-adv-x="229" unicode="ï" d="M158 553q18 0 29 -6t11 -33q0 -5 -0.5 -10.5t-0.5 -11.5q-1 -11 -1.5 -21t-0.5 -21v-17t0.5 -25.5t0.5 -26v-17.5v-15t-0.5 -23t-0.5 -23.5v-15.5q0 -3 0.5 -10.5t0.5 -16.5t0.5 -17t0.5 -11v-39v-19v-29.5v-29.5v-20v-16.5v-24t-0.5 -23.5t-1.5 -14q-2 -9 -9.5 -13 t-33.5 -4q-3 0 -9.5 0.5t-14 0.5t-14.5 0.5t-10 0.5h-15t-15 -1q-4 -1 -7.5 -1h-6.5q-5 0 -14 2t-14 14q-2 5 -2.5 12t-0.5 32q0 3 0.5 12t0.5 18.5t0.5 18.5t0.5 13q0 14 -1 29t-1 29v11t0.5 17.5t0.5 18v11.5v14t0.5 22t0.5 22.5v14.5q0 5 -0.5 17t-0.5 26t-0.5 26.5 t-0.5 17.5v12t0.5 19.5t0.5 20v13.5t-0.5 17.5t-0.5 18.5q0 28 3 36t12 13q3 1 5.5 1.5t8.5 1t16.5 0.5h27.5q3 0 11 0.5t17 0.5t17 0.5t11 0.5zM126 685q0 13 6 15.5t10 2.5t6 -1h79q8 0 18.5 0.5t18.5 0.5q25 0 25 -18q0 -2 -0.5 -13.5t-0.5 -15.5q-1 -3 -0.5 -14t0.5 -15 q0 -9 -4.5 -14t-11 -7t-14.5 -2.5t-14 -0.5q-2 0 -8 0.5t-13 0.5t-13 0.5t-9 0.5q-10 0 -19.5 -0.5t-19.5 -0.5q-18 0 -27 3t-9 21q0 2 0.5 12.5t0.5 13.5q0 8 -0.5 15.5t-0.5 15.5zM-61 681q0 1 0.5 4t2 7t5.5 7.5t12 4.5h9h13.5h13.5h9t15.5 -0.5t17.5 -0.5q4 0 18.5 0.5 t19.5 0.5q17 0 21 -6.5t4 -17.5q-1 -10 -1 -24.5v-28.5q0 -16 -11 -20.5t-18 -4.5q-3 0 -14.5 0.5t-14.5 0.5h-9.5t-14.5 0.5t-14.5 0.5h-9.5q-4 0 -15 -0.5t-15 -0.5q-9 0 -16.5 4t-7.5 17q0 4 1 15.5t1 15.5q0 3 -1 13t-1 13z"/>
<glyph glyph-name="eth" d="M186 233q0 -12 1.5 -25.5t5.5 -25t11.5 -19.5t20.5 -8t21.5 8.5t13 20t6 23t1.5 17.5v16.5t0.5 29t0.5 30v19.5q0 19 -2 33.5t-7 27.5q-3 8 -9 16.5t-20 8.5q-11 0 -22.5 -10.5t-16.5 -34.5q-4 -20 -4.5 -40.5t-0.5 -40.5v-46zM226 702q8 0 19 0.5t18 2.5q3 1 9 2.5 t8 1.5q8 0 16 -4.5t14 -11.5q5 -5 7.5 -10.5t6.5 -11.5q8 -11 14.5 -13.5t11.5 -2.5q2 0 8 0.5t12.5 0.5t12 0.5t8.5 0.5q10 0 12.5 -5t4.5 -12l2 -4q2 -4 3.5 -10.5t3 -11.5t1.5 -7q0 -5 -2.5 -11t-7.5 -8q-6 -2 -17 -2q-2 0 -5.5 0.5t-5.5 0.5q-5 0 -5 -5q0 -2 0.5 -3 t0.5 -3q2 -7 5.5 -11.5t6.5 -9.5q2 -3 3 -6.5t3 -6.5q4 -9 6.5 -14.5t4.5 -10.5t3.5 -11t4.5 -15q6 -19 9 -30t5 -20t3 -19.5t2 -26.5v-17q0 -16 1 -36.5t1.5 -40t0.5 -25.5q0 -9 -0.5 -16.5t-1 -17t-2 -23t-4.5 -35.5q-3 -26 -11.5 -60.5t-37.5 -71.5q-16 -20 -34.5 -32.5 t-38 -19t-37.5 -9t-32 -2.5q-16 0 -38.5 1t-46.5 8.5t-47.5 23.5t-41.5 46q-14 23 -22 45.5t-12 48.5t-5 56.5t-1 69.5q0 20 1 40.5t5 40.5l2 9q2 10 5 23l6 26t6 20q14 36 35 57t42 32.5t39 14.5t26 3h10.5t10.5 -2l10 -2.5t5 -0.5q6 0 6 5q0 1 -0.5 2t-0.5 2 q-1 2 -8.5 11.5t-10.5 11.5q-5 3 -12 3q-2 0 -9.5 -1t-10.5 -1q-5 0 -11 1t-12 1q-2 0 -9 -1t-9 -1q-8 0 -13 3t-8 14q-2 5 -4 15q-1 3 -4 11.5t-3 11.5q0 6 5 10.5t12 4.5q2 0 10.5 -1t10.5 -1q7 0 13 0.5t6 3.5q0 4 -5 9.5t-7 7.5q-4 4 -6.5 7.5t-2.5 9.5q0 16 20 18 q3 0 12 -0.5t19.5 -1.5t19.5 -1.5t13 -0.5z" unicode="ð"/>
<glyph glyph-name="ntilde" d="M102 2h-13.5t-12.5 -1q-4 0 -7.5 -0.5t-7.5 -0.5q-13 0 -21 8t-8 27q0 4 0.5 13t0.5 19t0.5 19t0.5 13q0 6 -0.5 22t-1 34t-1 34.5t-0.5 23.5q0 17 0.5 32.5t1.5 32.5q2 17 2.5 32.5t1.5 31.5v9.5t-0.5 14t-0.5 14v9.5q0 4 0.5 18.5t0.5 19.5q0 3 -0.5 12t-1 19.5 t-1 19.5t-0.5 13q0 8 0.5 23t4.5 22q7 12 16.5 14t13.5 2h8t13 -1q7 0 13 -0.5t8 -0.5q16 0 25 0.5t16 1.5q5 0 9 0.5t9 0.5q2 0 8.5 -1t10.5 -7q2 -3 2.5 -6.5t2.5 -7.5q2 -7 6 -7q1 0 7 4t8 5q8 5 29 15t53 10q34 0 58.5 -13.5t38.5 -29.5q23 -25 29 -56.5t6 -60.5 q0 -2 -0.5 -8t-0.5 -13t-0.5 -13t-0.5 -9v-11t0.5 -17t0.5 -17.5v-11.5q0 -4 -0.5 -14t-0.5 -22t-0.5 -22.5t-0.5 -14.5v-10.5t0.5 -16.5t0.5 -17v-11t-0.5 -11.5t-0.5 -18.5t-0.5 -18.5t-0.5 -12.5q0 -2 0.5 -8.5t0.5 -13.5t0.5 -13t0.5 -9q0 -27 -5.5 -45.5t-27.5 -18.5 q-2 0 -8 0.5t-13.5 1t-14.5 1t-10 0.5t-10.5 -0.5t-16.5 -1t-16.5 -1t-10.5 -0.5q-10 0 -15 1.5t-8 3.5q-1 1 -7 8.5t-6 16.5q0 5 1 17.5t1.5 26.5t1.5 27t1 18q0 6 -0.5 21t-1 32.5t-1 33t-0.5 21.5v21.5t1 21.5q1 14 2 27t2 27v26q0 5 -0.5 12t-3.5 13.5t-9.5 11 t-18.5 4.5q-3 0 -8.5 -1t-10.5 -4.5t-9 -11.5t-5 -21q-1 -10 -2 -24.5t-1.5 -29.5t-1 -29.5t-0.5 -23.5q0 -3 0.5 -11.5t0.5 -18t0.5 -18t0.5 -11.5q0 -22 -1.5 -43.5t-1.5 -44.5q0 -11 0.5 -23.5t1.5 -26.5q1 -5 1 -9v-9q0 -17 -6.5 -24.5t-16.5 -7.5q-1 0 -6 0.5 t-10.5 0.5t-11 0.5t-6.5 0.5h-38zM83 618q0 5 0.5 8.5t0.5 7.5l2 26t7 23q8 11 23 17.5t33 6.5q11 0 22 -2t22 -5q4 -1 17 -4.5t26.5 -7.5t25 -7t13.5 -3q5 0 7.5 1.5t4.5 3.5q2 3 3 6.5t3 6.5q4 6 16 5q3 0 13 -1t13 -1q5 0 11 0.5t11 0.5q24 0 24 -24q0 -34 -2.5 -46.5 t-7.5 -19.5q-5 -9 -17 -17.5t-30 -8.5q-7 0 -19 2.5t-25.5 5.5t-26.5 6.5t-20 6.5q-11 4 -25 8t-21 4q-5 0 -7 -2q-3 -2 -4 -7.5t-3 -9.5q-6 -8 -21 -8q-5 0 -11 0.5t-13 1.5q-2 0 -9 -0.5t-9 -0.5q-9 0 -18 3.5t-9 23.5z" unicode="ñ"/>
<glyph glyph-name="ograve" d="M268 338q0 6 -1.5 17t-5.5 22.5t-11.5 19.5t-19.5 8q-10 0 -17 -6.5t-11.5 -14.5t-6.5 -16t-3 -11q-4 -19 -4 -35q0 -5 -1 -12q0 -13 1 -30q0 -5 -0.5 -21t-0.5 -21q0 -34 8 -58.5t31 -24.5q13 0 24 11.5t14 33.5q1 9 2 17t1.5 22t0.5 37v62zM23 289q0 17 0.5 33t3.5 33 q1 5 2.5 15t4 21.5t4.5 21.5t4 15q1 4 4.5 15t10.5 25t17.5 28.5t25.5 26.5q19 15 38 23.5t36 12.5t31.5 4.5t25.5 0.5q12 0 28 -1t34.5 -5.5t38 -14.5t37.5 -27q5 -5 18.5 -20.5t23.5 -37.5q9 -19 14 -37.5t7.5 -39.5t3 -46.5t0.5 -57.5q0 -21 -2 -43.5t-4.5 -41.5t-5 -32 t-2.5 -14q-6 -26 -18.5 -54t-34.5 -51t-55 -37.5t-80 -14.5q-42 0 -78 8.5t-65 35.5q-8 7 -19 20.5t-20.5 34t-17.5 49.5t-10 67q0 6 -0.5 11t-0.5 13.5v22.5v38zM246 590q-3 0 -13.5 -1t-14.5 -1q-8 0 -12 3.5t-12 11.5q-14 16 -28.5 30.5l-15.5 15.5q-21 20 -27.5 27.5 t-6.5 13.5q0 10 8 11.5t19 1.5h9.5t14.5 -0.5t15 -0.5h10h16.5t16.5 1q7 1 17 2t11 1q14 0 20 -10t10 -23q2 -5 5 -13.5t6.5 -16.5t6.5 -15t4 -10q5 -8 5 -15q0 -14 -21 -14q-4 0 -18 0.5t-19 0.5h-6z" unicode="ò"/>
<glyph glyph-name="oacute" d="M268 338q0 6 -1.5 17t-5.5 22.5t-11.5 19.5t-19.5 8q-10 0 -17 -6.5t-11.5 -14.5t-6.5 -16t-3 -11q-4 -19 -4 -35q0 -5 -1 -12q0 -13 1 -30q0 -5 -0.5 -21t-0.5 -21q0 -34 8 -58.5t31 -24.5q13 0 24 11.5t14 33.5q1 9 2 17t1.5 22t0.5 37v62zM23 289q0 17 0.5 33t3.5 33 q1 5 2.5 15t4 21.5t4.5 21.5t4 15q1 4 4.5 15t10.5 25t17.5 28.5t25.5 26.5q19 15 38 23.5t36 12.5t31.5 4.5t25.5 0.5q12 0 28 -1t34.5 -5.5t38 -14.5t37.5 -27q5 -5 18.5 -20.5t23.5 -37.5q9 -19 14 -37.5t7.5 -39.5t3 -46.5t0.5 -57.5q0 -21 -2 -43.5t-4.5 -41.5t-5 -32 t-2.5 -14q-6 -26 -18.5 -54t-34.5 -51t-55 -37.5t-80 -14.5q-42 0 -78 8.5t-65 35.5q-8 7 -19 20.5t-20.5 34t-17.5 49.5t-10 67q0 6 -0.5 11t-0.5 13.5v22.5v38zM206 590q-5 0 -19.5 -0.5t-19.5 -0.5q-12 0 -16 3.5t-4 10.5t5 15q1 1 3.5 8.5t6 16t6.5 16t4 10.5 q6 18 12 27t21 9q5 0 9.5 -0.5t9.5 -0.5q1 0 8 -0.5t15 -1t14.5 -0.5h8.5q11 0 21 0.5t21 0.5q14 0 21 -1.5t7 -11.5q0 -6 -5.5 -12.5t-16.5 -17.5q-18 -17 -29 -28t-25 -27q-8 -9 -13 -13t-13 -4q-2 0 -12 1t-13 1h-7z" unicode="ó"/>
<glyph glyph-name="ocircumflex" d="M268 338q0 6 -1.5 17t-5.5 22.5t-11.5 19.5t-19.5 8q-10 0 -17 -6.5t-11.5 -14.5t-6.5 -16t-3 -11q-4 -19 -4 -35q0 -5 -1 -12q0 -13 1 -30q0 -5 -0.5 -21t-0.5 -21q0 -34 8 -58.5t31 -24.5q13 0 24 11.5t14 33.5q1 9 2 17t1.5 22t0.5 37v62zM23 289q0 17 0.5 33t3.5 33 q1 5 2.5 15t4 21.5t4.5 21.5t4 15q1 4 4.5 15t10.5 25t17.5 28.5t25.5 26.5q19 15 38 23.5t36 12.5t31.5 4.5t25.5 0.5q12 0 28 -1t34.5 -5.5t38 -14.5t37.5 -27q5 -5 18.5 -20.5t23.5 -37.5q9 -19 14 -37.5t7.5 -39.5t3 -46.5t0.5 -57.5q0 -21 -2 -43.5t-4.5 -41.5t-5 -32 t-2.5 -14q-6 -26 -18.5 -54t-34.5 -51t-55 -37.5t-80 -14.5q-42 0 -78 8.5t-65 35.5q-8 7 -19 20.5t-20.5 34t-17.5 49.5t-10 67q0 6 -0.5 11t-0.5 13.5v22.5v38zM75 607q0 5 3 8.5t14 12.5q3 3 8.5 9t11.5 13.5t12 14.5t10 12q13 16 22 23.5t27 7.5q4 0 16 -1t16 -1h20 q2 0 8.5 0.5t13.5 0.5t13.5 0.5t9.5 0.5q8 0 16 -3q9 -5 15 -11.5t20 -26.5q4 -5 15 -18t17 -19q14 -14 17.5 -18t3.5 -9t-5 -8t-10 -3t-8 1l-6 1h-13.5t-14 0.5t-9.5 0.5q-4 0 -17 -1t-17 -1q-13 0 -18 4t-18 20q-2 3 -9 11t-12 8q-2 0 -4.5 -2.5t-11.5 -14.5 q-11 -15 -16.5 -19.5t-18.5 -4.5q-2 0 -11.5 0.5t-12.5 0.5h-26t-25 -1q-3 -1 -9 -1q-11 0 -14 5t-3 8z" unicode="ô"/>
<glyph glyph-name="otilde" d="M268 338q0 6 -1.5 17t-5.5 22.5t-11.5 19.5t-19.5 8q-10 0 -17 -6.5t-11.5 -14.5t-6.5 -16t-3 -11q-4 -19 -4 -35q0 -5 -1 -12q0 -13 1 -30q0 -5 -0.5 -21t-0.5 -21q0 -34 8 -58.5t31 -24.5q13 0 24 11.5t14 33.5q1 9 2 17t1.5 22t0.5 37v62zM23 289q0 17 0.5 33t3.5 33 q1 5 2.5 15t4 21.5t4.5 21.5t4 15q1 4 4.5 15t10.5 25t17.5 28.5t25.5 26.5q19 15 38 23.5t36 12.5t31.5 4.5t25.5 0.5q12 0 28 -1t34.5 -5.5t38 -14.5t37.5 -27q5 -5 18.5 -20.5t23.5 -37.5q9 -19 14 -37.5t7.5 -39.5t3 -46.5t0.5 -57.5q0 -21 -2 -43.5t-4.5 -41.5t-5 -32 t-2.5 -14q-6 -26 -18.5 -54t-34.5 -51t-55 -37.5t-80 -14.5q-42 0 -78 8.5t-65 35.5q-8 7 -19 20.5t-20.5 34t-17.5 49.5t-10 67q0 6 -0.5 11t-0.5 13.5v22.5v38zM83 618q0 5 0.5 8.5t0.5 7.5l2 26t7 23q8 11 23 17.5t33 6.5q11 0 22 -2t22 -5q4 -1 17 -4.5t26.5 -7.5t25 -7 t13.5 -3q5 0 7.5 1.5t4.5 3.5q2 3 3 6.5t3 6.5q4 6 16 5q3 0 13 -1t13 -1q5 0 11 0.5t11 0.5q24 0 24 -24q0 -34 -2.5 -46.5t-7.5 -19.5q-5 -9 -17 -17.5t-30 -8.5q-7 0 -19 2.5t-25.5 5.5t-26.5 6.5t-20 6.5q-11 4 -25 8t-21 4q-5 0 -7 -2q-3 -2 -4 -7.5t-3 -9.5 q-6 -8 -21 -8q-5 0 -11 0.5t-13 1.5q-2 0 -9 -0.5t-9 -0.5q-9 0 -18 3.5t-9 23.5z" unicode="õ"/>
<glyph glyph-name="odieresis" d="M268 338q0 6 -1.5 17t-5.5 22.5t-11.5 19.5t-19.5 8q-10 0 -17 -6.5t-11.5 -14.5t-6.5 -16t-3 -11q-4 -19 -4 -35q0 -5 -1 -12q0 -13 1 -30q0 -5 -0.5 -21t-0.5 -21q0 -34 8 -58.5t31 -24.5q13 0 24 11.5t14 33.5q1 9 2 17t1.5 22t0.5 37v62zM23 289q0 17 0.5 33t3.5 33 q1 5 2.5 15t4 21.5t4.5 21.5t4 15q1 4 4.5 15t10.5 25t17.5 28.5t25.5 26.5q19 15 38 23.5t36 12.5t31.5 4.5t25.5 0.5q12 0 28 -1t34.5 -5.5t38 -14.5t37.5 -27q5 -5 18.5 -20.5t23.5 -37.5q9 -19 14 -37.5t7.5 -39.5t3 -46.5t0.5 -57.5q0 -21 -2 -43.5t-4.5 -41.5t-5 -32 t-2.5 -14q-6 -26 -18.5 -54t-34.5 -51t-55 -37.5t-80 -14.5q-42 0 -78 8.5t-65 35.5q-8 7 -19 20.5t-20.5 34t-17.5 49.5t-10 67q0 6 -0.5 11t-0.5 13.5v22.5v38zM232 685q0 13 6 15.5t10 2.5t6 -1h79q8 0 18.5 0.5t18.5 0.5q25 0 25 -18q0 -2 -0.5 -13.5t-0.5 -15.5 q-1 -3 -0.5 -14t0.5 -15q0 -9 -4.5 -14t-11 -7t-14.5 -2.5t-14 -0.5q-2 0 -8 0.5t-13 0.5t-13 0.5t-9 0.5q-10 0 -19.5 -0.5t-19.5 -0.5q-18 0 -27 3t-9 21q0 2 0.5 12.5t0.5 13.5q0 8 -0.5 15.5t-0.5 15.5zM45 681q0 1 0.5 4t2 7t5.5 7.5t12 4.5h9h13.5h13.5h9t15.5 -0.5 t17.5 -0.5q4 0 18.5 0.5t19.5 0.5q17 0 21 -6.5t4 -17.5q-1 -10 -1 -24.5v-28.5q0 -16 -11 -20.5t-18 -4.5q-3 0 -14.5 0.5t-14.5 0.5h-9.5t-14.5 0.5t-14.5 0.5h-9.5q-4 0 -15 -0.5t-15 -0.5q-9 0 -16.5 4t-7.5 17q0 4 1 15.5t1 15.5q0 3 -1 13t-1 13z" unicode="ö"/>
<glyph glyph-name="oslash" d="M274 282q-3 -5 -12.5 -18.5t-19.5 -28.5t-19.5 -28.5t-12.5 -19.5q-2 -2 -7 -10t-5 -10q0 -5 9.5 -11.5t21.5 -6.5q15 0 23 8t12.5 19.5t6 25t2.5 25.5q1 8 1.5 17t0.5 17v10t-1 11zM185 272q8 13 16.5 25.5t17.5 26.5q2 2 6.5 8.5t9.5 13.5t9.5 13.5t6.5 9.5q4 5 7 9.5 t3 9.5q0 7 -8.5 14.5t-22.5 7.5q-16 0 -24.5 -10t-13 -24t-5.5 -30.5t-1 -29.5q0 -11 -0.5 -22t-0.5 -22zM359 532q3 4 5 6.5t8 11.5q2 3 7.5 10t13.5 7q4 0 11.5 -4t14 -10t11.5 -12.5t5 -12.5q0 -2 -2 -6t-4 -9q-5 -8 -8 -12.5t-5 -8.5l-4.5 -9t-6.5 -12q8 -18 14.5 -35 t11.5 -48q2 -17 3 -28t1 -22q0 -47 -1 -75.5t-3 -48t-5 -35t-8 -34.5q-3 -14 -9 -32.5t-17 -38t-29 -37t-46 -28.5q-15 -6 -26 -9.5t-22.5 -5t-25.5 -2t-36 -0.5q-42 0 -67.5 13.5t-35.5 21.5q-17 -25 -23 -32t-9 -8t-5 -1q-4 0 -8.5 2.5t-25.5 19.5q-3 2 -7 6.5t-4 12.5 q0 5 3.5 10t8.5 12l21 30q-9 19 -15.5 34.5t-10.5 32.5t-5.5 38.5t-1.5 52.5q0 40 2 79.5t8.5 76t20.5 68.5t38 56q19 18 38.5 28t37.5 14.5t33.5 5.5t25.5 1q58 0 88.5 -12.5t44.5 -21.5z" unicode="ø"/>
<glyph glyph-name="ugrave" d="M83 547q2 0 11.5 -0.5t21 -1t21 -0.5h12.5q2 0 12 1t13 1q6 0 15.5 -5t9.5 -24q0 -7 -0.5 -15t-1.5 -14q-1 -8 -1.5 -15.5t-0.5 -11.5q0 -3 0.5 -12t1 -19.5t1 -19.5t0.5 -13v-10.5t-1 -10.5q0 -8 -0.5 -14.5t-1.5 -14.5v-15t-0.5 -24t-0.5 -24.5v-15.5q0 -17 1 -33 t1 -33v-12t-1 -12q-1 -5 -1 -15q0 -15 8.5 -23t18.5 -8q20 0 27.5 22t7.5 48q0 4 -0.5 18.5t-0.5 19.5q0 4 0.5 15t1.5 23t1.5 23t0.5 16q0 4 -0.5 13.5t-1 21t-1 21.5t-0.5 14q0 13 1 26t1 26q0 4 -0.5 14.5t-1.5 21.5t-1.5 21.5t-0.5 14.5q0 22 15 31q5 3 16 3.5t16 0.5 q4 0 17.5 -1t18.5 -1h11t17.5 0.5t18 0.5h11.5q10 0 20.5 -3t10.5 -21q0 -3 -0.5 -12.5t-1 -20t-1 -20t-0.5 -13.5q0 -3 0.5 -13t0.5 -21t0.5 -21t0.5 -14q0 -18 -1 -36t-1 -37v-10.5t0.5 -16t0.5 -16.5v-11q0 -5 -0.5 -17t-1 -25.5t-1 -26t-0.5 -17.5q0 -3 0.5 -9.5 t0.5 -14t0.5 -14t0.5 -9.5v-8.5t-0.5 -13.5t-0.5 -13v-9t0.5 -11.5t0.5 -18t0.5 -18t0.5 -11.5q0 -17 -11 -20t-18 -3q-3 0 -10.5 0.5t-16 0.5t-16.5 0.5t-11 0.5t-11.5 -0.5t-18 -1t-17 -1t-9.5 -0.5q-6 0 -9.5 2.5t-4.5 4.5q-2 3 -2 7t-2 7q-2 8 -10 8q-3 0 -5.5 -1 t-13.5 -9q-11 -7 -31 -15.5t-64 -8.5q-31 1 -58.5 13.5t-41.5 39.5q-4 7 -6 16.5t-3 17.5t-1.5 14.5t-0.5 7.5q0 2 0.5 8.5t1 13.5t1 13t0.5 9q0 6 -0.5 20.5t-1.5 31t-1.5 32t-0.5 21.5q0 7 1 26t1.5 40t1.5 40t1 27q0 13 -0.5 25.5t-1.5 25.5q-2 21 -2.5 35t-0.5 34 q0 4 0.5 11t4 13.5t10.5 11.5t21 5h16zM246 590q-3 0 -13.5 -1t-14.5 -1q-8 0 -12 3.5t-12 11.5q-14 16 -28.5 30.5l-15.5 15.5q-21 20 -27.5 27.5t-6.5 13.5q0 10 8 11.5t19 1.5h9.5t14.5 -0.5t15 -0.5h10h16.5t16.5 1q7 1 17 2t11 1q14 0 20 -10t10 -23q2 -5 5 -13.5 t6.5 -16.5t6.5 -15t4 -10q5 -8 5 -15q0 -14 -21 -14q-4 0 -18 0.5t-19 0.5h-6z" unicode="ù"/>
<glyph glyph-name="uacute" d="M83 547q2 0 11.5 -0.5t21 -1t21 -0.5h12.5q2 0 12 1t13 1q6 0 15.5 -5t9.5 -24q0 -7 -0.5 -15t-1.5 -14q-1 -8 -1.5 -15.5t-0.5 -11.5q0 -3 0.5 -12t1 -19.5t1 -19.5t0.5 -13v-10.5t-1 -10.5q0 -8 -0.5 -14.5t-1.5 -14.5v-15t-0.5 -24t-0.5 -24.5v-15.5q0 -17 1 -33 t1 -33v-12t-1 -12q-1 -5 -1 -15q0 -15 8.5 -23t18.5 -8q20 0 27.5 22t7.5 48q0 4 -0.5 18.5t-0.5 19.5q0 4 0.5 15t1.5 23t1.5 23t0.5 16q0 4 -0.5 13.5t-1 21t-1 21.5t-0.5 14q0 13 1 26t1 26q0 4 -0.5 14.5t-1.5 21.5t-1.5 21.5t-0.5 14.5q0 22 15 31q5 3 16 3.5t16 0.5 q4 0 17.5 -1t18.5 -1h11t17.5 0.5t18 0.5h11.5q10 0 20.5 -3t10.5 -21q0 -3 -0.5 -12.5t-1 -20t-1 -20t-0.5 -13.5q0 -3 0.5 -13t0.5 -21t0.5 -21t0.5 -14q0 -18 -1 -36t-1 -37v-10.5t0.5 -16t0.5 -16.5v-11q0 -5 -0.5 -17t-1 -25.5t-1 -26t-0.5 -17.5q0 -3 0.5 -9.5 t0.5 -14t0.5 -14t0.5 -9.5v-8.5t-0.5 -13.5t-0.5 -13v-9t0.5 -11.5t0.5 -18t0.5 -18t0.5 -11.5q0 -17 -11 -20t-18 -3q-3 0 -10.5 0.5t-16 0.5t-16.5 0.5t-11 0.5t-11.5 -0.5t-18 -1t-17 -1t-9.5 -0.5q-6 0 -9.5 2.5t-4.5 4.5q-2 3 -2 7t-2 7q-2 8 -10 8q-3 0 -5.5 -1 t-13.5 -9q-11 -7 -31 -15.5t-64 -8.5q-31 1 -58.5 13.5t-41.5 39.5q-4 7 -6 16.5t-3 17.5t-1.5 14.5t-0.5 7.5q0 2 0.5 8.5t1 13.5t1 13t0.5 9q0 6 -0.5 20.5t-1.5 31t-1.5 32t-0.5 21.5q0 7 1 26t1.5 40t1.5 40t1 27q0 13 -0.5 25.5t-1.5 25.5q-2 21 -2.5 35t-0.5 34 q0 4 0.5 11t4 13.5t10.5 11.5t21 5h16zM206 590q-5 0 -19.5 -0.5t-19.5 -0.5q-12 0 -16 3.5t-4 10.5t5 15q1 1 3.5 8.5t6 16t6.5 16t4 10.5q6 18 12 27t21 9q5 0 9.5 -0.5t9.5 -0.5q1 0 8 -0.5t15 -1t14.5 -0.5h8.5q11 0 21 0.5t21 0.5q14 0 21 -1.5t7 -11.5 q0 -6 -5.5 -12.5t-16.5 -17.5q-18 -17 -29 -28t-25 -27q-8 -9 -13 -13t-13 -4q-2 0 -12 1t-13 1h-7z" unicode="ú"/>
<glyph glyph-name="ucircumflex" d="M83 547q2 0 11.5 -0.5t21 -1t21 -0.5h12.5q2 0 12 1t13 1q6 0 15.5 -5t9.5 -24q0 -7 -0.5 -15t-1.5 -14q-1 -8 -1.5 -15.5t-0.5 -11.5q0 -3 0.5 -12t1 -19.5t1 -19.5t0.5 -13v-10.5t-1 -10.5q0 -8 -0.5 -14.5t-1.5 -14.5v-15t-0.5 -24t-0.5 -24.5v-15.5q0 -17 1 -33 t1 -33v-12t-1 -12q-1 -5 -1 -15q0 -15 8.5 -23t18.5 -8q20 0 27.5 22t7.5 48q0 4 -0.5 18.5t-0.5 19.5q0 4 0.5 15t1.5 23t1.5 23t0.5 16q0 4 -0.5 13.5t-1 21t-1 21.5t-0.5 14q0 13 1 26t1 26q0 4 -0.5 14.5t-1.5 21.5t-1.5 21.5t-0.5 14.5q0 22 15 31q5 3 16 3.5t16 0.5 q4 0 17.5 -1t18.5 -1h11t17.5 0.5t18 0.5h11.5q10 0 20.5 -3t10.5 -21q0 -3 -0.5 -12.5t-1 -20t-1 -20t-0.5 -13.5q0 -3 0.5 -13t0.5 -21t0.5 -21t0.5 -14q0 -18 -1 -36t-1 -37v-10.5t0.5 -16t0.5 -16.5v-11q0 -5 -0.5 -17t-1 -25.5t-1 -26t-0.5 -17.5q0 -3 0.5 -9.5 t0.5 -14t0.5 -14t0.5 -9.5v-8.5t-0.5 -13.5t-0.5 -13v-9t0.5 -11.5t0.5 -18t0.5 -18t0.5 -11.5q0 -17 -11 -20t-18 -3q-3 0 -10.5 0.5t-16 0.5t-16.5 0.5t-11 0.5t-11.5 -0.5t-18 -1t-17 -1t-9.5 -0.5q-6 0 -9.5 2.5t-4.5 4.5q-2 3 -2 7t-2 7q-2 8 -10 8q-3 0 -5.5 -1 t-13.5 -9q-11 -7 -31 -15.5t-64 -8.5q-31 1 -58.5 13.5t-41.5 39.5q-4 7 -6 16.5t-3 17.5t-1.5 14.5t-0.5 7.5q0 2 0.5 8.5t1 13.5t1 13t0.5 9q0 6 -0.5 20.5t-1.5 31t-1.5 32t-0.5 21.5q0 7 1 26t1.5 40t1.5 40t1 27q0 13 -0.5 25.5t-1.5 25.5q-2 21 -2.5 35t-0.5 34 q0 4 0.5 11t4 13.5t10.5 11.5t21 5h16zM75 607q0 5 3 8.5t14 12.5q3 3 8.5 9t11.5 13.5t12 14.5t10 12q13 16 22 23.5t27 7.5q4 0 16 -1t16 -1h20q2 0 8.5 0.5t13.5 0.5t13.5 0.5t9.5 0.5q8 0 16 -3q9 -5 15 -11.5t20 -26.5q4 -5 15 -18t17 -19q14 -14 17.5 -18t3.5 -9 t-5 -8t-10 -3t-8 1l-6 1h-13.5t-14 0.5t-9.5 0.5q-4 0 -17 -1t-17 -1q-13 0 -18 4t-18 20q-2 3 -9 11t-12 8q-2 0 -4.5 -2.5t-11.5 -14.5q-11 -15 -16.5 -19.5t-18.5 -4.5q-2 0 -11.5 0.5t-12.5 0.5h-26t-25 -1q-3 -1 -9 -1q-11 0 -14 5t-3 8z" unicode="û"/>
<glyph glyph-name="udieresis" d="M83 547q2 0 11.5 -0.5t21 -1t21 -0.5h12.5q2 0 12 1t13 1q6 0 15.5 -5t9.5 -24q0 -7 -0.5 -15t-1.5 -14q-1 -8 -1.5 -15.5t-0.5 -11.5q0 -3 0.5 -12t1 -19.5t1 -19.5t0.5 -13v-10.5t-1 -10.5q0 -8 -0.5 -14.5t-1.5 -14.5v-15t-0.5 -24t-0.5 -24.5v-15.5q0 -17 1 -33 t1 -33v-12t-1 -12q-1 -5 -1 -15q0 -15 8.5 -23t18.5 -8q20 0 27.5 22t7.5 48q0 4 -0.5 18.5t-0.5 19.5q0 4 0.5 15t1.5 23t1.5 23t0.5 16q0 4 -0.5 13.5t-1 21t-1 21.5t-0.5 14q0 13 1 26t1 26q0 4 -0.5 14.5t-1.5 21.5t-1.5 21.5t-0.5 14.5q0 22 15 31q5 3 16 3.5t16 0.5 q4 0 17.5 -1t18.5 -1h11t17.5 0.5t18 0.5h11.5q10 0 20.5 -3t10.5 -21q0 -3 -0.5 -12.5t-1 -20t-1 -20t-0.5 -13.5q0 -3 0.5 -13t0.5 -21t0.5 -21t0.5 -14q0 -18 -1 -36t-1 -37v-10.5t0.5 -16t0.5 -16.5v-11q0 -5 -0.5 -17t-1 -25.5t-1 -26t-0.5 -17.5q0 -3 0.5 -9.5 t0.5 -14t0.5 -14t0.5 -9.5v-8.5t-0.5 -13.5t-0.5 -13v-9t0.5 -11.5t0.5 -18t0.5 -18t0.5 -11.5q0 -17 -11 -20t-18 -3q-3 0 -10.5 0.5t-16 0.5t-16.5 0.5t-11 0.5t-11.5 -0.5t-18 -1t-17 -1t-9.5 -0.5q-6 0 -9.5 2.5t-4.5 4.5q-2 3 -2 7t-2 7q-2 8 -10 8q-3 0 -5.5 -1 t-13.5 -9q-11 -7 -31 -15.5t-64 -8.5q-31 1 -58.5 13.5t-41.5 39.5q-4 7 -6 16.5t-3 17.5t-1.5 14.5t-0.5 7.5q0 2 0.5 8.5t1 13.5t1 13t0.5 9q0 6 -0.5 20.5t-1.5 31t-1.5 32t-0.5 21.5q0 7 1 26t1.5 40t1.5 40t1 27q0 13 -0.5 25.5t-1.5 25.5q-2 21 -2.5 35t-0.5 34 q0 4 0.5 11t4 13.5t10.5 11.5t21 5h16zM245 685q0 13 6 15.5t10 2.5t6 -1h79q8 0 18.5 0.5t18.5 0.5q25 0 25 -18q0 -2 -0.5 -13.5t-0.5 -15.5q-1 -3 -0.5 -14t0.5 -15q0 -9 -4.5 -14t-11 -7t-14.5 -2.5t-14 -0.5q-2 0 -8 0.5t-13 0.5t-13 0.5t-9 0.5q-10 0 -19.5 -0.5 t-19.5 -0.5q-18 0 -27 3t-9 21q0 2 0.5 12.5t0.5 13.5q0 8 -0.5 15.5t-0.5 15.5zM58 681q0 1 0.5 4t2 7t5.5 7.5t12 4.5h9h13.5h13.5h9t15.5 -0.5t17.5 -0.5q4 0 18.5 0.5t19.5 0.5q17 0 21 -6.5t4 -17.5q-1 -10 -1 -24.5v-28.5q0 -16 -11 -20.5t-18 -4.5q-3 0 -14.5 0.5 t-14.5 0.5h-9.5t-14.5 0.5t-14.5 0.5h-9.5q-4 0 -15 -0.5t-15 -0.5q-9 0 -16.5 4t-7.5 17q0 4 1 15.5t1 15.5q0 3 -1 13t-1 13z" unicode="ü"/>
<glyph glyph-name="yacute" horiz-adv-x="375" unicode="ý" d="M223 514q0 12 3.5 24.5t23.5 14.5q4 0 16.5 -0.5t16.5 -0.5q2 0 11.5 0.5t11.5 0.5q3 0 13.5 -0.5t13.5 -1.5q2 0 10.5 0.5t10.5 0.5q8 0 16.5 -6t8.5 -23l-2 -36q-1 -14 -2 -26t-1 -13q-1 -8 -2.5 -15.5t-3.5 -15.5q-1 -5 -3.5 -16.5t-5.5 -24.5t-5.5 -25t-3.5 -17 q-3 -16 -7 -31.5t-8 -30.5q-5 -20 -9 -39.5t-10 -39.5q-5 -15 -10.5 -30.5t-10.5 -30.5l-6 -24q-9 -34 -14.5 -54.5t-11 -34t-11 -23t-14.5 -21.5q-14 -18 -40 -34.5t-60 -21.5q-4 0 -15.5 -0.5t-24.5 -1t-25 -0.5h-16q-7 0 -17.5 1.5t-21.5 11.5q-8 8 -9.5 13t-2.5 25v15 v23.5v24v16.5q0 12 2 16q3 6 12 10t18 4q5 0 13 -2q5 -2 8.5 -3t4.5 -1q8 0 13 5t7 10q1 2 1 16v8q-1 3 -3.5 16t-3.5 17q-2 10 -3.5 17t-3 14.5t-4.5 17t-7 25.5q-5 14 -8 27.5t-6 27.5q-2 14 -4 26.5t-5 25.5q-2 8 -3.5 16.5t-3.5 16.5q-2 12 -3.5 20t-3 15t-3.5 14.5 t-5 19.5q-1 5 -3.5 16t-5 25.5t-4.5 29.5t-2 27q0 20 10.5 24.5t15.5 4.5q6 0 9 -1q9 -1 18 -1h18h19.5t19.5 1q4 0 16.5 1t16.5 1q9 0 17 -5t10 -18q0 -3 0.5 -11.5t1.5 -17.5t1.5 -17.5t0.5 -11.5q0 -7 2.5 -24.5t4.5 -37t4.5 -37.5t2.5 -25q0 -4 0.5 -11.5l1 -15t2 -13 t4.5 -5.5q1 0 1.5 2t1.5 4q2 19 5 34q2 13 3.5 24.5t1.5 13.5q0 3 1 10.5t1.5 16.5t1.5 16.5t1 10.5q2 10 4 19.5t3 18.5zM163 590q-5 0 -19.5 -0.5t-19.5 -0.5q-12 0 -16 3.5t-4 10.5t5 15q1 1 3.5 8.5t6 16t6.5 16t4 10.5q6 18 12 27t21 9q5 0 9.5 -0.5t9.5 -0.5 q1 0 8 -0.5t15 -1t14.5 -0.5h8.5q11 0 21 0.5t21 0.5q14 0 21 -1.5t7 -11.5q0 -6 -5.5 -12.5t-16.5 -17.5q-18 -17 -29 -28t-25 -27q-8 -9 -13 -13t-13 -4q-2 0 -12 1t-13 1h-7z"/>
<glyph glyph-name="thorn" d="M234 379q-15 0 -23 -13.5t-11.5 -32t-4.5 -39t-1 -34.5q0 -11 0.5 -28t4 -33t11.5 -27t22 -11t24 13q2 3 5 8t5.5 15.5t4 29.5t1.5 49q0 21 -1.5 41t-4.5 31q-3 14 -11 22.5t-21 8.5zM32 428q0 5 -0.5 19t-1 29.5t-1 29t-0.5 19.5q0 5 0.5 17t1 26t1 26.5t0.5 17.5 q0 3 -0.5 10t-0.5 15t-0.5 15.5t-0.5 10.5q0 43 35 43q2 0 11 -1t11 -1q5 -1 9 -1h9q20 0 31.5 0.5t16.5 0.5q5 1 9 1.5t9 0.5q21 0 24.5 -13t3.5 -27q0 -4 -0.5 -13.5t-1.5 -20t-1.5 -20.5t-0.5 -14v-64l1.5 -6t3.5 -2q2 0 4.5 1t4.5 2q5 3 7.5 6t5.5 5q9 7 25.5 11t30.5 4 q10 0 28.5 -3.5t43.5 -17.5q21 -13 33.5 -31t13.5 -19q6 -10 11.5 -26t10 -32t7.5 -29.5t4 -18.5q1 -7 2 -26.5t1.5 -41t0.5 -41.5v-28q0 -16 -1 -32t-4 -31q-2 -7 -5.5 -20.5t-8 -28t-9 -28.5t-8.5 -21q-9 -17 -22.5 -33t-30.5 -29t-38 -20.5t-43 -7.5q-20 0 -37 7 q-3 1 -12.5 5t-13.5 4q-8 0 -9 -8t-1 -24q0 -4 0.5 -17.5t0.5 -18.5q0 -26 -25 -26h-6.5t-6.5 1q-6 0 -17 0.5t-37 0.5q-4 0 -17.5 -0.5t-17.5 -0.5q-13 0 -20 3.5t-10.5 9t-4 11t-0.5 9.5q0 5 0.5 28.5t1 51.5t1 54t0.5 36q0 18 -0.5 36.5t-1.5 37.5q0 11 -0.5 21t-0.5 21 q0 4 0.5 15t1 23.5t1 24t0.5 16.5q0 14 -0.5 28.5t-0.5 29.5v59z" unicode="þ"/>
<glyph glyph-name="dotlessi" horiz-adv-x="229" unicode="ı" d="M158 553q18 0 29 -6t11 -33q0 -5 -0.5 -10.5t-0.5 -11.5q-1 -11 -1.5 -21t-0.5 -21v-17t0.5 -25.5t0.5 -26v-17.5v-15t-0.5 -23t-0.5 -23.5v-15.5q0 -3 0.5 -10.5t0.5 -16.5t0.5 -17t0.5 -11v-39v-19v-29.5v-29.5v-20v-16.5v-24t-0.5 -23.5t-1.5 -14q-2 -9 -9.5 -13 t-33.5 -4q-3 0 -9.5 0.5t-14 0.5t-14.5 0.5t-10 0.5h-15t-15 -1q-4 -1 -7.5 -1h-6.5q-5 0 -14 2t-14 14q-2 5 -2.5 12t-0.5 32q0 3 0.5 12t0.5 18.5t0.5 18.5t0.5 13q0 14 -1 29t-1 29v11t0.5 17.5t0.5 18v11.5v14t0.5 22t0.5 22.5v14.5q0 5 -0.5 17t-0.5 26t-0.5 26.5 t-0.5 17.5v12t0.5 19.5t0.5 20v13.5t-0.5 17.5t-0.5 18.5q0 28 3 36t12 13q3 1 5.5 1.5t8.5 1t16.5 0.5h27.5q3 0 11 0.5t17 0.5t17 0.5t11 0.5z"/>
<glyph glyph-name="OE" horiz-adv-x="708" unicode="Œ" d="M260 548q-3 0 -14.5 -2.5t-22.5 -16.5q-5 -7 -8 -15.5t-4.5 -22.5t-1.5 -35v-51q0 -22 1 -53.5t1.5 -61.5t1.5 -52t1 -23q0 -5 2 -14t6.5 -18.5t14 -16.5t24.5 -7q18 0 28.5 7.5t15 20t5.5 30t1 38.5q0 16 -0.5 36t-0.5 41t-0.5 41.5t-0.5 36.5q0 45 -1 65.5t-3 31.5 q-3 17 -14.5 29t-30.5 12zM259 -8q-41 0 -83.5 9t-77.5 40q-26 22 -37 52t-15 54q-4 19 -7 36.5t-5 40.5t-3 56t-1 83v11.5v14.5t0.5 23t1.5 38q1 47 5.5 88t29.5 85q20 37 69.5 66t127.5 29q1 0 7 -0.5t14 -1t17 -1t15 -0.5q4 0 13.5 -1.5t20.5 -3.5t21 -3.5t14 -1.5 q5 0 14.5 -0.5t21 -1t23.5 -0.5h22h62q5 0 18.5 -0.5t18.5 -0.5q15 0 33.5 1t27.5 2q8 1 13.5 1h10.5q9 0 14 -3t7 -5q1 -1 4 -8.5t3 -18.5q0 -5 -0.5 -9t-0.5 -9q-1 -8 -1.5 -22t-0.5 -45q0 -4 -0.5 -11t-3.5 -13.5t-9 -11.5t-17 -5h-17t-26 -0.5t-26.5 -0.5h-17.5 q-24 0 -38 -1t-21.5 -6.5t-9.5 -16.5t-2 -31q0 -4 0.5 -11.5t3.5 -15t10 -13t19 -5.5q2 0 12 0.5t13 0.5q4 0 16 -0.5t16 -0.5q6 0 12 0.5t13 0.5q5 0 10.5 -0.5t10.5 -0.5q2 0 9 0.5t9 0.5q15 0 21 -11t6 -24v-88q0 -4 -1 -11.5t-4.5 -14.5t-10.5 -12.5t-18 -5.5 q-5 0 -18.5 0.5t-28.5 1.5t-28.5 1.5t-19.5 0.5q-11 0 -24.5 -2t-21.5 -13q-2 -3 -2.5 -9t-1.5 -13.5t-1 -14.5v-10q0 -27 5 -35t11 -11t18.5 -5.5t26.5 -4t26 -2.5t16 -1t18.5 1.5t19.5 1.5q5 1 17 1q8 0 15.5 -1t13.5 -6t9.5 -16.5t3.5 -32.5q0 -3 -0.5 -11.5t-0.5 -18 t-0.5 -18t-0.5 -11.5v-11q0 -9 -2 -19.5t-14 -18.5q-5 -2 -10.5 -3t-31.5 -1h-24t-33.5 0.5t-34 1t-24.5 0.5q-14 1 -28 1.5t-28 0.5q-6 0 -21.5 -0.5t-32 -0.5t-31.5 -0.5t-21 -0.5q-20 -2 -41 -4t-41 -3h-10z"/>
</font>
</defs>
</svg>
