<?xml version="1.0" encoding="UTF-8" standalone="no"?>
<!DOCTYPE svg  PUBLIC '-//W3C//DTD SVG 1.1//EN'  'http://www.w3.org/Graphics/SVG/1.1/DTD/svg11.dtd'>
<svg xmlns="http://www.w3.org/2000/svg">
<defs>
<font id="OdinRounded-Regular" horiz-adv-x="547">
<font-face underline-position="-50" font-weight="400" descent="-200" panose-1="2 15 0 0 0 0 0 0 0 0" units-per-em="1000" unicode-range="U+000D-25CA" bbox="-7 -243 914 944" x-height="466" underline-thickness="50" font-family="OdinRounded" ascent="800" cap-height="700"/>
<missing-glyph horiz-adv-x="1000"/>
<glyph glyph-name="AE" horiz-adv-x="867" unicode="AELIGA" d="M440 249l-105 268l-106 -268h211zM785 100q20 0 35 -15t15 -36t-15 -35t-35 -14h-210q-15 0 -27 10t-19 22l-47 118h-294l-47 -118q-5 -12 -19 -22t-27 -10q-23 0 -37 16t-13 34q0 10 3 18q57 145 120 300t120 300q7 12 20 22t27 10h243q21 0 36 -14t15 -35t-15 -36 t-36 -15h-170l81 -201h176q21 -1 35 -15t15 -34q-1 -20 -15 -34t-35 -15h-137l80 -201h177z"/>
<glyph glyph-name="OE" horiz-adv-x="652" unicode="OELIGA" d="M302 594q-34 -14 -62 -38t-50 -56q-20 -32 -32 -70t-11 -80q-1 -42 11 -80t32 -70t50 -56q28 -24 62 -38v488zM565 100q20 0 35 -15t15 -36t-15 -35t-35 -14h-214q-63 0 -118 28t-97 74q-42 48 -65 112q-24 64 -24 136q0 65 22 128q22 62 62 112q41 50 97 80t126 30h211 q20 0 35 -14t15 -35t-15 -36t-35 -15h-164v-201h131q20 -1 34 -15t15 -34q-1 -20 -15 -34t-34 -15h-131v-201h164z"/>
<glyph glyph-name=".notdef" horiz-adv-x="1000"/>
<glyph glyph-name=".null" horiz-adv-x="0"/>
<glyph glyph-name="nonmarkingreturn" horiz-adv-x="1000" unicode=""/>
<glyph glyph-name="space" horiz-adv-x="268" unicode=" "/>
<glyph glyph-name="exclam" horiz-adv-x="197" unicode="!" d="M99 100q21 0 36 -15t15 -36t-15 -35t-36 -14t-35 14t-14 35t14 36t35 15zM99 700q21 0 36 -14t15 -35v-421q0 -20 -15 -35t-36 -15t-35 15t-14 35v421q0 21 14 35t35 14z"/>
<glyph glyph-name="quotedbl" horiz-adv-x="384" unicode='&quot;' d="M261 512q-8 0 -16 2q-16 6 -25 18t-9 29q0 8 2 16q8 22 16 45t15 45q7 13 20 23t27 11q8 0 16 -2q16 -5 25 -19t9 -28q-1 -6 -7 -28t-25 -78q-7 -14 -21 -24t-27 -10zM98 511q-7 0 -15 2q-17 5 -25 17t-9 30q0 8 2 16q7 22 15 45t16 45q8 12 20 23t26 11q8 0 16 -2 q16 -4 25 -18t9 -29q0 -5 -6 -27t-26 -79q-6 -13 -20 -23t-28 -11z"/>
<glyph glyph-name="numbersign" horiz-adv-x="692" unicode="#" d="M410 280l21 140h-139l-21 -140h139zM531 420l-21 -140h67q21 0 35 -15t14 -35t-14 -35t-35 -15h-83l-20 -137q-4 -19 -18 -31t-31 -12q-22 0 -36 15t-14 35v3q0 4 1 7l18 120h-138l-21 -137q-3 -19 -17 -31t-32 -12q-22 0 -36 15t-14 35v1q0 2 2 10l19 119h-61 q-20 0 -35 15t-15 35t15 35t35 15h75l22 140h-67q-20 0 -35 15t-15 35t15 35t35 15h82l21 137q3 19 17 31t32 12h2l2 -1h5q17 -5 29 -19t12 -29v-3t-2 -13l-18 -115h139l20 137q3 19 17 31t32 12h2l2 -1h5q17 -5 29 -19t12 -29v-3t-2 -11l-17 -117h59q20 0 35 -15t15 -35 t-15 -35t-35 -15h-75z"/>
<glyph glyph-name="dollar" horiz-adv-x="555" unicode="$" d="M308 102q29 7 48 20q18 12 30 28t16 33t5 32q-1 19 -9 35t-22 28t-32 22t-36 18v-216zM201 524q0 -32 14 -52t40 -33v154q-54 -29 -54 -69zM388 393q28 -15 52 -31t41 -36t26 -44q9 -25 9 -58q0 -50 -18 -91t-52 -71q-32 -30 -76 -46t-94 -16q-42 0 -82 15t-73 42t-53 64 t-21 80q1 19 15 33t34 15q18 -1 32 -13t18 -30q7 -34 37 -64t72 -41v233q-154 55 -154 190q-1 36 15 68t44 56t64 38q38 14 82 14q20 0 44 -5t45 -15t35 -26q14 -15 15 -34q1 -23 -15 -36t-35 -13q-9 0 -18 4t-20 10q-9 4 -19 8t-30 9v-178l40 -14t40 -17z"/>
<glyph glyph-name="percent" horiz-adv-x="864" unicode="%" d="M663 242q-29 0 -49 -20t-21 -50q1 -30 21 -50t49 -20t49 20t21 50q-1 30 -21 50t-49 20zM663 3q-35 -1 -66 13t-54 37t-37 53t-13 66q-1 35 13 66t37 54q23 22 54 36t66 14q34 0 65 -14t54 -36q22 -23 36 -54t14 -66q0 -36 -14 -66t-36 -53q-23 -23 -54 -37t-65 -13z M214 601q-30 -1 -50 -21t-20 -49t20 -49t50 -21q30 1 50 21t20 49t-20 49t-50 21zM214 362q-36 0 -66 14t-53 36q-23 24 -37 54t-13 65q-1 35 13 65t37 54q23 22 53 36t66 14t66 -14t53 -36q23 -24 37 -54t13 -65q1 -35 -13 -65t-37 -54q-23 -22 -53 -36t-66 -14zM214 0 q-6 0 -14 2t-16 8q-8 8 -14 18t-5 21q0 17 10 30l448 598q14 20 39 20q16 0 30 -10q19 -16 19 -40q0 -7 -2 -15t-7 -14l-448 -598q-8 -8 -19 -14t-21 -6z"/>
<glyph glyph-name="ampersand" horiz-adv-x="630" unicode="&amp;" d="M373 169l-136 170q-40 -13 -65 -45t-25 -74q0 -25 9 -47q8 -22 24 -38q16 -15 38 -25t45 -10q20 0 37 6t33 19zM322 600q-33 0 -57 -23t-24 -57q0 -28 18 -51l25 -29h37q17 0 31 6t26 18t18 26t6 30v10q-5 30 -27 50t-53 20zM571 81q11 -12 11 -31q0 -11 -4 -21t-14 -18 q-14 -11 -32 -11q-25 0 -38 19l-58 71l-34 -39q-31 -27 -67 -39t-72 -12q-45 0 -84 18t-69 47q-30 30 -46 70q-17 40 -17 85q1 64 35 117t90 83q-14 24 -22 50t-7 50q0 37 14 70q15 34 39 58t56 38t70 14q37 0 70 -14q34 -14 58 -38t38 -58q14 -33 14 -70v-14 q-3 -26 -15 -52t-31 -48q-20 -22 -44 -37q-24 -16 -52 -24l81 -102l66 74q7 9 17 13t19 4q19 0 33 -14q8 -8 12 -18t4 -18q0 -10 -2 -18t-9 -15l-77 -86z"/>
<glyph glyph-name="quotesingle" horiz-adv-x="226" unicode="&apos;" d="M99 512q-7 0 -15 2q-18 6 -26 18t-8 29q0 8 2 16q7 22 15 45t16 45q7 13 20 23t26 11q7 0 17 -2q14 -5 24 -19t10 -28q0 -6 -7 -28t-25 -78q-8 -14 -22 -24t-27 -10z"/>
<glyph glyph-name="parenleft" horiz-adv-x="284" unicode="(" d="M189 700q15 0 24 -6q14 -8 20 -20t6 -23q0 -16 -8 -29q-2 -3 -15 -25q-13 -23 -28 -59t-27 -84t-12 -104q-1 -54 11 -101t26 -83t28 -59t17 -29q8 -13 8 -29q0 -24 -22 -40q-12 -9 -28 -9q-11 0 -23 6t-18 16q-7 10 -23 40t-33 72q-17 43 -30 98t-13 118q0 66 14 124 q13 58 31 102t34 70t20 32q7 10 18 16t23 6z"/>
<glyph glyph-name="parenright" horiz-adv-x="284" unicode=")" d="M99 0q-16 0 -28 9q-10 9 -16 19t-6 21q0 17 12 32q0 5 4 13t9 19q9 19 20 43q12 24 22 54t17 66t7 74q0 56 -12 105t-28 85q-15 36 -28 58t-14 24q-5 6 -7 14t-2 15q0 25 21 40q12 9 29 9q11 0 23 -6t18 -16q7 -11 23 -40t33 -72t30 -98t13 -118q0 -66 -14 -124 q-13 -58 -31 -102t-34 -70t-20 -32q-7 -10 -18 -16t-23 -6z"/>
<glyph glyph-name="asterisk" horiz-adv-x="320" unicode="*" d="M261 558q15 -17 15 -35q0 -20 -15 -35q-13 -14 -35 -14q-21 0 -39 19l-25 23l-24 -23q-19 -19 -39 -19q-22 0 -35 14q-8 7 -12 16t-3 19q-1 9 3 18t12 17l29 30l-29 28v-1q-15 12 -15 35q0 21 15 36q14 14 35 14q19 0 35 -14l28 -29l29 29q14 14 35 14q19 0 35 -14 q15 -18 15 -36q0 -20 -15 -35v1l-30 -28z"/>
<glyph glyph-name="plus" d="M457 399q21 -1 36 -15t15 -34t-15 -34t-36 -15h-130v-131q-1 -20 -15 -35t-35 -15t-35 15t-14 35v131h-131q-20 1 -35 15t-15 34t15 34t35 15h131v131q0 20 14 35t35 15t35 -15t15 -35v-131h130z" unicode="+"/>
<glyph glyph-name="comma" horiz-adv-x="226" unicode="," d="M99 -90q-9 0 -15 3q-18 5 -26 17t-8 30q0 8 2 16q7 22 15 45t16 45q7 12 20 23t26 11q7 0 17 -2q14 -4 24 -18t10 -30q0 -2 -2 -8t-5 -19q-4 -11 -10 -31t-15 -48q-8 -12 -22 -23t-27 -11z"/>
<glyph glyph-name="hyphen" horiz-adv-x="576" unicode="-" d="M487 399q21 -1 35 -15t15 -34q-1 -20 -15 -34t-35 -15h-390q-20 1 -35 15t-15 34t15 34t35 15h390z"/>
<glyph glyph-name="period" horiz-adv-x="197" unicode="." d="M99 100q21 0 36 -15t15 -36t-15 -35t-36 -14t-35 14t-14 35t14 36t35 15z"/>
<glyph glyph-name="slash" horiz-adv-x="313" unicode="/" d="M228 699q18 -3 29 -17t11 -32q0 -6 -1 -10l-120 -600q-3 -18 -17 -29t-31 -11h-5t-5 1q-17 3 -29 17t-11 32q0 6 1 10l121 600q3 18 17 29t31 11q5 0 9 -1z"/>
<glyph glyph-name="zero" horiz-adv-x="546" unicode="0" d="M408 410q0 34 -8 68t-26 61t-42 44t-55 17q-32 0 -56 -17t-41 -44q-18 -27 -26 -61t-8 -68v-120q0 -42 9 -76t27 -60t41 -40q24 -14 54 -14q29 0 53 14t42 40t26 60q10 34 10 76v120zM441 618q66 -83 66 -208v-120q1 -62 -17 -116t-48 -92t-74 -60q-42 -22 -91 -22 q-51 0 -93 22t-72 61t-48 92q-17 53 -17 115v120q0 62 18 115t49 92t73 61t90 22q47 0 89 -22t75 -60z"/>
<glyph glyph-name="one" horiz-adv-x="254" unicode="1" d="M159 0q-20 0 -35 14t-15 35v551q-25 0 -42 15t-17 36t14 35t35 14h61q20 0 34 -14t14 -35v-602q0 -21 -14 -35t-35 -14z"/>
<glyph glyph-name="two" horiz-adv-x="494" unicode="2" d="M98 0q-22 0 -36 15t-14 35q0 2 1 20t7 44t19 60t36 69t59 68t88 59q32 16 51 34t29 34t12 29q3 13 3 20v10q0 21 -8 40t-22 33q-15 14 -33 21q-18 8 -39 8q-43 1 -73 -29t-29 -73q0 -21 -15 -35t-36 -15q-22 1 -36 15t-14 35q0 43 16 79t44 64t64 44q37 16 79 16 q41 0 77 -16t64 -44t44 -64t17 -77v-10q0 -15 -4 -40q-3 -25 -19 -54t-46 -60t-80 -56q-34 -17 -58 -39t-42 -46t-30 -48t-18 -45h247q21 0 35 -15t15 -36q-1 -20 -15 -35t-35 -15h-305z"/>
<glyph glyph-name="three" d="M415 414q43 -32 68 -80t25 -104q0 -48 -18 -90t-50 -72q-32 -32 -73 -50q-42 -18 -90 -18q-47 0 -89 18t-74 50t-49 72q-18 42 -18 90q0 20 15 35t35 15q21 0 35 -15t15 -35q0 -27 10 -51q10 -23 28 -41q17 -18 41 -28t51 -10t51 10t42 28t28 41q10 24 10 51q0 26 -10 50 t-28 41q-18 19 -42 29t-50 10q-22 0 -36 14t-14 36q0 27 16 36t37 14l24 8q11 4 21 12t16 19q6 12 6 31q0 30 -21 50t-50 20h-119q-21 0 -36 15t-15 36t15 35t36 14h119q35 0 66 -14t54 -36q23 -23 37 -54t13 -66q0 -59 -34 -102z" unicode="3"/>
<glyph glyph-name="four" horiz-adv-x="546" unicode="4" d="M179 250h138v221l-17 5zM367 0q-20 0 -35 14t-15 35v101h-220q-14 0 -25 6t-18 18q-5 6 -6 12t-1 14q0 6 2 12t5 11l239 450q16 27 44 27h30q20 0 35 -14t15 -35v-401h40q20 0 35 -15t15 -35t-15 -35t-35 -15h-40v-101q0 -21 -15 -35t-35 -14z"/>
<glyph glyph-name="five" d="M277 460q48 0 90 -18q41 -18 73 -50t50 -73q18 -42 18 -89q0 -48 -18 -90t-50 -72q-32 -32 -73 -50q-42 -18 -90 -18q-47 0 -89 18t-74 50t-49 72q-18 42 -18 90q0 20 15 35t35 15q21 0 35 -15t15 -35q0 -27 10 -51q10 -23 28 -41q17 -18 41 -28t51 -10t51 10t42 28 t28 41q10 24 10 51q0 26 -10 49t-27 41t-39 28t-49 12l-113 -28q-8 -2 -13 -2q-23 0 -35 17t-14 39l30 270q2 20 16 32t33 12h181q20 0 34 -14t15 -35q-1 -21 -15 -36t-34 -15h-136l-17 -155l50 13q10 2 12 2z" unicode="5"/>
<glyph glyph-name="six" d="M277 360q-27 0 -51 -10t-41 -28q-18 -18 -28 -41q-10 -24 -10 -51t10 -51q10 -23 28 -41q17 -18 41 -28t51 -10t51 10t42 28t28 41q10 24 10 51t-10 51q-10 23 -28 41t-42 28t-51 10zM277 0q-47 0 -89 18t-74 50t-49 72q-18 42 -18 90q0 55 23 99l183 344q7 15 19 21 t26 6q21 0 35 -16t14 -33q0 -12 -6 -24l-94 -175q19 6 23 7t7 1q48 0 90 -18q41 -18 73 -50t50 -73q18 -42 18 -89q0 -48 -18 -90t-50 -72q-32 -32 -73 -50q-42 -18 -90 -18z" unicode="6"/>
<glyph glyph-name="seven" horiz-adv-x="488" unicode="7" d="M97 0q-10 0 -21 5q-14 7 -21 19t-7 25q0 11 5 23l264 528h-220q-21 0 -35 15t-14 36t14 35t35 14h301q12 0 23 -5t16 -16q10 -17 10 -29q1 -7 -1 -12l-4 -10l-300 -601q-7 -13 -19 -20t-26 -7z"/>
<glyph glyph-name="eight" d="M277 100q27 0 51 10t42 28t28 41q10 24 10 51t-10 51q-10 23 -28 41t-42 28t-51 10t-51 -10t-41 -28q-18 -18 -28 -41q-10 -24 -10 -51t10 -51q10 -23 28 -41q17 -18 41 -28t51 -10zM207 530q1 -30 21 -50t49 -20t50 20t21 50t-21 50t-50 20t-49 -20t-21 -50zM415 414 q43 -32 68 -80t25 -104q0 -48 -18 -90t-50 -72q-32 -32 -73 -50q-42 -18 -90 -18q-47 0 -89 18t-74 50t-49 72q-18 42 -18 90q-1 57 27 106t73 84q-19 25 -29 53t-11 57q-1 35 13 66t37 54q23 22 54 36t66 14t66 -14t54 -36q23 -23 37 -54t13 -66q0 -59 -34 -102z" unicode="8"/>
<glyph glyph-name="nine" d="M277 340q27 0 51 10t42 28t28 41q10 24 10 51q0 26 -10 50t-28 42t-42 28t-51 10t-51 -10t-41 -28q-18 -18 -28 -42t-10 -50q0 -27 10 -51q10 -23 28 -41q17 -18 41 -28t51 -10zM277 700q48 0 90 -18q41 -18 73 -50t50 -72q18 -42 18 -90q0 -28 -6 -52q-7 -24 -17 -47 l-184 -344q-15 -27 -44 -27q-22 0 -36 15t-14 34q0 12 6 24l97 181q-22 -10 -26 -12t-7 -2q-47 0 -89 18t-74 50t-49 73q-18 42 -18 89q0 48 18 90q17 42 49 72q32 32 74 50t89 18z" unicode="9"/>
<glyph glyph-name="colon" horiz-adv-x="197" unicode=":" d="M99 0q-21 0 -35 15t-14 35t14 35t35 15t36 -15t15 -35t-15 -35t-36 -15zM99 301q-21 1 -35 15t-14 34t14 34t35 15q21 -1 36 -15t15 -34t-15 -34t-36 -15z"/>
<glyph glyph-name="semicolon" horiz-adv-x="226" unicode=";" d="M99 -90q-9 0 -15 3q-18 5 -26 17t-8 30q0 8 2 16q7 22 15 45t16 45q7 12 20 23t26 11q7 0 17 -2q14 -4 24 -18t10 -30q0 -2 -1 -6t-3 -9q-6 -23 -14 -45t-15 -46h1q-6 -14 -19 -24t-30 -10zM99 301q-21 1 -35 15t-14 34t14 34t35 15q21 -1 36 -15t15 -34t-15 -34t-36 -15 z"/>
<glyph glyph-name="less" horiz-adv-x="430" unicode="&lt;" d="M339 91q-20 0 -33 12l-241 210q-9 7 -13 17t-4 21q0 23 17 37l241 211q12 11 33 11q19 0 37 -15q12 -17 12 -34q0 -21 -17 -38v1l-198 -173l198 -173v1q17 -17 17 -38q0 -17 -12 -34q-8 -7 -18 -11t-19 -5z"/>
<glyph glyph-name="equal" horiz-adv-x="576" unicode="=" d="M97 420q-20 0 -35 15t-15 35t15 35t35 15h390q21 0 35 -15t15 -35q-1 -20 -15 -35t-35 -15h-390zM487 280q21 0 35 -15t15 -35q-1 -20 -15 -35t-35 -15h-390q-20 0 -35 15t-15 35t15 35t35 15h390z"/>
<glyph glyph-name="greater" horiz-adv-x="430" unicode="&gt;" d="M98 91q-10 1 -20 5t-17 11q-5 8 -9 17t-4 17q0 21 18 38v-1l197 173l-197 173v-1q-18 16 -18 38q0 8 4 17t9 17q17 15 37 15q19 0 33 -11l240 -211q17 -14 17 -37q0 -11 -4 -21t-13 -17l-240 -210q-15 -12 -33 -12z"/>
<glyph glyph-name="question" horiz-adv-x="488" unicode="?" d="M248 100q20 0 35 -15t15 -36t-15 -35t-35 -14t-35 14t-15 35t15 36t35 15zM248 700q42 0 78 -16t63 -43t43 -63t15 -78q0 -72 -27 -118t-89 -76q-11 -5 -17 -15q-6 -9 -10 -21t-4 -23q-2 -11 -2 -17q0 -20 -15 -35t-35 -15t-35 15t-15 35q0 4 2 24t10 47q8 26 26 52 t50 42q17 9 29 17q11 8 19 20t11 28t3 40q0 21 -8 39q-8 17 -22 31t-31 22q-18 8 -39 8q-22 0 -40 -8t-32 -22t-20 -31q-8 -18 -8 -39q0 -22 -15 -36t-36 -14t-35 14t-14 36q0 42 16 78t42 63q28 27 64 43t78 16z"/>
<glyph glyph-name="at" horiz-adv-x="780" unicode="@" d="M384 244q18 0 36 8t31 22t21 34q8 19 7 42q1 22 -7 41t-21 33t-31 24q-18 8 -36 8q-19 0 -36 -8t-30 -24q-12 -14 -20 -33t-8 -41t8 -41t20 -33q13 -14 30 -24q17 -8 36 -8zM396 700q72 0 136 -28t111 -75t75 -111t28 -136t-22 -120t-48 -76q-26 -30 -49 -42t-25 -13 q-8 -3 -14 -3q-2 0 -10 2q-75 18 -96 63l1 -1l-10 35q-23 -13 -45 -20t-45 -7q-35 0 -65 14t-54 40q-22 24 -36 57t-14 71q0 36 14 70t36 58q24 24 54 40q30 14 65 14q23 0 47 -8t47 -22q7 14 17 22t21 8q17 0 27 -11t10 -27v-288v-7t-2 -8q6 -5 14 -9t19 -8q11 7 26 20 q15 12 29 34t24 52t9 70q0 57 -22 107q-21 49 -59 87t-88 60t-106 21q-58 1 -108 -21t-87 -60t-59 -87q-22 -50 -21 -107q-1 -57 21 -107q22 -49 59 -87t87 -60t108 -21q22 -1 42 3t41 12l-1 -1q10 2 12 2q13 0 23 -8t14 -20q2 -3 2 -11q0 -11 -7 -21t-19 -14 q-56 -17 -107 -17q-72 0 -136 28t-112 74q-48 48 -74 112q-28 64 -28 136t28 136t74 111q48 47 112 75t136 28z"/>
<glyph glyph-name="A" horiz-adv-x="663" unicode="A" d="M442 249l-105 268l-106 -268h211zM623 68q3 -8 3 -19q0 -19 -13 -34t-36 -15q-14 0 -27 10t-20 22l-47 118h-293l-48 -118q-6 -12 -19 -22t-27 -10q-22 0 -36 16t-13 33q0 11 3 19l120 300l120 300q8 12 20 22t27 10t27 -10t19 -22z"/>
<glyph glyph-name="B" d="M358 115q17 11 27 23t15 26q4 14 6 26q2 13 2 25q0 16 -6 36q-6 19 -18 37t-32 30t-52 12h-153v-230h153q2 0 20 2t38 13zM147 429h100q7 0 23 2t34 10q16 7 30 25t14 49q0 29 -9 46t-21 25t-26 12q-13 2 -21 2h-124v-171zM420 393q44 -27 66 -73t22 -105q0 -50 -18 -90 q-18 -39 -48 -67t-66 -43t-69 -15h-210q-20 0 -35 14t-15 35v602q0 21 15 35t35 14h166q5 0 31 -4t58 -19q95 -48 95 -162q1 -31 -7 -59t-23 -48z" unicode="B"/>
<glyph glyph-name="C" horiz-adv-x="628" unicode="C" d="M516 130q12 6 24 6q13 0 25 -6t19 -21q6 -10 6 -22q0 -7 -2 -15q-6 -20 -24 -30q-38 -18 -82 -30t-85 -12q-72 0 -136 28q-63 28 -111 74q-48 48 -76 112t-27 136q-1 72 27 136t76 111t111 75q64 28 136 28q41 0 85 -12t82 -30q18 -10 24 -30q3 -8 2 -15q0 -11 -6 -22 q-7 -15 -19 -21t-25 -6q-5 0 -12 2t-12 4q-26 14 -57 22t-62 8q-51 0 -97 -20t-79 -53q-34 -33 -54 -79t-20 -98t20 -98t54 -79q33 -33 79 -53t97 -20q33 0 63 7t56 23z"/>
<glyph glyph-name="D" horiz-adv-x="605" unicode="D" d="M147 100h124q1 0 11 1t23 5t31 10t36 17q46 30 70 85t25 132q1 78 -25 134t-74 86q-17 10 -34 16t-31 9t-23 4l-9 1h-124v-500zM96 0q-20 0 -34 14t-15 35v602q1 21 15 35t34 14h175q1 0 23 -2t56 -10q33 -10 71 -31q39 -21 71 -60t54 -99t21 -148q1 -88 -21 -148 t-54 -99t-71 -60q-38 -21 -71 -31q-34 -10 -56 -10q-22 -2 -23 -2h-175z"/>
<glyph glyph-name="E" horiz-adv-x="518" unicode="E" d="M428 100q20 0 35 -15t15 -36t-15 -35t-35 -14h-330q-22 0 -36 14t-14 35v602q0 21 14 35t36 14h330q20 0 35 -14t15 -35t-15 -36t-35 -15h-280v-201h220q20 -1 34 -15t15 -34q-1 -20 -15 -34t-34 -15h-220v-201h280z"/>
<glyph glyph-name="F" d="M457 700q21 0 36 -14t15 -35t-15 -36t-36 -15h-310v-201h250q20 -1 35 -15t15 -34t-15 -34t-35 -15h-250v-252q-1 -21 -15 -35t-35 -14q-20 0 -35 14t-15 35v602q0 21 15 35t35 14h360z" unicode="F"/>
<glyph glyph-name="G" horiz-adv-x="694" unicode="G" d="M396 0q-68 0 -132 26t-116 76q-50 50 -76 114t-26 134t26 134t76 113q50 51 114 77t134 26t134 -26t114 -77q8 -7 11 -16t3 -18q0 -22 -15 -36q-14 -14 -35 -14t-35 14q-35 35 -81 54t-96 19q-51 0 -96 -19t-81 -54q-35 -35 -55 -81t-19 -96q-1 -50 19 -96t55 -81 q37 -37 83 -55t94 -19q44 0 86 15t77 45v142h-161q-20 1 -35 15t-15 34t15 34t35 15h210q20 -1 35 -15t15 -34v-212q0 -10 -4 -20t-11 -16q-51 -50 -115 -76t-132 -26z"/>
<glyph glyph-name="H" horiz-adv-x="576" unicode="H" d="M487 700q21 0 35 -14t15 -35v-602q-1 -21 -15 -35t-35 -14q-20 0 -35 14t-15 35v252h-290v-252q0 -21 -15 -35t-35 -14t-35 14t-15 35v602q0 21 15 35t35 14t35 -14t15 -35v-252h290v252q0 21 15 35t35 14z"/>
<glyph glyph-name="I" horiz-adv-x="196" unicode="I" d="M99 0q-21 0 -35 14t-14 35v602q0 21 14 35t35 14q20 0 35 -14t15 -35v-602q0 -21 -15 -35t-35 -14z"/>
<glyph glyph-name="J" horiz-adv-x="343" unicode="J" d="M98 0q-20 0 -34 14t-15 35q1 21 15 36t34 15q34 0 54 14t30 32t14 33q3 16 3 21v451q0 21 15 35t35 14t35 -14t15 -35v-451q-1 -2 -1 -11t-2 -23t-8 -30q-5 -16 -14 -34q-25 -50 -70 -76t-106 -26z"/>
<glyph glyph-name="K" horiz-adv-x="546" unicode="K" d="M494 83q5 -7 9 -16t4 -18q0 -21 -15 -35t-35 -14q-9 0 -19 4t-18 12l-273 300v-267q-1 -21 -15 -35t-35 -14q-20 0 -35 14t-15 35v602q0 21 15 35t35 14q21 0 35 -14t15 -35v-267l273 300q8 8 18 12t19 4q21 0 35 -14t15 -35q0 -19 -13 -34l-244 -267z"/>
<glyph glyph-name="L" horiz-adv-x="460" unicode="L" d="M99 0q-21 0 -36 14t-15 35v602q0 21 15 35t36 14t35 -14t14 -35v-551h220q21 0 36 -15t15 -36t-15 -35t-36 -14h-269z"/>
<glyph glyph-name="M" horiz-adv-x="722" unicode="M" d="M636 0q-20 0 -34 14t-15 35v452l-181 -241q-15 -20 -40 -20t-40 20l-180 241v-452q0 -21 -15 -35t-35 -14t-35 14t-15 35v602q0 21 14 35t37 14q24 0 39 -20l230 -307l231 307q14 20 39 20q22 0 36 -14t14 -35v-602q0 -21 -14 -35t-36 -14z"/>
<glyph glyph-name="N" horiz-adv-x="605" unicode="N" d="M517 0q-25 0 -41 22l-329 471v-444q0 -21 -15 -35t-36 -14q-20 0 -34 14t-15 35v602q0 19 14 34t36 15q25 0 41 -22l329 -471v444q0 21 15 35t35 14t35 -14t15 -35v-602q0 -21 -15 -35t-35 -14z"/>
<glyph glyph-name="O" horiz-adv-x="751" unicode="O" d="M381 600q-49 0 -91 -20t-75 -53t-51 -79t-18 -98t18 -98t51 -79t75 -53t91 -20t91 20t75 53t51 79t18 98t-18 98t-51 79t-75 53t-91 20zM381 0q-69 0 -130 28t-107 74q-46 48 -72 112t-26 136t26 136t72 111t107 75t130 28t130 -28t107 -75t72 -111t26 -136t-26 -136 t-72 -112t-107 -74q-61 -28 -130 -28z"/>
<glyph glyph-name="P" horiz-adv-x="532" unicode="P" d="M147 340h114q79 0 113 59q6 13 10 25t5 22q3 10 3 16v8q0 82 -63 114q-13 6 -25 9t-21 5q-11 2 -22 2h-114v-260zM97 0q-21 0 -35 14t-14 35v602q0 21 14 35t35 14h164q3 0 13 -1t26 -4t34 -9q20 -6 40 -14q54 -30 86 -82t32 -120v-12t-4 -26q-2 -16 -8 -36 q-6 -19 -16 -38q-30 -58 -82 -88t-121 -30h-114v-191q-1 -21 -15 -35t-35 -14z"/>
<glyph glyph-name="Q" horiz-adv-x="751" unicode="Q" d="M381 100q62 0 121 34l-54 64q-12 17 -12 33q0 22 18 37q15 12 32 12q22 0 38 -18l48 -59q44 70 44 147q0 52 -18 98t-51 79t-75 53t-91 20t-91 -20t-75 -53t-51 -79t-18 -98t18 -98t51 -79t75 -53t91 -20zM674 82q12 -17 12 -32q0 -23 -18 -39q-14 -11 -32 -11 q-23 0 -38 19v-2l-33 41q-43 -28 -89 -43t-95 -15q-69 0 -130 28t-107 74q-46 48 -72 112t-26 136t26 136t72 111t107 75t130 28t130 -28t107 -75t72 -111t26 -136q0 -60 -21 -118t-57 -106z"/>
<glyph glyph-name="R" horiz-adv-x="532" unicode="R" d="M147 340h114q79 0 113 59q6 13 10 25t5 22q3 10 3 16v8q0 82 -63 114q-13 6 -25 9t-21 5q-11 2 -22 2h-114v-260zM485 76h-1q8 -14 8 -27q0 -11 -6 -23t-18 -19q-10 -7 -25 -7q-28 0 -43 23l-136 217h-117v-191q-1 -21 -15 -35t-35 -14t-35 14t-14 35v602q0 21 14 35 t35 14h164q3 0 13 -1t26 -4t34 -9q20 -6 40 -14q54 -30 86 -82t32 -120v-12t-4 -26q-2 -16 -8 -36q-6 -19 -16 -38q-15 -31 -39 -55t-56 -41z"/>
<glyph glyph-name="S" horiz-adv-x="520" unicode="S" d="M271 428q7 -2 25 -8t40 -18t47 -28q24 -16 45 -37t35 -48t17 -59v-11q0 -41 -16 -81t-46 -69q-32 -31 -76 -49t-92 -18h-8q-64 2 -114 35t-76 89q-4 8 -4 21q0 15 7 27t21 18q9 5 21 5q14 1 27 -7t19 -22q14 -30 41 -48t62 -18h5q59 0 95 36q35 35 35 81v4q-2 21 -18 39 q-15 18 -37 32t-46 26q-24 10 -38 15q-1 0 -3 1t-4 1q-149 54 -149 187v8q2 38 18 70t48 55q26 21 61 33t73 11h10q29 -1 60 -13t57 -30q8 -8 14 -18t6 -21q0 -19 -11 -30q-15 -20 -40 -20q-7 1 -15 3t-15 7q-12 9 -28 15t-32 7h-7q-43 -1 -71 -21t-29 -52v-4q0 -22 7 -37 t19 -25q11 -10 27 -18t32 -15z"/>
<glyph glyph-name="T" d="M457 700q21 0 36 -14t15 -35t-15 -36t-36 -15h-130v-551q-1 -21 -15 -35t-35 -14t-35 14t-14 35v551h-131q-20 0 -35 15t-15 36t15 35t35 14h360z" unicode="T"/>
<glyph glyph-name="U" horiz-adv-x="575" unicode="U" d="M292 0q-75 0 -130 34t-86 100q-10 22 -16 44t-9 39t-3 29t-1 14v391q0 21 15 35t35 14q21 0 35 -14t14 -35v-391q0 -4 2 -18t6 -30q5 -18 15 -38t26 -36t40 -28q24 -10 57 -10q48 0 76 22t44 48q15 28 20 54t5 36v391q0 21 15 35t35 14q21 0 35 -14t14 -35v-391v-14 t-4 -29q-2 -17 -8 -39t-16 -44q-31 -66 -86 -100t-130 -34z"/>
<glyph glyph-name="V" horiz-adv-x="663" unicode="V" d="M337 0q-15 0 -27 10t-20 22l-240 600q-3 7 -3 18q-1 18 13 34t36 16q15 0 28 -8t18 -24l195 -485l193 485q6 16 19 24t28 8q23 0 36 -16t13 -33q0 -12 -3 -19q-57 -145 -120 -300t-120 -300q-7 -12 -19 -22t-27 -10z"/>
<glyph glyph-name="W" horiz-adv-x="945" unicode="W" d="M883 696q15 -6 23 -19t8 -27q0 -12 -3 -19l-251 -600q-5 -15 -18 -23t-27 -8q-34 0 -47 31l-88 213l-90 -213q-6 -15 -18 -23t-27 -8t-28 8t-18 23l-251 600q-3 7 -3 19q-1 18 13 34t37 16q15 0 27 -8t18 -23l205 -490l80 195l-107 257q-4 10 -4 20q0 19 14 34t37 15 q34 0 45 -31l70 -167l69 167q5 15 18 23t27 8q23 0 37 -16t14 -34q0 -12 -3 -19l-109 -257l82 -195l204 490q5 15 17 23t28 8q9 0 19 -4z"/>
<glyph glyph-name="X" horiz-adv-x="605" unicode="X" d="M558 78v1q9 -14 9 -30q0 -19 -15 -34t-35 -15q-25 0 -41 22l-170 240l-168 -240q-16 -22 -42 -22q-20 0 -34 15t-15 34q0 17 9 29l190 272l-190 272q-9 12 -9 25q0 21 13 37t36 16q26 0 42 -22l168 -241l170 241q16 22 41 22q20 0 35 -15t15 -34q0 -17 -9 -29l-190 -272z "/>
<glyph glyph-name="Y" horiz-adv-x="605" unicode="Y" d="M545 691q22 -16 22 -40q0 -17 -9 -29l-201 -287v-286q0 -21 -15 -35t-36 -14q-20 0 -34 14t-15 35v286l-201 287q-9 12 -9 25q0 21 13 37t36 16q26 0 42 -22l168 -241l170 241q16 22 41 22q16 0 28 -9z"/>
<glyph glyph-name="Z" d="M97 0q-20 0 -35 15t-15 35q0 7 1 13t6 11l316 526h-273q-20 0 -35 15t-15 35t15 35t35 15h360q20 0 35 -14t15 -35q0 -15 -8 -26l-315 -525h273q21 0 36 -15t15 -36t-15 -35t-36 -14h-360z" unicode="Z"/>
<glyph glyph-name="bracketleft" horiz-adv-x="314" unicode="[" d="M220 700q20 0 34 -15t15 -35q-1 -20 -15 -35t-34 -15h-71v-500h71q20 0 34 -15t15 -36q-1 -21 -15 -35t-34 -14h-120q-21 0 -36 14t-15 35v602q0 21 15 35t36 14h120z"/>
<glyph glyph-name="backslash" horiz-adv-x="313" unicode="\" d="M89 699q4 1 10 1q17 0 31 -11t17 -29l120 -600q1 -4 1 -10q0 -18 -11 -32t-29 -17q-4 -1 -9 -1q-17 0 -31 11t-17 29l-121 600q-1 4 -1 10q-1 18 11 32t29 17z"/>
<glyph glyph-name="bracketright" horiz-adv-x="314" unicode="]" d="M99 0q-20 0 -35 14t-15 35t15 36t35 15h71v500h-71q-20 0 -35 15t-15 35t15 35t35 15h120q21 0 35 -14t15 -35v-602q-1 -21 -15 -35t-35 -14h-120z"/>
<glyph glyph-name="asciicircum" horiz-adv-x="451" unicode="^" d="M66 462q-18 18 -18 38q0 19 13 33v-1l131 150q15 18 37 18q23 0 37 -18l131 -150q7 -8 9 -16t3 -17q0 -22 -16 -37q-7 -6 -15 -8t-18 -3q-9 0 -19 4t-18 13l-93 106l-95 -107q-15 -16 -37 -16q-20 0 -32 11z"/>
<glyph glyph-name="underscore" horiz-adv-x="576" unicode="_" d="M487 -21q21 -1 35 -15t15 -34q-1 -20 -15 -34t-35 -15h-390q-20 1 -35 15t-15 34t15 34t35 15h390z"/>
<glyph glyph-name="grave" horiz-adv-x="313" unicode="`" d="M196 546l-119 59q-14 7 -21 19t-7 26q0 11 5 23q8 13 20 20t26 7q6 0 11 -2t10 -3q31 -15 61 -31t60 -30h-1q15 -7 21 -19t6 -25q0 -11 -5 -23q-6 -11 -18 -19t-26 -8q-11 0 -23 6z"/>
<glyph glyph-name="a" horiz-adv-x="488" unicode="a" d="M346 189q-14 1 -32 2t-34 1q-22 0 -46 -2t-42 -7q-20 -5 -32 -13t-13 -22q-1 -26 19 -36t43 -10q16 0 27 2t15 2q2 1 4 1q32 7 52 23t29 32zM451 50q0 -20 -15 -35t-35 -15q-15 0 -29 10t-21 27q-32 -17 -68 -27t-74 -9q-63 0 -103 30t-55 86q-4 15 -4 32q0 43 25 74 q16 21 39 35t49 22t56 10q29 3 58 3q16 0 38 -1t36 -2q-4 20 -11 38t-17 23q-26 14 -57 14t-61 -12t-47 -26q-7 -7 -15 -9t-17 -2q-22 0 -39 17q-11 14 -11 33q0 24 18 38q29 26 65 40t78 20q8 1 14 1h13q27 1 56 -7t52 -19q28 -17 44 -43q17 -26 25 -50t10 -43t2 -23v-163z "/>
<glyph glyph-name="b" horiz-adv-x="517" unicode="b" d="M264 101q24 0 46 10t36 28q16 18 26 42t9 51q1 28 -9 52t-26 42t-36 28q-22 10 -46 11q-24 -1 -46 -11t-36 -28q-16 -18 -25 -42t-9 -52q0 -27 9 -51t25 -42t36 -28q22 -10 46 -10zM264 466q44 0 84 -18t70 -51t46 -75q17 -42 17 -90t-17 -90q-16 -42 -46 -74t-70 -50 t-84 -18q-30 0 -60 10t-57 26q-9 -16 -23 -26t-27 -10q-20 0 -35 15t-15 35v608q0 20 15 35t35 15q21 0 36 -15t15 -35v-229q30 17 60 27t56 10z"/>
<glyph glyph-name="c" horiz-adv-x="422" unicode="c" d="M265 0q-45 0 -85 18t-68 50q-30 32 -47 74t-17 90t17 90t47 75t68 51q40 18 85 18q25 0 47 -6t43 -15q28 -14 28 -45q0 -10 -5 -22q-6 -14 -18 -22t-27 -7q-9 0 -22 5q-22 11 -46 11q-24 -1 -45 -11q-20 -10 -36 -28t-26 -42t-9 -52q-1 -27 9 -51t26 -42t36 -28 q21 -10 45 -10q26 0 46 10q5 3 11 4t10 1q14 0 27 -8t19 -21l4 -10t1 -11q0 -14 -7 -27t-21 -19q-43 -20 -90 -20z"/>
<glyph glyph-name="d" d="M147 232q1 -27 11 -51t28 -42t42 -28t51 -10q28 0 52 10t42 28t28 42t10 51q0 28 -10 52t-28 42t-42 28t-52 11q-27 -1 -51 -11t-42 -28t-28 -42t-11 -52zM46 232q0 48 18 90t50 75t74 51t91 18q31 0 65 -11t67 -31v234q0 20 15 35t35 15q21 0 36 -15t15 -35v-608 q0 -20 -15 -35t-36 -15q-15 0 -29 12t-22 29q-32 -19 -66 -30t-65 -11q-49 0 -91 18t-74 50t-50 74t-18 90z" unicode="d"/>
<glyph glyph-name="e" horiz-adv-x="488" unicode="e" d="M343 294q-15 34 -35 51t-56 17t-56 -18t-38 -50h185zM264 0q-13 0 -17 1q-46 2 -85 21t-65 52q-50 64 -50 159q0 49 16 91q15 42 43 74t64 50t79 18q85 0 145 -66q28 -31 42 -71t15 -85q0 -21 -15 -36t-35 -15h-251q6 -16 14 -32t20 -29q12 -14 28 -22t39 -9h6q13 1 33 3 t43 17q16 8 29 8q14 0 26 -7t20 -21q5 -4 5 -21q0 -26 -24 -44q-35 -24 -69 -30t-56 -6z"/>
<glyph glyph-name="f" horiz-adv-x="401" unicode="f" d="M310 466q22 0 36 -15t15 -36q-1 -21 -15 -35t-36 -15h-70v-315q0 -20 -15 -35t-35 -15q-22 0 -36 15t-15 35v315h-41q-20 1 -35 15t-15 35t15 36t35 15h41v70q0 6 3 30t17 53q21 45 61 67t90 22q22 0 36 -15t15 -35q-1 -21 -15 -36t-36 -15q-28 1 -41 -9q-13 -9 -18 -21 q-7 -12 -9 -24t-2 -17v-70h70z"/>
<glyph glyph-name="g" horiz-adv-x="517" unicode="g" d="M264 101q24 0 46 10t36 28q16 18 26 42t9 52q1 27 -9 51t-26 42t-36 28q-22 10 -46 11q-24 -1 -46 -11t-36 -28q-16 -18 -25 -42t-9 -51q0 -28 9 -52t25 -42t36 -28q22 -10 46 -10zM481 -10q0 -42 -14 -82t-40 -73q-31 -33 -75 -55t-89 -23h-13q-50 5 -94 31t-72 70h1 q-8 16 -8 27q0 13 6 25t17 18q11 8 28 8q14 0 24 -6t18 -16q15 -24 38 -39t48 -17h7q51 0 87 41q31 39 31 91v45q-31 -15 -60 -25t-57 -10q-44 0 -84 18t-70 50t-46 74q-17 42 -17 91t17 91q16 42 46 74t70 50t84 18q59 0 118 -37q8 17 22 27t27 10q20 0 35 -15t15 -35v-426 z"/>
<glyph glyph-name="h" horiz-adv-x="488" unicode="h" d="M423 364q9 -18 15 -35t9 -31t3 -24t1 -12v-212q0 -20 -15 -35t-36 -15q-20 0 -35 15t-15 35v212q0 2 -2 19t-15 37q-29 47 -103 47h-83v-315q0 -20 -15 -35t-35 -15t-35 15t-15 35v608q0 20 15 35t35 15t35 -15t15 -35v-192h83q66 0 116 -26t77 -76z"/>
<glyph glyph-name="i" horiz-adv-x="197" unicode="i" d="M151 627q0 -21 -15 -36t-36 -15q-20 0 -35 15t-15 36q0 20 15 35t35 15q21 0 36 -15t15 -35zM100 0q-20 0 -35 15t-15 35v365q0 21 15 36t35 15q21 0 36 -15t15 -36v-365q0 -20 -15 -35t-36 -15z"/>
<glyph glyph-name="j" horiz-adv-x="314" unicode="j" d="M99 -182q-20 0 -35 15t-15 35q0 21 15 36t35 15q29 0 42 10t19 22q4 7 6 14t3 12l2 12v426q0 21 15 36t35 15q21 0 36 -15t15 -36v-425q0 -6 -3 -30t-18 -54q-21 -44 -60 -66t-92 -22zM272 627q0 -21 -15 -36t-35 -15q-21 0 -36 15t-15 36q0 20 15 35t36 15q20 0 35 -15 t15 -35z"/>
<glyph glyph-name="k" horiz-adv-x="459" unicode="k" d="M407 86q8 -8 11 -16t3 -20q0 -21 -14 -35q-15 -15 -36 -15q-22 0 -35 15l-188 187v-152q0 -20 -15 -35t-36 -15q-20 0 -35 15t-15 35v608q0 20 15 35t35 15q21 0 36 -15t15 -35v-394l188 187q14 14 35 14q19 0 36 -14q14 -16 14 -36t-14 -36l-147 -147z"/>
<glyph glyph-name="l" horiz-adv-x="197" unicode="l" d="M100 708q21 0 36 -15t15 -35v-608q0 -20 -15 -35t-36 -15q-20 0 -35 15t-15 35v608q0 20 15 35t35 15z"/>
<glyph glyph-name="m" horiz-adv-x="623" unicode="m" d="M429 466q45 0 75.5 -18t49.5 -44.5t27.5 -58t8.5 -58.5v-237q0 -20 -15 -35t-36 -15q-20 0 -35 15t-15 35v237q0 6 -2 19t-9 27q-8 17 -18.5 24.5t-30.5 7.5t-31 -7.5t-19 -24.5q-6 -14 -8 -27t-2 -19v-237q0 -20 -15 -35t-37 -15q-20 0 -35 15t-15 35v237q0 6 -2 19 t-8 27q-8 17 -19 24.5t-31 7.5q-35 0 -50 -32q-6 -14 -8 -27t-2 -19v-237q0 -20 -15 -35t-36 -15q-20 0 -35 15t-15 35v365q0 21 15 36t35 15q9 0 19 -5t18 -12q18 8 36 12.5t38 4.5q34 0 61.5 -12t48.5 -32q23 20 50 32t62 12z"/>
<glyph glyph-name="n" horiz-adv-x="488" unicode="n" d="M401 466q20 0 35 -15t15 -36v-365q0 -16 -9 -29t-24 -18q-8 -3 -18 -3t-20 6t-17 12l-215 258v-226q0 -20 -15 -35t-36 -15q-20 0 -35 15t-15 35v365q1 16 9 29t23 19q4 3 9 3h10q10 0 20 -6t18 -12l215 -257v224q0 21 15 36t35 15z"/>
<glyph glyph-name="o" d="M279 101q28 0 52 10t42 28t28 42t10 51q0 28 -10 52t-28 42t-42 28t-52 11q-27 -1 -51 -11t-42 -28t-28 -42t-11 -52q1 -27 11 -51t28 -42t42 -28t51 -10zM279 466q49 0 91 -18t74 -51t50 -75t18 -90t-18 -90t-50 -74t-74 -50t-91 -18t-91 18t-74 50t-50 74t-18 90t18 90 t50 75t74 51t91 18z" unicode="o"/>
<glyph glyph-name="p" d="M279 365q-27 -1 -51 -11t-42 -28t-28 -42t-11 -51q1 -28 11 -52t28 -42t42 -28t51 -10q28 0 52 10t42 28t28 42t10 52q0 27 -10 51t-28 42t-42 28t-52 11zM96 -243q-20 0 -35 15t-15 35v609q0 20 15 35t35 15q16 0 30 -12t21 -28q31 20 65 30t67 10q49 0 91 -18t74 -50 t50 -74t18 -91t-18 -91t-50 -74t-74 -50t-91 -18q-31 0 -65 11t-67 31v-235q-1 -20 -15 -35t-36 -15z" unicode="p"/>
<glyph glyph-name="q" d="M411 233q0 27 -10 51t-28 42t-42 28t-52 11q-27 -1 -51 -11t-42 -28t-28 -42t-11 -51q1 -28 11 -52t28 -42t42 -28t51 -10q28 0 52 10t42 28t28 42t10 52zM512 -193q0 -20 -15 -35t-36 -15q-20 0 -35 15t-15 35v235q-33 -20 -67 -31t-65 -11q-49 0 -91 18t-74 50t-50 74 t-18 91t18 91t50 74t74 50t91 18q31 0 65 -11t66 -30q8 17 22 29t29 12q21 0 36 -15t15 -35v-609z" unicode="q"/>
<glyph glyph-name="r" horiz-adv-x="313" unicode="r" d="M221 466q20 0 35 -15t15 -36t-15 -35t-35 -15q-17 0 -37 -5t-29 -19q-2 -4 -4 -10q-1 -3 -1 -5v-276q0 -20 -15 -35t-36 -15q-20 0 -35 15t-15 35v365q0 21 15 36t35 15q9 0 19 -4t18 -12q19 8 40 12t45 4z"/>
<glyph glyph-name="s" horiz-adv-x="430" unicode="s" d="M294 286q30 -14 48 -29t28 -30t16 -29q4 -14 5 -27v-11q1 -28 -9 -54t-30 -48q-28 -28 -64 -43t-80 -15q-49 0 -90 22t-63 61q-7 16 -7 26q0 13 6 25t19 18q14 7 25 7q12 -1 24 -7t19 -19q11 -18 31 -25t36 -7q23 0 41 6t29 19h-1q14 14 14 38q-3 6 -13 13t-22 15 q-14 8 -29 14t-29 9l-2 1q-22 6 -45 16t-42 28q-19 16 -31 40t-12 56q0 28 12 52t35 42t53 28t65 10q23 0 48 -8t45 -20q12 -6 18 -18t6 -24q0 -8 -2 -14t-7 -13h1q-14 -23 -42 -23q-12 0 -27 7q-9 5 -20 8t-20 3q-17 0 -29 -4t-20 -9t-12 -10t-3 -7q0 -4 1 -9t6 -11t16 -12 t31 -13q8 -2 29 -8t44 -17z"/>
<glyph glyph-name="t" horiz-adv-x="430" unicode="t" d="M341 466q20 0 35 -15t15 -36t-15 -35t-35 -15h-72v-315q-1 -20 -15 -35t-35 -15q-20 0 -35 15t-15 35v315h-71q-20 1 -35 15t-15 35t15 36t35 15h71v192q0 20 15 35t35 15q21 0 35 -15t15 -35v-192h72z"/>
<glyph glyph-name="u" horiz-adv-x="453" unicode="u" d="M365 466q20 0 35 -15t15 -36v-237q0 -4 -3 -30t-19 -56q-23 -44 -65 -68t-96 -24q-56 0 -98 24t-64 68q-17 30 -20 56t-3 30v237q0 21 15 36t35 15q21 0 36 -15t15 -36v-237q0 -2 2 -16t10 -28q8 -11 22 -22t50 -11q34 0 49 11t22 22q8 14 10 28t2 16v237q0 21 15 36 t35 15z"/>
<glyph glyph-name="v" horiz-adv-x="529" unicode="v" d="M465 460q14 -6 21 -18t7 -27q1 -7 -1 -12l-4 -10l-173 -365q-5 -12 -17 -20t-27 -8t-27 8t-19 20l-173 365l-4 10t-1 12q0 15 7 27t21 18q10 6 22 6q15 0 27 -8t18 -22l129 -268l127 268q8 12 20 21t25 9q11 0 22 -6z"/>
<glyph glyph-name="w" horiz-adv-x="688" unicode="w" d="M624 463q16 -5 24 -19t9 -29q0 -9 -2 -17l-128 -365q-5 -13 -18 -23t-30 -10q-16 0 -29 10t-19 23l-80 229q-9 -24 -19 -54l-20 -60t-22 -60q-10 -30 -19 -55q-5 -13 -19 -23t-29 -10q-17 0 -30 10t-18 23l-128 365q-2 8 -2 17q1 16 9 29t24 19q8 2 18 2q16 -1 29 -9 t18 -24l80 -228l79 228q5 17 18 25t29 9h4q14 -2 27 -12t19 -22l80 -228l80 228q5 16 19 24t28 9q9 0 18 -4v2z"/>
<glyph glyph-name="x" horiz-adv-x="459" unicode="x" d="M411 84q10 -15 10 -31q0 -24 -20 -39q-14 -11 -30 -11q-11 -1 -21 5t-19 16l-95 127l-98 -131q-8 -8 -19 -14t-22 -6q-7 0 -15 2t-15 8q-8 8 -14 18t-6 22q0 8 3 16t8 14l114 154l-114 155q-11 11 -11 29q0 11 6 22t14 18q7 5 15 8t15 3q26 0 41 -20l98 -131q20 28 47 63 t48 64q7 8 18 14t22 6q17 0 30 -10q20 -15 20 -39q0 -15 -10 -32l-112 -150z"/>
<glyph glyph-name="y" horiz-adv-x="529" unicode="y" d="M316 30l-8 -12l-104 -232q-8 -12 -20 -20t-26 -9q-5 0 -11 1t-11 3q-14 7 -21 19t-7 27q0 13 4 21l101 224l-161 341l-4 10t-1 12q0 15 7 27t21 18q10 6 22 6q15 0 27 -8t18 -22l129 -268l127 268q8 12 20 21t25 9q11 0 22 -6q14 -6 21 -18t7 -27q1 -7 -1 -12l-4 -10z "/>
<glyph glyph-name="z" horiz-adv-x="488" unicode="z" d="M401 101q20 0 35 -15t15 -36q0 -20 -15 -35t-35 -15h-304q-14 0 -27 8t-19 21q-4 8 -4 22q0 18 11 32l235 282h-196q-20 1 -35 15t-15 35t15 36t35 15h304q15 0 27 -9t19 -21q2 -5 3 -10t1 -10q0 -18 -11 -34l-235 -281h196z"/>
<glyph glyph-name="braceleft" horiz-adv-x="401" unicode="{" d="M308 100q22 0 36 -15t14 -36t-14 -35t-36 -14h-60q-21 0 -35 14q-3 4 -14 18t-25 40q-16 35 -26 75t-10 83q0 6 -6 16t-14 20l-22 22t-25 21l-15 14q-7 10 -7 27q0 12 5 24t16 18q6 5 13 10q6 5 13 10t13 12q19 19 24 31t5 15q0 43 10 83t26 75q14 26 25 40t14 18 q14 14 35 14h60q22 0 36 -14t14 -35t-14 -36t-36 -15h-36q-10 -18 -22 -50t-12 -80q0 -33 -19 -64t-43 -56q24 -25 43 -56t19 -64q0 -48 12 -80t22 -50h36z"/>
<glyph glyph-name="bar" horiz-adv-x="196" unicode="|" d="M99 -61q-21 0 -35 15t-14 35v773q0 20 14 34t35 15q20 -1 35 -15t15 -34v-773q0 -20 -15 -35t-35 -15z"/>
<glyph glyph-name="braceright" horiz-adv-x="401" unicode="}" d="M98 600q-20 0 -34 15t-15 36q1 21 15 35t34 14h61q19 0 35 -14l3 -4h-1q6 -6 16 -20t21 -34q17 -35 26 -75t9 -83q0 -4 6 -14t14 -21q10 -11 22 -23t26 -21q0 -2 6 -7t8 -7q4 -5 6 -13t2 -14q0 -10 -6 -22t-13 -19q-5 -2 -17 -11t-24 -22q-18 -18 -24 -30t-6 -16 q0 -43 -9 -83t-26 -75q-11 -20 -21 -34t-16 -21h1l-5 -7l2 4q-16 -14 -35 -14h-61q-20 0 -34 14t-15 35q1 21 15 36t34 15h35q11 18 23 51t13 79q0 33 19 64t43 56q-24 25 -43 56t-19 64q-1 46 -13 79t-23 51h-35zM191 692l1 -3q-1 1 -1 3z"/>
<glyph glyph-name="asciitilde" horiz-adv-x="401" unicode="~" d="M248 570q-17 0 -32 6t-27 12q-11 4 -21 8t-24 4q-8 -14 -20 -22t-26 -8q-20 0 -34 15t-15 35q0 10 5 24t17 26q11 12 33 22q22 8 55 8q17 0 31 -5t26 -11q10 -6 20 -10t27 -4q8 14 20 22t26 8q21 0 35 -14t14 -35q0 -45 -32 -63t-78 -18z"/>
<glyph glyph-name="exclamdown" horiz-adv-x="197" unicode="¡" d="M100 600q-20 0 -35 15t-15 36t15 35t35 14t35 -14t15 -35t-15 -36t-35 -15zM100 0q-20 0 -35 14t-15 35v421q0 20 15 35t35 15t35 -15t15 -35v-421q0 -21 -15 -35t-35 -14z"/>
<glyph glyph-name="sterling" horiz-adv-x="544" unicode="£" d="M485 152q20 -15 20 -40q0 -7 -3 -16t-8 -15q-3 -4 -13 -15q-9 -12 -25 -24t-36 -24t-44 -15q-14 -3 -29 -3q-23 0 -51 9t-55 38q-11 9 -17 11t-12 2q-11 0 -23 -4t-23 -12q-11 -7 -20 -14t-14 -13q-13 -14 -35 -14t-35 13q-15 16 -15 36q0 21 14 35l3 4q4 3 13 11t22 17 t30 18t38 16v150h-40q-20 0 -35 14t-15 35q0 20 15 34t35 15h40v130q0 5 3 29t17 52q21 44 59 66t90 22h59q20 0 35 -14t15 -35q0 -20 -15 -35t-35 -15h-59q-29 0 -42 -10t-19 -23q-7 -15 -8 -25q-1 -6 -1 -12v-130h100q20 -1 34 -15t15 -34q-1 -21 -15 -35t-34 -14h-100 v-154q29 -13 45 -32q11 -11 21 -15t15 -3q1 1 3 1h4q12 2 22 8t18 12q8 7 14 13t8 9q15 20 39 20q7 0 15 -2t15 -8z"/>
<glyph glyph-name="currency" horiz-adv-x="567" unicode="¤" d="M217 279q29 -29 70 -29q44 0 71 29q15 15 22 33t7 38t-7 38t-22 33q-28 30 -71 30q-9 -1 -21 -5t-22 -10t-18 -10t-9 -5q-30 -30 -30 -71t30 -71zM514 576q14 -16 14 -36q0 -19 -14 -35l-55 -54q29 -52 29 -101t-29 -101l55 -54q14 -17 14 -36q0 -21 -14 -35 q-15 -15 -35 -15q-22 0 -35 15l-54 53q-26 -13 -52 -20t-51 -7q-26 0 -51 7t-51 20l-53 -53q-15 -15 -35 -15q-22 0 -35 15q-15 12 -15 35q0 21 15 36l54 54q-14 25 -22 51t-7 50q-1 25 7 50t22 51l-54 54q-15 14 -15 35q0 22 15 36q13 15 35 15q18 0 35 -15l53 -53 q26 13 51 20t51 7q25 0 51 -7t52 -20l54 53q13 15 35 15q20 0 35 -15z"/>
<glyph glyph-name="yen" horiz-adv-x="605" unicode="¥" d="M545 691q22 -16 22 -40q0 -17 -9 -29l-176 -252h75q21 0 35 -15t15 -35q-1 -22 -15 -36t-35 -14h-100v-51h100q21 -1 35 -15t15 -34q-1 -20 -15 -35t-35 -15h-100v-71q0 -21 -15 -35t-36 -14q-20 0 -34 14t-15 35v71h-100q-21 0 -35 15t-15 35q1 20 15 34t35 15h100v51 h-100q-21 0 -35 14t-15 36q1 20 15 35t35 15h75l-176 252v-1q-9 13 -9 30q0 11 6 21t16 19q11 8 27 8q12 0 23 -5t19 -16l168 -241l170 241q16 22 41 22q16 0 28 -9z"/>
<glyph glyph-name="brokenbar" horiz-adv-x="196" unicode="¦" d="M99 390q-21 0 -35 15t-14 35v262q0 20 14 34t35 15q20 -1 35 -15t15 -34v-262q0 -20 -15 -35t-35 -15zM99 -60q-21 0 -35 15t-14 35v269q0 21 14 36t35 15q20 0 35 -15t15 -36v-269q0 -20 -15 -35t-35 -15z"/>
<glyph glyph-name="section" horiz-adv-x="361" unicode="§" d="M184 413q-12 0 -24 -5t-24 -14q-10 -10 -16 -22t-7 -27q5 -26 25 -42t46 -16q14 -1 26 5t22 15t16 21t6 27q-6 26 -25 42t-45 16zM263 235q23 -15 39 -39t15 -62q-1 -28 -11 -52t-28 -43t-42 -29t-52 -10q-24 0 -46 8t-39 20q-17 14 -29 33t-17 41q-2 6 -2 8v4q0 11 6 19 t15 10q5 2 7 2h4q10 0 19 -7t11 -18q5 -26 25 -42t46 -15q30 0 50 21t21 50q0 10 -2 19q-3 9 -11 18t-24 19t-45 18q-1 0 -4 1h-1q-16 5 -36 14t-38 24t-32 38q-13 23 -13 56t18 63t48 53q-26 19 -46 45t-20 63q1 29 11 53t28 42t44 30q24 10 52 10q48 0 84 -28t45 -74 q2 -6 2 -8v-4q1 -11 -5 -19t-15 -10q-5 -2 -7 -2h-4q-12 0 -20 7t-10 18q-6 26 -25 42t-45 15q-30 1 -51 -21t-21 -51q0 -9 2 -18t12 -18q8 -9 24 -18t46 -19q2 0 3 -1t3 -1q15 -5 35 -14q19 -9 37 -24q18 -16 30 -38t13 -55q0 -33 -14 -61t-40 -47v-16z"/>
<glyph glyph-name="dieresis" horiz-adv-x="360" unicode="¨" d="M316 591q0 -21 -14 -36t-35 -15t-35 15t-14 36t14 35t35 14t35 -14t14 -35zM149 591q0 -21 -15 -36t-35 -15q-21 0 -35 15t-15 36q1 21 15 35t35 14q20 0 35 -14t15 -35z"/>
<glyph glyph-name="copyright" horiz-adv-x="780" unicode="©" d="M573 173q35 35 55 81t19 96q1 50 -19 96t-55 81q-36 35 -81 54t-96 19q-50 0 -96 -19t-81 -54q-37 -37 -55 -83t-18 -94q0 -49 18 -95t55 -82q35 -35 81 -54t96 -19q51 0 96 19t81 54zM644 597q50 -49 76 -113t26 -134q0 -72 -26 -134t-76 -114q-50 -50 -114 -76 t-134 -26t-134 26t-113 76q-51 52 -77 116t-26 132t26 132t76 115t114 77t134 26t134 -26t114 -77zM476 435q-19 19 -41 27t-45 9q-24 -1 -46 -9t-40 -26q-36 -35 -36 -86q0 -52 35 -85q19 -19 41 -27t46 -9q23 1 45 9t41 27q4 4 12 4q2 0 6 -1t6 -2q5 -8 5 -15q0 -6 -4 -12 q-48 -45 -111 -45q-32 0 -60 11t-51 34q-22 23 -34 51t-12 60t12 60t34 51q23 23 51 34t60 11q30 0 59 -11t52 -34q4 -5 4 -13q0 -5 -4 -13q-5 -5 -13 -5q-7 0 -12 5z"/>
<glyph glyph-name="guillemotleft" horiz-adv-x="602" unicode="«" d="M480 565q18 15 35 15q19 0 34 -15q7 -8 11 -17t4 -18q0 -10 -4 -19t-11 -16l-145 -145l145 -145q7 -8 11 -17t4 -18q0 -23 -15 -35q-15 -15 -35 -15q-17 0 -34 15l-181 180q-14 14 -14 34t14 36zM242 565q15 15 35 15q17 0 34 -15q8 -8 11 -17t3 -18q0 -22 -14 -35 l-146 -145l146 -145q8 -8 11 -17t3 -18q0 -22 -14 -35q-17 -15 -34 -15q-20 0 -35 15l-181 180q-14 14 -14 35q0 19 14 35z"/>
<glyph glyph-name="registered" horiz-adv-x="780" unicode="®" d="M573 173q35 35 54 81t19 96t-19 96t-54 81q-36 35 -81 54t-96 19q-50 0 -96 -19t-81 -54q-37 -37 -55 -83t-18 -94q0 -49 18 -95t55 -82q35 -35 81 -54t96 -19q51 0 96 19t81 54zM644 597q50 -49 76 -113t26 -134q0 -71 -26 -134t-76 -113q-50 -51 -114 -77t-134 -26 t-134 26t-113 76q-51 52 -77 116t-26 132t26 132t76 115t114 77t134 26t134 -26t114 -77zM489 406q0 -63 -50 -89l-18 -8l65 -88q3 -5 3 -10q0 -9 -7 -14q-3 -3 -10 -3q-8 0 -13 7l-84 111q-3 4 -3 11q0 4 1 6q6 11 16 11q5 0 10 1t11 3l12 4q32 16 32 58q0 40 -30 56 q-14 6 -24 8t-11 1h-52v-260q0 -7 -5 -12t-12 -5q-8 0 -13 5t-5 12v278q0 7 5 12t13 5h69q3 0 17 -2t32 -10q26 -12 38 -35t13 -53z"/>
<glyph glyph-name="degree" horiz-adv-x="428" unicode="°" d="M217 601q-29 -1 -49 -21t-21 -49q1 -29 21 -49t49 -21q29 1 49 21t21 49q-1 29 -21 49t-49 21zM217 362q-35 0 -65 14t-54 36q-22 24 -36 54t-14 65t14 65t36 54q24 22 54 36t65 14t65 -14t54 -36q22 -24 36 -54t14 -65t-14 -65t-36 -54q-24 -22 -54 -36t-65 -14z"/>
<glyph glyph-name="plusminus" horiz-adv-x="488" unicode="±" d="M97 301q-21 1 -35 15t-14 34t14 34t35 15h101v101q0 20 15 35t35 15t34 -15t15 -35v-101h101q20 -1 34 -15t15 -34q-1 -20 -15 -34t-34 -15h-101v-101q-1 -20 -15 -35t-34 -15t-35 15t-15 35v101h-101zM398 100q20 0 34 -15t15 -36q-1 -21 -15 -35t-34 -14h-301 q-21 0 -35 14t-14 35t14 36t35 15h301z"/>
<glyph glyph-name="twosuperior" horiz-adv-x="313" unicode="²" d="M74 325q-12 0 -21 11q-4 6 -4 14v6q1 2 7 17t20 35q12 20 31 44q19 22 45 39q38 24 52 39t15 37q0 25 -18 42t-42 17q-26 0 -43 -17t-17 -42q1 -9 -7 -17t-18 -8q-11 0 -18 8t-7 17q1 22 9 42q8 21 23 35t35 22t43 9q22 -1 42 -9t35 -22q16 -14 24 -35q8 -20 8 -42 q0 -23 -8 -40t-20 -31t-28 -24q-16 -12 -32 -23h1q-19 -13 -36 -32t-31 -42h130q10 1 17 -7t7 -18t-7 -18t-17 -7h-170z"/>
<glyph glyph-name="threesuperior" horiz-adv-x="323" unicode="³" d="M243 509q16 -15 26 -35t10 -43q0 -22 -9 -41q-9 -20 -25 -34t-37 -22t-45 -9q-23 1 -44 9t-37 22t-24 34q-9 19 -9 41q0 11 7 18t18 7q10 0 18 -7t7 -18q0 -24 19 -40t45 -16q28 0 47 16t19 40q0 25 -19 41t-47 17q-10 0 -17 7t-7 18q0 10 7 17t17 7q21 0 35 13t15 30 q-1 17 -15 29t-35 13q-20 -1 -34 -13t-14 -29q0 -11 -7 -18t-18 -7q-10 0 -17 7t-7 18q0 19 8 35t20 30q14 12 32 19t37 7q43 0 71 -26t28 -65q0 -34 -21 -58z"/>
<glyph glyph-name="acute" horiz-adv-x="313" unicode="´" d="M99 540q-14 0 -26 8t-19 19q-5 12 -5 23q0 13 7 25t21 19h-1l120 61q6 1 11 3t11 2q14 0 26 -7t19 -20q5 -12 5 -23q0 -14 -6 -26t-21 -19l-120 -59q-11 -6 -22 -6z"/>
<glyph glyph-name="mu" horiz-adv-x="454" unicode="µ" d="M365 465q21 0 36 -15t15 -35v-237q0 -5 -3 -31t-20 -56q-23 -45 -65 -68t-96 -23q-41 0 -84 15v-87q0 -20 -15 -35t-35 -15q-21 0 -36 15t-15 35v487q0 20 15 35t36 15q20 0 35 -15t15 -35v-237q0 -2 2 -16t11 -28q7 -10 23 -22t48 -12q18 0 30 4t20 8q8 6 14 12 q5 6 9 12q7 15 9 28t1 14v237q0 20 15 35t35 15z"/>
<glyph glyph-name="paragraph" horiz-adv-x="486" unicode="¶" d="M345 411v189h-108v-200h98zM396 698q20 0 34 -14t15 -35v-600q-1 -21 -15 -35t-34 -14q-21 0 -36 14t-15 35v253h-48v-251q-1 -20 -15 -35t-34 -15t-35 15t-15 35v257q-32 10 -60 28t-47 44t-31 56t-12 64q0 41 16 77t43 63q27 26 63 42t78 16h148z"/>
<glyph glyph-name="onesuperior" horiz-adv-x="181" unicode="¹" d="M109 325q-11 -1 -18 7t-7 18v275q-14 1 -24 8t-10 18q0 10 7 17t18 7h34q9 0 17 -7t8 -17v-301q0 -10 -8 -18t-17 -7z"/>
<glyph glyph-name="guillemotright" horiz-adv-x="602" unicode="»" d="M312 385q14 -16 14 -36t-14 -34l-182 -180q-15 -15 -34 -15q-18 0 -35 15q-14 13 -14 35q0 9 3 18t11 17l146 145l-146 145q-14 13 -14 35q0 9 3 18t11 17q17 15 34 15q11 0 19 -4t16 -11zM549 385q15 -15 15 -35q0 -22 -15 -35l-180 -180q-15 -15 -35 -15q-17 0 -34 15 q-14 13 -14 35q0 9 3 18t11 17l145 145l-145 145q-14 13 -14 35q0 9 3 18t11 17q17 15 34 15q20 0 35 -15z"/>
<glyph glyph-name="onequarter" horiz-adv-x="642" unicode="¼" d="M605 57q0 -11 -7.5 -18t-17.5 -7t-17.5 7t-7.5 18v126h-125q-11 0 -18 7.5t-7 17.5v118q0 11 7 18t18 7t18 -7t7 -18v-93h100v93q0 11 7.5 18t17.5 7t17.5 -7t7.5 -18v-269zM70 626q-10 1 -16.5 7.5t-6.5 17.5q0 10 7 17t17 7h33q11 0 18 -7t7 -17v-301q0 -10 -7 -17.5 t-18 -7.5q-10 0 -17 7.5t-7 17.5v266zM519 693q11 -7 17 -18.5t6 -23.5q0 -17 -8 -28l-392 -600q-13 -23 -41 -23q-13 0 -27 8v-1q-11 7 -16.5 18.5t-5.5 23.5q0 14 8 28h-1l391 600q8 11 19 17t23 6q13 0 27 -8v1z"/>
<glyph glyph-name="onehalf" horiz-adv-x="673" unicode="½" d="M70 626q-9 1 -16 7.5t-7 17.5q0 10 7 17t17 7h33q11 0 18.5 -7t7.5 -17v-301q0 -10 -7.5 -17.5t-18.5 -7.5q-10 0 -17.5 7.5t-7.5 17.5v266zM549 149q-19 -11 -36.5 -32t-32.5 -43h132q10 0 17 -7t7 -18q0 -10 -7 -17t-17 -7h-169q-6 0 -12 3t-9 8q-5 5 -5 14v6l3 5 q3 6 10 21.5t19.5 34t30.5 38.5t42 36h-1q39 24 52.5 39.5t13.5 37.5q0 23 -17 40t-43 17t-42.5 -17t-16.5 -40q0 -11 -7.5 -18t-17.5 -7q-11 0 -18 7t-7 18q0 22 8.5 41.5t23.5 34t35 23t42 8.5t42 -8.5t35 -23t23.5 -34t8.5 -41.5q0 -23 -7.5 -40.5t-20 -31.5t-28.5 -26 q-15 -10 -31 -21zM520 693q11 -7 16.5 -18.5t5.5 -23.5q0 -15 -9 -28h1l-392 -600q-13 -23 -40 -23q-12 0 -28 8v-1q-11 7 -16.5 18.5t-5.5 23.5q0 16 8 27l390 601q7 11 18.5 17t24.5 6t27 -8v1z"/>
<glyph glyph-name="threequarters" horiz-adv-x="704" unicode="¾" d="M668 49q0 -10 -7 -17t-18 -7q-10 0 -17 7t-7 17v128h-126q-9 0 -17 7t-8 18v118q0 11 8 18t17 7t17 -7t8 -18v-94h101v94q0 11 7 18t17 7q11 0 18 -7t7 -18v-271zM276 434q0 -22 -9 -41t-25 -33t-36 -24q-21 -8 -44 -8q-24 0 -45 8t-37 24q-16 14 -25 33t-9 41q0 11 8 18 t17 7t17 -7t8 -18q0 -24 19 -40t47 -16q26 0 45 16t19 40q0 22 -19 40t-45 18q-11 0 -18 7t-7 18q0 10 7 17t18 7q20 0 34 13t14 30q0 18 -14 30t-34 12q-22 0 -36 -12t-14 -30q0 -11 -7 -18t-18 -7q-10 0 -17 7t-7 18q1 38 29 64t70 27q20 0 38 -7q18 -8 30 -20 q14 -12 22 -28t7 -36q0 -35 -27 -65q20 -18 32 -40t12 -45zM580 693q11 -7 16 -19t5 -23q0 -14 -8 -28h1l-390 -600v1q-17 -24 -42 -24q-14 0 -28 8v-1q-11 7 -17 19t-6 23q0 16 8 27l391 601q6 11 18 17t25 6q11 0 27 -8v1z"/>
<glyph glyph-name="questiondown" horiz-adv-x="500" unicode="¿" d="M257 600q-20 0 -35 15t-15 36t15 35t35 14q21 0 35 -14t14 -35t-14 -36t-35 -15zM254 0q-42 0 -80 16t-66 45q-28 27 -44 65t-16 80q0 35 12 67t32 58q22 25 50 45t61 30v35q0 21 15 35t36 14q20 0 34 -14t15 -35v-79q-1 -20 -15 -35t-34 -15q-23 0 -42 -8 q-20 -8 -34 -24q-14 -14 -22 -33t-8 -41t8 -41t24 -33q14 -14 33 -24q19 -8 41 -8q26 0 44 8t29 22t18 30t12 34q7 23 17 42t36 19q20 -1 35 -15t15 -34q0 -42 -16 -80t-45 -65q-27 -29 -65 -45t-80 -16z"/>
<glyph glyph-name="Agrave" horiz-adv-x="663" unicode="À" d="M442 249l-105 268l-106 -268h211zM623 68q3 -8 3 -19q0 -19 -13 -34t-36 -15q-14 0 -27 10t-20 22l-47 118h-293l-48 -118q-6 -12 -19 -22t-27 -10q-22 0 -36 16t-13 33q0 11 3 19l120 300l120 300q8 12 20 22t27 10t27 -10t19 -22zM397 746q-11 0 -23 5l-120 60 q-14 7 -20 19t-7 26q0 11 5 23q5 11 18 19t28 7q13 0 21 -4q30 -15 60 -31t60 -30h-1q14 -7 21 -19t7 -25q0 -11 -5 -23q-7 -11 -19 -19t-25 -8z"/>
<glyph glyph-name="Aacute" horiz-adv-x="663" unicode="Á" d="M230 249h212l-106 268zM290 668q8 12 20 22t26 10t27 -10t20 -22l240 -600q3 -8 3 -19q0 -17 -14 -33t-35 -16q-14 0 -27 10t-20 22l-47 118h-293l-48 -118q-6 -12 -19 -22t-27 -10q-23 0 -36 15t-13 34q0 11 3 19zM276 746q-14 0 -26 8t-18 19q-5 12 -5 23q0 13 7 25 t21 19h-1l120 61q5 1 10 3t12 2q14 0 26 -7t19 -20q5 -12 5 -23q0 -13 -8 -26t-19 -19l-120 -60q-12 -5 -23 -5z"/>
<glyph glyph-name="Acircumflex" horiz-adv-x="663" unicode="Â" d="M336 906q12 0 24 -5l119 -61h-1q12 -6 20 -18t8 -25q0 -11 -5 -24q-14 -27 -45 -27q-10 0 -22 5l-98 49l-97 -49q-10 -5 -23 -5q-14 0 -26 8t-18 19q-5 13 -5 24q0 13 7 25t21 18h-1l119 61q5 1 11 3t12 2zM230 249h212l-106 268zM290 668q8 12 20 22t26 10t27 -10 t20 -22l240 -600q3 -8 3 -19q0 -17 -14 -33t-35 -16q-14 0 -27 10t-20 22l-47 118h-293l-48 -118q-6 -12 -19 -22t-27 -10q-23 0 -36 15t-13 34q0 11 3 19z"/>
<glyph glyph-name="Atilde" horiz-adv-x="663" unicode="Ã" d="M442 249l-105 268l-106 -268h211zM623 68q3 -8 3 -19q0 -19 -13 -34t-36 -15q-14 0 -27 10t-20 22l-47 118h-293l-48 -118q-6 -12 -19 -22t-27 -10q-22 0 -36 16t-13 33q0 11 3 19l120 300l120 300q8 12 20 22t27 10t27 -10t19 -22zM381 776q-17 0 -32 6t-28 12 q-11 4 -21 8t-23 4q-8 -14 -20 -22t-26 -8q-20 0 -35 15t-15 35q0 10 5 24q6 14 18 26t34 22q22 8 54 8q17 0 31 -5t26 -12q11 -5 21 -9t26 -4q8 14 20 22t26 8q20 0 34 -15t15 -35q1 -44 -31 -62t-79 -18z"/>
<glyph glyph-name="Adieresis" horiz-adv-x="663" unicode="Ä" d="M230 249h212l-106 268zM290 668q8 12 20 22t26 10t27 -10t20 -22l240 -600q3 -8 3 -19q0 -17 -14 -33t-35 -16q-14 0 -27 10t-20 22l-47 118h-293l-48 -118q-6 -12 -19 -22t-27 -10q-23 0 -36 15t-13 34q0 11 3 19zM470 856q0 -20 -15 -35t-35 -15t-34 15t-15 35 q1 20 15 35t34 15t35 -15t15 -35zM302 856q0 -20 -15 -35t-35 -15t-35 15t-15 35t15 35t35 15t35 -15t15 -35z"/>
<glyph glyph-name="Aring" horiz-adv-x="663" unicode="Å" d="M442 249l-105 268l-106 -268h211zM336 844q-30 0 -50 -20t-20 -50q0 -29 20 -50t50 -21t50 21t21 50q-1 30 -21 50t-50 20zM623 68q3 -8 3 -19q0 -19 -13 -34t-36 -15q-14 0 -27 10t-20 22l-47 118h-293l-48 -118q-6 -12 -19 -22t-27 -10q-22 0 -36 16t-13 33q0 11 3 19 l219 550q-47 23 -75 64t-28 92q0 35 14 66t36 54q23 22 54 36t66 14t66 -14t54 -36q22 -23 36 -54t14 -66q0 -51 -28 -92t-75 -64z"/>
<glyph glyph-name="Egrave" d="M457 100q21 0 36 -15t15 -36t-15 -35t-36 -14h-360q-20 0 -35 14t-15 35v602q0 21 15 35t35 14h360q21 0 36 -14t15 -35t-15 -36t-36 -15h-310v-201h250q20 -1 35 -15t15 -34t-15 -34t-35 -15h-250v-201h310zM338 746q-11 0 -23 5l-120 60q-15 7 -21 19t-6 26q0 11 5 23 q5 11 18 19t27 8q10 0 22 -5q30 -15 60 -31t60 -30h-1q14 -7 21 -19t7 -25q0 -11 -5 -23q-6 -11 -18 -19t-26 -8z" unicode="È"/>
<glyph glyph-name="Eacute" d="M457 100q21 0 36 -15t15 -36t-15 -35t-36 -14h-360q-20 0 -35 14t-15 35v602q0 21 15 35t35 14h360q21 0 36 -14t15 -35t-15 -36t-36 -15h-310v-201h250q20 -1 35 -15t15 -34t-15 -34t-35 -15h-250v-201h310zM217 746q-14 0 -26 8t-18 19q-5 12 -5 23q0 13 7 25t21 19h-1 l120 61q5 1 10 3t12 2q15 0 27 -7t18 -20q5 -12 5 -23q1 -13 -7 -26t-20 -19l-120 -60q-12 -5 -23 -5z" unicode="É"/>
<glyph glyph-name="Ecircumflex" d="M457 100q21 0 36 -15t15 -36t-15 -35t-36 -14h-360q-20 0 -35 14t-15 35v602q0 21 15 35t35 14h360q21 0 36 -14t15 -35t-15 -36t-36 -15h-310v-201h250q20 -1 35 -15t15 -34t-15 -34t-35 -15h-250v-201h310zM277 906q5 0 12 -2t12 -3l119 -61h-1q14 -6 21 -18t7 -25 q0 -11 -5 -24q-14 -27 -45 -27q-10 0 -22 5l-98 49l-97 -49q-10 -5 -22 -5q-14 0 -26 8t-19 19q-5 13 -5 24q0 13 7 25t21 18h-1l119 61q12 5 23 5z" unicode="Ê"/>
<glyph glyph-name="Edieresis" d="M457 100q21 0 36 -15t15 -36t-15 -35t-36 -14h-360q-20 0 -35 14t-15 35v602q0 21 15 35t35 14h360q21 0 36 -14t15 -35t-15 -36t-36 -15h-310v-201h250q20 -1 35 -15t15 -34t-15 -34t-35 -15h-250v-201h310zM411 856q0 -20 -15 -35t-35 -15q-21 0 -35 15t-14 35t14 35 t35 15q20 0 35 -15t15 -35zM243 856q-1 -20 -15 -35t-34 -15q-21 0 -36 15t-15 35t15 35t36 15q20 0 34 -15t15 -35z" unicode="Ë"/>
<glyph glyph-name="Igrave" horiz-adv-x="203" unicode="Ì" d="M104 0q-21 0 -36 14.5t-15 34.5v602q0 20 15 34.5t36 14.5q20 0 34.5 -14.5t14.5 -34.5v-602q0 -20 -14.5 -34.5t-34.5 -14.5zM163 746q-10 0 -22 5l-121 60q-13 6 -20 18.5t-7 26.5q0 12 6 23q6 14 18 20.5t26 6.5q10 0 22 -5q31 -15 61 -30.5t60 -30.5q11 -7 19 -19 t8 -24t-6 -24t-18 -19.5t-26 -7.5z"/>
<glyph glyph-name="Iacute" horiz-adv-x="203" unicode="Í" d="M104 0q-21 0 -36 14.5t-15 34.5v602q0 20 15 34.5t36 14.5q20 0 34.5 -14.5t14.5 -34.5v-602q0 -20 -14.5 -34.5t-34.5 -14.5zM43 746q-14 0 -26 7.5t-18 19.5q-6 10 -6 23t7 25t21 19h-1l121 61q5 2 10 3.5t11 1.5q14 0 26.5 -7t18.5 -20q6 -11 6 -24t-7 -25t-21 -19 l-120 -60q-12 -5 -22 -5z"/>
<glyph glyph-name="Icircumflex" horiz-adv-x="320" unicode="Î" d="M162 0q-20 0 -34 14t-15 35v602q1 21 15 35t34 14t35 -14t15 -35v-602q0 -21 -15 -35t-35 -14zM162 906q11 0 23 -5q30 -15 60 -31t60 -30q11 -6 19 -19t8 -26q0 -7 -2 -12q-2 -4 -3 -9q-7 -14 -19 -21t-25 -7q-11 0 -23 5l-98 49l-97 -49q-13 -5 -23 -5q-31 0 -44 27 q-5 12 -5 23q0 28 27 44h-1l121 61q12 5 22 5z"/>
<glyph glyph-name="Idieresis" horiz-adv-x="250" unicode="Ï" d="M127 0q-20 0 -35 14t-15 35v602q0 21 15 35t35 14q21 0 35 -14t14 -35v-602q0 -21 -14 -35t-35 -14zM261 856q0 -20 -15 -35t-35 -15q-21 0 -35 15t-15 35q1 20 15 35t35 15q20 0 35 -15t15 -35zM93 856q0 -20 -15 -35t-36 -15q-20 0 -34 15t-15 35q1 20 15 35t34 15 q21 0 36 -15t15 -35z"/>
<glyph glyph-name="Eth" horiz-adv-x="722" unicode="Ð" d="M491 133q96 61 96 217q0 159 -99 220q-18 11 -35 17t-31 9q-14 4 -22 4h-9h-126v-201h71q20 -1 35 -15t15 -34t-15 -34t-35 -15h-71v-201h126h10t23 4t32 10t36 19h-1zM540 655q25 -15 51 -39t47 -62q20 -37 34 -87t14 -117t-14 -117t-34 -87q-21 -38 -47 -62t-51 -39 q-26 -17 -52 -26t-46 -13t-34 -5t-17 -1h-175q-20 0 -34 14t-15 35v252h-71q-20 1 -35 15t-15 34t15 34t35 15h71v252q1 21 15 35t34 14h175q3 0 17 -1t34 -5t46 -14t52 -25z"/>
<glyph glyph-name="Ntilde" horiz-adv-x="605" unicode="Ñ" d="M517 0q-25 0 -41 22l-329 471v-444q0 -21 -15 -35t-36 -14q-20 0 -34 14t-15 35v602q0 19 14 34t36 15q25 0 41 -22l329 -471v444q0 21 15 35t35 14t35 -14t15 -35v-602q0 -21 -15 -35t-35 -14zM352 776q-16 0 -32 6t-28 12q-11 4 -21 8t-23 4q-8 -14 -20 -22t-27 -8 q-21 0 -35 15t-14 35q0 10 5 24t17 26t34 22q21 8 54 8q17 0 31 -5t27 -12q10 -5 20 -9t26 -4q8 14 20 22t26 8q20 0 35 -15t15 -35q0 -44 -32 -62t-78 -18z"/>
<glyph glyph-name="Ograve" horiz-adv-x="751" unicode="Ò" d="M298 811q-11 6 -19 19t-8 27q0 11 6 22q6 15 18 21t27 6q10 0 22 -5l120 -61h-1q13 -7 21 -19t7 -25q1 -7 -1 -12t-4 -11q-7 -11 -19 -19t-26 -8q-10 0 -22 5zM146 350q0 -52 18 -98t51 -79q32 -33 75 -53t92 -20q48 0 91 20t75 53t50 79t18 98t-18 98t-50 79t-75 53 t-91 20q-49 0 -92 -20t-75 -53q-33 -33 -51 -79t-18 -98zM382 0q-68 0 -130 28t-108 74q-46 48 -72 112t-26 136t26 136t72 111t108 75t130 28q69 0 130 -28t106 -75q46 -47 72 -111t26 -136t-26 -136t-72 -112q-45 -48 -106 -74q-61 -28 -130 -28z"/>
<glyph glyph-name="Oacute" horiz-adv-x="751" unicode="Ó" d="M322 746q-14 0 -26 8t-18 19q-6 10 -6 23t8 25t20 19h-1l120 61q12 5 22 5q32 0 46 -27q1 -5 3 -10t2 -12q0 -14 -8 -27t-19 -19l-121 -60q-12 -5 -22 -5zM381 600q-49 0 -91 -20t-75 -53t-51 -79t-18 -98t18 -98t51 -79t75 -53t91 -20t91 20t75 53t51 79t18 98t-18 98 t-51 79t-75 53t-91 20zM381 0q-69 0 -130 28t-107 74q-46 48 -72 112t-26 136t26 136t72 111t107 75t130 28t130 -28t107 -75t72 -111t26 -136t-26 -136t-72 -112t-107 -74q-61 -28 -130 -28z"/>
<glyph glyph-name="Ocircumflex" horiz-adv-x="751" unicode="Ô" d="M381 906q13 0 23 -5l120 -61h-1q13 -6 20 -18t7 -25q0 -11 -5 -24q-6 -13 -18 -20t-26 -7q-10 0 -23 5l-97 49l-97 -49q-10 -5 -23 -5q-14 0 -26 8t-18 19q-5 13 -5 24q0 13 7 25t20 18h-1l120 61q10 5 23 5zM146 350q0 -52 18 -98t51 -79q32 -33 75 -53t92 -20 q48 0 91 20t75 53t50 79t18 98t-18 98t-50 79t-75 53t-91 20q-49 0 -92 -20t-75 -53q-33 -33 -51 -79t-18 -98zM382 0q-68 0 -130 28t-108 74q-46 48 -72 112t-26 136t26 136t72 111t108 75t130 28q69 0 130 -28t106 -75q46 -47 72 -111t26 -136t-26 -136t-72 -112 q-45 -48 -106 -74q-61 -28 -130 -28z"/>
<glyph glyph-name="Otilde" horiz-adv-x="751" unicode="Õ" d="M426 776q-17 0 -32 6t-28 12q-11 4 -21 8t-23 4q-8 -14 -20 -22t-26 -8q-20 0 -35 15t-15 35q0 10 5 24t17 26t34 22q21 8 54 8q17 0 31 -5t27 -12q10 -5 20 -9t26 -4q8 14 20 22t27 8q21 0 35 -15t14 -35q0 -44 -32 -62t-78 -18zM146 350q0 -52 18 -98t51 -79 q32 -33 75 -53t92 -20q48 0 91 20t75 53t50 79t18 98t-18 98t-50 79t-75 53t-91 20q-49 0 -92 -20t-75 -53q-33 -33 -51 -79t-18 -98zM382 0q-68 0 -130 28t-108 74q-46 48 -72 112t-26 136t26 136t72 111t108 75t130 28q69 0 130 -28t106 -75q46 -47 72 -111t26 -136 t-26 -136t-72 -112q-45 -48 -106 -74q-61 -28 -130 -28z"/>
<glyph glyph-name="Odieresis" horiz-adv-x="751" unicode="Ö" d="M515 856q-1 -20 -15 -35t-34 -15t-34 15t-15 35q1 20 15 35t34 15t34 -15t15 -35zM348 856q0 -20 -15 -35t-35 -15q-22 0 -36 15t-14 35t14 35t36 15q20 0 35 -15t15 -35zM381 600q-49 0 -91 -20t-75 -53t-51 -79t-18 -98t18 -98t51 -79t75 -53t91 -20t91 20t75 53t51 79 t18 98t-18 98t-51 79t-75 53t-91 20zM381 0q-69 0 -130 28t-107 74q-46 48 -72 112t-26 136t26 136t72 111t107 75t130 28t130 -28t107 -75t72 -111t26 -136t-26 -136t-72 -112t-107 -74q-61 -28 -130 -28z"/>
<glyph glyph-name="multiply" horiz-adv-x="402" unicode="×" d="M345 279q14 -16 14 -35q0 -21 -14 -35q-13 -14 -35 -14q-19 0 -35 14l-71 70l-71 -70q-7 -7 -17 -11t-18 -3q-22 0 -35 14q-14 13 -14 35q0 9 3 18t11 17l70 71l-70 71q-14 14 -14 35q0 22 14 35q14 14 35 14q19 0 35 -14l71 -71l71 71q14 14 35 14q8 1 18 -3t17 -11 t11 -17t3 -18q0 -21 -14 -35l-71 -71z"/>
<glyph glyph-name="Oslash" horiz-adv-x="751" unicode="Ø" d="M381 100q49 0 91 20t75 53t51 79t18 98q0 38 -12 76t-32 71l-310 -364q57 -33 119 -33zM146 350q0 -36 11 -74t34 -72l309 362q-58 34 -119 34q-49 0 -91 -20t-75 -53t-51 -79t-18 -98zM642 568q34 -44 54 -100t20 -118q0 -72 -26 -136t-72 -112t-107 -74 q-61 -28 -130 -28q-48 0 -95 15t-89 42l-34 -38q-15 -19 -38 -19q-16 0 -32 12h1q-18 16 -18 38q0 17 12 32l36 44q-38 48 -58 106t-20 118q0 72 26 136t72 111t107 75t130 28q49 0 95 -15t89 -41l33 37q15 19 39 19q15 0 32 -12h-1q18 -17 18 -38q0 -15 -12 -32l-32 -37 v-13z"/>
<glyph glyph-name="Ugrave" horiz-adv-x="575" unicode="Ù" d="M292 0q-75 0 -130 34t-86 100q-10 22 -16 44t-9 39t-3 29t-1 14v391q0 21 15 35t35 14q21 0 35 -14t14 -35v-391q0 -4 2 -18t6 -30q5 -18 15 -38t26 -36t40 -28q24 -10 57 -10q48 0 76 22t44 48q15 28 20 54t5 36v391q0 21 15 35t35 14q21 0 35 -14t14 -35v-391v-14 t-4 -29q-3 -17 -9 -39t-16 -44q-31 -66 -86 -100t-129 -34zM352 746q-10 0 -23 5l-119 60q-20 8 -26 28q-3 8 -2 17q0 12 5 23q11 19 31 25q8 2 16 2q11 0 21 -5l120 -61h-1q18 -9 25 -28q3 -8 3 -16q0 -11 -6 -23q-6 -11 -18 -19t-26 -8z"/>
<glyph glyph-name="Uacute" horiz-adv-x="575" unicode="Ú" d="M291 0q-78 0 -132 34t-83 100q-11 23 -17 44q-7 21 -9 38q-2 16 -2 28t-1 16v391q0 21 15 35t35 14q21 0 35 -14t14 -35v-391q0 -10 5 -36t21 -54t44 -48q28 -22 75 -22q33 0 57 10t40 28q16 16 26 36t15 38t7 30q2 14 1 18v391q0 21 15 35t35 14q21 0 35 -14t14 -35 v-391v-14t-4 -29q-3 -17 -9 -39t-16 -44q-31 -66 -86 -100t-130 -34zM232 746q-14 0 -27 8t-19 19q-5 11 -5 22q0 9 3 17q7 20 25 28l119 61q11 5 22 5q8 0 16 -2q20 -6 29 -25q6 -12 6 -23q-1 -8 -3 -16q-6 -20 -24 -29l-120 -60q-5 -1 -11 -3t-11 -2z"/>
<glyph glyph-name="Ucircumflex" horiz-adv-x="575" unicode="Û" d="M292 0q-75 0 -130 34t-86 100q-10 22 -16 44t-9 39t-3 29t-1 14v391q0 21 15 35t35 14q21 0 35 -14t14 -35v-391q0 -4 2 -18t6 -30q5 -18 15 -38t26 -36t40 -28q24 -10 57 -10q48 0 76 22t44 48q15 28 20 54t5 36v391q0 21 15 35t35 14q21 0 35 -14t14 -35v-391v-14 t-4 -29q-3 -17 -9 -39t-16 -44q-31 -66 -86 -100t-129 -34zM291 906q5 0 12 -2t12 -3l119 -61h-1q19 -9 25 -28q3 -8 3 -16q0 -11 -5 -23q-8 -18 -28 -24q-8 -3 -17 -3q-11 0 -22 5l-98 49l-98 -49q-10 -5 -21 -5q-8 0 -16 2q-20 6 -28 25q-6 12 -6 24q0 8 2 15q6 19 26 28 h-1l120 61q5 1 11 3t11 2z"/>
<glyph glyph-name="Udieresis" horiz-adv-x="575" unicode="Ü" d="M291 0q-74 0 -129 34t-86 100q-10 22 -16 44t-9 39t-3 29t-1 14v391q0 21 15 35t35 14q21 0 35 -14t14 -35v-391q0 -10 5 -36t20 -54t44 -48q29 -22 77 -22q32 0 56 10t40 28q16 16 26 36t14 38q6 18 8 30q2 14 1 18v391q0 21 15 35t35 14q21 0 35 -14t14 -35v-391v-14 t-4 -29q-3 -17 -9 -39t-16 -44q-31 -66 -86 -100t-130 -34zM426 856q0 -20 -14 -35t-35 -15t-36 15t-15 35t15 35t36 15t35 -15t14 -35zM258 856q0 -20 -14 -35t-36 -15q-20 0 -35 15t-15 35t15 35t35 15q22 0 36 -15t14 -35z"/>
<glyph glyph-name="germandbls" d="M423 398q45 -28 67 -74t22 -106q0 -56 -18 -96t-48 -66q-29 -26 -65 -39t-71 -16v-1h-62q-20 0 -35 15t-15 35q0 21 15 36t35 15h60q8 1 26 5t35 17q4 3 11 9t14 16q7 11 12 28t5 42q-1 22 -11 51t-39 49q-19 12 -38 14t-21 2h-54q-20 0 -35 15t-15 35q0 22 15 36t35 15 h15q1 -1 17 1t33 12q13 6 25 22t13 51q-1 35 -13 51t-25 23t-25 9t-19 3l-1 1h-5t-4 -1h-112v-557q-1 -20 -15 -35t-36 -15q-20 0 -35 15t-15 35v608q0 20 15 35t35 15h168h10t20 -4q12 -2 28 -6t32 -13q47 -23 72 -65t25 -99q0 -63 -31 -108z" unicode="ß"/>
<glyph glyph-name="agrave" horiz-adv-x="488" unicode="à" d="M336 162l10 27q-14 1 -32 2t-34 1q-22 0 -46 -2t-42 -7q-20 -5 -32 -13t-13 -22q-1 -26 19 -36t43 -10q16 0 27 2t15 2q2 1 4 1q32 7 52 23t29 32zM450 117l1 -67q0 -20 -15 -35t-35 -15q-15 0 -29 10t-21 27q-32 -17 -68 -27t-74 -9q-63 0 -103 30t-55 86q-4 15 -4 32 q0 43 25 74q16 21 39 35t49 22t56 10q29 3 58 3q16 0 38 -1t36 -2q-4 20 -11 38t-17 23q-26 14 -57 14t-61 -12t-47 -26q-7 -7 -15 -9t-17 -2q-22 0 -39 17q-11 14 -11 33q0 24 18 38q29 26 65 40t78 20q8 1 14 1h13q27 1 56 -7t52 -19q28 -17 44 -43q17 -26 25 -50t10 -43 t2 -23v-163zM288 552l-121 60q-14 8 -21 20t-7 25q0 12 5 24q6 13 19 20t27 7q6 0 11 -2t11 -3q30 -15 60 -31t60 -30q14 -8 22 -20t7 -25q0 -6 -2 -12t-4 -11q-7 -13 -19 -20t-25 -7q-11 0 -23 5z"/>
<glyph glyph-name="aacute" horiz-adv-x="488" unicode="á" d="M336 162l10 27q-14 1 -32 2t-34 1q-22 0 -46 -2t-42 -7q-20 -5 -32 -13t-13 -22q-1 -26 19 -36t43 -10q16 0 27 2t15 2q2 1 4 1q32 7 52 23t29 32zM450 117l1 -67q0 -20 -15 -35t-35 -15q-15 0 -29 10t-21 27q-32 -17 -68 -27t-74 -9q-63 0 -103 30t-55 86q-4 15 -4 32 q0 43 25 74q16 21 39 35t49 22t56 10q29 3 58 3q16 0 38 -1t36 -2q-4 20 -11 38t-17 23q-26 14 -57 14t-61 -12t-47 -26q-7 -7 -15 -9t-17 -2q-22 0 -39 17q-11 14 -11 33q0 24 18 38q29 26 65 40t78 20q8 1 14 1h13q27 1 56 -7t52 -19q28 -17 44 -43q17 -26 25 -50t10 -43 t2 -23v-163zM188 547q-14 0 -26 7t-19 20q-5 12 -5 23q0 13 7 25t21 20l121 61q5 1 10 3t11 2q14 0 27 -7t19 -20q5 -12 5 -24q0 -13 -7 -25t-21 -20l-120 -60q-13 -5 -23 -5z"/>
<glyph glyph-name="acircumflex" horiz-adv-x="488" unicode="â" d="M336 162l10 27q-14 1 -32 2t-34 1q-22 0 -46 -2t-42 -7q-20 -5 -32 -13t-13 -22q-1 -26 19 -36t43 -10q16 0 27 2t15 2q2 1 4 1q32 7 52 23t29 32zM450 117l1 -67q0 -20 -15 -35t-35 -15q-15 0 -29 10t-21 27q-32 -17 -68 -27t-74 -9q-63 0 -103 30t-55 86q-4 15 -4 32 q0 43 25 74q16 21 39 35t49 22t56 10q29 3 58 3q16 0 38 -1t36 -2q-4 20 -11 38t-17 23q-26 14 -57 14t-61 -12t-47 -26q-7 -7 -15 -9t-17 -2q-22 0 -39 17q-11 14 -11 33q0 24 18 38q29 26 65 40t78 20q8 1 14 1h13q27 1 56 -7t52 -19q28 -17 44 -43q17 -26 25 -50t10 -43 t2 -23v-163zM248 708q5 0 12 -2t12 -3l121 -61h-1q28 -16 28 -44q0 -11 -5 -24q-14 -27 -45 -27q-11 0 -23 5l-99 49l-98 -49q-10 -5 -23 -5q-31 0 -45 27q-5 13 -5 24q0 28 28 44h-1l121 61q5 1 11 3t12 2z"/>
<glyph glyph-name="atilde" horiz-adv-x="488" unicode="ã" d="M336 162l10 27q-14 1 -32 2t-34 1q-22 0 -46 -2t-42 -7q-20 -5 -32 -13t-13 -22q-1 -26 19 -36t43 -10q16 0 27 2t15 2q2 1 4 1q32 7 52 23t29 32zM450 117l1 -67q0 -20 -15 -35t-35 -15q-15 0 -29 10t-21 27q-32 -17 -68 -27t-74 -9q-63 0 -103 30t-55 86q-4 15 -4 32 q0 43 25 74q16 21 39 35t49 22t56 10q29 3 58 3q16 0 38 -1t36 -2q-4 20 -11 38t-17 23q-26 14 -57 14t-61 -12t-47 -26q-7 -7 -15 -9t-17 -2q-22 0 -39 17q-11 14 -11 33q0 24 18 38q29 26 65 40t78 20q8 1 14 1h13q27 1 56 -7t52 -19q28 -17 44 -43q17 -26 25 -50t10 -43 t2 -23v-163zM294 577q-16 -1 -32 5t-29 13q-11 5 -21 9t-23 3q-9 -13 -21 -21t-26 -9q-20 0 -35 15t-15 35q0 10 5 24t17 27q12 14 34 22t55 8q17 0 31 -5t28 -11q10 -6 20 -10t26 -4q8 14 20 22t27 8q20 0 35 -15t15 -35q-1 -22 -9 -38t-23 -24q-15 -10 -35 -14t-44 -5z "/>
<glyph glyph-name="adieresis" horiz-adv-x="488" unicode="ä" d="M336 162l10 27q-14 1 -32 2t-34 1q-22 0 -46 -2t-42 -7q-20 -5 -32 -13t-13 -22q-1 -26 19 -36t43 -10q16 0 27 2t15 2q2 1 4 1q32 7 52 23t29 32zM450 117l1 -67q0 -20 -15 -35t-35 -15q-15 0 -29 10t-21 27q-32 -17 -68 -27t-74 -9q-63 0 -103 30t-55 86q-4 15 -4 32 q0 43 25 74q16 21 39 35t49 22t56 10q29 3 58 3q16 0 38 -1t36 -2q-4 20 -11 38t-17 23q-26 14 -57 14t-61 -12t-47 -26q-7 -7 -15 -9t-17 -2q-22 0 -39 17q-11 14 -11 33q0 24 18 38q29 26 65 40t78 20q8 1 14 1h13q27 1 56 -7t52 -19q28 -17 44 -43q17 -26 25 -50t10 -43 t2 -23v-163zM384 598q0 -21 -14 -36t-36 -15q-20 0 -35 15t-15 36q0 20 15 35t35 15q22 0 36 -15t14 -35zM215 598q0 -21 -15 -36t-35 -15q-21 0 -36 15t-15 36q0 20 15 35t36 15q20 0 35 -15t15 -35z"/>
<glyph glyph-name="ae" horiz-adv-x="780" unicode="æ" d="M644 293q-17 32 -41 52t-53 20q-26 0 -50 -20t-41 -52h185zM227 101q15 0 30 4q15 3 27 11t18 18q8 10 8 22t-8 22t-18 18q-12 8 -27 12t-30 5q-15 -1 -29 -5t-26 -12t-20 -18t-7 -22q-1 -12 7 -22t20 -18t26 -11q14 -4 29 -4zM752 243q0 -20 -15 -35t-35 -15h-249 q15 -36 39 -63t60 -29q2 0 10 1q8 0 21 4q12 4 26 12t28 24q15 16 37 16q19 0 33 -12q17 -16 17 -39q0 -20 -12 -33q-31 -34 -73 -54t-90 -20q-45 0 -85 24t-71 63q-29 -39 -72 -63t-94 -24q-37 0 -71 12t-58 34t-40 50q-14 28 -14 60q0 34 14 62t40 50q24 22 58 34t71 12 q29 0 59 -10t62 -29v90h-193q-21 1 -36 15t-15 35t15 36t36 15h243q14 0 26 -9t21 -25q53 34 105 34q40 0 78 -18t67 -48q25 -32 41 -72t16 -85z"/>
<glyph glyph-name="egrave" horiz-adv-x="488" unicode="è" d="M344 294q-18 32 -42 52t-53 20q-25 0 -49 -20t-42 -52h186zM264 0q-13 0 -17 1q-46 2 -85 21t-65 52q-50 64 -50 159q0 49 16 91q15 42 43 74t64 50t79 18q85 0 145 -66q28 -31 42 -71t15 -85q0 -21 -15 -36t-35 -15h-251q6 -16 14 -32t20 -29q12 -14 28 -22t39 -9h6 q13 1 33 3t43 17q16 8 29 8q14 0 26 -7t20 -21q5 -4 5 -21q0 -26 -24 -44q-35 -24 -69 -30t-56 -6zM288 552l-121 60q-14 8 -21 20t-7 25q0 12 5 24q6 13 19 20t27 7q6 0 11 -2t11 -3q30 -15 60 -31t60 -30q14 -8 22 -20t7 -25q0 -6 -2 -12t-4 -11q-7 -13 -19 -20t-25 -7 q-11 0 -23 5z"/>
<glyph glyph-name="eacute" horiz-adv-x="488" unicode="é" d="M344 294q-18 32 -42 52t-53 20q-25 0 -49 -20t-42 -52h186zM264 0q-13 0 -17 1q-46 2 -85 21t-65 52q-50 64 -50 159q0 49 16 91q15 42 43 74t64 50t79 18q85 0 145 -66q28 -31 42 -71t15 -85q0 -21 -15 -36t-35 -15h-251q6 -16 14 -32t20 -29q12 -14 28 -22t39 -9h6 q13 1 33 3t43 17q16 8 29 8q14 0 26 -7t20 -21q5 -4 5 -21q0 -26 -24 -44q-35 -24 -69 -30t-56 -6zM188 547q-14 0 -26 7t-19 20q-5 12 -5 23q0 13 7 25t21 20l121 61q5 1 10 3t11 2q14 0 27 -7t19 -20q5 -12 5 -24q0 -13 -7 -25t-21 -20l-120 -60q-13 -5 -23 -5z"/>
<glyph glyph-name="ecircumflex" horiz-adv-x="488" unicode="ê" d="M344 294q-18 32 -42 52t-53 20q-25 0 -49 -20t-42 -52h186zM264 0q-13 0 -17 1q-46 2 -85 21t-65 52q-50 64 -50 159q0 49 16 91q15 42 43 74t64 50t79 18q85 0 145 -66q28 -31 42 -71t15 -85q0 -21 -15 -36t-35 -15h-251q6 -16 14 -32t20 -29q12 -14 28 -22t39 -9h6 q13 1 33 3t43 17q16 8 29 8q14 0 26 -7t20 -21q5 -4 5 -21q0 -26 -24 -44q-35 -24 -69 -30t-56 -6zM248 708q5 0 12 -2t12 -3l121 -61h-1q28 -16 28 -44q0 -11 -5 -24q-14 -27 -45 -27q-11 0 -23 5l-99 49l-98 -49q-10 -5 -23 -5q-31 0 -45 27q-5 13 -5 24q0 28 28 44h-1 l121 61q5 1 11 3t12 2z"/>
<glyph glyph-name="edieresis" horiz-adv-x="488" unicode="ë" d="M344 294q-18 32 -42 52t-53 20q-25 0 -49 -20t-42 -52h186zM264 0q-13 0 -17 1q-46 2 -85 21t-65 52q-50 64 -50 159q0 49 16 91q15 42 43 74t64 50t79 18q85 0 145 -66q28 -31 42 -71t15 -85q0 -21 -15 -36t-35 -15h-251q6 -16 14 -32t20 -29q12 -14 28 -22t39 -9h6 q13 1 33 3t43 17q16 8 29 8q14 0 26 -7t20 -21q5 -4 5 -21q0 -26 -24 -44q-35 -24 -69 -30t-56 -6zM384 598q0 -21 -14 -36t-36 -15q-20 0 -35 15t-15 36q0 20 15 35t35 15q22 0 36 -15t14 -35zM215 598q0 -21 -15 -36t-35 -15q-21 0 -36 15t-15 36q0 20 15 35t36 15 q20 0 35 -15t15 -35z"/>
<glyph glyph-name="igrave" horiz-adv-x="313" unicode="ì" d="M108 415q0 21 15 36t36 15q20 0 35 -15t15 -36v-365q0 -20 -15 -35t-35 -15q-21 0 -36 15t-15 35v365zM198 552l-121 60q-14 8 -21 20t-7 25q0 12 5 24q6 13 19 20t27 7q6 0 11 -1.5t11 -3.5q30 -15 60 -31t61 -30q28 -16 28 -45q0 -13 -6 -23q-6 -13 -18.5 -20t-25.5 -7 q-11 0 -23 5z"/>
<glyph glyph-name="iacute" horiz-adv-x="313" unicode="í" d="M159 0q-20 0 -35 15t-15 35v365q0 21 15 36t35 15q21 0 36 -15t15 -36v-365q0 -20 -15 -35t-36 -15zM99 547q-14 0 -26.5 7t-18.5 20q-5 12 -5 23q0 14 7 25.5t21 19.5l121 61q5 2 10 3.5t12 1.5q14 0 26.5 -7t18.5 -20q6 -11 6 -24t-7 -25t-21 -20l-121 -60 q-13 -5 -23 -5z"/>
<glyph glyph-name="icircumflex" horiz-adv-x="429" unicode="î" d="M168 415q0 21 15 36t36 15t35 -15t15 -36v-365q-1 -20 -15 -35t-35 -15t-36 15t-15 35v365zM218 708q14 0 24 -5l121 -61h-1q28 -16 28 -44q0 -11 -5 -24q-7 -14 -19 -20t-26 -7q-10 0 -23 5l-99 49l-97 -49q-12 -5 -23 -5q-14 0 -26 7t-19 20q-5 13 -5 24q0 28 28 44h-1 l121 61q5 1 11 3t11 2z"/>
<glyph glyph-name="idieresis" horiz-adv-x="360" unicode="ï" d="M183 0q-20 0 -35 15t-15 35v365q0 21 15 36t35 15q21 0 36 -15t15 -36v-365q0 -20 -15 -35t-36 -15zM319 598q0 -21 -15 -36t-35 -15t-35 15t-15 36q0 20 15 35t35 15t35 -15t15 -35zM149 598q0 -21 -15 -36t-35 -15q-21 0 -36 15t-15 36q0 20 15 35t36 15q20 0 35 -15 t15 -35z"/>
<glyph glyph-name="ntilde" horiz-adv-x="488" unicode="ñ" d="M401 466q20 0 35 -15t15 -36v-365q0 -16 -9 -29t-24 -18q-8 -3 -18 -3t-20 6t-17 12l-215 258v-226q0 -20 -15 -35t-36 -15q-20 0 -35 15t-15 35v365q1 16 9 29t23 19q4 3 9 3h10q10 0 20 -6t18 -12l215 -257v224q0 21 15 36t35 15zM294 577q-16 -1 -32 5t-29 13 q-11 5 -21 9t-23 3q-9 -13 -21 -21t-26 -9q-20 0 -35 15t-15 35q0 10 5 24t17 27q12 14 34 22t55 8q17 0 31 -5t28 -11q10 -6 20 -10t26 -4q8 14 20 22t27 8q20 0 35 -15t15 -35q-1 -22 -9 -38t-23 -24q-15 -10 -35 -14t-44 -5z"/>
<glyph glyph-name="ograve" d="M279 101q28 0 52 10t42 28t28 42t10 51q0 28 -10 52t-28 42t-42 28t-52 11q-27 -1 -51 -11t-42 -28t-28 -42t-11 -52q1 -27 11 -51t28 -42t42 -28t51 -10zM279 466q49 0 91 -18t74 -51t50 -75t18 -90t-18 -90t-50 -74t-74 -50t-91 -18t-91 18t-74 50t-50 74t-18 90t18 90 t50 75t74 51t91 18zM318 552l-121 60q-14 8 -21 20t-7 25t6 24q7 13 19 20t26 7q7 0 12 -2t10 -3q31 -15 61 -31t60 -30q14 -8 21 -20t7 -25q0 -11 -5 -23q-6 -13 -18 -20t-27 -7q-10 0 -23 5z" unicode="ò"/>
<glyph glyph-name="oacute" d="M279 101q28 0 52 10t42 28t28 42t10 51q0 28 -10 52t-28 42t-42 28t-52 11q-27 -1 -51 -11t-42 -28t-28 -42t-11 -52q1 -27 11 -51t28 -42t42 -28t51 -10zM279 466q49 0 91 -18t74 -51t50 -75t18 -90t-18 -90t-50 -74t-74 -50t-91 -18t-91 18t-74 50t-50 74t-18 90t18 90 t50 75t74 51t91 18zM218 547q-14 0 -26 7t-19 20q-5 12 -5 23q0 29 28 45l121 61q6 1 11 3t11 2q14 0 27 -7t19 -20q5 -12 5 -24q0 -13 -7 -25t-21 -20l-121 -60q-12 -5 -23 -5z" unicode="ó"/>
<glyph glyph-name="ocircumflex" d="M279 101q28 0 52 10t42 28t28 42t10 51q0 28 -10 52t-28 42t-42 28t-52 11q-27 -1 -51 -11t-42 -28t-28 -42t-11 -52q1 -27 11 -51t28 -42t42 -28t51 -10zM279 466q49 0 91 -18t74 -51t50 -75t18 -90t-18 -90t-50 -74t-74 -50t-91 -18t-91 18t-74 50t-50 74t-18 90t18 90 t50 75t74 51t91 18zM279 708q12 0 24 -5l120 -61h-1q29 -16 29 -44q0 -6 -2 -12l-4 -12q-6 -14 -18 -20t-26 -7q-11 0 -23 5l-99 49l-98 -49q-10 -5 -23 -5q-14 0 -26 7t-19 20q-5 13 -5 24q0 28 28 44h-1l121 61q10 5 23 5z" unicode="ô"/>
<glyph glyph-name="otilde" d="M279 101q28 0 52 10t42 28t28 42t10 51q0 28 -10 52t-28 42t-42 28t-52 11q-27 -1 -51 -11t-42 -28t-28 -42t-11 -52q1 -27 11 -51t28 -42t42 -28t51 -10zM279 466q49 0 91 -18t74 -51t50 -75t18 -90t-18 -90t-50 -74t-74 -50t-91 -18t-91 18t-74 50t-50 74t-18 90t18 90 t50 75t74 51t91 18zM325 577q-17 -1 -33 5t-28 13q-11 5 -21 9t-24 3q-9 -13 -21 -21t-26 -9q-20 0 -35 15t-15 35q0 10 5 24t17 27q12 14 35 22q22 8 55 8q18 0 32 -5t26 -11q10 -6 20 -10t27 -4q9 14 21 22t26 8q20 0 35 -15t15 -35q0 -22 -8 -38t-24 -24q-16 -10 -36 -14 t-43 -5z" unicode="õ"/>
<glyph glyph-name="odieresis" d="M279 101q28 0 52 10t42 28t28 42t10 51q0 28 -10 52t-28 42t-42 28t-52 11q-27 -1 -51 -11t-42 -28t-28 -42t-11 -52q1 -27 11 -51t28 -42t42 -28t51 -10zM279 466q49 0 91 -18t74 -51t50 -75t18 -90t-18 -90t-50 -74t-74 -50t-91 -18t-91 18t-74 50t-50 74t-18 90t18 90 t50 75t74 51t91 18zM415 598q0 -21 -15 -36t-35 -15t-35 15t-15 36q0 20 15 35t35 15t35 -15t15 -35zM245 598q0 -21 -15 -36t-35 -15q-21 0 -36 15t-15 36q0 20 15 35t36 15q20 0 35 -15t15 -35z" unicode="ö"/>
<glyph glyph-name="oslash" horiz-adv-x="518" unicode="ø" d="M264 101q18 0 46 7l-157 171q-1 -15 -3 -27t-2 -20q0 -27 10 -51t24 -42q16 -18 37 -28t45 -10zM264 365q-15 0 -45 -8l158 -173q2 14 3 26t1 22q1 28 -9 52t-26 42t-36 28q-22 10 -46 11zM469 84q13 -13 13 -34q0 -22 -17 -38q-14 -12 -34 -12q-9 0 -19 4t-18 13l-17 17 q-57 -34 -113 -34q-44 0 -84 18t-70 50t-46 74q-17 42 -17 90q0 64 35 125l-22 24q-13 14 -13 35t15 35q16 14 36 14q21 0 37 -16l17 -18q26 17 55 26t57 9q44 0 84 -18t70 -51t47 -75t17 -90q0 -30 -9 -62t-26 -63z"/>
<glyph glyph-name="ugrave" horiz-adv-x="454" unicode="ù" d="M270 552l-121 60q-14 8 -21 20t-7 25t6 24q7 13 19 20t26 7q7 0 12 -2t10 -3q31 -15 61 -31t60 -30q14 -8 21 -20t7 -25q0 -11 -5 -23q-6 -13 -18 -20t-27 -7q-10 0 -23 5zM98 466q20 0 35 -15t15 -36v-237q0 -2 2 -16t11 -28q6 -11 22 -22t49 -11q34 0 49 11t22 22 q8 14 10 28t2 16v237q0 21 15 36t35 15q21 0 36 -15t15 -36v-237q0 -4 -3 -30t-20 -56q-23 -44 -65 -68t-96 -24q-56 0 -98 24t-64 68q-17 30 -20 56t-3 30v237q0 21 15 36t36 15z"/>
<glyph glyph-name="uacute" horiz-adv-x="454" unicode="ú" d="M365 466q20 0 35 -15t15 -36v-237q0 -4 -3 -30t-19 -56q-23 -44 -65 -68t-96 -24q-56 0 -98 24t-64 68q-17 30 -20 56t-3 30v237q0 21 15 36t35 15q21 0 36 -15t15 -36v-237q0 -2 2 -16t10 -28q8 -11 22 -22t50 -11q34 0 49 11t22 22q8 14 10 28t2 16v237q0 21 15 36 t35 15zM170 547q-14 0 -26 7t-19 20q-5 12 -5 23q0 29 28 45l121 61q6 1 11 3t11 2q14 0 27 -7t19 -20q5 -12 5 -24q0 -13 -7 -25t-21 -20l-121 -60q-12 -5 -23 -5z"/>
<glyph glyph-name="ucircumflex" horiz-adv-x="454" unicode="û" d="M365 466q20 0 35 -15t15 -36v-237q0 -4 -3 -30t-19 -56q-23 -44 -65 -68t-96 -24q-56 0 -98 24t-64 68q-17 30 -20 56t-3 30v237q0 21 15 36t35 15q21 0 36 -15t15 -36v-237q0 -2 2 -16t10 -28q8 -11 22 -22t50 -11q34 0 49 11t22 22q8 14 10 28t2 16v237q0 21 15 36 t35 15zM231 708q12 0 24 -5l120 -61h-1q29 -16 29 -44q0 -6 -2 -12l-4 -12q-6 -14 -18 -20t-26 -7q-11 0 -23 5l-99 49l-98 -49q-10 -5 -23 -5q-14 0 -26 7t-19 20q-5 13 -5 24q0 28 28 44h-1l121 61q10 5 23 5z"/>
<glyph glyph-name="udieresis" horiz-adv-x="454" unicode="ü" d="M365 466q20 0 35 -15t15 -36v-237q0 -4 -3 -30t-19 -56q-23 -44 -65 -68t-96 -24q-56 0 -98 23t-65 68q-16 31 -19 57t-3 30v237q0 21 15 36t35 15q21 0 36 -15t15 -36v-237q0 -2 2 -16t10 -28q8 -11 22 -22t50 -11q34 0 49 11t22 22q8 14 10 28t2 16v237q0 21 15 36 t35 15zM367 598q0 -21 -15 -36t-35 -15t-35 15t-15 36q0 20 15 35t35 15t35 -15t15 -35zM197 598q0 -21 -15 -36t-35 -15q-21 0 -36 15t-15 36q0 20 15 35t36 15q20 0 35 -15t15 -35z"/>
<glyph glyph-name="yacute" horiz-adv-x="529" unicode="ý" d="M488 393l-172 -363l-8 -12l-104 -232q-8 -12 -20 -20t-26 -9q-5 0 -11 1t-11 3q-14 7 -21 19t-7 27q0 13 4 21l101 224l-161 341l-4 10t-1 12q0 15 7 27t21 18q10 6 22 6q15 0 27 -8t18 -22l129 -268l127 268q8 12 20 21t25 9q11 0 22 -6q14 -6 21 -18t7 -27q1 -7 -1 -12 zM209 562q-14 0 -26 8t-19 20q-5 12 -5 22q0 14 7 26t21 19h-1l122 62q12 5 22 5q14 0 26 -7t20 -20q5 -12 5 -23q0 -14 -8 -27t-19 -19l-122 -60q-5 -2 -11 -4t-12 -2z"/>
<glyph glyph-name="oe" horiz-adv-x="848" unicode="œ" d="M715 294q-17 32 -41 52t-54 20q-25 0 -49 -20t-41 -52h185zM276 101q27 0 51 10t42 28q19 18 29 42t10 51q0 28 -10 52t-29 42q-18 18 -42 28t-51 11q-27 -1 -51 -11t-42 -28q-19 -18 -29 -42t-10 -52q0 -27 10 -51t29 -42q18 -18 42 -28t51 -10zM822 244q0 -21 -15 -36 t-35 -15h-251q5 -16 13 -32t21 -29q13 -14 29 -22t38 -9h7q12 1 33 3t43 17q14 8 28 8q29 0 47 -28q4 -4 4 -21q0 -12 -6 -24t-18 -20q-36 -24 -70 -30t-55 -6q-13 0 -17 1q-94 5 -150 73l-12 12q-35 -40 -82 -63t-98 -23q-48 0 -90 18t-74 50t-50 74t-19 90q1 48 19 90 t50 75t74 51t90 18q51 0 99 -25t85 -67q32 42 74 67t86 25q42 0 79 -17t66 -49q29 -31 43 -71t14 -85z"/>
<glyph glyph-name="Ydieresis" horiz-adv-x="605" unicode="Ÿ" d="M440 856q0 -20 -14 -35t-35 -15q-20 0 -35 15t-15 35t15 35t35 15q21 0 35 -15t14 -35zM272 856q0 -20 -14 -35t-35 -15t-35 15t-15 35q1 20 15 35t35 15t35 -15t14 -35zM545 691q22 -16 22 -40q0 -17 -9 -29l-201 -287v-286q0 -21 -15 -35t-36 -14q-20 0 -34 14t-15 35 v286l-201 287q-9 12 -9 25q0 21 13 37t36 16q26 0 42 -22l168 -241l170 241q16 22 41 22q16 0 28 -9z"/>
<glyph glyph-name="circumflex" horiz-adv-x="429" unicode="ˆ" d="M217 906q5 0 12 -2t12 -3l119 -61h-1q14 -6 21 -18t7 -25q0 -11 -5 -24q-6 -13 -18 -20t-26 -7q-11 0 -23 5l-98 49l-97 -49q-10 -5 -22 -5q-14 0 -26 8t-19 19q-5 13 -5 24q0 13 8 25t20 18h-1l119 61q12 5 23 5z"/>
<glyph glyph-name="tilde" horiz-adv-x="401" unicode="˜" d="M248 776q-17 0 -32 6t-27 12q-11 4 -21 8t-24 4q-8 -14 -20 -22t-26 -8q-20 0 -34 15t-15 35q0 10 5 24t17 26q11 12 33 22q22 8 55 8q17 0 31 -5t26 -12q10 -5 20 -9t27 -4q8 14 20 22t26 8q21 0 35 -15t14 -35q0 -44 -32 -62t-78 -18z"/>
<glyph glyph-name="Gamma" horiz-adv-x="427" unicode="Γ" d="M336 700q20 0 34 -15t15 -35q-1 -20 -15 -35t-34 -15h-188v-551q0 -21 -14 -35t-36 -14q-20 0 -35 14t-15 35v602q0 21 15 35t36 14h237z"/>
<glyph glyph-name="Epsilon" horiz-adv-x="488" unicode="Ε" d="M147 301v-201h251q20 0 34 -15t15 -36q-1 -21 -15 -35t-34 -14h-301q-21 0 -35 14t-14 35v602q0 21 14 35t35 14h301q20 0 34 -14t15 -35q-1 -21 -15 -36t-34 -15h-251v-201h251q20 -1 34 -15t15 -34q-1 -20 -15 -34t-34 -15h-251z"/>
<glyph glyph-name="Theta" horiz-adv-x="780" unicode="Θ" d="M396 429q32 1 56 -23t23 -56q1 -32 -23 -56t-56 -24q-34 0 -58 24t-23 56q1 16 7 30t17 26q11 10 25 16t32 7zM573 173q37 37 55 83t18 94t-18 94t-55 83q-36 35 -81 54t-96 19q-50 0 -96 -19t-81 -54q-37 -37 -55 -83t-18 -94q0 -49 18 -95t55 -82q35 -35 81 -54t96 -19 q51 0 96 19t81 54zM643 597q51 -51 77 -115t26 -132q0 -69 -26 -133t-77 -115q-50 -50 -114 -76t-133 -26q-72 0 -134 26t-114 76q-50 51 -76 115t-26 133q0 68 26 132t76 115q51 51 114 77t134 26q68 0 132 -26t115 -77z"/>
<glyph glyph-name="Iota" horiz-adv-x="314" unicode="Ι" d="M219 100q21 0 35.5 -15t14.5 -36q0 -20 -14.5 -34.5t-35.5 -14.5h-119q-21 0 -36 14.5t-15 34.5q0 21 17.5 36t43.5 15v500q-26 0 -43.5 15t-17.5 36q0 20 15 34.5t36 14.5h119q21 0 35.5 -14.5t14.5 -34.5q0 -21 -17 -36t-43 -15v-490z"/>
<glyph glyph-name="Lambda" horiz-adv-x="606" unicode="Λ" d="M565 67q3 -9 3 -18q0 -11 -4 -21q-8 -19 -29 -26v1q-9 -3 -18 -3q-15 0 -29 9q-13 9 -18 24l-163 465q-18 -53 -39 -112l-42 -120l-42 -120t-39 -113q-9 -17 -27 -27q-12 -6 -25 -6q-6 0 -12 2q-20 7 -29 26q-5 11 -5 22q0 9 3 17l210 600q5 15 18 24t29 9q17 0 30 -9 t18 -24z"/>
<glyph glyph-name="Xi" horiz-adv-x="546" unicode="Ξ" d="M401 399q21 -1 35 -15t14 -34t-14 -34t-35 -15h-244q-20 1 -35 15t-15 34t15 34t35 15h244zM457 100q20 0 35 -15t15 -36t-15 -35t-35 -14h-360q-20 0 -35 14t-15 35t15 36t35 15h360zM97 600q-20 0 -35 15t-15 36t15 35t35 14h360q20 0 35 -14t15 -35t-15 -36t-35 -15 h-360z"/>
<glyph glyph-name="Pi" horiz-adv-x="488" unicode="Π" d="M398 700q20 0 34 -14t15 -35v-602q-1 -21 -15 -35t-34 -14t-35 14t-15 35v551h-200v-551q0 -21 -15 -35t-36 -14t-35 14t-14 35v602q0 21 14 35t35 14h301z"/>
<glyph glyph-name="theta" horiz-adv-x="780" unicode="θ" d="M398 101q44 0 84 15t73 41q33 27 57 63t35 80h-498q11 -44 35 -80t57 -63q33 -26 73 -41t84 -15zM398 607q-46 1 -86 -15t-73 -44t-57 -65q-24 -38 -34 -82h500q-10 44 -34 82q-24 37 -57 65t-73 44t-86 15zM398 708q74 0 138 -28t112 -76t76 -112t28 -138t-28 -138 t-76 -112t-112 -76t-138 -28t-138 28t-112 76t-76 112t-28 138t28 138t76 112t112 76t138 28z"/>
<glyph glyph-name="upsilon" horiz-adv-x="522" unicode="υ" d="M304 376q-1 0 -1 1l3 -1h-2zM370 455q2 -2 20 -18q18 -15 40 -43q20 -28 38 -67t18 -85q0 -25 -6 -52q-7 -28 -23 -62t-48 -63q-70 -65 -179 -65q-55 0 -96 24t-64 68q-17 30 -20 56t-3 30v237q0 21 15 36t35 15t35 -15t15 -36v-239v-1q0 -1 1 -2q1 -6 3 -17t8 -22 q9 -11 23 -22t48 -11q62 -1 100 29t52 85q3 12 3 27q0 24 -10 46q-9 22 -23 40t-27 32q-13 13 -19 16l3 -1q-20 15 -20 41q0 15 11 29q15 20 40 20q15 0 30 -10z"/>
<glyph glyph-name="phi" d="M345 240q30 17 48 47t18 67t-22 70t-59 54v-229zM147 354q1 -37 23 -70t59 -54v248q-37 -21 -59 -54t-23 -70zM338 579q37 -10 69 -31q31 -20 55 -50t37 -66t13 -78q0 -40 -14 -77t-38 -67t-58 -52t-72 -31v-77q0 -20 -15 -35t-35 -15q-21 0 -36 15t-15 35v77 q-39 9 -73 31t-58 52t-38 67t-14 77q0 42 14 78t38 66t58 52t73 31v77q0 20 15 35t36 15q20 0 35 -15t15 -35v-68z" unicode="φ"/>
<glyph glyph-name="chi" horiz-adv-x="634" unicode="χ" d="M564 99q18 -5 28 -18t10 -30v-5q-1 -3 -2 -7q-5 -19 -18 -29t-30 -10q-4 0 -13 2q-45 12 -79 35t-60 57t-50 76q-24 43 -48 96q-31 -56 -66 -120t-66 -120q-7 -12 -19 -19t-24 -7q-13 0 -25 6q-14 8 -20 20t-6 25q0 12 6 24l168 303q-38 70 -84 128t-102 113q-9 7 -14 17 t-5 22q0 17 12 32q7 10 17 14t21 4q19 0 33 -11q0 -1 16 -15t40 -40t56 -66t66 -95l110 201q8 14 20 20t24 6t24 -6q14 -7 20 -19t7 -25q0 -8 -7 -24l-142 -259l22 -47q28 -60 48 -100t40 -66t41 -40t51 -23z"/>
<glyph glyph-name="dagger" d="M457 520q21 0 36 -15t15 -36t-15 -35t-36 -14h-134v-371q-1 -21 -15 -35t-35 -14q-20 0 -35 14t-15 35v371h-126q-20 0 -35 14t-15 35t15 36t35 15h126v131q0 21 15 35t35 14q21 0 35 -14t15 -35v-131h134z" unicode="†"/>
<glyph glyph-name="daggerdbl" d="M457 280q21 0 36 -15t15 -35t-15 -35t-36 -15h-134v-131q-1 -21 -15 -35t-35 -14q-20 0 -35 14t-15 35v131h-126q-20 0 -35 15t-15 35t15 35t35 15h126v140h-126q-20 0 -35 14t-15 35t15 36t35 15h126v131q0 21 15 35t35 14q21 0 35 -14t15 -35v-131h134q21 0 36 -15 t15 -36t-15 -35t-36 -14h-134v-140h134z" unicode="‡"/>
<glyph glyph-name="ellipsis" horiz-adv-x="506" unicode="…" d="M97 100q21 0 36 -15t15 -36t-15 -35t-36 -14t-35 14t-14 35t14 36t35 15zM415 100q21 0 36 -15t15 -36t-15 -35t-36 -14t-35 14t-14 35t14 36t35 15zM257 100q21 0 35 -15t15 -36q-1 -21 -15 -35t-35 -14q-20 0 -35 14t-15 35t15 36t35 15z"/>
<glyph glyph-name="guilsinglleft" horiz-adv-x="386" unicode="‹" d="M293 105q-21 0 -35 14l-195 196q-14 14 -14 35q0 19 14 35l195 196q13 14 36 14q19 0 35 -14q14 -17 14 -36q0 -21 -14 -35l-161 -160l161 -160q14 -14 14 -35q0 -19 -14 -36q-17 -14 -36 -14z"/>
<glyph glyph-name="guilsinglright" horiz-adv-x="386" unicode="›" d="M99 105q-20 0 -36 14q-14 17 -14 36q0 21 14 35l161 160l-161 160q-14 14 -14 35q0 19 14 36q14 14 35 14q10 0 20 -3t16 -11l195 -196q14 -16 14 -35q0 -21 -14 -35l-195 -196q-8 -8 -17 -11t-18 -3z"/>
<glyph glyph-name="fraction" horiz-adv-x="313" unicode="⁄" d="M228 699q18 -3 29 -17t11 -32q0 -6 -1 -10l-120 -600q-3 -18 -17 -29t-31 -11h-5t-5 1q-17 3 -29 17t-11 32q0 6 1 10l121 600q3 18 17 29t31 11q5 0 9 -1z"/>
<glyph glyph-name="Euro" horiz-adv-x="664" unicode="€" d="M622 95q5 -13 5 -23q1 -20 -17 -34t-44 -22t-56 -12t-54 -4q-54 0 -102 16t-90 42q-42 28 -74 66q-33 38 -55 86h-39q-20 0 -34 14t-15 35t17 36t45 15q-3 10 -3 21v19v14v14t1 12q-26 0 -43 15t-17 35q1 20 15 35t34 15h39q21 46 54 85t75 67t90 42q48 16 102 16 q24 0 54 -4t56 -12t44 -22t17 -34q0 -8 -5 -23q-6 -14 -18 -22t-27 -8q-8 0 -20 5q-46 20 -101 20q-59 0 -113 -30t-96 -80h239q21 0 36 -15t15 -35t-15 -35t-36 -15h-277q-3 -21 -3 -40v-19t3 -21h277q21 0 36 -15t15 -36t-15 -35t-36 -14h-239q42 -50 96 -80t113 -30 q55 0 101 20q3 2 9 4t11 1q15 0 27 -8t18 -22z"/>
<glyph glyph-name="trademark" horiz-adv-x="833" unicode="™"/>
<glyph glyph-name="product" horiz-adv-x="635" unicode="∏" d="M547 0q-21 0 -35 14t-14 35v551h-351v-551q0 -21 -15 -35t-36 -14q-20 0 -34 14t-15 35v602q1 21 15 35t35 14h450q21 0 36 -14t15 -35v-602q0 -21 -15 -35t-36 -14z"/>
<glyph glyph-name="summation" d="M97 0q-31 0 -44 27q-2 5 -4 11t-2 11q0 7 3 15t7 14l194 272q-45 66 -97 136t-97 136q-4 6 -7 14t-3 15q0 5 2 11t4 11q13 27 44 27h360q21 0 36 -14t15 -35t-15 -36t-36 -15h-263l160 -221q4 -5 6 -13t2 -16t-2 -16t-6 -13l-160 -221h263q21 0 36 -15t15 -36t-15 -35 t-36 -14h-360z" unicode="∑"/>
<glyph glyph-name="minus" horiz-adv-x="529" unicode="−" d="M439 402q21 0 35 -14t15 -35q-1 -21 -15 -35t-35 -14h-341q-22 0 -36 14t-14 35t14 35t36 14h341z"/>
<glyph glyph-name="lessequal" horiz-adv-x="488" unicode="≤" d="M398 100q20 0 34 -15t15 -36q-1 -21 -15 -35t-34 -14h-301q-21 0 -35 14t-14 35t14 36t35 15h301zM137 315q-14 13 -14 35t14 35l151 150q13 15 35 15q18 0 35 -15q14 -14 14 -35q0 -18 -14 -35l-115 -115l25 -25q16 -15 32 -31l32 -32l26 -26q14 -17 14 -36 q0 -21 -14 -35q-15 -15 -35 -15q-22 0 -35 15z"/>
<glyph glyph-name="greaterequal" horiz-adv-x="488" unicode="≥" d="M398 100q20 0 34 -15t15 -36q-1 -21 -15 -35t-34 -14h-301q-21 0 -35 14t-14 35t14 36t35 15h301zM207 165q-14 -15 -35 -15q-20 0 -35 15q-14 14 -14 35q0 19 14 36l115 114q-25 26 -57 58t-58 57q-14 17 -14 35q0 21 14 35q16 15 35 15q21 0 35 -15l151 -150 q14 -13 14 -35t-14 -35z"/>
<glyph glyph-name="lozenge" horiz-adv-x="664" unicode="◊" d="M513 350l-176 220l-177 -220l177 -220zM616 381q5 -7 8 -15t3 -16t-3 -16t-8 -15l-241 -300q-7 -11 -17 -15t-21 -4q-26 0 -39 19l-241 300q-5 7 -7 15t-3 16q0 19 11 31l240 300q13 19 39 19q11 0 21 -4t17 -15z"/>
</font>
</defs>
</svg>
